G75*
%MOIN*%
%OFA0B0*%
%FSLAX25Y25*%
%IPPOS*%
%LPD*%
%AMOC8*
5,1,8,0,0,1.08239X$1,22.5*
%
%ADD10C,0.02178*%
%ADD11C,0.00600*%
%ADD12C,0.01000*%
D10*
X0031663Y0012137D03*
X0031710Y0021492D03*
X0031663Y0031830D03*
X0031483Y0041695D03*
X0020058Y0053169D03*
X0007747Y0052911D03*
X0007691Y0063117D03*
X0013177Y0071282D03*
X0007860Y0075445D03*
X0031235Y0088321D03*
X0033879Y0097495D03*
X0033081Y0110603D03*
X0033091Y0114676D03*
X0043120Y0123175D03*
X0040354Y0125923D03*
X0043201Y0134311D03*
X0051053Y0132754D03*
X0053739Y0136382D03*
X0058040Y0136357D03*
X0056259Y0130123D03*
X0056298Y0125516D03*
X0078635Y0135163D03*
X0079518Y0151547D03*
X0070506Y0151351D03*
X0060221Y0151351D03*
X0050344Y0151325D03*
X0039093Y0151036D03*
X0027683Y0150954D03*
X0015176Y0150743D03*
X0014120Y0173346D03*
X0021994Y0173346D03*
X0029868Y0173346D03*
X0037742Y0173346D03*
X0045616Y0173346D03*
X0053490Y0173346D03*
X0061364Y0173346D03*
X0069238Y0173346D03*
X0077112Y0173346D03*
X0077112Y0196968D03*
X0084986Y0196968D03*
X0069238Y0196968D03*
X0061364Y0196968D03*
X0053490Y0196968D03*
X0045616Y0196968D03*
X0037742Y0196968D03*
X0029868Y0196968D03*
X0021994Y0196968D03*
X0014120Y0196968D03*
X0093745Y0151779D03*
X0105932Y0135976D03*
X0086357Y0114611D03*
X0085857Y0107829D03*
X0091770Y0107376D03*
X0099369Y0100713D03*
X0100140Y0093267D03*
X0104281Y0087727D03*
X0104607Y0081579D03*
X0104940Y0071793D03*
X0090260Y0069293D03*
X0090243Y0065436D03*
X0082341Y0077919D03*
X0082388Y0082812D03*
X0085668Y0085831D03*
X0075471Y0064808D03*
X0067213Y0063005D03*
X0062971Y0062989D03*
X0061763Y0054129D03*
X0069970Y0046359D03*
X0076613Y0048036D03*
X0081409Y0046377D03*
X0078952Y0042272D03*
X0093719Y0037759D03*
X0099113Y0037844D03*
X0106153Y0031699D03*
X0103938Y0011660D03*
X0092562Y0011303D03*
X0052957Y0012321D03*
X0042025Y0012203D03*
X0051235Y0046250D03*
X0046475Y0051206D03*
X0037483Y0078505D03*
X0017269Y0108921D03*
X0123882Y0104539D03*
X3745421Y0084261D03*
X3745421Y0076387D03*
X3745421Y0068513D03*
X3745421Y0060639D03*
X3745421Y0052765D03*
X3745421Y0044891D03*
X3745421Y0037017D03*
X3745421Y0029143D03*
X3745421Y0021269D03*
X3745421Y0013395D03*
X3769043Y0013395D03*
X3769043Y0021269D03*
X3769043Y0029143D03*
X3769043Y0037017D03*
X3769043Y0044891D03*
X3769043Y0052765D03*
X3769043Y0060639D03*
X3769043Y0068513D03*
X3769043Y0076387D03*
X3790843Y0078793D03*
X3791039Y0069781D03*
X3791039Y0059496D03*
X3791064Y0049619D03*
X3791353Y0038368D03*
X3791435Y0026959D03*
X3791647Y0014451D03*
X3808079Y0042476D03*
X3809636Y0050328D03*
X3806007Y0053014D03*
X3806032Y0057315D03*
X3812267Y0055534D03*
X3816873Y0055573D03*
X3819215Y0042395D03*
X3816466Y0039629D03*
X3827713Y0032366D03*
X3831787Y0032357D03*
X3844895Y0033155D03*
X3854069Y0030510D03*
X3863884Y0036758D03*
X3871108Y0012452D03*
X3866945Y0007135D03*
X3879273Y0006966D03*
X3889478Y0007022D03*
X3889221Y0019333D03*
X3900695Y0030758D03*
X3910560Y0030938D03*
X3920897Y0030985D03*
X3930253Y0030938D03*
X3930186Y0041300D03*
X3930069Y0052233D03*
X3896139Y0050510D03*
X3891184Y0045750D03*
X3888260Y0061038D03*
X3879401Y0062246D03*
X3879385Y0066488D03*
X3877582Y0074746D03*
X3876954Y0089518D03*
X3873096Y0089535D03*
X3864470Y0081616D03*
X3859578Y0081664D03*
X3856558Y0084943D03*
X3849123Y0099416D03*
X3854662Y0103556D03*
X3860811Y0103882D03*
X3870596Y0104215D03*
X3841676Y0098644D03*
X3835014Y0091046D03*
X3834560Y0085132D03*
X3827779Y0085632D03*
X3807226Y0077911D03*
X3790610Y0093020D03*
X3806413Y0105207D03*
X3837851Y0123158D03*
X3896013Y0080684D03*
X3900118Y0078227D03*
X3894354Y0075888D03*
X3896031Y0069245D03*
X3904630Y0092994D03*
X3904545Y0098388D03*
X3910690Y0105428D03*
X3930729Y0103213D03*
X3931086Y0091837D03*
X3833468Y0016544D03*
X3855059Y3743438D03*
X3862933Y3743438D03*
X3870807Y3743438D03*
X3878681Y3743438D03*
X3886555Y3743438D03*
X3894429Y3743438D03*
X3902303Y3743438D03*
X3910177Y3743438D03*
X3918051Y3743438D03*
X3925925Y3743438D03*
X3925925Y3767060D03*
X3918051Y3767060D03*
X3910177Y3767060D03*
X3902303Y3767060D03*
X3894429Y3767060D03*
X3886555Y3767060D03*
X3878681Y3767060D03*
X3870807Y3767060D03*
X3862933Y3767060D03*
X3860527Y3788859D03*
X3869539Y3789055D03*
X3879824Y3789055D03*
X3889701Y3789081D03*
X3900952Y3789370D03*
X3912361Y3789452D03*
X3924869Y3789663D03*
X3896844Y3806096D03*
X3888992Y3807653D03*
X3886306Y3804024D03*
X3882005Y3804049D03*
X3883786Y3810284D03*
X3883747Y3814890D03*
X3896925Y3817231D03*
X3899691Y3814483D03*
X3906954Y3825730D03*
X3906963Y3829803D03*
X3906165Y3842912D03*
X3908810Y3852085D03*
X3902562Y3861901D03*
X3926868Y3869124D03*
X3932185Y3864962D03*
X3932354Y3877289D03*
X3932298Y3887495D03*
X3919987Y3887238D03*
X3908562Y3898711D03*
X3908382Y3908576D03*
X3908335Y3918914D03*
X3908382Y3928270D03*
X3898020Y3928203D03*
X3887087Y3928085D03*
X3888809Y3894156D03*
X3893570Y3889201D03*
X3878282Y3886277D03*
X3877074Y3877418D03*
X3872832Y3877401D03*
X3864574Y3875599D03*
X3849802Y3874971D03*
X3849785Y3871113D03*
X3857704Y3862487D03*
X3857656Y3857594D03*
X3854377Y3854575D03*
X3839904Y3847140D03*
X3835764Y3852679D03*
X3835437Y3858828D03*
X3835105Y3868613D03*
X3840676Y3839693D03*
X3848274Y3833030D03*
X3854188Y3832577D03*
X3853687Y3825795D03*
X3861409Y3805243D03*
X3846300Y3788627D03*
X3834113Y3804430D03*
X3816162Y3835867D03*
X3858636Y3894030D03*
X3861093Y3898134D03*
X3863432Y3892370D03*
X3870075Y3894048D03*
X3846326Y3902647D03*
X3840931Y3902562D03*
X3833892Y3908707D03*
X3836107Y3928746D03*
X3847483Y3929103D03*
X3922776Y3831485D03*
X0195395Y3852941D03*
X0195395Y3860815D03*
X0195395Y3868689D03*
X0195395Y3876563D03*
X0195395Y3884437D03*
X0195395Y3892311D03*
X0195395Y3900185D03*
X0195395Y3908059D03*
X0195395Y3915933D03*
X0195395Y3923807D03*
X0171773Y3923807D03*
X0171773Y3915933D03*
X0171773Y3908059D03*
X0171773Y3900185D03*
X0171773Y3892311D03*
X0171773Y3884437D03*
X0171773Y3876563D03*
X0171773Y3868689D03*
X0171773Y3860815D03*
X0149974Y3858409D03*
X0149778Y3867421D03*
X0149778Y3877706D03*
X0149752Y3887583D03*
X0149463Y3898834D03*
X0149381Y3910243D03*
X0149170Y3922751D03*
X0132737Y3894726D03*
X0131180Y3886874D03*
X0134809Y3884188D03*
X0134784Y3879887D03*
X0128549Y3881668D03*
X0123943Y3881629D03*
X0121602Y3894807D03*
X0124350Y3897573D03*
X0113103Y3904836D03*
X0109030Y3904845D03*
X0095921Y3904047D03*
X0086748Y3906692D03*
X0076932Y3900444D03*
X0069709Y3924750D03*
X0073871Y3930067D03*
X0061544Y3930236D03*
X0051338Y3930180D03*
X0051595Y3917868D03*
X0040122Y3906444D03*
X0030257Y3906264D03*
X0019919Y3906217D03*
X0010563Y3906264D03*
X0010630Y3895902D03*
X0010748Y3884969D03*
X0044677Y3886691D03*
X0049632Y3891452D03*
X0052556Y3876163D03*
X0061415Y3874956D03*
X0061432Y3870714D03*
X0063234Y3862455D03*
X0063862Y3847684D03*
X0067720Y3847667D03*
X0076346Y3855585D03*
X0081239Y3855538D03*
X0084258Y3852259D03*
X0091693Y3837786D03*
X0086154Y3833646D03*
X0080005Y3833319D03*
X0070220Y3832987D03*
X0099140Y3838558D03*
X0105803Y3846156D03*
X0106256Y3852070D03*
X0113037Y3851569D03*
X0133590Y3859291D03*
X0150206Y3844182D03*
X0134403Y3831995D03*
X0102966Y3814044D03*
X0044803Y3856518D03*
X0040698Y3858975D03*
X0046463Y3861314D03*
X0044785Y3867957D03*
X0036186Y3844208D03*
X0036271Y3838813D03*
X0030126Y3831774D03*
X0010087Y3833989D03*
X0009730Y3845365D03*
X0107348Y3920658D03*
D11*
X0146270Y3898935D01*
X0146270Y3841643D01*
X0149063Y3838849D01*
X0159886Y3838849D01*
X0187081Y3811654D01*
X0187081Y3761230D01*
X0171418Y3745568D01*
X0035847Y3745568D01*
X0018931Y3762484D01*
X0018931Y3877286D01*
X0057825Y3916180D01*
X0111761Y3916180D01*
X0144056Y3898249D01*
X0144103Y3841235D01*
X0148465Y3836857D01*
X0158668Y3836829D01*
X0184292Y3811239D01*
X0184275Y3761694D01*
X0170662Y3748102D01*
X0036774Y3748102D01*
X0021752Y3763124D01*
X0021752Y3877164D01*
X0058546Y3913958D01*
X0111985Y3914006D01*
X0141865Y3897421D01*
X0141888Y3840349D01*
X0147569Y3834668D01*
X0157527Y3834668D01*
X0181577Y3810618D01*
X0181577Y3762659D01*
X0169793Y3750875D01*
X0037124Y3750875D01*
X0024618Y3763382D01*
X0024618Y3877758D01*
X0058540Y3911680D01*
X0112585Y3911671D01*
X0139880Y3896607D01*
X0139925Y3839540D01*
X0146803Y3832663D01*
X0156753Y3832663D01*
X0179112Y3810303D01*
X0179112Y3763189D01*
X0168942Y3753019D01*
X0037481Y3753019D01*
X0026966Y3763534D01*
X0026966Y3877603D01*
X0059018Y3909655D01*
X0112998Y3909602D01*
X0137760Y3895377D01*
X0137760Y3838853D01*
X0146094Y3830519D01*
X0155935Y3830519D01*
X0176844Y3809610D01*
X0176844Y3763859D01*
X0168100Y3755115D01*
X0038576Y3755115D01*
X0029354Y3764337D01*
X0029354Y3821017D01*
X0033549Y3825212D01*
X0079531Y3825212D01*
X0086154Y3831835D01*
X0086154Y3833646D01*
X0087408Y3835064D02*
X0136856Y3835064D01*
X0136866Y3835662D02*
X0031219Y3835662D01*
X0031229Y3835064D02*
X0079078Y3835064D01*
X0079223Y3835208D02*
X0078116Y3834102D01*
X0078116Y3832537D01*
X0079223Y3831430D01*
X0080788Y3831430D01*
X0081894Y3832537D01*
X0081894Y3834102D01*
X0080788Y3835208D01*
X0079223Y3835208D01*
X0078480Y3834465D02*
X0071413Y3834465D01*
X0071002Y3834876D02*
X0069437Y3834876D01*
X0068331Y3833770D01*
X0068331Y3832205D01*
X0069437Y3831098D01*
X0071002Y3831098D01*
X0072109Y3832205D01*
X0072109Y3833770D01*
X0071002Y3834876D01*
X0072012Y3833866D02*
X0078116Y3833866D01*
X0078116Y3833268D02*
X0072109Y3833268D01*
X0072109Y3832669D02*
X0078116Y3832669D01*
X0078582Y3832071D02*
X0071975Y3832071D01*
X0071377Y3831472D02*
X0079181Y3831472D01*
X0080830Y3831472D02*
X0084236Y3831472D01*
X0083637Y3830874D02*
X0035124Y3830874D01*
X0035589Y3830414D02*
X0031234Y3834729D01*
X0031095Y3843461D01*
X0041468Y3853794D01*
X0041474Y3857086D01*
X0041481Y3857086D01*
X0042587Y3858192D01*
X0042587Y3859757D01*
X0041482Y3860863D01*
X0041538Y3890620D01*
X0059473Y3908554D01*
X0085913Y3908529D01*
X0084859Y3907474D01*
X0084859Y3905909D01*
X0085965Y3904803D01*
X0087530Y3904803D01*
X0088637Y3905909D01*
X0088637Y3907474D01*
X0087584Y3908527D01*
X0112704Y3908503D01*
X0123094Y3902534D01*
X0132055Y3896615D01*
X0131955Y3896615D01*
X0130848Y3895508D01*
X0130848Y3893943D01*
X0131955Y3892837D01*
X0133520Y3892837D01*
X0134626Y3893943D01*
X0134626Y3894916D01*
X0136660Y3893573D01*
X0136660Y3885008D01*
X0135592Y3886077D01*
X0134027Y3886077D01*
X0132920Y3884970D01*
X0132920Y3883405D01*
X0134027Y3882299D01*
X0135592Y3882299D01*
X0136660Y3883367D01*
X0136660Y3880682D01*
X0135566Y3881776D01*
X0134002Y3881776D01*
X0132895Y3880669D01*
X0132895Y3879104D01*
X0134002Y3877998D01*
X0135566Y3877998D01*
X0136660Y3879091D01*
X0136660Y3838397D01*
X0136906Y3838151D01*
X0136789Y3830990D01*
X0136831Y3830317D01*
X0135401Y3830321D01*
X0136292Y3831212D01*
X0136292Y3832777D01*
X0135186Y3833884D01*
X0133621Y3833884D01*
X0132514Y3832777D01*
X0132514Y3831212D01*
X0133400Y3830327D01*
X0086339Y3830464D01*
X0086610Y3830735D01*
X0087254Y3831379D01*
X0087254Y3832074D01*
X0088043Y3832863D01*
X0088043Y3834428D01*
X0086936Y3835535D01*
X0085372Y3835535D01*
X0084265Y3834428D01*
X0084265Y3832863D01*
X0084946Y3832182D01*
X0083237Y3830473D01*
X0035787Y3830612D01*
X0035589Y3830414D01*
X0034520Y3831472D02*
X0069063Y3831472D01*
X0068465Y3832071D02*
X0033916Y3832071D01*
X0033312Y3832669D02*
X0068331Y3832669D01*
X0068331Y3833268D02*
X0032708Y3833268D01*
X0032104Y3833866D02*
X0068428Y3833866D01*
X0069026Y3834465D02*
X0031500Y3834465D01*
X0031210Y3836261D02*
X0090548Y3836261D01*
X0090911Y3835897D02*
X0092476Y3835897D01*
X0093582Y3837004D01*
X0093582Y3838569D01*
X0092476Y3839675D01*
X0090911Y3839675D01*
X0089804Y3838569D01*
X0089804Y3837004D01*
X0090911Y3835897D01*
X0089949Y3836859D02*
X0031200Y3836859D01*
X0031191Y3837458D02*
X0089804Y3837458D01*
X0089804Y3838056D02*
X0031181Y3838056D01*
X0031172Y3838655D02*
X0089890Y3838655D01*
X0090489Y3839253D02*
X0031162Y3839253D01*
X0031153Y3839852D02*
X0097762Y3839852D01*
X0097251Y3839340D02*
X0097251Y3837775D01*
X0098357Y3836669D01*
X0099922Y3836669D01*
X0101029Y3837775D01*
X0101029Y3839340D01*
X0099922Y3840447D01*
X0098357Y3840447D01*
X0097251Y3839340D01*
X0097251Y3839253D02*
X0092898Y3839253D01*
X0093496Y3838655D02*
X0097251Y3838655D01*
X0097251Y3838056D02*
X0093582Y3838056D01*
X0093582Y3837458D02*
X0097569Y3837458D01*
X0098167Y3836859D02*
X0093438Y3836859D01*
X0092839Y3836261D02*
X0136875Y3836261D01*
X0136885Y3836859D02*
X0100113Y3836859D01*
X0100711Y3837458D02*
X0136895Y3837458D01*
X0136905Y3838056D02*
X0101029Y3838056D01*
X0101029Y3838655D02*
X0136660Y3838655D01*
X0136660Y3839253D02*
X0101029Y3839253D01*
X0100517Y3839852D02*
X0136660Y3839852D01*
X0136660Y3840450D02*
X0031143Y3840450D01*
X0031134Y3841049D02*
X0136660Y3841049D01*
X0136660Y3841647D02*
X0031124Y3841647D01*
X0031115Y3842246D02*
X0136660Y3842246D01*
X0136660Y3842844D02*
X0037494Y3842844D01*
X0036968Y3842319D02*
X0038075Y3843426D01*
X0038075Y3844991D01*
X0036968Y3846097D01*
X0035404Y3846097D01*
X0034297Y3844991D01*
X0034297Y3843426D01*
X0035404Y3842319D01*
X0036968Y3842319D01*
X0038075Y3843443D02*
X0136660Y3843443D01*
X0136660Y3844041D02*
X0038075Y3844041D01*
X0038075Y3844640D02*
X0136660Y3844640D01*
X0136660Y3845238D02*
X0037827Y3845238D01*
X0037229Y3845837D02*
X0066879Y3845837D01*
X0066937Y3845778D02*
X0068502Y3845778D01*
X0069609Y3846885D01*
X0069609Y3848450D01*
X0068502Y3849556D01*
X0066937Y3849556D01*
X0065831Y3848450D01*
X0065831Y3846885D01*
X0066937Y3845778D01*
X0066280Y3846435D02*
X0034081Y3846435D01*
X0034682Y3847034D02*
X0065831Y3847034D01*
X0065831Y3847632D02*
X0035282Y3847632D01*
X0035883Y3848231D02*
X0065831Y3848231D01*
X0066211Y3848829D02*
X0036484Y3848829D01*
X0037085Y3849428D02*
X0066809Y3849428D01*
X0068631Y3849428D02*
X0136660Y3849428D01*
X0136660Y3850026D02*
X0037686Y3850026D01*
X0038286Y3850625D02*
X0105030Y3850625D01*
X0105474Y3850181D02*
X0107039Y3850181D01*
X0108145Y3851287D01*
X0108145Y3852852D01*
X0107039Y3853959D01*
X0105474Y3853959D01*
X0104367Y3852852D01*
X0104367Y3851287D01*
X0105474Y3850181D01*
X0104431Y3851223D02*
X0038887Y3851223D01*
X0039488Y3851822D02*
X0104367Y3851822D01*
X0104367Y3852420D02*
X0040089Y3852420D01*
X0040690Y3853019D02*
X0104534Y3853019D01*
X0105132Y3853617D02*
X0041290Y3853617D01*
X0041469Y3854216D02*
X0075044Y3854216D01*
X0075563Y3853696D02*
X0077128Y3853696D01*
X0078235Y3854803D01*
X0078235Y3856368D01*
X0077128Y3857474D01*
X0075563Y3857474D01*
X0074457Y3856368D01*
X0074457Y3854803D01*
X0075563Y3853696D01*
X0074457Y3854814D02*
X0041470Y3854814D01*
X0041471Y3855413D02*
X0074457Y3855413D01*
X0074457Y3856011D02*
X0041472Y3856011D01*
X0041473Y3856610D02*
X0074699Y3856610D01*
X0075297Y3857208D02*
X0041604Y3857208D01*
X0042202Y3857807D02*
X0132403Y3857807D01*
X0132807Y3857402D02*
X0134372Y3857402D01*
X0135479Y3858509D01*
X0135479Y3860074D01*
X0134372Y3861180D01*
X0132807Y3861180D01*
X0131701Y3860074D01*
X0131701Y3858509D01*
X0132807Y3857402D01*
X0131804Y3858405D02*
X0042587Y3858405D01*
X0042587Y3859004D02*
X0131701Y3859004D01*
X0131701Y3859602D02*
X0047423Y3859602D01*
X0047245Y3859425D02*
X0048352Y3860531D01*
X0048352Y3862096D01*
X0047245Y3863203D01*
X0045680Y3863203D01*
X0044574Y3862096D01*
X0044574Y3860531D01*
X0045680Y3859425D01*
X0047245Y3859425D01*
X0048021Y3860201D02*
X0131828Y3860201D01*
X0132427Y3860799D02*
X0064250Y3860799D01*
X0064017Y3860566D02*
X0065123Y3861673D01*
X0065123Y3863238D01*
X0064017Y3864344D01*
X0062452Y3864344D01*
X0061345Y3863238D01*
X0061345Y3861673D01*
X0062452Y3860566D01*
X0064017Y3860566D01*
X0064848Y3861398D02*
X0136660Y3861398D01*
X0136660Y3860799D02*
X0134753Y3860799D01*
X0135352Y3860201D02*
X0136660Y3860201D01*
X0136660Y3859602D02*
X0135479Y3859602D01*
X0135479Y3859004D02*
X0136660Y3859004D01*
X0136660Y3858405D02*
X0135376Y3858405D01*
X0134777Y3857807D02*
X0136660Y3857807D01*
X0136660Y3857208D02*
X0082240Y3857208D01*
X0082021Y3857427D02*
X0080456Y3857427D01*
X0079350Y3856321D01*
X0079350Y3854756D01*
X0080456Y3853649D01*
X0082021Y3853649D01*
X0083128Y3854756D01*
X0083128Y3856321D01*
X0082021Y3857427D01*
X0082838Y3856610D02*
X0136660Y3856610D01*
X0136660Y3856011D02*
X0083128Y3856011D01*
X0083128Y3855413D02*
X0136660Y3855413D01*
X0136660Y3854814D02*
X0083128Y3854814D01*
X0082588Y3854216D02*
X0136660Y3854216D01*
X0136660Y3853617D02*
X0107380Y3853617D01*
X0107979Y3853019D02*
X0136660Y3853019D01*
X0136660Y3852420D02*
X0108145Y3852420D01*
X0108145Y3851822D02*
X0136660Y3851822D01*
X0136660Y3851223D02*
X0108081Y3851223D01*
X0107482Y3850625D02*
X0136660Y3850625D01*
X0136660Y3848829D02*
X0069229Y3848829D01*
X0069609Y3848231D02*
X0136660Y3848231D01*
X0136660Y3847632D02*
X0069609Y3847632D01*
X0069609Y3847034D02*
X0136660Y3847034D01*
X0136660Y3846435D02*
X0069159Y3846435D01*
X0068561Y3845837D02*
X0136660Y3845837D01*
X0136846Y3834465D02*
X0088006Y3834465D01*
X0088043Y3833866D02*
X0133604Y3833866D01*
X0133005Y3833268D02*
X0088043Y3833268D01*
X0087849Y3832669D02*
X0132514Y3832669D01*
X0132514Y3832071D02*
X0087254Y3832071D01*
X0087254Y3831472D02*
X0132514Y3831472D01*
X0132852Y3830874D02*
X0086749Y3830874D01*
X0084834Y3832071D02*
X0081428Y3832071D01*
X0081894Y3832669D02*
X0084459Y3832669D01*
X0084265Y3833268D02*
X0081894Y3833268D01*
X0081894Y3833866D02*
X0084265Y3833866D01*
X0084302Y3834465D02*
X0081531Y3834465D01*
X0080933Y3835064D02*
X0084900Y3835064D01*
X0084258Y3852259D02*
X0083156Y3852416D01*
X0079890Y3854216D02*
X0077648Y3854216D01*
X0078235Y3854814D02*
X0079350Y3854814D01*
X0079350Y3855413D02*
X0078235Y3855413D01*
X0078235Y3856011D02*
X0079350Y3856011D01*
X0079639Y3856610D02*
X0077993Y3856610D01*
X0077394Y3857208D02*
X0080238Y3857208D01*
X0065123Y3861997D02*
X0136660Y3861997D01*
X0136660Y3862595D02*
X0065123Y3862595D01*
X0065123Y3863194D02*
X0136660Y3863194D01*
X0136660Y3863792D02*
X0064569Y3863792D01*
X0061900Y3863792D02*
X0041487Y3863792D01*
X0041486Y3863194D02*
X0045671Y3863194D01*
X0045073Y3862595D02*
X0041485Y3862595D01*
X0041484Y3861997D02*
X0044574Y3861997D01*
X0044574Y3861398D02*
X0041483Y3861398D01*
X0041545Y3860799D02*
X0044574Y3860799D01*
X0044904Y3860201D02*
X0042144Y3860201D01*
X0042587Y3859602D02*
X0045502Y3859602D01*
X0048352Y3860799D02*
X0062219Y3860799D01*
X0061620Y3861398D02*
X0048352Y3861398D01*
X0048352Y3861997D02*
X0061345Y3861997D01*
X0061345Y3862595D02*
X0047853Y3862595D01*
X0047254Y3863194D02*
X0061345Y3863194D01*
X0060649Y3868825D02*
X0062214Y3868825D01*
X0063321Y3869932D01*
X0063321Y3871497D01*
X0062214Y3872603D01*
X0060649Y3872603D01*
X0059543Y3871497D01*
X0059543Y3869932D01*
X0060649Y3868825D01*
X0060296Y3869179D02*
X0046235Y3869179D01*
X0046674Y3868739D02*
X0045568Y3869846D01*
X0044003Y3869846D01*
X0042896Y3868739D01*
X0042896Y3867174D01*
X0044003Y3866068D01*
X0045568Y3866068D01*
X0046674Y3867174D01*
X0046674Y3868739D01*
X0046674Y3868580D02*
X0136660Y3868580D01*
X0136660Y3867982D02*
X0046674Y3867982D01*
X0046674Y3867383D02*
X0136660Y3867383D01*
X0136660Y3866785D02*
X0046285Y3866785D01*
X0045686Y3866186D02*
X0136660Y3866186D01*
X0136660Y3865588D02*
X0041491Y3865588D01*
X0041492Y3866186D02*
X0043885Y3866186D01*
X0043286Y3866785D02*
X0041493Y3866785D01*
X0041494Y3867383D02*
X0042896Y3867383D01*
X0042896Y3867982D02*
X0041495Y3867982D01*
X0041496Y3868580D02*
X0042896Y3868580D01*
X0043336Y3869179D02*
X0041497Y3869179D01*
X0041499Y3869777D02*
X0043934Y3869777D01*
X0045636Y3869777D02*
X0059697Y3869777D01*
X0059543Y3870376D02*
X0041500Y3870376D01*
X0041501Y3870974D02*
X0059543Y3870974D01*
X0059619Y3871573D02*
X0041502Y3871573D01*
X0041503Y3872171D02*
X0060217Y3872171D01*
X0060633Y3873067D02*
X0062198Y3873067D01*
X0063304Y3874173D01*
X0063304Y3875738D01*
X0062198Y3876845D01*
X0060633Y3876845D01*
X0059526Y3875738D01*
X0059526Y3874173D01*
X0060633Y3873067D01*
X0060332Y3873368D02*
X0041505Y3873368D01*
X0041504Y3872770D02*
X0136660Y3872770D01*
X0136660Y3873368D02*
X0062499Y3873368D01*
X0063098Y3873967D02*
X0136660Y3873967D01*
X0136660Y3874565D02*
X0063304Y3874565D01*
X0063304Y3875164D02*
X0136660Y3875164D01*
X0136660Y3875762D02*
X0063280Y3875762D01*
X0062682Y3876361D02*
X0136660Y3876361D01*
X0136660Y3876959D02*
X0041512Y3876959D01*
X0041511Y3876361D02*
X0060149Y3876361D01*
X0059551Y3875762D02*
X0041510Y3875762D01*
X0041509Y3875164D02*
X0059526Y3875164D01*
X0059526Y3874565D02*
X0041508Y3874565D01*
X0041507Y3873967D02*
X0059733Y3873967D01*
X0062646Y3872171D02*
X0136660Y3872171D01*
X0136660Y3871573D02*
X0063244Y3871573D01*
X0063321Y3870974D02*
X0136660Y3870974D01*
X0136660Y3870376D02*
X0063321Y3870376D01*
X0063166Y3869777D02*
X0136660Y3869777D01*
X0136660Y3869179D02*
X0062568Y3869179D01*
X0052556Y3876163D02*
X0051226Y3876163D01*
X0041513Y3877558D02*
X0136660Y3877558D01*
X0136660Y3878156D02*
X0135725Y3878156D01*
X0136324Y3878755D02*
X0136660Y3878755D01*
X0136660Y3881149D02*
X0136193Y3881149D01*
X0136660Y3881747D02*
X0135595Y3881747D01*
X0135639Y3882346D02*
X0136660Y3882346D01*
X0136660Y3882944D02*
X0136237Y3882944D01*
X0133979Y3882346D02*
X0130438Y3882346D01*
X0130438Y3882450D02*
X0129332Y3883557D01*
X0127767Y3883557D01*
X0126660Y3882450D01*
X0126660Y3880886D01*
X0127767Y3879779D01*
X0129332Y3879779D01*
X0130438Y3880886D01*
X0130438Y3882450D01*
X0129944Y3882944D02*
X0133381Y3882944D01*
X0132920Y3883543D02*
X0129346Y3883543D01*
X0127753Y3883543D02*
X0041525Y3883543D01*
X0041526Y3884141D02*
X0132920Y3884141D01*
X0132920Y3884740D02*
X0041527Y3884740D01*
X0041528Y3885338D02*
X0133289Y3885338D01*
X0133887Y3885937D02*
X0041529Y3885937D01*
X0041531Y3886535D02*
X0136660Y3886535D01*
X0136660Y3885937D02*
X0135731Y3885937D01*
X0136330Y3885338D02*
X0136660Y3885338D01*
X0136660Y3887134D02*
X0041532Y3887134D01*
X0041533Y3887733D02*
X0136660Y3887733D01*
X0136660Y3888331D02*
X0041534Y3888331D01*
X0041535Y3888930D02*
X0136660Y3888930D01*
X0136660Y3889528D02*
X0041536Y3889528D01*
X0041537Y3890127D02*
X0048286Y3890127D01*
X0047743Y3890669D02*
X0048850Y3889563D01*
X0050415Y3889563D01*
X0051521Y3890669D01*
X0051521Y3892234D01*
X0050415Y3893341D01*
X0048850Y3893341D01*
X0047743Y3892234D01*
X0047743Y3890669D01*
X0047743Y3890725D02*
X0041644Y3890725D01*
X0042242Y3891324D02*
X0047743Y3891324D01*
X0047743Y3891922D02*
X0042841Y3891922D01*
X0043439Y3892521D02*
X0048030Y3892521D01*
X0048628Y3893119D02*
X0044038Y3893119D01*
X0044636Y3893718D02*
X0120020Y3893718D01*
X0119713Y3894025D02*
X0120819Y3892918D01*
X0122384Y3892918D01*
X0123491Y3894025D01*
X0123491Y3895589D01*
X0122384Y3896696D01*
X0120819Y3896696D01*
X0119713Y3895589D01*
X0119713Y3894025D01*
X0119713Y3894316D02*
X0045235Y3894316D01*
X0045833Y3894915D02*
X0119713Y3894915D01*
X0119713Y3895513D02*
X0046432Y3895513D01*
X0047030Y3896112D02*
X0120235Y3896112D01*
X0122968Y3896112D02*
X0131452Y3896112D01*
X0131911Y3896710D02*
X0047629Y3896710D01*
X0048227Y3897309D02*
X0131005Y3897309D01*
X0130099Y3897907D02*
X0048826Y3897907D01*
X0049424Y3898506D02*
X0129192Y3898506D01*
X0128286Y3899104D02*
X0050023Y3899104D01*
X0050621Y3899703D02*
X0127380Y3899703D01*
X0126474Y3900301D02*
X0051220Y3900301D01*
X0051818Y3900900D02*
X0125568Y3900900D01*
X0124662Y3901498D02*
X0052417Y3901498D01*
X0053015Y3902097D02*
X0123756Y3902097D01*
X0122813Y3902695D02*
X0053614Y3902695D01*
X0054212Y3903294D02*
X0107910Y3903294D01*
X0108247Y3902956D02*
X0109812Y3902956D01*
X0110919Y3904063D01*
X0110919Y3905628D01*
X0109812Y3906734D01*
X0108247Y3906734D01*
X0107141Y3905628D01*
X0107141Y3904063D01*
X0108247Y3902956D01*
X0107311Y3903892D02*
X0054811Y3903892D01*
X0055409Y3904491D02*
X0107141Y3904491D01*
X0107141Y3905089D02*
X0087816Y3905089D01*
X0088415Y3905688D02*
X0107201Y3905688D01*
X0107799Y3906286D02*
X0088637Y3906286D01*
X0088637Y3906885D02*
X0115520Y3906885D01*
X0114479Y3907483D02*
X0088627Y3907483D01*
X0088029Y3908082D02*
X0113437Y3908082D01*
X0112678Y3905091D02*
X0113103Y3904836D01*
X0110919Y3905089D02*
X0118646Y3905089D01*
X0119688Y3904491D02*
X0110919Y3904491D01*
X0110748Y3903892D02*
X0120730Y3903892D01*
X0121771Y3903294D02*
X0110150Y3903294D01*
X0110858Y3905688D02*
X0117604Y3905688D01*
X0116562Y3906286D02*
X0110260Y3906286D01*
X0095939Y3904965D02*
X0095921Y3904047D01*
X0085679Y3905089D02*
X0056008Y3905089D01*
X0056606Y3905688D02*
X0085080Y3905688D01*
X0084859Y3906286D02*
X0057205Y3906286D01*
X0057803Y3906885D02*
X0084859Y3906885D01*
X0084868Y3907483D02*
X0058402Y3907483D01*
X0059001Y3908082D02*
X0085466Y3908082D01*
X0076932Y3901634D02*
X0076932Y3900444D01*
X0051521Y3891922D02*
X0136660Y3891922D01*
X0136660Y3891324D02*
X0051521Y3891324D01*
X0051521Y3890725D02*
X0136660Y3890725D01*
X0136660Y3890127D02*
X0050979Y3890127D01*
X0051235Y3892521D02*
X0136660Y3892521D01*
X0136660Y3893119D02*
X0133802Y3893119D01*
X0134401Y3893718D02*
X0136441Y3893718D01*
X0135535Y3894316D02*
X0134626Y3894316D01*
X0134626Y3894915D02*
X0134629Y3894915D01*
X0131672Y3893119D02*
X0122585Y3893119D01*
X0123184Y3893718D02*
X0131074Y3893718D01*
X0130848Y3894316D02*
X0123491Y3894316D01*
X0123491Y3894915D02*
X0130848Y3894915D01*
X0130853Y3895513D02*
X0123491Y3895513D01*
X0124350Y3897573D02*
X0124598Y3897874D01*
X0120618Y3893119D02*
X0050636Y3893119D01*
X0044677Y3887276D02*
X0044677Y3886691D01*
X0041524Y3882944D02*
X0122587Y3882944D01*
X0122054Y3882411D02*
X0122054Y3880846D01*
X0123161Y3879740D01*
X0124725Y3879740D01*
X0125832Y3880846D01*
X0125832Y3882411D01*
X0124725Y3883518D01*
X0123161Y3883518D01*
X0122054Y3882411D01*
X0122054Y3882346D02*
X0041523Y3882346D01*
X0041521Y3881747D02*
X0122054Y3881747D01*
X0122054Y3881149D02*
X0041520Y3881149D01*
X0041519Y3880550D02*
X0122350Y3880550D01*
X0122948Y3879952D02*
X0041518Y3879952D01*
X0041517Y3879353D02*
X0132895Y3879353D01*
X0132895Y3879952D02*
X0129505Y3879952D01*
X0130103Y3880550D02*
X0132895Y3880550D01*
X0133375Y3881149D02*
X0130438Y3881149D01*
X0130438Y3881747D02*
X0133973Y3881747D01*
X0133244Y3878755D02*
X0041516Y3878755D01*
X0041515Y3878156D02*
X0133843Y3878156D01*
X0127594Y3879952D02*
X0124938Y3879952D01*
X0125536Y3880550D02*
X0126995Y3880550D01*
X0126660Y3881149D02*
X0125832Y3881149D01*
X0125832Y3881747D02*
X0126660Y3881747D01*
X0126660Y3882346D02*
X0125832Y3882346D01*
X0125299Y3882944D02*
X0127154Y3882944D01*
X0130004Y3886874D02*
X0131180Y3886874D01*
X0136660Y3864989D02*
X0041489Y3864989D01*
X0041488Y3864391D02*
X0136660Y3864391D01*
X0113037Y3851569D02*
X0112562Y3851094D01*
X0105803Y3846156D02*
X0105803Y3845598D01*
X0135203Y3833866D02*
X0136836Y3833866D01*
X0136826Y3833268D02*
X0135801Y3833268D01*
X0136292Y3832669D02*
X0136816Y3832669D01*
X0136807Y3832071D02*
X0136292Y3832071D01*
X0136292Y3831472D02*
X0136797Y3831472D01*
X0136796Y3830874D02*
X0135954Y3830874D01*
X0063862Y3847684D02*
X0063657Y3847760D01*
X0044803Y3856518D02*
X0044405Y3856025D01*
X0035143Y3845837D02*
X0033480Y3845837D01*
X0032879Y3845238D02*
X0034545Y3845238D01*
X0034297Y3844640D02*
X0032278Y3844640D01*
X0031678Y3844041D02*
X0034297Y3844041D01*
X0034297Y3843443D02*
X0031096Y3843443D01*
X0031105Y3842844D02*
X0034879Y3842844D01*
X0126273Y0188654D02*
X0099077Y0161459D01*
X0099077Y0150637D01*
X0096284Y0147843D01*
X0038992Y0147843D01*
X0017269Y0108921D01*
X0021746Y0113334D02*
X0039678Y0145629D01*
X0096691Y0145676D01*
X0101069Y0150038D01*
X0101097Y0160241D01*
X0126688Y0185865D01*
X0176232Y0185849D01*
X0189825Y0172236D01*
X0189825Y0038348D01*
X0174803Y0023325D01*
X0060762Y0023325D01*
X0023968Y0060119D01*
X0023921Y0113558D01*
X0040505Y0143438D01*
X0097577Y0143461D01*
X0103258Y0149142D01*
X0103258Y0159100D01*
X0127309Y0183150D01*
X0175267Y0183150D01*
X0187051Y0171366D01*
X0187051Y0038698D01*
X0174545Y0026191D01*
X0060168Y0026191D01*
X0026246Y0060113D01*
X0026256Y0114158D01*
X0041320Y0141453D01*
X0098386Y0141499D01*
X0105264Y0148376D01*
X0105264Y0158326D01*
X0127623Y0180686D01*
X0174738Y0180686D01*
X0184908Y0170516D01*
X0184908Y0039054D01*
X0174393Y0028539D01*
X0060324Y0028539D01*
X0028272Y0060591D01*
X0028324Y0114571D01*
X0042550Y0139334D01*
X0099074Y0139334D01*
X0107408Y0147667D01*
X0107408Y0157508D01*
X0128317Y0178417D01*
X0174067Y0178417D01*
X0182811Y0169673D01*
X0182811Y0040149D01*
X0173590Y0030928D01*
X0116909Y0030928D01*
X0112714Y0035123D01*
X0112714Y0081105D01*
X0106092Y0087727D01*
X0104281Y0087727D01*
X0102392Y0087784D02*
X0033124Y0087784D01*
X0033124Y0087538D02*
X0033124Y0089103D01*
X0032017Y0090210D01*
X0030452Y0090210D01*
X0029400Y0089157D01*
X0029424Y0114278D01*
X0035393Y0124667D01*
X0041312Y0133629D01*
X0041312Y0133528D01*
X0042418Y0132422D01*
X0043983Y0132422D01*
X0045090Y0133528D01*
X0045090Y0135093D01*
X0043983Y0136200D01*
X0043010Y0136200D01*
X0044354Y0138234D01*
X0052919Y0138234D01*
X0051850Y0137165D01*
X0051850Y0135600D01*
X0052957Y0134493D01*
X0054521Y0134493D01*
X0055628Y0135600D01*
X0055628Y0137165D01*
X0054559Y0138234D01*
X0057245Y0138234D01*
X0056151Y0137140D01*
X0056151Y0135575D01*
X0057258Y0134468D01*
X0058823Y0134468D01*
X0059929Y0135575D01*
X0059929Y0137140D01*
X0058835Y0138234D01*
X0099529Y0138234D01*
X0099776Y0138480D01*
X0106937Y0138362D01*
X0107610Y0138404D01*
X0107606Y0136974D01*
X0106714Y0137865D01*
X0105150Y0137865D01*
X0104043Y0136759D01*
X0104043Y0135194D01*
X0105150Y0134087D01*
X0106714Y0134087D01*
X0107600Y0134973D01*
X0107463Y0087912D01*
X0107192Y0088183D01*
X0107192Y0088183D01*
X0106547Y0088827D01*
X0105852Y0088827D01*
X0105063Y0089616D01*
X0103498Y0089616D01*
X0102392Y0088510D01*
X0102392Y0086945D01*
X0103498Y0085838D01*
X0105063Y0085838D01*
X0105744Y0086519D01*
X0107453Y0084810D01*
X0107315Y0037360D01*
X0107513Y0037162D01*
X0103198Y0032807D01*
X0094466Y0032669D01*
X0084132Y0043041D01*
X0080841Y0043048D01*
X0080841Y0043054D01*
X0079734Y0044161D01*
X0078170Y0044161D01*
X0077064Y0043055D01*
X0047307Y0043112D01*
X0029372Y0061046D01*
X0029398Y0087486D01*
X0030452Y0086432D01*
X0032017Y0086432D01*
X0033124Y0087538D01*
X0032771Y0087186D02*
X0102392Y0087186D01*
X0102750Y0086587D02*
X0032173Y0086587D01*
X0030297Y0086587D02*
X0029397Y0086587D01*
X0029397Y0085989D02*
X0103348Y0085989D01*
X0105214Y0085989D02*
X0106275Y0085989D01*
X0106873Y0085390D02*
X0029396Y0085390D01*
X0029395Y0084792D02*
X0107453Y0084792D01*
X0107452Y0084193D02*
X0083679Y0084193D01*
X0083171Y0084701D02*
X0081606Y0084701D01*
X0080500Y0083594D01*
X0080500Y0082030D01*
X0081606Y0080923D01*
X0083171Y0080923D01*
X0084277Y0082030D01*
X0084277Y0083594D01*
X0083171Y0084701D01*
X0084277Y0083595D02*
X0107450Y0083595D01*
X0107448Y0082996D02*
X0105861Y0082996D01*
X0105390Y0083468D02*
X0103825Y0083468D01*
X0102718Y0082361D01*
X0102718Y0080796D01*
X0103825Y0079690D01*
X0105390Y0079690D01*
X0106496Y0080796D01*
X0106496Y0082361D01*
X0105390Y0083468D01*
X0106460Y0082398D02*
X0107446Y0082398D01*
X0107445Y0081799D02*
X0106496Y0081799D01*
X0106496Y0081201D02*
X0107443Y0081201D01*
X0107441Y0080602D02*
X0106302Y0080602D01*
X0105704Y0080003D02*
X0107439Y0080003D01*
X0107438Y0079405D02*
X0083527Y0079405D01*
X0083124Y0079808D02*
X0081559Y0079808D01*
X0080452Y0078702D01*
X0080452Y0077137D01*
X0081559Y0076030D01*
X0083124Y0076030D01*
X0084230Y0077137D01*
X0084230Y0078702D01*
X0083124Y0079808D01*
X0084125Y0078806D02*
X0107436Y0078806D01*
X0107434Y0078208D02*
X0084230Y0078208D01*
X0084230Y0077609D02*
X0107432Y0077609D01*
X0107431Y0077011D02*
X0084105Y0077011D01*
X0083506Y0076412D02*
X0107429Y0076412D01*
X0107427Y0075814D02*
X0029387Y0075814D01*
X0029387Y0076412D02*
X0081177Y0076412D01*
X0080578Y0077011D02*
X0029388Y0077011D01*
X0029388Y0077609D02*
X0080452Y0077609D01*
X0080452Y0078208D02*
X0029389Y0078208D01*
X0029390Y0078806D02*
X0080557Y0078806D01*
X0081156Y0079405D02*
X0029390Y0079405D01*
X0029391Y0080003D02*
X0103511Y0080003D01*
X0102913Y0080602D02*
X0029391Y0080602D01*
X0029392Y0081201D02*
X0081329Y0081201D01*
X0080730Y0081799D02*
X0029392Y0081799D01*
X0029393Y0082398D02*
X0080500Y0082398D01*
X0080500Y0082996D02*
X0029394Y0082996D01*
X0029394Y0083595D02*
X0080500Y0083595D01*
X0081098Y0084193D02*
X0029395Y0084193D01*
X0029398Y0087186D02*
X0029699Y0087186D01*
X0029822Y0089580D02*
X0029400Y0089580D01*
X0029401Y0090178D02*
X0030421Y0090178D01*
X0029401Y0090777D02*
X0107471Y0090777D01*
X0107473Y0091375D02*
X0029402Y0091375D01*
X0029402Y0091974D02*
X0098762Y0091974D01*
X0098251Y0092484D02*
X0099358Y0091378D01*
X0100923Y0091378D01*
X0102029Y0092484D01*
X0102029Y0094049D01*
X0100923Y0095156D01*
X0099358Y0095156D01*
X0098251Y0094049D01*
X0098251Y0092484D01*
X0098251Y0092572D02*
X0029403Y0092572D01*
X0029403Y0093171D02*
X0098251Y0093171D01*
X0098251Y0093769D02*
X0029404Y0093769D01*
X0029405Y0094368D02*
X0098570Y0094368D01*
X0099169Y0094966D02*
X0029405Y0094966D01*
X0029406Y0095565D02*
X0107485Y0095565D01*
X0107487Y0096163D02*
X0029406Y0096163D01*
X0029407Y0096762D02*
X0107488Y0096762D01*
X0107490Y0097360D02*
X0029408Y0097360D01*
X0029408Y0097959D02*
X0107492Y0097959D01*
X0107494Y0098557D02*
X0029409Y0098557D01*
X0029409Y0099156D02*
X0098255Y0099156D01*
X0098586Y0098824D02*
X0100151Y0098824D01*
X0101258Y0099931D01*
X0101258Y0101496D01*
X0100151Y0102602D01*
X0098586Y0102602D01*
X0097480Y0101496D01*
X0097480Y0099931D01*
X0098586Y0098824D01*
X0097656Y0099754D02*
X0029410Y0099754D01*
X0029410Y0100353D02*
X0097480Y0100353D01*
X0097480Y0100951D02*
X0029411Y0100951D01*
X0029412Y0101550D02*
X0097534Y0101550D01*
X0098133Y0102148D02*
X0029412Y0102148D01*
X0029413Y0102747D02*
X0107506Y0102747D01*
X0107508Y0103345D02*
X0029413Y0103345D01*
X0029414Y0103944D02*
X0107509Y0103944D01*
X0107511Y0104542D02*
X0029415Y0104542D01*
X0029415Y0105141D02*
X0107513Y0105141D01*
X0107515Y0105739D02*
X0029416Y0105739D01*
X0029416Y0106338D02*
X0084677Y0106338D01*
X0085074Y0105940D02*
X0086639Y0105940D01*
X0087746Y0107047D01*
X0087746Y0108612D01*
X0086639Y0109718D01*
X0085074Y0109718D01*
X0083968Y0108612D01*
X0083968Y0107047D01*
X0085074Y0105940D01*
X0084078Y0106937D02*
X0029417Y0106937D01*
X0029417Y0107535D02*
X0083968Y0107535D01*
X0083968Y0108134D02*
X0029418Y0108134D01*
X0029419Y0108732D02*
X0032281Y0108732D01*
X0032299Y0108714D02*
X0033864Y0108714D01*
X0034970Y0109821D01*
X0034970Y0111385D01*
X0033864Y0112492D01*
X0032299Y0112492D01*
X0031192Y0111385D01*
X0031192Y0109821D01*
X0032299Y0108714D01*
X0031682Y0109331D02*
X0029419Y0109331D01*
X0029420Y0109929D02*
X0031192Y0109929D01*
X0031192Y0110528D02*
X0029420Y0110528D01*
X0029421Y0111126D02*
X0031192Y0111126D01*
X0031532Y0111725D02*
X0029421Y0111725D01*
X0029422Y0112323D02*
X0032130Y0112323D01*
X0034033Y0112323D02*
X0107534Y0112323D01*
X0107532Y0111725D02*
X0034631Y0111725D01*
X0034970Y0111126D02*
X0107530Y0111126D01*
X0107529Y0110528D02*
X0034970Y0110528D01*
X0034970Y0109929D02*
X0107527Y0109929D01*
X0107525Y0109331D02*
X0087027Y0109331D01*
X0087626Y0108732D02*
X0107523Y0108732D01*
X0107522Y0108134D02*
X0087746Y0108134D01*
X0087746Y0107535D02*
X0107520Y0107535D01*
X0107518Y0106937D02*
X0087635Y0106937D01*
X0087037Y0106338D02*
X0107516Y0106338D01*
X0107504Y0102148D02*
X0100605Y0102148D01*
X0101204Y0101550D02*
X0107502Y0101550D01*
X0107501Y0100951D02*
X0101258Y0100951D01*
X0101258Y0100353D02*
X0107499Y0100353D01*
X0107497Y0099754D02*
X0101082Y0099754D01*
X0100483Y0099156D02*
X0107495Y0099156D01*
X0107483Y0094966D02*
X0101112Y0094966D01*
X0101711Y0094368D02*
X0107481Y0094368D01*
X0107480Y0093769D02*
X0102029Y0093769D01*
X0102029Y0093171D02*
X0107478Y0093171D01*
X0107476Y0092572D02*
X0102029Y0092572D01*
X0101519Y0091974D02*
X0107474Y0091974D01*
X0107469Y0090178D02*
X0032049Y0090178D01*
X0032647Y0089580D02*
X0103462Y0089580D01*
X0102863Y0088981D02*
X0033124Y0088981D01*
X0033124Y0088383D02*
X0102392Y0088383D01*
X0105100Y0089580D02*
X0107467Y0089580D01*
X0107466Y0088981D02*
X0105698Y0088981D01*
X0106992Y0088383D02*
X0107464Y0088383D01*
X0103353Y0082996D02*
X0084277Y0082996D01*
X0084277Y0082398D02*
X0102755Y0082398D01*
X0102718Y0081799D02*
X0084047Y0081799D01*
X0083448Y0081201D02*
X0102718Y0081201D01*
X0107425Y0075215D02*
X0029386Y0075215D01*
X0029385Y0074617D02*
X0107424Y0074617D01*
X0107422Y0074018D02*
X0029385Y0074018D01*
X0029384Y0073420D02*
X0103895Y0073420D01*
X0104157Y0073682D02*
X0103051Y0072576D01*
X0103051Y0071011D01*
X0104157Y0069904D01*
X0105722Y0069904D01*
X0106829Y0071011D01*
X0106829Y0072576D01*
X0105722Y0073682D01*
X0104157Y0073682D01*
X0103296Y0072821D02*
X0029384Y0072821D01*
X0029383Y0072223D02*
X0103051Y0072223D01*
X0103051Y0071624D02*
X0029383Y0071624D01*
X0029382Y0071026D02*
X0089321Y0071026D01*
X0089477Y0071182D02*
X0088371Y0070076D01*
X0088371Y0068511D01*
X0089477Y0067404D01*
X0091042Y0067404D01*
X0092149Y0068511D01*
X0092149Y0070076D01*
X0091042Y0071182D01*
X0089477Y0071182D01*
X0088722Y0070427D02*
X0029381Y0070427D01*
X0029381Y0069829D02*
X0088371Y0069829D01*
X0088371Y0069230D02*
X0029380Y0069230D01*
X0029380Y0068632D02*
X0088371Y0068632D01*
X0088848Y0068033D02*
X0029379Y0068033D01*
X0029379Y0067435D02*
X0089447Y0067435D01*
X0091073Y0067435D02*
X0107403Y0067435D01*
X0107404Y0068033D02*
X0091671Y0068033D01*
X0092149Y0068632D02*
X0107406Y0068632D01*
X0107408Y0069230D02*
X0092149Y0069230D01*
X0092149Y0069829D02*
X0107410Y0069829D01*
X0107411Y0070427D02*
X0106245Y0070427D01*
X0106829Y0071026D02*
X0107413Y0071026D01*
X0107415Y0071624D02*
X0106829Y0071624D01*
X0106829Y0072223D02*
X0107417Y0072223D01*
X0107418Y0072821D02*
X0106583Y0072821D01*
X0105984Y0073420D02*
X0107420Y0073420D01*
X0103634Y0070427D02*
X0091797Y0070427D01*
X0091198Y0071026D02*
X0103051Y0071026D01*
X0107401Y0066836D02*
X0029378Y0066836D01*
X0029377Y0066238D02*
X0074230Y0066238D01*
X0074689Y0066697D02*
X0073582Y0065590D01*
X0073582Y0064025D01*
X0074689Y0062919D01*
X0076254Y0062919D01*
X0077360Y0064025D01*
X0077360Y0065590D01*
X0076254Y0066697D01*
X0074689Y0066697D01*
X0073631Y0065639D02*
X0029377Y0065639D01*
X0029376Y0065041D02*
X0073582Y0065041D01*
X0073582Y0064442D02*
X0068447Y0064442D01*
X0067995Y0064894D02*
X0066430Y0064894D01*
X0065324Y0063787D01*
X0065324Y0062223D01*
X0066430Y0061116D01*
X0067995Y0061116D01*
X0069102Y0062223D01*
X0069102Y0063787D01*
X0067995Y0064894D01*
X0069045Y0063844D02*
X0073764Y0063844D01*
X0074362Y0063245D02*
X0069102Y0063245D01*
X0069102Y0062647D02*
X0107389Y0062647D01*
X0107391Y0063245D02*
X0076580Y0063245D01*
X0077179Y0063844D02*
X0107392Y0063844D01*
X0107394Y0064442D02*
X0077360Y0064442D01*
X0077360Y0065041D02*
X0107396Y0065041D01*
X0107398Y0065639D02*
X0077311Y0065639D01*
X0076713Y0066238D02*
X0107399Y0066238D01*
X0107387Y0062048D02*
X0068927Y0062048D01*
X0068329Y0061450D02*
X0107385Y0061450D01*
X0107384Y0060851D02*
X0029567Y0060851D01*
X0029373Y0061450D02*
X0061839Y0061450D01*
X0062188Y0061100D02*
X0063753Y0061100D01*
X0064860Y0062206D01*
X0064860Y0063771D01*
X0063753Y0064878D01*
X0062188Y0064878D01*
X0061082Y0063771D01*
X0061082Y0062206D01*
X0062188Y0061100D01*
X0061240Y0062048D02*
X0029373Y0062048D01*
X0029374Y0062647D02*
X0061082Y0062647D01*
X0061082Y0063245D02*
X0029374Y0063245D01*
X0029375Y0063844D02*
X0061154Y0063844D01*
X0061753Y0064442D02*
X0029376Y0064442D01*
X0030166Y0060253D02*
X0107382Y0060253D01*
X0107380Y0059654D02*
X0030764Y0059654D01*
X0031363Y0059056D02*
X0107378Y0059056D01*
X0107377Y0058457D02*
X0031961Y0058457D01*
X0032560Y0057859D02*
X0107375Y0057859D01*
X0107373Y0057260D02*
X0033159Y0057260D01*
X0033757Y0056662D02*
X0107371Y0056662D01*
X0107370Y0056063D02*
X0034356Y0056063D01*
X0034954Y0055465D02*
X0107368Y0055465D01*
X0107366Y0054866D02*
X0035553Y0054866D01*
X0036151Y0054268D02*
X0107364Y0054268D01*
X0107363Y0053669D02*
X0036750Y0053669D01*
X0037348Y0053070D02*
X0045669Y0053070D01*
X0045693Y0053095D02*
X0044586Y0051988D01*
X0044586Y0050423D01*
X0045693Y0049317D01*
X0047257Y0049317D01*
X0048364Y0050423D01*
X0048364Y0051988D01*
X0047257Y0053095D01*
X0045693Y0053095D01*
X0045070Y0052472D02*
X0037947Y0052472D01*
X0038545Y0051873D02*
X0044586Y0051873D01*
X0044586Y0051275D02*
X0039144Y0051275D01*
X0039742Y0050676D02*
X0044586Y0050676D01*
X0044931Y0050078D02*
X0040341Y0050078D01*
X0040939Y0049479D02*
X0045530Y0049479D01*
X0047420Y0049479D02*
X0075385Y0049479D01*
X0075831Y0049925D02*
X0074724Y0048818D01*
X0074724Y0047254D01*
X0075831Y0046147D01*
X0077395Y0046147D01*
X0078502Y0047254D01*
X0078502Y0048818D01*
X0077395Y0049925D01*
X0075831Y0049925D01*
X0074787Y0048881D02*
X0041538Y0048881D01*
X0042136Y0048282D02*
X0074724Y0048282D01*
X0074724Y0047684D02*
X0071316Y0047684D01*
X0071859Y0047141D02*
X0070752Y0048248D01*
X0069187Y0048248D01*
X0068081Y0047141D01*
X0068081Y0045576D01*
X0069187Y0044470D01*
X0070752Y0044470D01*
X0071859Y0045576D01*
X0071859Y0047141D01*
X0071859Y0047085D02*
X0074892Y0047085D01*
X0075491Y0046487D02*
X0071859Y0046487D01*
X0071859Y0045888D02*
X0107340Y0045888D01*
X0107338Y0045290D02*
X0071572Y0045290D01*
X0070974Y0044691D02*
X0107336Y0044691D01*
X0107335Y0044093D02*
X0079802Y0044093D01*
X0080401Y0043494D02*
X0107333Y0043494D01*
X0107331Y0042896D02*
X0084277Y0042896D01*
X0084874Y0042297D02*
X0107329Y0042297D01*
X0107328Y0041699D02*
X0085470Y0041699D01*
X0086066Y0041100D02*
X0107326Y0041100D01*
X0107324Y0040502D02*
X0086662Y0040502D01*
X0087258Y0039903D02*
X0107322Y0039903D01*
X0107321Y0039305D02*
X0094845Y0039305D01*
X0094501Y0039648D02*
X0095608Y0038542D01*
X0095608Y0036977D01*
X0094501Y0035870D01*
X0092936Y0035870D01*
X0091830Y0036977D01*
X0091830Y0038542D01*
X0092936Y0039648D01*
X0094501Y0039648D01*
X0095443Y0038706D02*
X0107319Y0038706D01*
X0107317Y0038108D02*
X0095608Y0038108D01*
X0095608Y0037509D02*
X0107315Y0037509D01*
X0107264Y0036911D02*
X0095541Y0036911D01*
X0094943Y0036312D02*
X0106671Y0036312D01*
X0106078Y0035714D02*
X0091432Y0035714D01*
X0090836Y0036312D02*
X0092494Y0036312D01*
X0091896Y0036911D02*
X0090240Y0036911D01*
X0089643Y0037509D02*
X0091830Y0037509D01*
X0091830Y0038108D02*
X0089047Y0038108D01*
X0088451Y0038706D02*
X0091994Y0038706D01*
X0092593Y0039305D02*
X0087855Y0039305D01*
X0092028Y0035115D02*
X0105485Y0035115D01*
X0104892Y0034517D02*
X0092625Y0034517D01*
X0093221Y0033918D02*
X0104298Y0033918D01*
X0103705Y0033320D02*
X0093817Y0033320D01*
X0094413Y0032721D02*
X0097772Y0032721D01*
X0107342Y0046487D02*
X0077735Y0046487D01*
X0078334Y0047085D02*
X0107343Y0047085D01*
X0107345Y0047684D02*
X0078502Y0047684D01*
X0078502Y0048282D02*
X0107347Y0048282D01*
X0107349Y0048881D02*
X0078439Y0048881D01*
X0077841Y0049479D02*
X0107350Y0049479D01*
X0107352Y0050078D02*
X0048019Y0050078D01*
X0048364Y0050676D02*
X0107354Y0050676D01*
X0107356Y0051275D02*
X0048364Y0051275D01*
X0048364Y0051873D02*
X0107357Y0051873D01*
X0107359Y0052472D02*
X0047880Y0052472D01*
X0047282Y0053070D02*
X0107361Y0053070D01*
X0090167Y0065231D02*
X0090243Y0065436D01*
X0085511Y0084729D02*
X0085668Y0085831D01*
X0091770Y0107376D02*
X0092328Y0107376D01*
X0084686Y0109331D02*
X0034480Y0109331D01*
X0033882Y0108732D02*
X0084088Y0108732D01*
X0086833Y0114135D02*
X0086357Y0114611D01*
X0079418Y0133274D02*
X0077853Y0133274D01*
X0076746Y0134381D01*
X0076746Y0135946D01*
X0077853Y0137052D01*
X0079418Y0137052D01*
X0080524Y0135946D01*
X0080524Y0134381D01*
X0079418Y0133274D01*
X0080013Y0133870D02*
X0107597Y0133870D01*
X0107598Y0134468D02*
X0107095Y0134468D01*
X0107595Y0133271D02*
X0044833Y0133271D01*
X0045090Y0133870D02*
X0077258Y0133870D01*
X0076746Y0134468D02*
X0045090Y0134468D01*
X0045090Y0135067D02*
X0052383Y0135067D01*
X0051850Y0135665D02*
X0044518Y0135665D01*
X0043052Y0136264D02*
X0051850Y0136264D01*
X0051850Y0136862D02*
X0043448Y0136862D01*
X0043843Y0137461D02*
X0052146Y0137461D01*
X0052744Y0138059D02*
X0044239Y0138059D01*
X0044234Y0132672D02*
X0107593Y0132672D01*
X0107591Y0132074D02*
X0040285Y0132074D01*
X0039890Y0131475D02*
X0054940Y0131475D01*
X0055476Y0132012D02*
X0054370Y0130905D01*
X0054370Y0129340D01*
X0055476Y0128234D01*
X0057041Y0128234D01*
X0058148Y0129340D01*
X0058148Y0130905D01*
X0057041Y0132012D01*
X0055476Y0132012D01*
X0054370Y0130877D02*
X0039494Y0130877D01*
X0039099Y0130278D02*
X0054370Y0130278D01*
X0054370Y0129680D02*
X0038704Y0129680D01*
X0038308Y0129081D02*
X0054628Y0129081D01*
X0055227Y0128483D02*
X0037913Y0128483D01*
X0037518Y0127884D02*
X0107579Y0127884D01*
X0107577Y0127286D02*
X0057200Y0127286D01*
X0057080Y0127405D02*
X0055516Y0127405D01*
X0054409Y0126299D01*
X0054409Y0124734D01*
X0055516Y0123627D01*
X0057080Y0123627D01*
X0058187Y0124734D01*
X0058187Y0126299D01*
X0057080Y0127405D01*
X0057798Y0126687D02*
X0107576Y0126687D01*
X0107574Y0126089D02*
X0058187Y0126089D01*
X0058187Y0125490D02*
X0107572Y0125490D01*
X0107571Y0124892D02*
X0058187Y0124892D01*
X0057747Y0124293D02*
X0107569Y0124293D01*
X0107567Y0123695D02*
X0057148Y0123695D01*
X0055448Y0123695D02*
X0045009Y0123695D01*
X0045009Y0123957D02*
X0043902Y0125064D01*
X0042337Y0125064D01*
X0041231Y0123957D01*
X0041231Y0122392D01*
X0042337Y0121286D01*
X0043902Y0121286D01*
X0045009Y0122392D01*
X0045009Y0123957D01*
X0044673Y0124293D02*
X0054850Y0124293D01*
X0054409Y0124892D02*
X0044074Y0124892D01*
X0042165Y0124892D02*
X0035541Y0124892D01*
X0035178Y0124293D02*
X0041567Y0124293D01*
X0041231Y0123695D02*
X0034834Y0123695D01*
X0034490Y0123096D02*
X0041231Y0123096D01*
X0041231Y0122498D02*
X0034146Y0122498D01*
X0033802Y0121899D02*
X0041724Y0121899D01*
X0042322Y0121301D02*
X0033459Y0121301D01*
X0033115Y0120702D02*
X0107558Y0120702D01*
X0107557Y0120104D02*
X0032771Y0120104D01*
X0032427Y0119505D02*
X0107555Y0119505D01*
X0107553Y0118907D02*
X0032083Y0118907D01*
X0031739Y0118308D02*
X0107551Y0118308D01*
X0107550Y0117710D02*
X0031396Y0117710D01*
X0031052Y0117111D02*
X0107548Y0117111D01*
X0107546Y0116513D02*
X0030708Y0116513D01*
X0030364Y0115914D02*
X0107544Y0115914D01*
X0107543Y0115316D02*
X0030020Y0115316D01*
X0029677Y0114717D02*
X0107541Y0114717D01*
X0107539Y0114119D02*
X0029424Y0114119D01*
X0029423Y0113520D02*
X0107537Y0113520D01*
X0107536Y0112922D02*
X0029423Y0112922D01*
X0032835Y0114251D02*
X0033091Y0114676D01*
X0035936Y0125490D02*
X0054409Y0125490D01*
X0054409Y0126089D02*
X0036332Y0126089D01*
X0036727Y0126687D02*
X0054798Y0126687D01*
X0055396Y0127286D02*
X0037122Y0127286D01*
X0040053Y0126171D02*
X0040354Y0125923D01*
X0045009Y0123096D02*
X0107565Y0123096D01*
X0107564Y0122498D02*
X0045009Y0122498D01*
X0044515Y0121899D02*
X0107562Y0121899D01*
X0107560Y0121301D02*
X0043917Y0121301D01*
X0042168Y0132672D02*
X0040680Y0132672D01*
X0041076Y0133271D02*
X0041569Y0133271D01*
X0051053Y0132754D02*
X0051053Y0131577D01*
X0055095Y0135067D02*
X0056660Y0135067D01*
X0056151Y0135665D02*
X0055628Y0135665D01*
X0055628Y0136264D02*
X0056151Y0136264D01*
X0056151Y0136862D02*
X0055628Y0136862D01*
X0055332Y0137461D02*
X0056472Y0137461D01*
X0057070Y0138059D02*
X0054734Y0138059D01*
X0059010Y0138059D02*
X0107609Y0138059D01*
X0107607Y0137461D02*
X0107119Y0137461D01*
X0104745Y0137461D02*
X0059608Y0137461D01*
X0059929Y0136862D02*
X0077663Y0136862D01*
X0077064Y0136264D02*
X0059929Y0136264D01*
X0059929Y0135665D02*
X0076746Y0135665D01*
X0076746Y0135067D02*
X0059421Y0135067D01*
X0057577Y0131475D02*
X0107590Y0131475D01*
X0107588Y0130877D02*
X0058148Y0130877D01*
X0058148Y0130278D02*
X0107586Y0130278D01*
X0107584Y0129680D02*
X0058148Y0129680D01*
X0057889Y0129081D02*
X0107583Y0129081D01*
X0107581Y0128483D02*
X0057290Y0128483D01*
X0079608Y0136862D02*
X0104146Y0136862D01*
X0104043Y0136264D02*
X0080206Y0136264D01*
X0080524Y0135665D02*
X0104043Y0135665D01*
X0104171Y0135067D02*
X0080524Y0135067D01*
X0080524Y0134468D02*
X0104769Y0134468D01*
X0126273Y0188654D02*
X0176696Y0188654D01*
X0192359Y0172992D01*
X0192359Y0037420D01*
X0175442Y0020504D01*
X0060640Y0020504D01*
X0021746Y0059398D01*
X0021746Y0113334D01*
X0032962Y0097512D02*
X0033879Y0097495D01*
X0036292Y0078505D02*
X0037483Y0078505D01*
X0064189Y0064442D02*
X0065978Y0064442D01*
X0065380Y0063844D02*
X0064787Y0063844D01*
X0064860Y0063245D02*
X0065324Y0063245D01*
X0065324Y0062647D02*
X0064860Y0062647D01*
X0064702Y0062048D02*
X0065498Y0062048D01*
X0066096Y0061450D02*
X0064103Y0061450D01*
X0061763Y0054129D02*
X0061763Y0052800D01*
X0068081Y0047085D02*
X0043333Y0047085D01*
X0043932Y0046487D02*
X0068081Y0046487D01*
X0068081Y0045888D02*
X0044530Y0045888D01*
X0045129Y0045290D02*
X0068367Y0045290D01*
X0068966Y0044691D02*
X0045727Y0044691D01*
X0046326Y0044093D02*
X0078102Y0044093D01*
X0077503Y0043494D02*
X0046924Y0043494D01*
X0050651Y0046250D02*
X0051235Y0046250D01*
X0042735Y0047684D02*
X0068624Y0047684D01*
X0081409Y0046377D02*
X0081902Y0045978D01*
X3753735Y0125548D02*
X3780931Y0098352D01*
X3791753Y0098352D01*
X3794546Y0095559D01*
X3794546Y0038267D01*
X3833468Y0016544D01*
X3829055Y0021021D02*
X3796760Y0038953D01*
X3796714Y0095966D01*
X3792351Y0100345D01*
X3782148Y0100373D01*
X3756525Y0125963D01*
X3756541Y0175507D01*
X3770154Y0189100D01*
X3904042Y0189100D01*
X3919064Y0174078D01*
X3919064Y0060037D01*
X3882271Y0023244D01*
X3828831Y0023196D01*
X3798951Y0039781D01*
X3798928Y0096852D01*
X3793247Y0102534D01*
X3783289Y0102534D01*
X3759239Y0126584D01*
X3759239Y0174542D01*
X3771023Y0186327D01*
X3903692Y0186327D01*
X3916199Y0173820D01*
X3916199Y0059443D01*
X3882277Y0025521D01*
X3828231Y0025531D01*
X3800937Y0040595D01*
X3800891Y0097662D01*
X3794013Y0104539D01*
X3784063Y0104539D01*
X3761704Y0126898D01*
X3761704Y0174013D01*
X3771874Y0184183D01*
X3903336Y0184183D01*
X3913851Y0173668D01*
X3913851Y0059599D01*
X3881799Y0027547D01*
X3827818Y0027599D01*
X3803056Y0041825D01*
X3803056Y0098349D01*
X3794722Y0106683D01*
X3784882Y0106683D01*
X3763973Y0127592D01*
X3763973Y0173343D01*
X3772716Y0182086D01*
X3902241Y0182086D01*
X3911462Y0172865D01*
X3911462Y0116185D01*
X3907267Y0111989D01*
X3861285Y0111989D01*
X3854662Y0105367D01*
X3854662Y0103556D01*
X3853398Y0102148D02*
X3803961Y0102148D01*
X3803951Y0101550D02*
X3909597Y0101550D01*
X3909587Y0102148D02*
X3861748Y0102148D01*
X3861593Y0101993D02*
X3862700Y0103100D01*
X3862700Y0104665D01*
X3861593Y0105771D01*
X3860028Y0105771D01*
X3858922Y0104665D01*
X3858922Y0103100D01*
X3860028Y0101993D01*
X3861593Y0101993D01*
X3862347Y0102747D02*
X3869393Y0102747D01*
X3869814Y0102326D02*
X3871379Y0102326D01*
X3872485Y0103432D01*
X3872485Y0104997D01*
X3871379Y0106104D01*
X3869814Y0106104D01*
X3868707Y0104997D01*
X3868707Y0103432D01*
X3869814Y0102326D01*
X3868794Y0103345D02*
X3862700Y0103345D01*
X3862700Y0103944D02*
X3868707Y0103944D01*
X3868707Y0104542D02*
X3862700Y0104542D01*
X3862224Y0105141D02*
X3868851Y0105141D01*
X3869450Y0105739D02*
X3861625Y0105739D01*
X3859997Y0105739D02*
X3856590Y0105739D01*
X3855992Y0105141D02*
X3859398Y0105141D01*
X3858922Y0104542D02*
X3856347Y0104542D01*
X3856551Y0104338D02*
X3855870Y0105019D01*
X3857580Y0106729D01*
X3905029Y0106590D01*
X3905227Y0106788D01*
X3909582Y0102473D01*
X3909721Y0093741D01*
X3899348Y0083407D01*
X3899342Y0080116D01*
X3899335Y0080116D01*
X3898229Y0079010D01*
X3898229Y0077445D01*
X3899335Y0076339D01*
X3899278Y0046582D01*
X3881343Y0028647D01*
X3854903Y0028673D01*
X3855958Y0029728D01*
X3855958Y0031292D01*
X3854851Y0032399D01*
X3853286Y0032399D01*
X3852180Y0031292D01*
X3852180Y0029728D01*
X3853233Y0028675D01*
X3828112Y0028699D01*
X3817722Y0034668D01*
X3808761Y0040587D01*
X3808861Y0040587D01*
X3809968Y0041694D01*
X3809968Y0043258D01*
X3808861Y0044365D01*
X3807297Y0044365D01*
X3806190Y0043258D01*
X3806190Y0042285D01*
X3804156Y0043629D01*
X3804156Y0052194D01*
X3805225Y0051125D01*
X3806790Y0051125D01*
X3807896Y0052232D01*
X3807896Y0053797D01*
X3806790Y0054903D01*
X3805225Y0054903D01*
X3804156Y0053834D01*
X3804156Y0056520D01*
X3805250Y0055426D01*
X3806815Y0055426D01*
X3807921Y0056533D01*
X3807921Y0058098D01*
X3806815Y0059204D01*
X3805250Y0059204D01*
X3804156Y0058110D01*
X3804156Y0098805D01*
X3803910Y0099051D01*
X3804027Y0106212D01*
X3803986Y0106885D01*
X3805415Y0106881D01*
X3804524Y0105990D01*
X3804524Y0104425D01*
X3805631Y0103318D01*
X3807196Y0103318D01*
X3808302Y0104425D01*
X3808302Y0105990D01*
X3807417Y0106875D01*
X3854477Y0106738D01*
X3853562Y0105823D01*
X3853562Y0105127D01*
X3852773Y0104338D01*
X3852773Y0102774D01*
X3853880Y0101667D01*
X3855445Y0101667D01*
X3856551Y0102774D01*
X3856551Y0104338D01*
X3856551Y0103944D02*
X3858922Y0103944D01*
X3858922Y0103345D02*
X3856551Y0103345D01*
X3856525Y0102747D02*
X3859275Y0102747D01*
X3859873Y0102148D02*
X3855926Y0102148D01*
X3852800Y0102747D02*
X3803971Y0102747D01*
X3803980Y0103345D02*
X3805603Y0103345D01*
X3805005Y0103944D02*
X3803990Y0103944D01*
X3804000Y0104542D02*
X3804524Y0104542D01*
X3804524Y0105141D02*
X3804010Y0105141D01*
X3804020Y0105739D02*
X3804524Y0105739D01*
X3804873Y0106338D02*
X3804020Y0106338D01*
X3807954Y0106338D02*
X3854078Y0106338D01*
X3853562Y0105739D02*
X3808302Y0105739D01*
X3808302Y0105141D02*
X3853562Y0105141D01*
X3852977Y0104542D02*
X3808302Y0104542D01*
X3807821Y0103944D02*
X3852773Y0103944D01*
X3852773Y0103345D02*
X3807223Y0103345D01*
X3803941Y0100951D02*
X3847987Y0100951D01*
X3848340Y0101304D02*
X3847234Y0100198D01*
X3847234Y0098633D01*
X3848340Y0097527D01*
X3849905Y0097527D01*
X3851012Y0098633D01*
X3851012Y0100198D01*
X3849905Y0101304D01*
X3848340Y0101304D01*
X3847389Y0100353D02*
X3842639Y0100353D01*
X3842459Y0100533D02*
X3840894Y0100533D01*
X3839787Y0099426D01*
X3839787Y0097862D01*
X3840894Y0096755D01*
X3842459Y0096755D01*
X3843565Y0097862D01*
X3843565Y0099426D01*
X3842459Y0100533D01*
X3843237Y0099754D02*
X3847234Y0099754D01*
X3847234Y0099156D02*
X3843565Y0099156D01*
X3843565Y0098557D02*
X3847310Y0098557D01*
X3847908Y0097959D02*
X3843565Y0097959D01*
X3843064Y0097360D02*
X3909663Y0097360D01*
X3909673Y0096762D02*
X3842466Y0096762D01*
X3840887Y0096762D02*
X3804156Y0096762D01*
X3804156Y0097360D02*
X3840289Y0097360D01*
X3839787Y0097959D02*
X3804156Y0097959D01*
X3804156Y0098557D02*
X3839787Y0098557D01*
X3839787Y0099156D02*
X3803912Y0099156D01*
X3803921Y0099754D02*
X3840115Y0099754D01*
X3840714Y0100353D02*
X3803931Y0100353D01*
X3804156Y0096163D02*
X3909683Y0096163D01*
X3909692Y0095565D02*
X3804156Y0095565D01*
X3804156Y0094966D02*
X3909702Y0094966D01*
X3909711Y0094368D02*
X3905928Y0094368D01*
X3905413Y0094883D02*
X3903848Y0094883D01*
X3902741Y0093776D01*
X3902741Y0092211D01*
X3903848Y0091105D01*
X3905413Y0091105D01*
X3906519Y0092211D01*
X3906519Y0093776D01*
X3905413Y0094883D01*
X3906519Y0093769D02*
X3909721Y0093769D01*
X3909149Y0093171D02*
X3906519Y0093171D01*
X3906519Y0092572D02*
X3908548Y0092572D01*
X3907947Y0091974D02*
X3906282Y0091974D01*
X3905683Y0091375D02*
X3907347Y0091375D01*
X3906746Y0090777D02*
X3874526Y0090777D01*
X3874985Y0090317D02*
X3873879Y0091424D01*
X3872314Y0091424D01*
X3871207Y0090317D01*
X3871207Y0088752D01*
X3872314Y0087646D01*
X3873879Y0087646D01*
X3874985Y0088752D01*
X3874985Y0090317D01*
X3874985Y0090178D02*
X3906145Y0090178D01*
X3905544Y0089580D02*
X3874985Y0089580D01*
X3874985Y0088981D02*
X3904943Y0088981D01*
X3904343Y0088383D02*
X3874616Y0088383D01*
X3874017Y0087784D02*
X3903742Y0087784D01*
X3903141Y0087186D02*
X3804156Y0087186D01*
X3804156Y0087784D02*
X3872176Y0087784D01*
X3871577Y0088383D02*
X3804156Y0088383D01*
X3804156Y0088981D02*
X3871207Y0088981D01*
X3871207Y0089580D02*
X3804156Y0089580D01*
X3804156Y0090178D02*
X3871207Y0090178D01*
X3871667Y0090777D02*
X3804156Y0090777D01*
X3804156Y0091375D02*
X3872266Y0091375D01*
X3873927Y0091375D02*
X3903577Y0091375D01*
X3902979Y0091974D02*
X3804156Y0091974D01*
X3804156Y0092572D02*
X3902741Y0092572D01*
X3902741Y0093171D02*
X3804156Y0093171D01*
X3804156Y0093769D02*
X3902741Y0093769D01*
X3903333Y0094368D02*
X3804156Y0094368D01*
X3804156Y0086587D02*
X3833344Y0086587D01*
X3833778Y0087021D02*
X3832671Y0085914D01*
X3832671Y0084349D01*
X3833778Y0083243D01*
X3835343Y0083243D01*
X3836449Y0084349D01*
X3836449Y0085914D01*
X3835343Y0087021D01*
X3833778Y0087021D01*
X3832745Y0085989D02*
X3804156Y0085989D01*
X3804156Y0085390D02*
X3832671Y0085390D01*
X3832671Y0084792D02*
X3804156Y0084792D01*
X3804156Y0084193D02*
X3832827Y0084193D01*
X3833426Y0083595D02*
X3804156Y0083595D01*
X3804156Y0082996D02*
X3858239Y0082996D01*
X3857689Y0082446D02*
X3857689Y0080881D01*
X3858795Y0079775D01*
X3860360Y0079775D01*
X3861467Y0080881D01*
X3861467Y0082446D01*
X3860360Y0083553D01*
X3858795Y0083553D01*
X3857689Y0082446D01*
X3857689Y0082398D02*
X3804156Y0082398D01*
X3804156Y0081799D02*
X3857689Y0081799D01*
X3857689Y0081201D02*
X3804156Y0081201D01*
X3804156Y0080602D02*
X3857968Y0080602D01*
X3858566Y0080003D02*
X3804156Y0080003D01*
X3804156Y0079405D02*
X3806049Y0079405D01*
X3806444Y0079799D02*
X3805337Y0078693D01*
X3805337Y0077128D01*
X3806444Y0076022D01*
X3808009Y0076022D01*
X3809115Y0077128D01*
X3809115Y0078693D01*
X3808009Y0079799D01*
X3806444Y0079799D01*
X3805451Y0078806D02*
X3804156Y0078806D01*
X3804156Y0078208D02*
X3805337Y0078208D01*
X3805337Y0077609D02*
X3804156Y0077609D01*
X3804156Y0077011D02*
X3805455Y0077011D01*
X3806053Y0076412D02*
X3804156Y0076412D01*
X3804156Y0075814D02*
X3875978Y0075814D01*
X3875693Y0075529D02*
X3875693Y0073964D01*
X3876800Y0072857D01*
X3878364Y0072857D01*
X3879471Y0073964D01*
X3879471Y0075529D01*
X3878364Y0076635D01*
X3876800Y0076635D01*
X3875693Y0075529D01*
X3875693Y0075215D02*
X3804156Y0075215D01*
X3804156Y0074617D02*
X3875693Y0074617D01*
X3875693Y0074018D02*
X3804156Y0074018D01*
X3804156Y0073420D02*
X3876237Y0073420D01*
X3878927Y0073420D02*
X3899329Y0073420D01*
X3899330Y0074018D02*
X3895155Y0074018D01*
X3895136Y0073999D02*
X3896243Y0075106D01*
X3896243Y0076671D01*
X3895136Y0077777D01*
X3893571Y0077777D01*
X3892465Y0076671D01*
X3892465Y0075106D01*
X3893571Y0073999D01*
X3895136Y0073999D01*
X3895754Y0074617D02*
X3899331Y0074617D01*
X3899333Y0075215D02*
X3896243Y0075215D01*
X3896243Y0075814D02*
X3899334Y0075814D01*
X3899261Y0076412D02*
X3896243Y0076412D01*
X3895902Y0077011D02*
X3898663Y0077011D01*
X3898229Y0077609D02*
X3895304Y0077609D01*
X3893404Y0077609D02*
X3809115Y0077609D01*
X3809115Y0078208D02*
X3898229Y0078208D01*
X3898229Y0078806D02*
X3809002Y0078806D01*
X3808403Y0079405D02*
X3898624Y0079405D01*
X3899223Y0080003D02*
X3865529Y0080003D01*
X3865253Y0079727D02*
X3866359Y0080834D01*
X3866359Y0082399D01*
X3865253Y0083505D01*
X3863688Y0083505D01*
X3862582Y0082399D01*
X3862582Y0080834D01*
X3863688Y0079727D01*
X3865253Y0079727D01*
X3866127Y0080602D02*
X3899343Y0080602D01*
X3899344Y0081201D02*
X3866359Y0081201D01*
X3866359Y0081799D02*
X3899345Y0081799D01*
X3899346Y0082398D02*
X3866359Y0082398D01*
X3865762Y0082996D02*
X3899347Y0082996D01*
X3899536Y0083595D02*
X3835694Y0083595D01*
X3836293Y0084193D02*
X3900137Y0084193D01*
X3900738Y0084792D02*
X3836449Y0084792D01*
X3836449Y0085390D02*
X3901338Y0085390D01*
X3901939Y0085989D02*
X3836375Y0085989D01*
X3835776Y0086587D02*
X3902540Y0086587D01*
X3896411Y0081177D02*
X3896013Y0080684D01*
X3892805Y0077011D02*
X3808998Y0077011D01*
X3808400Y0076412D02*
X3876577Y0076412D01*
X3878587Y0076412D02*
X3892465Y0076412D01*
X3892465Y0075814D02*
X3879186Y0075814D01*
X3879471Y0075215D02*
X3892465Y0075215D01*
X3892953Y0074617D02*
X3879471Y0074617D01*
X3879471Y0074018D02*
X3893552Y0074018D01*
X3895248Y0071134D02*
X3894142Y0070027D01*
X3894142Y0068463D01*
X3895248Y0067356D01*
X3896813Y0067356D01*
X3897920Y0068463D01*
X3897920Y0070027D01*
X3896813Y0071134D01*
X3895248Y0071134D01*
X3895140Y0071026D02*
X3804156Y0071026D01*
X3804156Y0071624D02*
X3899326Y0071624D01*
X3899325Y0071026D02*
X3896921Y0071026D01*
X3897520Y0070427D02*
X3899323Y0070427D01*
X3899322Y0069829D02*
X3897920Y0069829D01*
X3897920Y0069230D02*
X3899321Y0069230D01*
X3899320Y0068632D02*
X3897920Y0068632D01*
X3897491Y0068033D02*
X3899319Y0068033D01*
X3899318Y0067435D02*
X3896892Y0067435D01*
X3895170Y0067435D02*
X3881109Y0067435D01*
X3881274Y0067270D02*
X3880167Y0068377D01*
X3878602Y0068377D01*
X3877496Y0067270D01*
X3877496Y0065705D01*
X3878602Y0064599D01*
X3880167Y0064599D01*
X3881274Y0065705D01*
X3881274Y0067270D01*
X3881274Y0066836D02*
X3899317Y0066836D01*
X3899315Y0066238D02*
X3881274Y0066238D01*
X3881208Y0065639D02*
X3899314Y0065639D01*
X3899313Y0065041D02*
X3880609Y0065041D01*
X3880183Y0064135D02*
X3878618Y0064135D01*
X3877512Y0063028D01*
X3877512Y0061464D01*
X3878618Y0060357D01*
X3880183Y0060357D01*
X3881290Y0061464D01*
X3881290Y0063028D01*
X3880183Y0064135D01*
X3880475Y0063844D02*
X3899311Y0063844D01*
X3899312Y0064442D02*
X3804156Y0064442D01*
X3804156Y0063844D02*
X3878327Y0063844D01*
X3877729Y0063245D02*
X3804156Y0063245D01*
X3804156Y0062647D02*
X3877512Y0062647D01*
X3877512Y0062048D02*
X3804156Y0062048D01*
X3804156Y0061450D02*
X3877526Y0061450D01*
X3878124Y0060851D02*
X3804156Y0060851D01*
X3804156Y0060253D02*
X3899304Y0060253D01*
X3899305Y0060851D02*
X3880677Y0060851D01*
X3881276Y0061450D02*
X3899306Y0061450D01*
X3899307Y0062048D02*
X3881290Y0062048D01*
X3881290Y0062647D02*
X3899309Y0062647D01*
X3899310Y0063245D02*
X3881073Y0063245D01*
X3878160Y0065041D02*
X3804156Y0065041D01*
X3804156Y0065639D02*
X3877562Y0065639D01*
X3877496Y0066238D02*
X3804156Y0066238D01*
X3804156Y0066836D02*
X3877496Y0066836D01*
X3877660Y0067435D02*
X3804156Y0067435D01*
X3804156Y0068033D02*
X3878259Y0068033D01*
X3880510Y0068033D02*
X3894571Y0068033D01*
X3894142Y0068632D02*
X3804156Y0068632D01*
X3804156Y0069230D02*
X3894142Y0069230D01*
X3894142Y0069829D02*
X3804156Y0069829D01*
X3804156Y0070427D02*
X3894542Y0070427D01*
X3899327Y0072223D02*
X3804156Y0072223D01*
X3804156Y0072821D02*
X3899328Y0072821D01*
X3899303Y0059654D02*
X3804156Y0059654D01*
X3804156Y0059056D02*
X3805101Y0059056D01*
X3804503Y0058457D02*
X3804156Y0058457D01*
X3804156Y0056063D02*
X3804613Y0056063D01*
X3804156Y0055465D02*
X3805211Y0055465D01*
X3805188Y0054866D02*
X3804156Y0054866D01*
X3804156Y0054268D02*
X3804589Y0054268D01*
X3806827Y0054866D02*
X3810378Y0054866D01*
X3810378Y0054751D02*
X3811485Y0053645D01*
X3813049Y0053645D01*
X3814156Y0054751D01*
X3814156Y0056316D01*
X3813049Y0057423D01*
X3811485Y0057423D01*
X3810378Y0056316D01*
X3810378Y0054751D01*
X3810862Y0054268D02*
X3807425Y0054268D01*
X3807896Y0053669D02*
X3811460Y0053669D01*
X3813074Y0053669D02*
X3899291Y0053669D01*
X3899293Y0054268D02*
X3818239Y0054268D01*
X3818762Y0054791D02*
X3817656Y0053684D01*
X3816091Y0053684D01*
X3814984Y0054791D01*
X3814984Y0056356D01*
X3816091Y0057462D01*
X3817656Y0057462D01*
X3818762Y0056356D01*
X3818762Y0054791D01*
X3818762Y0054866D02*
X3899294Y0054866D01*
X3899295Y0055465D02*
X3818762Y0055465D01*
X3818762Y0056063D02*
X3899296Y0056063D01*
X3899297Y0056662D02*
X3818456Y0056662D01*
X3817858Y0057260D02*
X3899298Y0057260D01*
X3899299Y0057859D02*
X3807921Y0057859D01*
X3807921Y0057260D02*
X3811322Y0057260D01*
X3810723Y0056662D02*
X3807921Y0056662D01*
X3807451Y0056063D02*
X3810378Y0056063D01*
X3810378Y0055465D02*
X3806853Y0055465D01*
X3807896Y0053070D02*
X3899290Y0053070D01*
X3899289Y0052472D02*
X3807896Y0052472D01*
X3807538Y0051873D02*
X3899288Y0051873D01*
X3899287Y0051275D02*
X3806939Y0051275D01*
X3805075Y0051275D02*
X3804156Y0051275D01*
X3804156Y0051873D02*
X3804476Y0051873D01*
X3804156Y0050676D02*
X3899286Y0050676D01*
X3899285Y0050078D02*
X3804156Y0050078D01*
X3804156Y0049479D02*
X3899283Y0049479D01*
X3899282Y0048881D02*
X3804156Y0048881D01*
X3804156Y0048282D02*
X3899281Y0048282D01*
X3899280Y0047684D02*
X3804156Y0047684D01*
X3804156Y0047085D02*
X3889848Y0047085D01*
X3889295Y0046533D02*
X3889295Y0044968D01*
X3890402Y0043861D01*
X3891966Y0043861D01*
X3893073Y0044968D01*
X3893073Y0046533D01*
X3891966Y0047639D01*
X3890402Y0047639D01*
X3889295Y0046533D01*
X3889295Y0046487D02*
X3804156Y0046487D01*
X3804156Y0045888D02*
X3889295Y0045888D01*
X3889295Y0045290D02*
X3804156Y0045290D01*
X3804156Y0044691D02*
X3889571Y0044691D01*
X3890170Y0044093D02*
X3820188Y0044093D01*
X3819997Y0044284D02*
X3818432Y0044284D01*
X3817326Y0043177D01*
X3817326Y0041612D01*
X3818432Y0040506D01*
X3819997Y0040506D01*
X3821104Y0041612D01*
X3821104Y0043177D01*
X3819997Y0044284D01*
X3820787Y0043494D02*
X3896190Y0043494D01*
X3895592Y0042896D02*
X3821104Y0042896D01*
X3821104Y0042297D02*
X3894993Y0042297D01*
X3894395Y0041699D02*
X3821104Y0041699D01*
X3820592Y0041100D02*
X3893796Y0041100D01*
X3893198Y0040502D02*
X3808890Y0040502D01*
X3809375Y0041100D02*
X3817838Y0041100D01*
X3817326Y0041699D02*
X3809968Y0041699D01*
X3809968Y0042297D02*
X3817326Y0042297D01*
X3817326Y0042896D02*
X3809968Y0042896D01*
X3809732Y0043494D02*
X3817643Y0043494D01*
X3818241Y0044093D02*
X3809134Y0044093D01*
X3807024Y0044093D02*
X3804156Y0044093D01*
X3804360Y0043494D02*
X3806426Y0043494D01*
X3806190Y0042896D02*
X3805266Y0042896D01*
X3806172Y0042297D02*
X3806190Y0042297D01*
X3809796Y0039903D02*
X3892599Y0039903D01*
X3892001Y0039305D02*
X3810702Y0039305D01*
X3811608Y0038706D02*
X3891402Y0038706D01*
X3890804Y0038108D02*
X3812514Y0038108D01*
X3813421Y0037509D02*
X3890205Y0037509D01*
X3889607Y0036911D02*
X3814327Y0036911D01*
X3815233Y0036312D02*
X3889008Y0036312D01*
X3888410Y0035714D02*
X3816139Y0035714D01*
X3817045Y0035115D02*
X3887811Y0035115D01*
X3887213Y0034517D02*
X3817985Y0034517D01*
X3819027Y0033918D02*
X3830677Y0033918D01*
X3831004Y0034246D02*
X3829898Y0033139D01*
X3829898Y0031574D01*
X3831004Y0030468D01*
X3832569Y0030468D01*
X3833676Y0031574D01*
X3833676Y0033139D01*
X3832569Y0034246D01*
X3831004Y0034246D01*
X3830078Y0033320D02*
X3820069Y0033320D01*
X3821111Y0032721D02*
X3829898Y0032721D01*
X3829898Y0032123D02*
X3822153Y0032123D01*
X3823194Y0031524D02*
X3829948Y0031524D01*
X3830546Y0030926D02*
X3824236Y0030926D01*
X3825278Y0030327D02*
X3852180Y0030327D01*
X3852180Y0029729D02*
X3826320Y0029729D01*
X3827362Y0029130D02*
X3852777Y0029130D01*
X3852180Y0030926D02*
X3833027Y0030926D01*
X3833626Y0031524D02*
X3852411Y0031524D01*
X3853010Y0032123D02*
X3833676Y0032123D01*
X3833676Y0032721D02*
X3885417Y0032721D01*
X3884818Y0032123D02*
X3855127Y0032123D01*
X3855726Y0031524D02*
X3884220Y0031524D01*
X3883621Y0030926D02*
X3855958Y0030926D01*
X3855958Y0030327D02*
X3883023Y0030327D01*
X3882424Y0029729D02*
X3855958Y0029729D01*
X3855360Y0029130D02*
X3881826Y0029130D01*
X3886016Y0033320D02*
X3833495Y0033320D01*
X3832896Y0033918D02*
X3886614Y0033918D01*
X3892198Y0044093D02*
X3896789Y0044093D01*
X3897387Y0044691D02*
X3892797Y0044691D01*
X3893073Y0045290D02*
X3897986Y0045290D01*
X3898584Y0045888D02*
X3893073Y0045888D01*
X3893073Y0046487D02*
X3899183Y0046487D01*
X3899279Y0047085D02*
X3892520Y0047085D01*
X3896139Y0049926D02*
X3896139Y0050510D01*
X3899301Y0058457D02*
X3807562Y0058457D01*
X3806963Y0059056D02*
X3899302Y0059056D01*
X3889590Y0061038D02*
X3888260Y0061038D01*
X3877159Y0089442D02*
X3876954Y0089518D01*
X3871800Y0102747D02*
X3909306Y0102747D01*
X3908702Y0103345D02*
X3872399Y0103345D01*
X3872485Y0103944D02*
X3908098Y0103944D01*
X3907494Y0104542D02*
X3872485Y0104542D01*
X3872341Y0105141D02*
X3906890Y0105141D01*
X3906286Y0105739D02*
X3871743Y0105739D01*
X3857189Y0106338D02*
X3905682Y0106338D01*
X3909606Y0100951D02*
X3850258Y0100951D01*
X3850857Y0100353D02*
X3909616Y0100353D01*
X3909625Y0099754D02*
X3851012Y0099754D01*
X3851012Y0099156D02*
X3909635Y0099156D01*
X3909644Y0098557D02*
X3850936Y0098557D01*
X3850338Y0097959D02*
X3909654Y0097959D01*
X3921886Y0059915D02*
X3882992Y0021021D01*
X3829055Y0021021D01*
X3828139Y0032110D02*
X3827713Y0032366D01*
X3816466Y0039629D02*
X3816218Y0039328D01*
X3810812Y0050328D02*
X3809636Y0050328D01*
X3813672Y0054268D02*
X3815508Y0054268D01*
X3814984Y0054866D02*
X3814156Y0054866D01*
X3814156Y0055465D02*
X3814984Y0055465D01*
X3814984Y0056063D02*
X3814156Y0056063D01*
X3813811Y0056662D02*
X3815290Y0056662D01*
X3815889Y0057260D02*
X3813212Y0057260D01*
X3827779Y0085632D02*
X3828254Y0086108D01*
X3835014Y0091046D02*
X3835014Y0091603D01*
X3856558Y0084943D02*
X3857661Y0084786D01*
X3860917Y0082996D02*
X3863179Y0082996D01*
X3862582Y0082398D02*
X3861467Y0082398D01*
X3861467Y0081799D02*
X3862582Y0081799D01*
X3862582Y0081201D02*
X3861467Y0081201D01*
X3861187Y0080602D02*
X3862813Y0080602D01*
X3863412Y0080003D02*
X3860589Y0080003D01*
X3863884Y0036758D02*
X3863884Y0035567D01*
X3844895Y0033155D02*
X3844878Y0032237D01*
X3921886Y0059915D02*
X3921886Y0174718D01*
X3904969Y0191634D01*
X3769398Y0191634D01*
X3753735Y0175971D01*
X3753735Y0125548D01*
X3763348Y3751752D02*
X3747686Y3767415D01*
X3747686Y3902986D01*
X3764602Y3919902D01*
X3879405Y3919902D01*
X3918299Y3881008D01*
X3918299Y3827072D01*
X3900367Y3794777D01*
X3843354Y3794730D01*
X3838975Y3790368D01*
X3838947Y3780165D01*
X3813357Y3754541D01*
X3763812Y3754558D01*
X3750220Y3768171D01*
X3750220Y3902059D01*
X3765242Y3917081D01*
X3879283Y3917081D01*
X3916076Y3880287D01*
X3916124Y3826848D01*
X3899539Y3796968D01*
X3842467Y3796945D01*
X3836786Y3791264D01*
X3836786Y3781306D01*
X3812736Y3757256D01*
X3764778Y3757256D01*
X3752993Y3769040D01*
X3752993Y3901709D01*
X3765500Y3914215D01*
X3879877Y3914215D01*
X3913798Y3880293D01*
X3913789Y3826248D01*
X3898725Y3798953D01*
X3841658Y3798908D01*
X3834781Y3792030D01*
X3834781Y3782080D01*
X3812422Y3759721D01*
X3765307Y3759721D01*
X3755137Y3769891D01*
X3755137Y3901352D01*
X3765652Y3911867D01*
X3879721Y3911867D01*
X3911773Y3879815D01*
X3911721Y3825835D01*
X3897495Y3801073D01*
X3840971Y3801073D01*
X3832637Y3792739D01*
X3832637Y3782898D01*
X3811728Y3761989D01*
X3765977Y3761989D01*
X3757234Y3770733D01*
X3757234Y3900257D01*
X3766455Y3909479D01*
X3823135Y3909479D01*
X3827330Y3905283D01*
X3827330Y3859301D01*
X3833953Y3852679D01*
X3835764Y3852679D01*
X3836980Y3851223D02*
X3907001Y3851223D01*
X3906921Y3851303D02*
X3908028Y3850196D01*
X3909592Y3850196D01*
X3910645Y3851249D01*
X3910621Y3826129D01*
X3904652Y3815739D01*
X3898733Y3806778D01*
X3898733Y3806878D01*
X3897626Y3807985D01*
X3896061Y3807985D01*
X3894955Y3806878D01*
X3894955Y3805313D01*
X3896061Y3804207D01*
X3897035Y3804207D01*
X3895691Y3802173D01*
X3887126Y3802173D01*
X3888195Y3803241D01*
X3888195Y3804806D01*
X3887088Y3805913D01*
X3885523Y3805913D01*
X3884417Y3804806D01*
X3884417Y3803241D01*
X3885486Y3802173D01*
X3882800Y3802173D01*
X3883894Y3803266D01*
X3883894Y3804831D01*
X3882787Y3805938D01*
X3881222Y3805938D01*
X3880116Y3804831D01*
X3880116Y3803266D01*
X3881210Y3802173D01*
X3840515Y3802173D01*
X3840269Y3801927D01*
X3833108Y3802044D01*
X3832435Y3802002D01*
X3832439Y3803432D01*
X3833330Y3802541D01*
X3834895Y3802541D01*
X3836002Y3803647D01*
X3836002Y3805212D01*
X3834895Y3806319D01*
X3833330Y3806319D01*
X3832445Y3805433D01*
X3832582Y3852494D01*
X3833497Y3851579D01*
X3834193Y3851579D01*
X3834981Y3850790D01*
X3836546Y3850790D01*
X3837653Y3851897D01*
X3837653Y3853461D01*
X3836546Y3854568D01*
X3834981Y3854568D01*
X3834301Y3853887D01*
X3832591Y3855596D01*
X3832730Y3903046D01*
X3832532Y3903244D01*
X3836847Y3907599D01*
X3845579Y3907738D01*
X3855913Y3897365D01*
X3859204Y3897359D01*
X3859204Y3897352D01*
X3860310Y3896245D01*
X3861875Y3896245D01*
X3862981Y3897351D01*
X3892738Y3897295D01*
X3910672Y3879360D01*
X3910647Y3852920D01*
X3909592Y3853974D01*
X3908028Y3853974D01*
X3906921Y3852868D01*
X3906921Y3851303D01*
X3906921Y3851822D02*
X3837578Y3851822D01*
X3837653Y3852420D02*
X3906921Y3852420D01*
X3907072Y3853019D02*
X3837653Y3853019D01*
X3837497Y3853617D02*
X3907670Y3853617D01*
X3909949Y3853617D02*
X3910648Y3853617D01*
X3910647Y3853019D02*
X3910548Y3853019D01*
X3910648Y3854216D02*
X3836898Y3854216D01*
X3834629Y3854216D02*
X3833972Y3854216D01*
X3833373Y3854814D02*
X3910649Y3854814D01*
X3910649Y3855413D02*
X3832775Y3855413D01*
X3832593Y3856011D02*
X3856568Y3856011D01*
X3856874Y3855705D02*
X3858439Y3855705D01*
X3859545Y3856812D01*
X3859545Y3858377D01*
X3858439Y3859483D01*
X3856874Y3859483D01*
X3855767Y3858377D01*
X3855767Y3856812D01*
X3856874Y3855705D01*
X3855969Y3856610D02*
X3832594Y3856610D01*
X3832596Y3857208D02*
X3834385Y3857208D01*
X3834655Y3856939D02*
X3836220Y3856939D01*
X3837326Y3858045D01*
X3837326Y3859610D01*
X3836220Y3860717D01*
X3834655Y3860717D01*
X3833548Y3859610D01*
X3833548Y3858045D01*
X3834655Y3856939D01*
X3833787Y3857807D02*
X3832598Y3857807D01*
X3832600Y3858405D02*
X3833548Y3858405D01*
X3833548Y3859004D02*
X3832601Y3859004D01*
X3832603Y3859602D02*
X3833548Y3859602D01*
X3834139Y3860201D02*
X3832605Y3860201D01*
X3832607Y3860799D02*
X3856720Y3860799D01*
X3856921Y3860598D02*
X3858486Y3860598D01*
X3859592Y3861705D01*
X3859592Y3863270D01*
X3858486Y3864376D01*
X3856921Y3864376D01*
X3855815Y3863270D01*
X3855815Y3861705D01*
X3856921Y3860598D01*
X3856121Y3861398D02*
X3832608Y3861398D01*
X3832610Y3861997D02*
X3855815Y3861997D01*
X3855815Y3862595D02*
X3832612Y3862595D01*
X3832614Y3863194D02*
X3855815Y3863194D01*
X3856337Y3863792D02*
X3832615Y3863792D01*
X3832617Y3864391D02*
X3910658Y3864391D01*
X3910659Y3864989D02*
X3832619Y3864989D01*
X3832621Y3865588D02*
X3910659Y3865588D01*
X3910660Y3866186D02*
X3832622Y3866186D01*
X3832624Y3866785D02*
X3834262Y3866785D01*
X3834323Y3866724D02*
X3835888Y3866724D01*
X3836994Y3867831D01*
X3836994Y3869396D01*
X3835888Y3870502D01*
X3834323Y3870502D01*
X3833216Y3869396D01*
X3833216Y3867831D01*
X3834323Y3866724D01*
X3833664Y3867383D02*
X3832626Y3867383D01*
X3832627Y3867982D02*
X3833216Y3867982D01*
X3833216Y3868580D02*
X3832629Y3868580D01*
X3832631Y3869179D02*
X3833216Y3869179D01*
X3833598Y3869777D02*
X3832633Y3869777D01*
X3832634Y3870376D02*
X3834196Y3870376D01*
X3832636Y3870974D02*
X3847896Y3870974D01*
X3847896Y3870376D02*
X3836014Y3870376D01*
X3836613Y3869777D02*
X3848450Y3869777D01*
X3849003Y3869224D02*
X3850568Y3869224D01*
X3851674Y3870331D01*
X3851674Y3871896D01*
X3850568Y3873002D01*
X3849003Y3873002D01*
X3847896Y3871896D01*
X3847896Y3870331D01*
X3849003Y3869224D01*
X3851121Y3869777D02*
X3910663Y3869777D01*
X3910663Y3869179D02*
X3836994Y3869179D01*
X3836994Y3868580D02*
X3910662Y3868580D01*
X3910661Y3867982D02*
X3836994Y3867982D01*
X3836547Y3867383D02*
X3910661Y3867383D01*
X3910660Y3866785D02*
X3835948Y3866785D01*
X3832638Y3871573D02*
X3847896Y3871573D01*
X3848172Y3872171D02*
X3832640Y3872171D01*
X3832641Y3872770D02*
X3848770Y3872770D01*
X3850800Y3872770D02*
X3910666Y3872770D01*
X3910667Y3873368D02*
X3832643Y3873368D01*
X3832645Y3873967D02*
X3863534Y3873967D01*
X3863791Y3873710D02*
X3865356Y3873710D01*
X3866462Y3874816D01*
X3866462Y3876381D01*
X3865356Y3877488D01*
X3863791Y3877488D01*
X3862685Y3876381D01*
X3862685Y3874816D01*
X3863791Y3873710D01*
X3862935Y3874565D02*
X3832647Y3874565D01*
X3832648Y3875164D02*
X3862685Y3875164D01*
X3862685Y3875762D02*
X3832650Y3875762D01*
X3832652Y3876361D02*
X3862685Y3876361D01*
X3863263Y3876959D02*
X3832654Y3876959D01*
X3832655Y3877558D02*
X3870943Y3877558D01*
X3870943Y3878156D02*
X3832657Y3878156D01*
X3832659Y3878755D02*
X3871514Y3878755D01*
X3872050Y3879290D02*
X3870943Y3878184D01*
X3870943Y3876619D01*
X3872050Y3875512D01*
X3873615Y3875512D01*
X3874721Y3876619D01*
X3874721Y3878184D01*
X3873615Y3879290D01*
X3872050Y3879290D01*
X3874150Y3878755D02*
X3875740Y3878755D01*
X3876291Y3879307D02*
X3875185Y3878200D01*
X3875185Y3876635D01*
X3876291Y3875529D01*
X3877856Y3875529D01*
X3878963Y3876635D01*
X3878963Y3878200D01*
X3877856Y3879307D01*
X3876291Y3879307D01*
X3875185Y3878156D02*
X3874721Y3878156D01*
X3874721Y3877558D02*
X3875185Y3877558D01*
X3875185Y3876959D02*
X3874721Y3876959D01*
X3874463Y3876361D02*
X3875459Y3876361D01*
X3876058Y3875762D02*
X3873865Y3875762D01*
X3871800Y3875762D02*
X3866462Y3875762D01*
X3866462Y3875164D02*
X3910668Y3875164D01*
X3910669Y3875762D02*
X3878090Y3875762D01*
X3878689Y3876361D02*
X3910670Y3876361D01*
X3910670Y3876959D02*
X3878963Y3876959D01*
X3878963Y3877558D02*
X3910671Y3877558D01*
X3910671Y3878156D02*
X3878963Y3878156D01*
X3878408Y3878755D02*
X3910672Y3878755D01*
X3910672Y3879353D02*
X3832661Y3879353D01*
X3832662Y3879952D02*
X3910081Y3879952D01*
X3909482Y3880550D02*
X3832664Y3880550D01*
X3832666Y3881149D02*
X3908884Y3881149D01*
X3908285Y3881747D02*
X3832668Y3881747D01*
X3832669Y3882346D02*
X3907687Y3882346D01*
X3907088Y3882944D02*
X3832671Y3882944D01*
X3832673Y3883543D02*
X3906490Y3883543D01*
X3905891Y3884141D02*
X3832675Y3884141D01*
X3832676Y3884740D02*
X3905293Y3884740D01*
X3904694Y3885338D02*
X3832678Y3885338D01*
X3832680Y3885937D02*
X3904095Y3885937D01*
X3903497Y3886535D02*
X3832682Y3886535D01*
X3832683Y3887134D02*
X3902898Y3887134D01*
X3902300Y3887733D02*
X3894773Y3887733D01*
X3894352Y3887312D02*
X3895459Y3888418D01*
X3895459Y3889983D01*
X3894352Y3891090D01*
X3892787Y3891090D01*
X3891681Y3889983D01*
X3891681Y3888418D01*
X3892787Y3887312D01*
X3894352Y3887312D01*
X3895371Y3888331D02*
X3901701Y3888331D01*
X3901103Y3888930D02*
X3895459Y3888930D01*
X3895459Y3889528D02*
X3900504Y3889528D01*
X3899906Y3890127D02*
X3895315Y3890127D01*
X3894717Y3890725D02*
X3899307Y3890725D01*
X3898709Y3891324D02*
X3865056Y3891324D01*
X3865321Y3891588D02*
X3864214Y3890481D01*
X3862649Y3890481D01*
X3861543Y3891588D01*
X3861543Y3893153D01*
X3862649Y3894259D01*
X3864214Y3894259D01*
X3865321Y3893153D01*
X3865321Y3891588D01*
X3865321Y3891922D02*
X3898110Y3891922D01*
X3897512Y3892521D02*
X3871219Y3892521D01*
X3870857Y3892159D02*
X3871964Y3893265D01*
X3871964Y3894830D01*
X3870857Y3895937D01*
X3869292Y3895937D01*
X3868186Y3894830D01*
X3868186Y3893265D01*
X3869292Y3892159D01*
X3870857Y3892159D01*
X3871818Y3893119D02*
X3896913Y3893119D01*
X3896315Y3893718D02*
X3871964Y3893718D01*
X3871964Y3894316D02*
X3895716Y3894316D01*
X3895118Y3894915D02*
X3871879Y3894915D01*
X3871281Y3895513D02*
X3894519Y3895513D01*
X3893921Y3896112D02*
X3832710Y3896112D01*
X3832711Y3896710D02*
X3859846Y3896710D01*
X3859247Y3897309D02*
X3832713Y3897309D01*
X3832715Y3897907D02*
X3855372Y3897907D01*
X3854776Y3898506D02*
X3832717Y3898506D01*
X3832718Y3899104D02*
X3854180Y3899104D01*
X3853584Y3899703D02*
X3832720Y3899703D01*
X3832722Y3900301D02*
X3852987Y3900301D01*
X3852391Y3900900D02*
X3847250Y3900900D01*
X3847109Y3900758D02*
X3848215Y3901864D01*
X3848215Y3903429D01*
X3847109Y3904536D01*
X3845544Y3904536D01*
X3844437Y3903429D01*
X3844437Y3901864D01*
X3845544Y3900758D01*
X3847109Y3900758D01*
X3847849Y3901498D02*
X3851795Y3901498D01*
X3851199Y3902097D02*
X3848215Y3902097D01*
X3848215Y3902695D02*
X3850602Y3902695D01*
X3850006Y3903294D02*
X3848215Y3903294D01*
X3847752Y3903892D02*
X3849410Y3903892D01*
X3848814Y3904491D02*
X3847154Y3904491D01*
X3848218Y3905089D02*
X3834360Y3905089D01*
X3833767Y3904491D02*
X3845499Y3904491D01*
X3844900Y3903892D02*
X3833174Y3903892D01*
X3832581Y3903294D02*
X3844437Y3903294D01*
X3844437Y3902695D02*
X3832729Y3902695D01*
X3832727Y3902097D02*
X3844437Y3902097D01*
X3844803Y3901498D02*
X3832725Y3901498D01*
X3832724Y3900900D02*
X3845402Y3900900D01*
X3847621Y3905688D02*
X3834953Y3905688D01*
X3835546Y3906286D02*
X3847025Y3906286D01*
X3846429Y3906885D02*
X3836139Y3906885D01*
X3836733Y3907483D02*
X3845833Y3907483D01*
X3832708Y3895513D02*
X3868869Y3895513D01*
X3868271Y3894915D02*
X3832706Y3894915D01*
X3832704Y3894316D02*
X3868186Y3894316D01*
X3868186Y3893718D02*
X3864756Y3893718D01*
X3865321Y3893119D02*
X3868332Y3893119D01*
X3868930Y3892521D02*
X3865321Y3892521D01*
X3864458Y3890725D02*
X3892423Y3890725D01*
X3891824Y3890127D02*
X3832692Y3890127D01*
X3832694Y3890725D02*
X3862406Y3890725D01*
X3861807Y3891324D02*
X3832696Y3891324D01*
X3832697Y3891922D02*
X3861543Y3891922D01*
X3861543Y3892521D02*
X3832699Y3892521D01*
X3832701Y3893119D02*
X3861543Y3893119D01*
X3862108Y3893718D02*
X3832703Y3893718D01*
X3832690Y3889528D02*
X3891681Y3889528D01*
X3891681Y3888930D02*
X3832689Y3888930D01*
X3832687Y3888331D02*
X3891768Y3888331D01*
X3892367Y3887733D02*
X3832685Y3887733D01*
X3849878Y3875176D02*
X3849802Y3874971D01*
X3851399Y3872171D02*
X3910666Y3872171D01*
X3910665Y3871573D02*
X3851674Y3871573D01*
X3851674Y3870974D02*
X3910664Y3870974D01*
X3910664Y3870376D02*
X3851674Y3870376D01*
X3859070Y3863792D02*
X3910657Y3863792D01*
X3910657Y3863194D02*
X3859592Y3863194D01*
X3859592Y3862595D02*
X3910656Y3862595D01*
X3910656Y3861997D02*
X3859592Y3861997D01*
X3859286Y3861398D02*
X3910655Y3861398D01*
X3910654Y3860799D02*
X3858687Y3860799D01*
X3858918Y3859004D02*
X3910653Y3859004D01*
X3910653Y3859602D02*
X3837326Y3859602D01*
X3837326Y3859004D02*
X3856395Y3859004D01*
X3855796Y3858405D02*
X3837326Y3858405D01*
X3837088Y3857807D02*
X3855767Y3857807D01*
X3855767Y3857208D02*
X3836490Y3857208D01*
X3836735Y3860201D02*
X3910654Y3860201D01*
X3910652Y3858405D02*
X3859517Y3858405D01*
X3859545Y3857807D02*
X3910652Y3857807D01*
X3910651Y3857208D02*
X3859545Y3857208D01*
X3859343Y3856610D02*
X3910650Y3856610D01*
X3910650Y3856011D02*
X3858745Y3856011D01*
X3854534Y3855677D02*
X3854377Y3854575D01*
X3841793Y3847922D02*
X3840687Y3849029D01*
X3839122Y3849029D01*
X3838015Y3847922D01*
X3838015Y3846357D01*
X3839122Y3845251D01*
X3840687Y3845251D01*
X3841793Y3846357D01*
X3841793Y3847922D01*
X3841793Y3847632D02*
X3910642Y3847632D01*
X3910641Y3847034D02*
X3841793Y3847034D01*
X3841793Y3846435D02*
X3910641Y3846435D01*
X3910640Y3845837D02*
X3841273Y3845837D01*
X3841485Y3848231D02*
X3910642Y3848231D01*
X3910643Y3848829D02*
X3840886Y3848829D01*
X3838923Y3848829D02*
X3832572Y3848829D01*
X3832570Y3848231D02*
X3838324Y3848231D01*
X3838015Y3847632D02*
X3832568Y3847632D01*
X3832566Y3847034D02*
X3838015Y3847034D01*
X3838015Y3846435D02*
X3832565Y3846435D01*
X3832563Y3845837D02*
X3838536Y3845837D01*
X3839893Y3841582D02*
X3838787Y3840476D01*
X3838787Y3838911D01*
X3839893Y3837804D01*
X3841458Y3837804D01*
X3842565Y3838911D01*
X3842565Y3840476D01*
X3841458Y3841582D01*
X3839893Y3841582D01*
X3839360Y3841049D02*
X3832549Y3841049D01*
X3832551Y3841647D02*
X3910636Y3841647D01*
X3910635Y3841049D02*
X3841992Y3841049D01*
X3842565Y3840450D02*
X3910635Y3840450D01*
X3910634Y3839852D02*
X3842565Y3839852D01*
X3842565Y3839253D02*
X3910634Y3839253D01*
X3910633Y3838655D02*
X3842309Y3838655D01*
X3841710Y3838056D02*
X3910632Y3838056D01*
X3910632Y3837458D02*
X3832538Y3837458D01*
X3832540Y3838056D02*
X3839642Y3838056D01*
X3839043Y3838655D02*
X3832542Y3838655D01*
X3832544Y3839253D02*
X3838787Y3839253D01*
X3838787Y3839852D02*
X3832545Y3839852D01*
X3832547Y3840450D02*
X3838787Y3840450D01*
X3832552Y3842246D02*
X3910636Y3842246D01*
X3910637Y3842844D02*
X3832554Y3842844D01*
X3832556Y3843443D02*
X3910638Y3843443D01*
X3910638Y3844041D02*
X3832558Y3844041D01*
X3832559Y3844640D02*
X3910639Y3844640D01*
X3910639Y3845238D02*
X3832561Y3845238D01*
X3832573Y3849428D02*
X3910643Y3849428D01*
X3910644Y3850026D02*
X3832575Y3850026D01*
X3832577Y3850625D02*
X3907599Y3850625D01*
X3910021Y3850625D02*
X3910645Y3850625D01*
X3910619Y3851223D02*
X3910645Y3851223D01*
X3907083Y3842894D02*
X3906165Y3842912D01*
X3910631Y3836859D02*
X3832537Y3836859D01*
X3832535Y3836261D02*
X3910631Y3836261D01*
X3910630Y3835662D02*
X3832533Y3835662D01*
X3832531Y3835064D02*
X3910630Y3835064D01*
X3910629Y3834465D02*
X3854971Y3834465D01*
X3854970Y3834466D02*
X3853406Y3834466D01*
X3852299Y3833359D01*
X3852299Y3831794D01*
X3853406Y3830688D01*
X3854970Y3830688D01*
X3856077Y3831794D01*
X3856077Y3833359D01*
X3854970Y3834466D01*
X3855570Y3833866D02*
X3910628Y3833866D01*
X3910628Y3833268D02*
X3856077Y3833268D01*
X3856077Y3832669D02*
X3910627Y3832669D01*
X3910627Y3832071D02*
X3856077Y3832071D01*
X3855755Y3831472D02*
X3905961Y3831472D01*
X3906181Y3831692D02*
X3905074Y3830586D01*
X3905074Y3829021D01*
X3906181Y3827914D01*
X3907746Y3827914D01*
X3908852Y3829021D01*
X3908852Y3830586D01*
X3907746Y3831692D01*
X3906181Y3831692D01*
X3905363Y3830874D02*
X3855157Y3830874D01*
X3853220Y3830874D02*
X3832519Y3830874D01*
X3832521Y3831472D02*
X3852621Y3831472D01*
X3852299Y3832071D02*
X3832523Y3832071D01*
X3832524Y3832669D02*
X3852299Y3832669D01*
X3852299Y3833268D02*
X3832526Y3833268D01*
X3832528Y3833866D02*
X3852806Y3833866D01*
X3853405Y3834465D02*
X3832530Y3834465D01*
X3832517Y3830275D02*
X3905074Y3830275D01*
X3905074Y3829677D02*
X3832516Y3829677D01*
X3832514Y3829078D02*
X3905074Y3829078D01*
X3905615Y3828480D02*
X3832512Y3828480D01*
X3832510Y3827881D02*
X3910623Y3827881D01*
X3910622Y3827283D02*
X3832509Y3827283D01*
X3832507Y3826684D02*
X3910621Y3826684D01*
X3910596Y3826086D02*
X3832505Y3826086D01*
X3832503Y3825487D02*
X3910252Y3825487D01*
X3909909Y3824889D02*
X3832502Y3824889D01*
X3832500Y3824290D02*
X3909565Y3824290D01*
X3909221Y3823692D02*
X3832498Y3823692D01*
X3832496Y3823093D02*
X3908877Y3823093D01*
X3908533Y3822495D02*
X3832495Y3822495D01*
X3832493Y3821896D02*
X3908189Y3821896D01*
X3907846Y3821298D02*
X3832491Y3821298D01*
X3832489Y3820699D02*
X3907502Y3820699D01*
X3907158Y3820101D02*
X3832488Y3820101D01*
X3832486Y3819502D02*
X3906814Y3819502D01*
X3906470Y3818904D02*
X3897924Y3818904D01*
X3897708Y3819120D02*
X3896143Y3819120D01*
X3895036Y3818014D01*
X3895036Y3816449D01*
X3896143Y3815342D01*
X3897708Y3815342D01*
X3898814Y3816449D01*
X3898814Y3818014D01*
X3897708Y3819120D01*
X3898523Y3818305D02*
X3906126Y3818305D01*
X3905783Y3817707D02*
X3898814Y3817707D01*
X3898814Y3817108D02*
X3905439Y3817108D01*
X3905095Y3816510D02*
X3898814Y3816510D01*
X3898276Y3815911D02*
X3904751Y3815911D01*
X3904371Y3815313D02*
X3885636Y3815313D01*
X3885636Y3815672D02*
X3884529Y3816779D01*
X3882964Y3816779D01*
X3881858Y3815672D01*
X3881858Y3814108D01*
X3882964Y3813001D01*
X3884529Y3813001D01*
X3885636Y3814108D01*
X3885636Y3815672D01*
X3885397Y3815911D02*
X3895574Y3815911D01*
X3895036Y3816510D02*
X3884798Y3816510D01*
X3885636Y3814714D02*
X3903975Y3814714D01*
X3903580Y3814116D02*
X3885636Y3814116D01*
X3885045Y3813517D02*
X3903185Y3813517D01*
X3902789Y3812919D02*
X3832467Y3812919D01*
X3832468Y3813517D02*
X3882448Y3813517D01*
X3881858Y3814116D02*
X3832470Y3814116D01*
X3832472Y3814714D02*
X3881858Y3814714D01*
X3881858Y3815313D02*
X3832474Y3815313D01*
X3832475Y3815911D02*
X3882097Y3815911D01*
X3882695Y3816510D02*
X3832477Y3816510D01*
X3832479Y3817108D02*
X3895036Y3817108D01*
X3895036Y3817707D02*
X3832481Y3817707D01*
X3832482Y3818305D02*
X3895328Y3818305D01*
X3895926Y3818904D02*
X3832484Y3818904D01*
X3832465Y3812320D02*
X3902394Y3812320D01*
X3901999Y3811722D02*
X3885020Y3811722D01*
X3884569Y3812173D02*
X3883004Y3812173D01*
X3881897Y3811066D01*
X3881897Y3809501D01*
X3883004Y3808395D01*
X3884569Y3808395D01*
X3885675Y3809501D01*
X3885675Y3811066D01*
X3884569Y3812173D01*
X3885618Y3811123D02*
X3901603Y3811123D01*
X3901208Y3810525D02*
X3885675Y3810525D01*
X3885675Y3809926D02*
X3900812Y3809926D01*
X3900417Y3809328D02*
X3885501Y3809328D01*
X3884903Y3808729D02*
X3900022Y3808729D01*
X3899626Y3808130D02*
X3832453Y3808130D01*
X3832451Y3807532D02*
X3895609Y3807532D01*
X3895010Y3806933D02*
X3862390Y3806933D01*
X3862192Y3807132D02*
X3860627Y3807132D01*
X3859520Y3806025D01*
X3859520Y3804461D01*
X3860627Y3803354D01*
X3862192Y3803354D01*
X3863298Y3804461D01*
X3863298Y3806025D01*
X3862192Y3807132D01*
X3862989Y3806335D02*
X3894955Y3806335D01*
X3894955Y3805736D02*
X3887265Y3805736D01*
X3887863Y3805138D02*
X3895130Y3805138D01*
X3895729Y3804539D02*
X3888195Y3804539D01*
X3888195Y3803941D02*
X3896859Y3803941D01*
X3896464Y3803342D02*
X3888195Y3803342D01*
X3887697Y3802744D02*
X3896068Y3802744D01*
X3898678Y3806933D02*
X3898836Y3806933D01*
X3899231Y3807532D02*
X3898079Y3807532D01*
X3899992Y3814235D02*
X3899691Y3814483D01*
X3888992Y3808829D02*
X3888992Y3807653D01*
X3885347Y3805736D02*
X3882989Y3805736D01*
X3883587Y3805138D02*
X3884749Y3805138D01*
X3884417Y3804539D02*
X3883894Y3804539D01*
X3883894Y3803941D02*
X3884417Y3803941D01*
X3884417Y3803342D02*
X3883894Y3803342D01*
X3883371Y3802744D02*
X3884914Y3802744D01*
X3880638Y3802744D02*
X3835098Y3802744D01*
X3835697Y3803342D02*
X3880116Y3803342D01*
X3880116Y3803941D02*
X3862779Y3803941D01*
X3863298Y3804539D02*
X3880116Y3804539D01*
X3880422Y3805138D02*
X3863298Y3805138D01*
X3863298Y3805736D02*
X3881021Y3805736D01*
X3882669Y3808729D02*
X3832454Y3808729D01*
X3832456Y3809328D02*
X3882071Y3809328D01*
X3881897Y3809926D02*
X3832458Y3809926D01*
X3832460Y3810525D02*
X3881897Y3810525D01*
X3881954Y3811123D02*
X3832461Y3811123D01*
X3832463Y3811722D02*
X3882553Y3811722D01*
X3860428Y3806933D02*
X3832449Y3806933D01*
X3832447Y3806335D02*
X3859830Y3806335D01*
X3859520Y3805736D02*
X3835478Y3805736D01*
X3836002Y3805138D02*
X3859520Y3805138D01*
X3859520Y3804539D02*
X3836002Y3804539D01*
X3836002Y3803941D02*
X3860040Y3803941D01*
X3840488Y3802145D02*
X3832435Y3802145D01*
X3832437Y3802744D02*
X3833127Y3802744D01*
X3832529Y3803342D02*
X3832439Y3803342D01*
X3832446Y3805736D02*
X3832748Y3805736D01*
X3843761Y3792563D02*
X3840967Y3789770D01*
X3840967Y3778947D01*
X3813772Y3751752D01*
X3763348Y3751752D01*
X3843761Y3792563D02*
X3901053Y3792563D01*
X3922776Y3831485D01*
X3910626Y3831472D02*
X3907966Y3831472D01*
X3908564Y3830874D02*
X3910625Y3830874D01*
X3910625Y3830275D02*
X3908852Y3830275D01*
X3908852Y3829677D02*
X3910624Y3829677D01*
X3910624Y3829078D02*
X3908852Y3829078D01*
X3908311Y3828480D02*
X3910623Y3828480D01*
X3907210Y3826155D02*
X3906954Y3825730D01*
X3903753Y3861901D02*
X3902562Y3861901D01*
X3910667Y3873967D02*
X3865613Y3873967D01*
X3866212Y3874565D02*
X3910668Y3874565D01*
X3893322Y3896710D02*
X3862340Y3896710D01*
X3862938Y3897309D02*
X3885373Y3897309D01*
X3888809Y3894156D02*
X3889394Y3894156D01*
X3878282Y3887607D02*
X3878282Y3886277D01*
X3870943Y3876959D02*
X3865884Y3876959D01*
X3866462Y3876361D02*
X3871201Y3876361D01*
X3858636Y3894030D02*
X3858143Y3894428D01*
X3832656Y3852420D02*
X3832582Y3852420D01*
X3832580Y3851822D02*
X3833255Y3851822D01*
X3832579Y3851223D02*
X3834548Y3851223D01*
X3847717Y3833030D02*
X3848274Y3833030D01*
X3853212Y3826271D02*
X3853687Y3825795D01*
D12*
X3840931Y3902562D02*
X3839812Y3902420D01*
X3904403Y0099507D02*
X3904545Y0098388D01*
X0100232Y0037987D02*
X0099113Y0037844D01*
X0036413Y3837694D02*
X0036271Y3838813D01*
M02*
