G75*
%MOIN*%
%OFA0B0*%
%FSLAX25Y25*%
%IPPOS*%
%LPD*%
%AMOC8*
5,1,8,0,0,1.08239X$1,22.5*
%
%ADD10R,0.07087X0.03937*%
%ADD11R,0.00984X0.01772*%
%ADD12R,0.02756X0.03543*%
%ADD13R,0.03543X0.02756*%
%ADD14R,0.01772X0.01063*%
%ADD15R,0.01063X0.01772*%
%ADD16R,0.04331X0.03937*%
%ADD17R,0.03937X0.04331*%
%ADD18R,0.03150X0.03150*%
%ADD19R,0.20276X0.20276*%
%ADD20C,0.01181*%
%ADD21R,1.85039X0.08661*%
%ADD22R,1.85039X0.04331*%
%ADD23R,0.04528X0.05512*%
%ADD24R,0.03937X0.03937*%
%ADD25R,0.01575X0.03346*%
%ADD26R,0.01575X0.06693*%
%ADD27R,0.01575X0.01575*%
%ADD28R,0.01772X0.05315*%
%ADD29R,0.04724X0.03150*%
%ADD30R,0.03346X0.00906*%
%ADD31R,0.03937X0.00906*%
%ADD32R,0.05433X0.07087*%
%ADD33R,0.07874X0.06693*%
%ADD34R,0.03937X0.07087*%
%ADD35R,0.01772X0.00984*%
%ADD36R,0.08661X1.85039*%
%ADD37R,0.04331X1.85039*%
%ADD38R,0.05512X0.04528*%
%ADD39R,0.03346X0.01575*%
%ADD40R,0.06693X0.01575*%
%ADD41R,0.05315X0.01772*%
%ADD42R,0.03150X0.04724*%
%ADD43R,0.00906X0.03346*%
%ADD44R,0.00906X0.03937*%
%ADD45R,0.07087X0.05433*%
%ADD46R,0.06693X0.07874*%
D10*
X3803724Y0061833D03*
X3803724Y0071676D03*
X0137093Y3865526D03*
X0137093Y3875369D03*
D11*
X0103786Y3866392D03*
X0101817Y3866392D03*
X0099848Y3866392D03*
X0099848Y3863243D03*
X0101817Y3863243D03*
X0103786Y3863243D03*
X3837031Y0073959D03*
X3838999Y0073959D03*
X3840968Y0073959D03*
X3840968Y0070809D03*
X3838999Y0070809D03*
X3837031Y0070809D03*
D12*
X3839117Y0052699D03*
X3839235Y0047935D03*
X3834117Y0047935D03*
X3833999Y0052699D03*
X3820023Y0051636D03*
X3819984Y0046518D03*
X3814865Y0046518D03*
X3814905Y0051636D03*
X3807897Y0046479D03*
X3802779Y0046479D03*
X3824826Y0037975D03*
X3829944Y0037975D03*
X3837188Y0037857D03*
X3842306Y0037857D03*
X3869164Y0044058D03*
X3874282Y0044058D03*
X3885426Y0066727D03*
X3885336Y0071041D03*
X3890454Y0071041D03*
X3890544Y0066727D03*
X3816676Y0071754D03*
X3811558Y0071754D03*
X0100596Y0080697D03*
X0100535Y0085006D03*
X0100550Y0089215D03*
X0095432Y0089215D03*
X0095417Y0085006D03*
X0095478Y0080697D03*
X0095442Y0076212D03*
X0100560Y0076212D03*
X0084941Y0068988D03*
X0079823Y0068988D03*
X0076688Y0109604D03*
X0071570Y0109604D03*
X0066298Y0131186D03*
X0061180Y0131186D03*
X0124140Y3865448D03*
X0129258Y3865448D03*
X0125911Y3885566D03*
X0120793Y3885566D03*
X0120833Y3890684D03*
X0125951Y3890684D03*
X0132919Y3890723D03*
X0138037Y3890723D03*
X0115990Y3899227D03*
X0110872Y3899227D03*
X0103628Y3899345D03*
X0098510Y3899345D03*
X0101581Y3889266D03*
X0101699Y3884503D03*
X0106817Y3884503D03*
X0106699Y3889266D03*
X0071652Y3893144D03*
X0066534Y3893144D03*
X0055391Y3870475D03*
X0055481Y3866161D03*
X0050362Y3866161D03*
X0050272Y3870475D03*
X3839449Y3859709D03*
X3839510Y3855401D03*
X3839494Y3851192D03*
X3844612Y3851192D03*
X3844628Y3855401D03*
X3844567Y3859709D03*
X3844603Y3864194D03*
X3839485Y3864194D03*
X3855104Y3871418D03*
X3860222Y3871418D03*
X3863356Y3830802D03*
X3868475Y3830802D03*
X3873747Y3809221D03*
X3878865Y3809221D03*
D13*
X3887684Y3812921D03*
X3892802Y3812882D03*
X3892802Y3818000D03*
X3887684Y3818040D03*
X3892841Y3805914D03*
X3892841Y3800795D03*
X3901345Y3822843D03*
X3901345Y3827961D03*
X3901463Y3835205D03*
X3901463Y3840323D03*
X3891385Y3837252D03*
X3886621Y3837134D03*
X3886621Y3832016D03*
X3891385Y3832134D03*
X3867566Y3814693D03*
X3867566Y3809575D03*
X3895262Y3867181D03*
X3895262Y3872299D03*
X3872593Y3883442D03*
X3868279Y3883352D03*
X3868279Y3888471D03*
X3872593Y3888560D03*
X0129612Y3876747D03*
X0129612Y3871629D03*
X0108031Y3866356D03*
X0108031Y3861238D03*
X0087641Y3842494D03*
X0083432Y3842510D03*
X0079124Y3842449D03*
X0074639Y3842485D03*
X0074639Y3837367D03*
X0079124Y3837331D03*
X0083432Y3837392D03*
X0087641Y3837376D03*
X0067415Y3852986D03*
X0067415Y3858104D03*
X0047204Y0139611D03*
X0047204Y0134493D03*
X0047243Y0127524D03*
X0047243Y0122406D03*
X0052361Y0122367D03*
X0052361Y0127485D03*
X0038700Y0117564D03*
X0038700Y0112445D03*
X0038582Y0105201D03*
X0038582Y0100083D03*
X0048660Y0103154D03*
X0053424Y0103272D03*
X0053424Y0108390D03*
X0048660Y0108272D03*
X0072479Y0125713D03*
X0072479Y0130831D03*
X0044783Y0073226D03*
X0044783Y0068108D03*
X0067452Y0056964D03*
X0071766Y0057054D03*
X0071766Y0051936D03*
X0067452Y0051846D03*
X3811204Y0060455D03*
X3811204Y0065573D03*
X3832785Y0070845D03*
X3832785Y0075963D03*
X3853175Y0094707D03*
X3857384Y0094692D03*
X3861692Y0094753D03*
X3866178Y0094717D03*
X3866178Y0099835D03*
X3861692Y0099871D03*
X3857384Y0099810D03*
X3853175Y0099826D03*
X3873401Y0084216D03*
X3873401Y0079098D03*
D14*
X3812444Y0024569D03*
X3812444Y0022876D03*
X3812444Y0021183D03*
X3812444Y0019490D03*
X3812444Y0017798D03*
X3812444Y0016105D03*
X3812444Y0014412D03*
X3812444Y0012719D03*
X3802798Y0012719D03*
X3802798Y0014412D03*
X3802798Y0016105D03*
X3802798Y0017798D03*
X3802798Y0019490D03*
X3802798Y0021183D03*
X3802798Y0022876D03*
X3802798Y0024569D03*
X0025176Y0132229D03*
X0025176Y0133922D03*
X0025176Y0135615D03*
X0025176Y0137308D03*
X0013562Y0137308D03*
X0013562Y0135615D03*
X0013562Y0133922D03*
X0013562Y0132229D03*
X0128372Y3912633D03*
X0128372Y3914325D03*
X0128372Y3916018D03*
X0128372Y3917711D03*
X0128372Y3919404D03*
X0128372Y3921097D03*
X0128372Y3922790D03*
X0128372Y3924483D03*
X0138018Y3924483D03*
X0138018Y3922790D03*
X0138018Y3921097D03*
X0138018Y3919404D03*
X0138018Y3917711D03*
X0138018Y3916018D03*
X0138018Y3914325D03*
X0138018Y3912633D03*
X3914869Y3808177D03*
X3914869Y3806484D03*
X3914869Y3804792D03*
X3914869Y3803099D03*
X3926483Y3803099D03*
X3926483Y3804792D03*
X3926483Y3806484D03*
X3926483Y3808177D03*
D15*
X3926601Y3810461D03*
X3924908Y3810461D03*
X3923215Y3810461D03*
X3921522Y3810461D03*
X3919829Y3810461D03*
X3918137Y3810461D03*
X3916444Y3810461D03*
X3914751Y3810461D03*
X3914751Y3800815D03*
X3916444Y3800815D03*
X3918137Y3800815D03*
X3919829Y3800815D03*
X3921522Y3800815D03*
X3923215Y3800815D03*
X3924908Y3800815D03*
X3926601Y3800815D03*
X3810161Y0024451D03*
X3808468Y0024451D03*
X3806775Y0024451D03*
X3805082Y0024451D03*
X3805082Y0012837D03*
X3806775Y0012837D03*
X3808468Y0012837D03*
X3810161Y0012837D03*
X0025294Y0129945D03*
X0023601Y0129945D03*
X0021908Y0129945D03*
X0020215Y0129945D03*
X0018522Y0129945D03*
X0016830Y0129945D03*
X0015137Y0129945D03*
X0013444Y0129945D03*
X0013444Y0139591D03*
X0015137Y0139591D03*
X0016830Y0139591D03*
X0018522Y0139591D03*
X0020215Y0139591D03*
X0021908Y0139591D03*
X0023601Y0139591D03*
X0025294Y0139591D03*
X0130656Y3912751D03*
X0132348Y3912751D03*
X0134041Y3912751D03*
X0135734Y3912751D03*
X0135734Y3924365D03*
X0134041Y3924365D03*
X0132348Y3924365D03*
X0130656Y3924365D03*
D16*
X0119384Y3857745D03*
X0112692Y3857745D03*
X0134099Y3852906D03*
X0140792Y3852906D03*
X0079628Y3850207D03*
X0072935Y3850207D03*
X0069998Y3838035D03*
X0063305Y3838035D03*
X0091595Y0140863D03*
X0098287Y0140863D03*
X0085328Y0128742D03*
X0078635Y0128742D03*
X0086921Y0120664D03*
X0093614Y0120664D03*
X3800024Y0084295D03*
X3806717Y0084295D03*
X3821432Y0079457D03*
X3828125Y0079457D03*
X3861188Y0086995D03*
X3867881Y0086995D03*
X3870818Y0099166D03*
X3877511Y0099166D03*
X3848450Y3799543D03*
X3841757Y3799543D03*
X3854716Y3811665D03*
X3861409Y3811665D03*
X3853124Y3819742D03*
X3846431Y3819742D03*
D17*
X3859863Y3819448D03*
X3859863Y3826141D03*
X3855025Y3804734D03*
X3855025Y3798041D03*
X3852325Y3859205D03*
X3852325Y3865898D03*
X3840154Y3868835D03*
X3840154Y3875528D03*
X0139290Y3846332D03*
X0139290Y3839639D03*
X0127168Y3852598D03*
X0127168Y3859291D03*
X0119091Y3851005D03*
X0119091Y3844313D03*
X0085020Y0142365D03*
X0085020Y0135673D03*
X0080182Y0120958D03*
X0080182Y0114265D03*
X0087720Y0081201D03*
X0087720Y0074508D03*
X0099891Y0071571D03*
X0099891Y0064878D03*
X3801526Y0090870D03*
X3801526Y0097563D03*
X3813648Y0084603D03*
X3813648Y0077911D03*
X3821725Y0086196D03*
X3821725Y0092889D03*
D18*
X3827621Y0053211D03*
X3827621Y0047305D03*
X3833566Y0042896D03*
X3839472Y0042896D03*
X3878165Y0079159D03*
X3878165Y0085065D03*
X3886109Y3825638D03*
X3892014Y3825638D03*
X3896424Y3831583D03*
X3896424Y3837488D03*
X3860161Y3876182D03*
X3854255Y3876182D03*
X0113195Y3883991D03*
X0113195Y3889896D03*
X0107250Y3894306D03*
X0101345Y3894306D03*
X0062651Y3858042D03*
X0062651Y3852137D03*
X0053936Y0114768D03*
X0048030Y0114768D03*
X0043621Y0108823D03*
X0043621Y0102918D03*
X0079884Y0064224D03*
X0085790Y0064224D03*
D19*
X0063385Y0084138D03*
X0082565Y3874542D03*
X3876660Y3856268D03*
X3858251Y0062660D03*
D20*
X3845850Y0063644D02*
X3845850Y0063644D01*
X3844274Y0063644D01*
X3844274Y0063644D01*
X3845850Y0063644D01*
X3845850Y0061676D02*
X3845850Y0061676D01*
X3844274Y0061676D01*
X3844274Y0061676D01*
X3845850Y0061676D01*
X3845850Y0059707D02*
X3845850Y0059707D01*
X3844274Y0059707D01*
X3844274Y0059707D01*
X3845850Y0059707D01*
X3845850Y0057739D02*
X3845850Y0057739D01*
X3844274Y0057739D01*
X3844274Y0057739D01*
X3845850Y0057739D01*
X3845850Y0055770D02*
X3845850Y0055770D01*
X3844274Y0055770D01*
X3844274Y0055770D01*
X3845850Y0055770D01*
X3845850Y0053802D02*
X3845850Y0053802D01*
X3844274Y0053802D01*
X3844274Y0053802D01*
X3845850Y0053802D01*
X3845850Y0051833D02*
X3845850Y0051833D01*
X3844274Y0051833D01*
X3844274Y0051833D01*
X3845850Y0051833D01*
X3847424Y0050259D02*
X3847424Y0050259D01*
X3847424Y0048683D01*
X3847424Y0048683D01*
X3847424Y0050259D01*
X3847424Y0049863D02*
X3847424Y0049863D01*
X3849393Y0050259D02*
X3849393Y0050259D01*
X3849393Y0048683D01*
X3849393Y0048683D01*
X3849393Y0050259D01*
X3849393Y0049863D02*
X3849393Y0049863D01*
X3851361Y0050259D02*
X3851361Y0050259D01*
X3851361Y0048683D01*
X3851361Y0048683D01*
X3851361Y0050259D01*
X3851361Y0049863D02*
X3851361Y0049863D01*
X3853330Y0050259D02*
X3853330Y0050259D01*
X3853330Y0048683D01*
X3853330Y0048683D01*
X3853330Y0050259D01*
X3853330Y0049863D02*
X3853330Y0049863D01*
X3855298Y0050259D02*
X3855298Y0050259D01*
X3855298Y0048683D01*
X3855298Y0048683D01*
X3855298Y0050259D01*
X3855298Y0049863D02*
X3855298Y0049863D01*
X3857267Y0050259D02*
X3857267Y0050259D01*
X3857267Y0048683D01*
X3857267Y0048683D01*
X3857267Y0050259D01*
X3857267Y0049863D02*
X3857267Y0049863D01*
X3859235Y0050259D02*
X3859235Y0050259D01*
X3859235Y0048683D01*
X3859235Y0048683D01*
X3859235Y0050259D01*
X3859235Y0049863D02*
X3859235Y0049863D01*
X3861204Y0050259D02*
X3861204Y0050259D01*
X3861204Y0048683D01*
X3861204Y0048683D01*
X3861204Y0050259D01*
X3861204Y0049863D02*
X3861204Y0049863D01*
X3863173Y0050259D02*
X3863173Y0050259D01*
X3863173Y0048683D01*
X3863173Y0048683D01*
X3863173Y0050259D01*
X3863173Y0049863D02*
X3863173Y0049863D01*
X3865141Y0050259D02*
X3865141Y0050259D01*
X3865141Y0048683D01*
X3865141Y0048683D01*
X3865141Y0050259D01*
X3865141Y0049863D02*
X3865141Y0049863D01*
X3867110Y0050259D02*
X3867110Y0050259D01*
X3867110Y0048683D01*
X3867110Y0048683D01*
X3867110Y0050259D01*
X3867110Y0049863D02*
X3867110Y0049863D01*
X3869078Y0050259D02*
X3869078Y0050259D01*
X3869078Y0048683D01*
X3869078Y0048683D01*
X3869078Y0050259D01*
X3869078Y0049863D02*
X3869078Y0049863D01*
X3870652Y0051833D02*
X3870652Y0051833D01*
X3872228Y0051833D01*
X3872228Y0051833D01*
X3870652Y0051833D01*
X3870652Y0053802D02*
X3870652Y0053802D01*
X3872228Y0053802D01*
X3872228Y0053802D01*
X3870652Y0053802D01*
X3870652Y0055770D02*
X3870652Y0055770D01*
X3872228Y0055770D01*
X3872228Y0055770D01*
X3870652Y0055770D01*
X3870652Y0057739D02*
X3870652Y0057739D01*
X3872228Y0057739D01*
X3872228Y0057739D01*
X3870652Y0057739D01*
X3870652Y0059707D02*
X3870652Y0059707D01*
X3872228Y0059707D01*
X3872228Y0059707D01*
X3870652Y0059707D01*
X3870652Y0061676D02*
X3870652Y0061676D01*
X3872228Y0061676D01*
X3872228Y0061676D01*
X3870652Y0061676D01*
X3870652Y0063644D02*
X3870652Y0063644D01*
X3872228Y0063644D01*
X3872228Y0063644D01*
X3870652Y0063644D01*
X3870652Y0065613D02*
X3870652Y0065613D01*
X3872228Y0065613D01*
X3872228Y0065613D01*
X3870652Y0065613D01*
X3870652Y0067581D02*
X3870652Y0067581D01*
X3872228Y0067581D01*
X3872228Y0067581D01*
X3870652Y0067581D01*
X3870652Y0069550D02*
X3870652Y0069550D01*
X3872228Y0069550D01*
X3872228Y0069550D01*
X3870652Y0069550D01*
X3870652Y0071518D02*
X3870652Y0071518D01*
X3872228Y0071518D01*
X3872228Y0071518D01*
X3870652Y0071518D01*
X3870652Y0073487D02*
X3870652Y0073487D01*
X3872228Y0073487D01*
X3872228Y0073487D01*
X3870652Y0073487D01*
X3869078Y0075061D02*
X3869078Y0075061D01*
X3869078Y0076637D01*
X3869078Y0076637D01*
X3869078Y0075061D01*
X3869078Y0076241D02*
X3869078Y0076241D01*
X3867110Y0075061D02*
X3867110Y0075061D01*
X3867110Y0076637D01*
X3867110Y0076637D01*
X3867110Y0075061D01*
X3867110Y0076241D02*
X3867110Y0076241D01*
X3865141Y0075061D02*
X3865141Y0075061D01*
X3865141Y0076637D01*
X3865141Y0076637D01*
X3865141Y0075061D01*
X3865141Y0076241D02*
X3865141Y0076241D01*
X3863173Y0075061D02*
X3863173Y0075061D01*
X3863173Y0076637D01*
X3863173Y0076637D01*
X3863173Y0075061D01*
X3863173Y0076241D02*
X3863173Y0076241D01*
X3861204Y0076637D02*
X3861204Y0076637D01*
X3861204Y0075061D01*
X3861204Y0075061D01*
X3861204Y0076637D01*
X3861204Y0076241D02*
X3861204Y0076241D01*
X3859235Y0076637D02*
X3859235Y0076637D01*
X3859235Y0075061D01*
X3859235Y0075061D01*
X3859235Y0076637D01*
X3859235Y0076241D02*
X3859235Y0076241D01*
X3857267Y0076637D02*
X3857267Y0076637D01*
X3857267Y0075061D01*
X3857267Y0075061D01*
X3857267Y0076637D01*
X3857267Y0076241D02*
X3857267Y0076241D01*
X3855298Y0076637D02*
X3855298Y0076637D01*
X3855298Y0075061D01*
X3855298Y0075061D01*
X3855298Y0076637D01*
X3855298Y0076241D02*
X3855298Y0076241D01*
X3853330Y0075061D02*
X3853330Y0075061D01*
X3853330Y0076637D01*
X3853330Y0076637D01*
X3853330Y0075061D01*
X3853330Y0076241D02*
X3853330Y0076241D01*
X3851361Y0075061D02*
X3851361Y0075061D01*
X3851361Y0076637D01*
X3851361Y0076637D01*
X3851361Y0075061D01*
X3851361Y0076241D02*
X3851361Y0076241D01*
X3849393Y0075061D02*
X3849393Y0075061D01*
X3849393Y0076637D01*
X3849393Y0076637D01*
X3849393Y0075061D01*
X3849393Y0076241D02*
X3849393Y0076241D01*
X3847424Y0075061D02*
X3847424Y0075061D01*
X3847424Y0076637D01*
X3847424Y0076637D01*
X3847424Y0075061D01*
X3847424Y0076241D02*
X3847424Y0076241D01*
X3845850Y0073487D02*
X3845850Y0073487D01*
X3844274Y0073487D01*
X3844274Y0073487D01*
X3845850Y0073487D01*
X3845850Y0071518D02*
X3845850Y0071518D01*
X3844274Y0071518D01*
X3844274Y0071518D01*
X3845850Y0071518D01*
X3845850Y0069550D02*
X3845850Y0069550D01*
X3844274Y0069550D01*
X3844274Y0069550D01*
X3845850Y0069550D01*
X3845850Y0067581D02*
X3845850Y0067581D01*
X3844274Y0067581D01*
X3844274Y0067581D01*
X3845850Y0067581D01*
X3845850Y0065613D02*
X3845850Y0065613D01*
X3844274Y0065613D01*
X3844274Y0065613D01*
X3845850Y0065613D01*
X0075786Y0073312D02*
X0075786Y0073312D01*
X0077362Y0073312D01*
X0077362Y0073312D01*
X0075786Y0073312D01*
X0075786Y0075280D02*
X0075786Y0075280D01*
X0077362Y0075280D01*
X0077362Y0075280D01*
X0075786Y0075280D01*
X0075786Y0077249D02*
X0075786Y0077249D01*
X0077362Y0077249D01*
X0077362Y0077249D01*
X0075786Y0077249D01*
X0075786Y0079217D02*
X0075786Y0079217D01*
X0077362Y0079217D01*
X0077362Y0079217D01*
X0075786Y0079217D01*
X0077362Y0081186D02*
X0077362Y0081186D01*
X0075786Y0081186D01*
X0075786Y0081186D01*
X0077362Y0081186D01*
X0077362Y0083154D02*
X0077362Y0083154D01*
X0075786Y0083154D01*
X0075786Y0083154D01*
X0077362Y0083154D01*
X0077362Y0085123D02*
X0077362Y0085123D01*
X0075786Y0085123D01*
X0075786Y0085123D01*
X0077362Y0085123D01*
X0077362Y0087091D02*
X0077362Y0087091D01*
X0075786Y0087091D01*
X0075786Y0087091D01*
X0077362Y0087091D01*
X0075786Y0089060D02*
X0075786Y0089060D01*
X0077362Y0089060D01*
X0077362Y0089060D01*
X0075786Y0089060D01*
X0075786Y0091028D02*
X0075786Y0091028D01*
X0077362Y0091028D01*
X0077362Y0091028D01*
X0075786Y0091028D01*
X0075786Y0092997D02*
X0075786Y0092997D01*
X0077362Y0092997D01*
X0077362Y0092997D01*
X0075786Y0092997D01*
X0075786Y0094965D02*
X0075786Y0094965D01*
X0077362Y0094965D01*
X0077362Y0094965D01*
X0075786Y0094965D01*
X0074211Y0096539D02*
X0074211Y0096539D01*
X0074211Y0098115D01*
X0074211Y0098115D01*
X0074211Y0096539D01*
X0074211Y0097719D02*
X0074211Y0097719D01*
X0072243Y0096539D02*
X0072243Y0096539D01*
X0072243Y0098115D01*
X0072243Y0098115D01*
X0072243Y0096539D01*
X0072243Y0097719D02*
X0072243Y0097719D01*
X0070274Y0096539D02*
X0070274Y0096539D01*
X0070274Y0098115D01*
X0070274Y0098115D01*
X0070274Y0096539D01*
X0070274Y0097719D02*
X0070274Y0097719D01*
X0068306Y0096539D02*
X0068306Y0096539D01*
X0068306Y0098115D01*
X0068306Y0098115D01*
X0068306Y0096539D01*
X0068306Y0097719D02*
X0068306Y0097719D01*
X0066337Y0096539D02*
X0066337Y0096539D01*
X0066337Y0098115D01*
X0066337Y0098115D01*
X0066337Y0096539D01*
X0066337Y0097719D02*
X0066337Y0097719D01*
X0064369Y0096539D02*
X0064369Y0096539D01*
X0064369Y0098115D01*
X0064369Y0098115D01*
X0064369Y0096539D01*
X0064369Y0097719D02*
X0064369Y0097719D01*
X0062400Y0096539D02*
X0062400Y0096539D01*
X0062400Y0098115D01*
X0062400Y0098115D01*
X0062400Y0096539D01*
X0062400Y0097719D02*
X0062400Y0097719D01*
X0060432Y0096539D02*
X0060432Y0096539D01*
X0060432Y0098115D01*
X0060432Y0098115D01*
X0060432Y0096539D01*
X0060432Y0097719D02*
X0060432Y0097719D01*
X0058463Y0096539D02*
X0058463Y0096539D01*
X0058463Y0098115D01*
X0058463Y0098115D01*
X0058463Y0096539D01*
X0058463Y0097719D02*
X0058463Y0097719D01*
X0056495Y0096539D02*
X0056495Y0096539D01*
X0056495Y0098115D01*
X0056495Y0098115D01*
X0056495Y0096539D01*
X0056495Y0097719D02*
X0056495Y0097719D01*
X0054526Y0096539D02*
X0054526Y0096539D01*
X0054526Y0098115D01*
X0054526Y0098115D01*
X0054526Y0096539D01*
X0054526Y0097719D02*
X0054526Y0097719D01*
X0052558Y0096539D02*
X0052558Y0096539D01*
X0052558Y0098115D01*
X0052558Y0098115D01*
X0052558Y0096539D01*
X0052558Y0097719D02*
X0052558Y0097719D01*
X0050984Y0094965D02*
X0050984Y0094965D01*
X0049408Y0094965D01*
X0049408Y0094965D01*
X0050984Y0094965D01*
X0050984Y0092997D02*
X0050984Y0092997D01*
X0049408Y0092997D01*
X0049408Y0092997D01*
X0050984Y0092997D01*
X0050984Y0091028D02*
X0050984Y0091028D01*
X0049408Y0091028D01*
X0049408Y0091028D01*
X0050984Y0091028D01*
X0050984Y0089060D02*
X0050984Y0089060D01*
X0049408Y0089060D01*
X0049408Y0089060D01*
X0050984Y0089060D01*
X0050984Y0087091D02*
X0050984Y0087091D01*
X0049408Y0087091D01*
X0049408Y0087091D01*
X0050984Y0087091D01*
X0050984Y0085123D02*
X0050984Y0085123D01*
X0049408Y0085123D01*
X0049408Y0085123D01*
X0050984Y0085123D01*
X0050984Y0083154D02*
X0050984Y0083154D01*
X0049408Y0083154D01*
X0049408Y0083154D01*
X0050984Y0083154D01*
X0050984Y0081186D02*
X0050984Y0081186D01*
X0049408Y0081186D01*
X0049408Y0081186D01*
X0050984Y0081186D01*
X0050984Y0079217D02*
X0050984Y0079217D01*
X0049408Y0079217D01*
X0049408Y0079217D01*
X0050984Y0079217D01*
X0050984Y0077249D02*
X0050984Y0077249D01*
X0049408Y0077249D01*
X0049408Y0077249D01*
X0050984Y0077249D01*
X0050984Y0075280D02*
X0050984Y0075280D01*
X0049408Y0075280D01*
X0049408Y0075280D01*
X0050984Y0075280D01*
X0050984Y0073312D02*
X0050984Y0073312D01*
X0049408Y0073312D01*
X0049408Y0073312D01*
X0050984Y0073312D01*
X0052558Y0071737D02*
X0052558Y0071737D01*
X0052558Y0070161D01*
X0052558Y0070161D01*
X0052558Y0071737D01*
X0052558Y0071341D02*
X0052558Y0071341D01*
X0054526Y0071737D02*
X0054526Y0071737D01*
X0054526Y0070161D01*
X0054526Y0070161D01*
X0054526Y0071737D01*
X0054526Y0071341D02*
X0054526Y0071341D01*
X0056495Y0071737D02*
X0056495Y0071737D01*
X0056495Y0070161D01*
X0056495Y0070161D01*
X0056495Y0071737D01*
X0056495Y0071341D02*
X0056495Y0071341D01*
X0058463Y0071737D02*
X0058463Y0071737D01*
X0058463Y0070161D01*
X0058463Y0070161D01*
X0058463Y0071737D01*
X0058463Y0071341D02*
X0058463Y0071341D01*
X0060432Y0071737D02*
X0060432Y0071737D01*
X0060432Y0070161D01*
X0060432Y0070161D01*
X0060432Y0071737D01*
X0060432Y0071341D02*
X0060432Y0071341D01*
X0062400Y0071737D02*
X0062400Y0071737D01*
X0062400Y0070161D01*
X0062400Y0070161D01*
X0062400Y0071737D01*
X0062400Y0071341D02*
X0062400Y0071341D01*
X0064369Y0071737D02*
X0064369Y0071737D01*
X0064369Y0070161D01*
X0064369Y0070161D01*
X0064369Y0071737D01*
X0064369Y0071341D02*
X0064369Y0071341D01*
X0066337Y0071737D02*
X0066337Y0071737D01*
X0066337Y0070161D01*
X0066337Y0070161D01*
X0066337Y0071737D01*
X0066337Y0071341D02*
X0066337Y0071341D01*
X0068306Y0071737D02*
X0068306Y0071737D01*
X0068306Y0070161D01*
X0068306Y0070161D01*
X0068306Y0071737D01*
X0068306Y0071341D02*
X0068306Y0071341D01*
X0070274Y0071737D02*
X0070274Y0071737D01*
X0070274Y0070161D01*
X0070274Y0070161D01*
X0070274Y0071737D01*
X0070274Y0071341D02*
X0070274Y0071341D01*
X0072243Y0071737D02*
X0072243Y0071737D01*
X0072243Y0070161D01*
X0072243Y0070161D01*
X0072243Y0071737D01*
X0072243Y0071341D02*
X0072243Y0071341D01*
X0074211Y0071737D02*
X0074211Y0071737D01*
X0074211Y0070161D01*
X0074211Y0070161D01*
X0074211Y0071737D01*
X0074211Y0071341D02*
X0074211Y0071341D01*
X0073707Y3862141D02*
X0073707Y3862141D01*
X0073707Y3860565D01*
X0073707Y3860565D01*
X0073707Y3862141D01*
X0073707Y3861745D02*
X0073707Y3861745D01*
X0075675Y3862141D02*
X0075675Y3862141D01*
X0075675Y3860565D01*
X0075675Y3860565D01*
X0075675Y3862141D01*
X0075675Y3861745D02*
X0075675Y3861745D01*
X0077644Y3862141D02*
X0077644Y3862141D01*
X0077644Y3860565D01*
X0077644Y3860565D01*
X0077644Y3862141D01*
X0077644Y3861745D02*
X0077644Y3861745D01*
X0079612Y3860565D02*
X0079612Y3860565D01*
X0079612Y3862141D01*
X0079612Y3862141D01*
X0079612Y3860565D01*
X0079612Y3861745D02*
X0079612Y3861745D01*
X0081581Y3860565D02*
X0081581Y3860565D01*
X0081581Y3862141D01*
X0081581Y3862141D01*
X0081581Y3860565D01*
X0081581Y3861745D02*
X0081581Y3861745D01*
X0083549Y3860565D02*
X0083549Y3860565D01*
X0083549Y3862141D01*
X0083549Y3862141D01*
X0083549Y3860565D01*
X0083549Y3861745D02*
X0083549Y3861745D01*
X0085518Y3860565D02*
X0085518Y3860565D01*
X0085518Y3862141D01*
X0085518Y3862141D01*
X0085518Y3860565D01*
X0085518Y3861745D02*
X0085518Y3861745D01*
X0087486Y3862141D02*
X0087486Y3862141D01*
X0087486Y3860565D01*
X0087486Y3860565D01*
X0087486Y3862141D01*
X0087486Y3861745D02*
X0087486Y3861745D01*
X0089455Y3862141D02*
X0089455Y3862141D01*
X0089455Y3860565D01*
X0089455Y3860565D01*
X0089455Y3862141D01*
X0089455Y3861745D02*
X0089455Y3861745D01*
X0091423Y3862141D02*
X0091423Y3862141D01*
X0091423Y3860565D01*
X0091423Y3860565D01*
X0091423Y3862141D01*
X0091423Y3861745D02*
X0091423Y3861745D01*
X0093392Y3862141D02*
X0093392Y3862141D01*
X0093392Y3860565D01*
X0093392Y3860565D01*
X0093392Y3862141D01*
X0093392Y3861745D02*
X0093392Y3861745D01*
X0094966Y3863715D02*
X0094966Y3863715D01*
X0096542Y3863715D01*
X0096542Y3863715D01*
X0094966Y3863715D01*
X0094966Y3865684D02*
X0094966Y3865684D01*
X0096542Y3865684D01*
X0096542Y3865684D01*
X0094966Y3865684D01*
X0094966Y3867652D02*
X0094966Y3867652D01*
X0096542Y3867652D01*
X0096542Y3867652D01*
X0094966Y3867652D01*
X0094966Y3869621D02*
X0094966Y3869621D01*
X0096542Y3869621D01*
X0096542Y3869621D01*
X0094966Y3869621D01*
X0094966Y3871589D02*
X0094966Y3871589D01*
X0096542Y3871589D01*
X0096542Y3871589D01*
X0094966Y3871589D01*
X0094966Y3873558D02*
X0094966Y3873558D01*
X0096542Y3873558D01*
X0096542Y3873558D01*
X0094966Y3873558D01*
X0094966Y3875526D02*
X0094966Y3875526D01*
X0096542Y3875526D01*
X0096542Y3875526D01*
X0094966Y3875526D01*
X0094966Y3877495D02*
X0094966Y3877495D01*
X0096542Y3877495D01*
X0096542Y3877495D01*
X0094966Y3877495D01*
X0094966Y3879463D02*
X0094966Y3879463D01*
X0096542Y3879463D01*
X0096542Y3879463D01*
X0094966Y3879463D01*
X0094966Y3881432D02*
X0094966Y3881432D01*
X0096542Y3881432D01*
X0096542Y3881432D01*
X0094966Y3881432D01*
X0094966Y3883400D02*
X0094966Y3883400D01*
X0096542Y3883400D01*
X0096542Y3883400D01*
X0094966Y3883400D01*
X0094966Y3885369D02*
X0094966Y3885369D01*
X0096542Y3885369D01*
X0096542Y3885369D01*
X0094966Y3885369D01*
X0093392Y3886943D02*
X0093392Y3886943D01*
X0093392Y3888519D01*
X0093392Y3888519D01*
X0093392Y3886943D01*
X0093392Y3888123D02*
X0093392Y3888123D01*
X0091423Y3886943D02*
X0091423Y3886943D01*
X0091423Y3888519D01*
X0091423Y3888519D01*
X0091423Y3886943D01*
X0091423Y3888123D02*
X0091423Y3888123D01*
X0089455Y3886943D02*
X0089455Y3886943D01*
X0089455Y3888519D01*
X0089455Y3888519D01*
X0089455Y3886943D01*
X0089455Y3888123D02*
X0089455Y3888123D01*
X0087486Y3886943D02*
X0087486Y3886943D01*
X0087486Y3888519D01*
X0087486Y3888519D01*
X0087486Y3886943D01*
X0087486Y3888123D02*
X0087486Y3888123D01*
X0085518Y3886943D02*
X0085518Y3886943D01*
X0085518Y3888519D01*
X0085518Y3888519D01*
X0085518Y3886943D01*
X0085518Y3888123D02*
X0085518Y3888123D01*
X0083549Y3886943D02*
X0083549Y3886943D01*
X0083549Y3888519D01*
X0083549Y3888519D01*
X0083549Y3886943D01*
X0083549Y3888123D02*
X0083549Y3888123D01*
X0081581Y3886943D02*
X0081581Y3886943D01*
X0081581Y3888519D01*
X0081581Y3888519D01*
X0081581Y3886943D01*
X0081581Y3888123D02*
X0081581Y3888123D01*
X0079612Y3886943D02*
X0079612Y3886943D01*
X0079612Y3888519D01*
X0079612Y3888519D01*
X0079612Y3886943D01*
X0079612Y3888123D02*
X0079612Y3888123D01*
X0077644Y3886943D02*
X0077644Y3886943D01*
X0077644Y3888519D01*
X0077644Y3888519D01*
X0077644Y3886943D01*
X0077644Y3888123D02*
X0077644Y3888123D01*
X0075675Y3886943D02*
X0075675Y3886943D01*
X0075675Y3888519D01*
X0075675Y3888519D01*
X0075675Y3886943D01*
X0075675Y3888123D02*
X0075675Y3888123D01*
X0073707Y3886943D02*
X0073707Y3886943D01*
X0073707Y3888519D01*
X0073707Y3888519D01*
X0073707Y3886943D01*
X0073707Y3888123D02*
X0073707Y3888123D01*
X0071738Y3886943D02*
X0071738Y3886943D01*
X0071738Y3888519D01*
X0071738Y3888519D01*
X0071738Y3886943D01*
X0071738Y3888123D02*
X0071738Y3888123D01*
X0070164Y3885369D02*
X0070164Y3885369D01*
X0068588Y3885369D01*
X0068588Y3885369D01*
X0070164Y3885369D01*
X0070164Y3883400D02*
X0070164Y3883400D01*
X0068588Y3883400D01*
X0068588Y3883400D01*
X0070164Y3883400D01*
X0070164Y3881432D02*
X0070164Y3881432D01*
X0068588Y3881432D01*
X0068588Y3881432D01*
X0070164Y3881432D01*
X0070164Y3879463D02*
X0070164Y3879463D01*
X0068588Y3879463D01*
X0068588Y3879463D01*
X0070164Y3879463D01*
X0070164Y3877495D02*
X0070164Y3877495D01*
X0068588Y3877495D01*
X0068588Y3877495D01*
X0070164Y3877495D01*
X0070164Y3875526D02*
X0070164Y3875526D01*
X0068588Y3875526D01*
X0068588Y3875526D01*
X0070164Y3875526D01*
X0070164Y3873558D02*
X0070164Y3873558D01*
X0068588Y3873558D01*
X0068588Y3873558D01*
X0070164Y3873558D01*
X0070164Y3871589D02*
X0070164Y3871589D01*
X0068588Y3871589D01*
X0068588Y3871589D01*
X0070164Y3871589D01*
X0070164Y3869621D02*
X0070164Y3869621D01*
X0068588Y3869621D01*
X0068588Y3869621D01*
X0070164Y3869621D01*
X0070164Y3867652D02*
X0070164Y3867652D01*
X0068588Y3867652D01*
X0068588Y3867652D01*
X0070164Y3867652D01*
X0070164Y3865684D02*
X0070164Y3865684D01*
X0068588Y3865684D01*
X0068588Y3865684D01*
X0070164Y3865684D01*
X0070164Y3863715D02*
X0070164Y3863715D01*
X0068588Y3863715D01*
X0068588Y3863715D01*
X0070164Y3863715D01*
X0071738Y3862141D02*
X0071738Y3862141D01*
X0071738Y3860565D01*
X0071738Y3860565D01*
X0071738Y3862141D01*
X0071738Y3861745D02*
X0071738Y3861745D01*
X3864259Y3861189D02*
X3864259Y3861189D01*
X3862683Y3861189D01*
X3862683Y3861189D01*
X3864259Y3861189D01*
X3862683Y3859221D02*
X3862683Y3859221D01*
X3864259Y3859221D01*
X3864259Y3859221D01*
X3862683Y3859221D01*
X3862683Y3857252D02*
X3862683Y3857252D01*
X3864259Y3857252D01*
X3864259Y3857252D01*
X3862683Y3857252D01*
X3862683Y3855284D02*
X3862683Y3855284D01*
X3864259Y3855284D01*
X3864259Y3855284D01*
X3862683Y3855284D01*
X3862683Y3853315D02*
X3862683Y3853315D01*
X3864259Y3853315D01*
X3864259Y3853315D01*
X3862683Y3853315D01*
X3864259Y3851347D02*
X3864259Y3851347D01*
X3862683Y3851347D01*
X3862683Y3851347D01*
X3864259Y3851347D01*
X3864259Y3849378D02*
X3864259Y3849378D01*
X3862683Y3849378D01*
X3862683Y3849378D01*
X3864259Y3849378D01*
X3864259Y3847410D02*
X3864259Y3847410D01*
X3862683Y3847410D01*
X3862683Y3847410D01*
X3864259Y3847410D01*
X3864259Y3845441D02*
X3864259Y3845441D01*
X3862683Y3845441D01*
X3862683Y3845441D01*
X3864259Y3845441D01*
X3865833Y3843867D02*
X3865833Y3843867D01*
X3865833Y3842291D01*
X3865833Y3842291D01*
X3865833Y3843867D01*
X3865833Y3843471D02*
X3865833Y3843471D01*
X3867802Y3843867D02*
X3867802Y3843867D01*
X3867802Y3842291D01*
X3867802Y3842291D01*
X3867802Y3843867D01*
X3867802Y3843471D02*
X3867802Y3843471D01*
X3869770Y3843867D02*
X3869770Y3843867D01*
X3869770Y3842291D01*
X3869770Y3842291D01*
X3869770Y3843867D01*
X3869770Y3843471D02*
X3869770Y3843471D01*
X3871739Y3843867D02*
X3871739Y3843867D01*
X3871739Y3842291D01*
X3871739Y3842291D01*
X3871739Y3843867D01*
X3871739Y3843471D02*
X3871739Y3843471D01*
X3873707Y3843867D02*
X3873707Y3843867D01*
X3873707Y3842291D01*
X3873707Y3842291D01*
X3873707Y3843867D01*
X3873707Y3843471D02*
X3873707Y3843471D01*
X3875676Y3843867D02*
X3875676Y3843867D01*
X3875676Y3842291D01*
X3875676Y3842291D01*
X3875676Y3843867D01*
X3875676Y3843471D02*
X3875676Y3843471D01*
X3877644Y3843867D02*
X3877644Y3843867D01*
X3877644Y3842291D01*
X3877644Y3842291D01*
X3877644Y3843867D01*
X3877644Y3843471D02*
X3877644Y3843471D01*
X3879613Y3843867D02*
X3879613Y3843867D01*
X3879613Y3842291D01*
X3879613Y3842291D01*
X3879613Y3843867D01*
X3879613Y3843471D02*
X3879613Y3843471D01*
X3881581Y3843867D02*
X3881581Y3843867D01*
X3881581Y3842291D01*
X3881581Y3842291D01*
X3881581Y3843867D01*
X3881581Y3843471D02*
X3881581Y3843471D01*
X3883550Y3843867D02*
X3883550Y3843867D01*
X3883550Y3842291D01*
X3883550Y3842291D01*
X3883550Y3843867D01*
X3883550Y3843471D02*
X3883550Y3843471D01*
X3885518Y3843867D02*
X3885518Y3843867D01*
X3885518Y3842291D01*
X3885518Y3842291D01*
X3885518Y3843867D01*
X3885518Y3843471D02*
X3885518Y3843471D01*
X3887487Y3843867D02*
X3887487Y3843867D01*
X3887487Y3842291D01*
X3887487Y3842291D01*
X3887487Y3843867D01*
X3887487Y3843471D02*
X3887487Y3843471D01*
X3889061Y3845441D02*
X3889061Y3845441D01*
X3890637Y3845441D01*
X3890637Y3845441D01*
X3889061Y3845441D01*
X3889061Y3847410D02*
X3889061Y3847410D01*
X3890637Y3847410D01*
X3890637Y3847410D01*
X3889061Y3847410D01*
X3889061Y3849378D02*
X3889061Y3849378D01*
X3890637Y3849378D01*
X3890637Y3849378D01*
X3889061Y3849378D01*
X3889061Y3851347D02*
X3889061Y3851347D01*
X3890637Y3851347D01*
X3890637Y3851347D01*
X3889061Y3851347D01*
X3889061Y3853315D02*
X3889061Y3853315D01*
X3890637Y3853315D01*
X3890637Y3853315D01*
X3889061Y3853315D01*
X3889061Y3855284D02*
X3889061Y3855284D01*
X3890637Y3855284D01*
X3890637Y3855284D01*
X3889061Y3855284D01*
X3889061Y3857252D02*
X3889061Y3857252D01*
X3890637Y3857252D01*
X3890637Y3857252D01*
X3889061Y3857252D01*
X3889061Y3859221D02*
X3889061Y3859221D01*
X3890637Y3859221D01*
X3890637Y3859221D01*
X3889061Y3859221D01*
X3889061Y3861189D02*
X3889061Y3861189D01*
X3890637Y3861189D01*
X3890637Y3861189D01*
X3889061Y3861189D01*
X3889061Y3863158D02*
X3889061Y3863158D01*
X3890637Y3863158D01*
X3890637Y3863158D01*
X3889061Y3863158D01*
X3889061Y3865126D02*
X3889061Y3865126D01*
X3890637Y3865126D01*
X3890637Y3865126D01*
X3889061Y3865126D01*
X3889061Y3867095D02*
X3889061Y3867095D01*
X3890637Y3867095D01*
X3890637Y3867095D01*
X3889061Y3867095D01*
X3887487Y3868669D02*
X3887487Y3868669D01*
X3887487Y3870245D01*
X3887487Y3870245D01*
X3887487Y3868669D01*
X3887487Y3869849D02*
X3887487Y3869849D01*
X3885518Y3868669D02*
X3885518Y3868669D01*
X3885518Y3870245D01*
X3885518Y3870245D01*
X3885518Y3868669D01*
X3885518Y3869849D02*
X3885518Y3869849D01*
X3883550Y3868669D02*
X3883550Y3868669D01*
X3883550Y3870245D01*
X3883550Y3870245D01*
X3883550Y3868669D01*
X3883550Y3869849D02*
X3883550Y3869849D01*
X3881581Y3868669D02*
X3881581Y3868669D01*
X3881581Y3870245D01*
X3881581Y3870245D01*
X3881581Y3868669D01*
X3881581Y3869849D02*
X3881581Y3869849D01*
X3879613Y3868669D02*
X3879613Y3868669D01*
X3879613Y3870245D01*
X3879613Y3870245D01*
X3879613Y3868669D01*
X3879613Y3869849D02*
X3879613Y3869849D01*
X3877644Y3868669D02*
X3877644Y3868669D01*
X3877644Y3870245D01*
X3877644Y3870245D01*
X3877644Y3868669D01*
X3877644Y3869849D02*
X3877644Y3869849D01*
X3875676Y3868669D02*
X3875676Y3868669D01*
X3875676Y3870245D01*
X3875676Y3870245D01*
X3875676Y3868669D01*
X3875676Y3869849D02*
X3875676Y3869849D01*
X3873707Y3868669D02*
X3873707Y3868669D01*
X3873707Y3870245D01*
X3873707Y3870245D01*
X3873707Y3868669D01*
X3873707Y3869849D02*
X3873707Y3869849D01*
X3871739Y3868669D02*
X3871739Y3868669D01*
X3871739Y3870245D01*
X3871739Y3870245D01*
X3871739Y3868669D01*
X3871739Y3869849D02*
X3871739Y3869849D01*
X3869770Y3868669D02*
X3869770Y3868669D01*
X3869770Y3870245D01*
X3869770Y3870245D01*
X3869770Y3868669D01*
X3869770Y3869849D02*
X3869770Y3869849D01*
X3867802Y3868669D02*
X3867802Y3868669D01*
X3867802Y3870245D01*
X3867802Y3870245D01*
X3867802Y3868669D01*
X3867802Y3869849D02*
X3867802Y3869849D01*
X3865833Y3868669D02*
X3865833Y3868669D01*
X3865833Y3870245D01*
X3865833Y3870245D01*
X3865833Y3868669D01*
X3865833Y3869849D02*
X3865833Y3869849D01*
X3864259Y3867095D02*
X3864259Y3867095D01*
X3862683Y3867095D01*
X3862683Y3867095D01*
X3864259Y3867095D01*
X3864259Y3865126D02*
X3864259Y3865126D01*
X3862683Y3865126D01*
X3862683Y3865126D01*
X3864259Y3865126D01*
X3864259Y3863158D02*
X3864259Y3863158D01*
X3862683Y3863158D01*
X3862683Y3863158D01*
X3864259Y3863158D01*
D21*
X3837748Y0112472D03*
X0103068Y3824730D03*
D22*
X0103068Y3743825D03*
X3837748Y0193377D03*
D23*
X3841676Y0091872D03*
X3847976Y0091872D03*
X3847976Y0083211D03*
X3841676Y0083211D03*
X0099140Y3845329D03*
X0092841Y3845329D03*
X0092841Y3853991D03*
X0099140Y3853991D03*
D24*
X0146182Y3852941D03*
X0084986Y0147756D03*
X3794634Y0084261D03*
X3855059Y3792651D03*
D25*
X3812193Y0097027D03*
X0128623Y3840175D03*
D26*
X0125867Y3838501D03*
X0131379Y3838501D03*
X3809437Y0098700D03*
X3814949Y0098700D03*
D27*
X3812193Y0101259D03*
X3838061Y3810210D03*
X0128623Y3835942D03*
X0101984Y0130197D03*
D28*
X0058070Y3838008D03*
X0055511Y3838008D03*
X0052952Y3838008D03*
X0050393Y3838008D03*
X0050393Y3853559D03*
X0052952Y3853559D03*
X0055511Y3853559D03*
X0058070Y3853559D03*
X3882747Y0099194D03*
X3885306Y0099194D03*
X3887865Y0099194D03*
X3890424Y0099194D03*
X3890424Y0083643D03*
X3887865Y0083643D03*
X3885306Y0083643D03*
X3882747Y0083643D03*
D29*
X3898227Y0088644D03*
X3898227Y0095731D03*
X3915604Y0097419D03*
X3915604Y0090332D03*
X0042590Y3841471D03*
X0042590Y3848558D03*
X0025213Y3846870D03*
X0025213Y3839783D03*
D30*
X0030492Y3859421D03*
X0030492Y3860996D03*
X0030492Y3862571D03*
X0030492Y3864146D03*
X0030492Y3865720D03*
X0030492Y3867295D03*
X0030492Y3868870D03*
X0030492Y3870445D03*
X0030492Y3872020D03*
X0030492Y3873594D03*
X3910324Y0077781D03*
X3910324Y0076206D03*
X3910324Y0074631D03*
X3910324Y0073056D03*
X3910324Y0071481D03*
X3910324Y0069907D03*
X3910324Y0068332D03*
X3910324Y0066757D03*
X3910324Y0065182D03*
X3910324Y0063607D03*
D31*
X3915147Y0064395D03*
X3915147Y0065970D03*
X3915147Y0067544D03*
X3915147Y0069119D03*
X3915147Y0070694D03*
X3915147Y0072269D03*
X3915147Y0073844D03*
X3915147Y0075418D03*
X3915147Y0076993D03*
X0025669Y3860209D03*
X0025669Y3861783D03*
X0025669Y3863358D03*
X0025669Y3864933D03*
X0025669Y3866508D03*
X0025669Y3868083D03*
X0025669Y3869657D03*
X0025669Y3871232D03*
X0025669Y3872807D03*
D32*
X0024921Y3877728D03*
X0024921Y3855287D03*
X3915895Y0081915D03*
X3915895Y0059474D03*
D33*
X3929123Y0059474D03*
X3929123Y0081915D03*
X0011693Y3855287D03*
X0011693Y3877728D03*
D34*
X0062558Y0138666D03*
X0072400Y0138666D03*
X3867644Y3801740D03*
X3877487Y3801740D03*
D35*
X3868511Y3835047D03*
X3868511Y3837016D03*
X3868511Y3838984D03*
X3865361Y3838984D03*
X3865361Y3837016D03*
X3865361Y3835047D03*
X0074684Y0105359D03*
X0074684Y0103390D03*
X0074684Y0101422D03*
X0071534Y0101422D03*
X0071534Y0103390D03*
X0071534Y0105359D03*
D36*
X0113197Y0104641D03*
X3826848Y3835765D03*
D37*
X3745943Y3835765D03*
X0194102Y0104641D03*
D38*
X0092597Y0100713D03*
X0092597Y0094414D03*
X0083936Y0094414D03*
X0083936Y0100713D03*
X3847448Y3839693D03*
X3847448Y3845992D03*
X3856109Y3845992D03*
X3856109Y3839693D03*
D39*
X3842293Y3810210D03*
X0097752Y0130197D03*
D40*
X0099425Y0132953D03*
X0099425Y0127441D03*
X3840620Y3807454D03*
X3840620Y3812966D03*
D41*
X3840126Y3880763D03*
X3840126Y3883322D03*
X3840126Y3885881D03*
X3840126Y3888440D03*
X3855677Y3888440D03*
X3855677Y3885881D03*
X3855677Y3883322D03*
X3855677Y3880763D03*
X0099919Y0059643D03*
X0099919Y0057084D03*
X0099919Y0054525D03*
X0099919Y0051966D03*
X0084368Y0051966D03*
X0084368Y0054525D03*
X0084368Y0057084D03*
X0084368Y0059643D03*
D42*
X0089369Y0044163D03*
X0096455Y0044163D03*
X0098144Y0026786D03*
X0091057Y0026786D03*
X3843589Y3896243D03*
X3850676Y3896243D03*
X3848988Y3913620D03*
X3841901Y3913620D03*
D43*
X3861539Y3908341D03*
X3863114Y3908341D03*
X3864689Y3908341D03*
X3866264Y3908341D03*
X3867838Y3908341D03*
X3869413Y3908341D03*
X3870988Y3908341D03*
X3872563Y3908341D03*
X3874138Y3908341D03*
X3875712Y3908341D03*
X0078506Y0032065D03*
X0076931Y0032065D03*
X0075356Y0032065D03*
X0073781Y0032065D03*
X0072206Y0032065D03*
X0070632Y0032065D03*
X0069057Y0032065D03*
X0067482Y0032065D03*
X0065907Y0032065D03*
X0064332Y0032065D03*
D44*
X0065120Y0027243D03*
X0066695Y0027243D03*
X0068269Y0027243D03*
X0069844Y0027243D03*
X0071419Y0027243D03*
X0072994Y0027243D03*
X0074569Y0027243D03*
X0076143Y0027243D03*
X0077718Y0027243D03*
X3862327Y3913164D03*
X3863901Y3913164D03*
X3865476Y3913164D03*
X3867051Y3913164D03*
X3868626Y3913164D03*
X3870201Y3913164D03*
X3871775Y3913164D03*
X3873350Y3913164D03*
X3874925Y3913164D03*
D45*
X3879846Y3913912D03*
X3857405Y3913912D03*
X0082639Y0026495D03*
X0060198Y0026495D03*
D46*
X0060198Y0013266D03*
X0082639Y0013266D03*
X3857405Y3927140D03*
X3879846Y3927140D03*
M02*
