G75*
%MOIN*%
%OFA0B0*%
%FSLAX25Y25*%
%IPPOS*%
%LPD*%
%AMOC8*
5,1,8,0,0,1.08239X$1,22.5*
%
%ADD10R,0.02756X0.03543*%
%ADD11R,0.04724X0.03150*%
%ADD12R,1.85039X0.08661*%
%ADD13R,1.85039X0.04331*%
%ADD14C,0.02362*%
%ADD15R,0.02756X0.01417*%
%ADD16R,0.01417X0.02756*%
%ADD17R,0.03150X0.03150*%
%ADD18R,0.03937X0.04331*%
%ADD19R,0.04331X0.03937*%
%ADD20R,0.03543X0.02756*%
%ADD21C,0.01063*%
%ADD22R,0.03937X0.03937*%
%ADD23R,0.03937X0.07874*%
%ADD24R,0.01575X0.03346*%
%ADD25R,0.01575X0.06693*%
%ADD26R,0.01575X0.01575*%
%ADD27R,0.03150X0.04724*%
%ADD28R,0.08661X1.85039*%
%ADD29R,0.04331X1.85039*%
%ADD30R,0.07874X0.03937*%
%ADD31R,0.03346X0.01575*%
%ADD32R,0.06693X0.01575*%
D10*
X0059448Y0075438D03*
X0064566Y0075438D03*
X0095577Y0066174D03*
X0100695Y0066174D03*
X0072400Y0126894D03*
X0067282Y0126894D03*
X0111778Y3841707D03*
X0111778Y3846156D03*
X0116896Y3846156D03*
X0116896Y3841707D03*
X0099534Y3843873D03*
X0094415Y3843873D03*
X0087329Y3843912D03*
X0082211Y3843912D03*
X0070675Y3856314D03*
X0065557Y3856314D03*
X0066698Y3887444D03*
X0066738Y3891747D03*
X0066773Y3895942D03*
X0066818Y3900212D03*
X0071936Y3900212D03*
X0071891Y3895942D03*
X0071856Y3891747D03*
X0071816Y3887444D03*
X0059889Y3887483D03*
X0059848Y3891747D03*
X0059807Y3895980D03*
X0059803Y3900213D03*
X0054685Y3900213D03*
X0054689Y3895980D03*
X0054730Y3891747D03*
X0054771Y3887483D03*
X3839350Y3874232D03*
X3844468Y3874232D03*
X3875479Y3864969D03*
X3880597Y3864969D03*
X3872763Y3813512D03*
X3867644Y3813512D03*
X3829039Y0095494D03*
X3829039Y0091046D03*
X3823921Y0091046D03*
X3823921Y0095494D03*
X3841283Y0093329D03*
X3846401Y0093329D03*
X3853487Y0093290D03*
X3858606Y0093290D03*
X3870141Y0080888D03*
X3875259Y0080888D03*
X3874119Y0049757D03*
X3874078Y0045455D03*
X3874044Y0041260D03*
X3873998Y0036990D03*
X3868880Y0036990D03*
X3868925Y0041260D03*
X3868960Y0045455D03*
X3869000Y0049757D03*
X3880927Y0049719D03*
X3880968Y0045455D03*
X3881010Y0041222D03*
X3881013Y0036988D03*
X3886131Y0036988D03*
X3886128Y0041222D03*
X3886086Y0045455D03*
X3886045Y0049719D03*
D11*
X3887464Y0073605D03*
X3887464Y0080691D03*
X0053352Y3856511D03*
X0053352Y3863597D03*
D12*
X0103156Y3824699D03*
X3837661Y0112502D03*
D13*
X3837661Y0193408D03*
X0103156Y3743794D03*
D14*
X0100439Y3863203D03*
X0094534Y3863203D03*
X0094534Y3869109D03*
X0100439Y3869109D03*
X0100439Y3875014D03*
X0094534Y3875014D03*
X0094534Y3880920D03*
X0100439Y3880920D03*
X0100439Y3886825D03*
X0094534Y3886825D03*
X0088628Y3886825D03*
X0088628Y3880920D03*
X0088628Y3875014D03*
X0088628Y3869109D03*
X0088628Y3863203D03*
X0106345Y3863203D03*
X0112250Y3863203D03*
X0112250Y3869109D03*
X0112250Y3875014D03*
X0106345Y3875014D03*
X0106345Y3869109D03*
X0106345Y3880920D03*
X0112250Y3880920D03*
X0112250Y3886825D03*
X0106345Y3886825D03*
X3865322Y3850205D03*
X3871227Y3850205D03*
X3871227Y3844299D03*
X3871227Y3838394D03*
X3865322Y3838394D03*
X3865322Y3844299D03*
X3877133Y3844299D03*
X3877133Y3838394D03*
X3883038Y3838394D03*
X3883038Y3844299D03*
X3888944Y3844299D03*
X3888944Y3838394D03*
X3888944Y3832488D03*
X3888944Y3826583D03*
X3883038Y3826583D03*
X3883038Y3832488D03*
X3877133Y3832488D03*
X3877133Y3826583D03*
X3871227Y3826583D03*
X3871227Y3832488D03*
X3865322Y3832488D03*
X3865322Y3826583D03*
X3877133Y3850205D03*
X3883038Y3850205D03*
X3888944Y3850205D03*
X3852188Y0073998D03*
X3852188Y0068093D03*
X3846283Y0068093D03*
X3846283Y0073998D03*
X3840377Y0073998D03*
X3840377Y0068093D03*
X3834472Y0068093D03*
X3834472Y0073998D03*
X3828566Y0073998D03*
X3828566Y0068093D03*
X3828566Y0062187D03*
X3828566Y0056282D03*
X3828566Y0050376D03*
X3834472Y0050376D03*
X3840377Y0050376D03*
X3846283Y0050376D03*
X3852188Y0050376D03*
X3852188Y0056282D03*
X3846283Y0056282D03*
X3846283Y0062187D03*
X3852188Y0062187D03*
X3840377Y0062187D03*
X3840377Y0056282D03*
X3834472Y0056282D03*
X3834472Y0062187D03*
X0074723Y0090201D03*
X0068818Y0090201D03*
X0062912Y0090201D03*
X0057007Y0090201D03*
X0051101Y0090201D03*
X0051101Y0096107D03*
X0051101Y0102012D03*
X0057007Y0102012D03*
X0057007Y0096107D03*
X0062912Y0096107D03*
X0062912Y0102012D03*
X0068818Y0102012D03*
X0068818Y0096107D03*
X0074723Y0096107D03*
X0074723Y0102012D03*
X0074723Y0107918D03*
X0068818Y0107918D03*
X0068818Y0113823D03*
X0074723Y0113823D03*
X0062912Y0113823D03*
X0062912Y0107918D03*
X0057007Y0107918D03*
X0057007Y0113823D03*
X0051101Y0113823D03*
X0051101Y0107918D03*
D15*
X0044448Y0108312D03*
X0044448Y0111461D03*
X0044448Y0114611D03*
X0044448Y0117760D03*
X0044448Y0105162D03*
X0044448Y0102012D03*
X0044448Y0098863D03*
X0044448Y0095713D03*
X0044448Y0092564D03*
X0044448Y0089414D03*
X0044448Y0086264D03*
X0081377Y0086264D03*
X0081377Y0089414D03*
X0081377Y0092564D03*
X0081377Y0095713D03*
X0081377Y0098863D03*
X0081377Y0102012D03*
X0081377Y0105162D03*
X0081377Y0108312D03*
X0081377Y0111461D03*
X0081377Y0114611D03*
X0081377Y0117760D03*
X3821913Y0077935D03*
X3821913Y0074786D03*
X3821913Y0071636D03*
X3821913Y0068487D03*
X3821913Y0065337D03*
X3821913Y0062187D03*
X3821913Y0059038D03*
X3821913Y0055888D03*
X3821913Y0052739D03*
X3821913Y0049589D03*
X3821913Y0046439D03*
X3858842Y0046439D03*
X3858842Y0049589D03*
X3858842Y0052739D03*
X3858842Y0055888D03*
X3858842Y0059038D03*
X3858842Y0062187D03*
X3858842Y0065337D03*
X3858842Y0068487D03*
X3858842Y0071636D03*
X3858842Y0074786D03*
X3858842Y0077935D03*
X3858668Y3822646D03*
X3858668Y3825795D03*
X3858668Y3828945D03*
X3858668Y3832095D03*
X3858668Y3835244D03*
X3858668Y3838394D03*
X3858668Y3841544D03*
X3858668Y3844693D03*
X3858668Y3847843D03*
X3858668Y3850992D03*
X3858668Y3854142D03*
X3895597Y3854142D03*
X3895597Y3850992D03*
X3895597Y3847843D03*
X3895597Y3844693D03*
X3895597Y3841544D03*
X3895597Y3838394D03*
X3895597Y3835244D03*
X3895597Y3832095D03*
X3895597Y3828945D03*
X3895597Y3825795D03*
X3895597Y3822646D03*
X0118904Y3859266D03*
X0118904Y3862416D03*
X0118904Y3865566D03*
X0118904Y3868715D03*
X0118904Y3871865D03*
X0118904Y3875014D03*
X0118904Y3878164D03*
X0118904Y3881314D03*
X0118904Y3884463D03*
X0118904Y3887613D03*
X0118904Y3890762D03*
X0081974Y3890762D03*
X0081974Y3887613D03*
X0081974Y3884463D03*
X0081974Y3881314D03*
X0081974Y3878164D03*
X0081974Y3875014D03*
X0081974Y3871865D03*
X0081974Y3868715D03*
X0081974Y3865566D03*
X0081974Y3862416D03*
X0081974Y3859266D03*
D16*
X0084691Y3856550D03*
X0087841Y3856550D03*
X0090990Y3856550D03*
X0094140Y3856550D03*
X0097289Y3856550D03*
X0100439Y3856550D03*
X0103589Y3856550D03*
X0106738Y3856550D03*
X0109888Y3856550D03*
X0113037Y3856550D03*
X0116187Y3856550D03*
X0116187Y3893479D03*
X0113037Y3893479D03*
X0109888Y3893479D03*
X0106738Y3893479D03*
X0103589Y3893479D03*
X0100439Y3893479D03*
X0097289Y3893479D03*
X0094140Y3893479D03*
X0090990Y3893479D03*
X0087841Y3893479D03*
X0084691Y3893479D03*
X0078660Y0120477D03*
X0075511Y0120477D03*
X0072361Y0120477D03*
X0069211Y0120477D03*
X0066062Y0120477D03*
X0062912Y0120477D03*
X0059763Y0120477D03*
X0056613Y0120477D03*
X0053463Y0120477D03*
X0050314Y0120477D03*
X0047164Y0120477D03*
X0047164Y0083548D03*
X0050314Y0083548D03*
X0053463Y0083548D03*
X0056613Y0083548D03*
X0059763Y0083548D03*
X0062912Y0083548D03*
X0066062Y0083548D03*
X0069211Y0083548D03*
X0072361Y0083548D03*
X0075511Y0083548D03*
X0078660Y0083548D03*
X3824629Y0080652D03*
X3827779Y0080652D03*
X3830928Y0080652D03*
X3834078Y0080652D03*
X3837228Y0080652D03*
X3840377Y0080652D03*
X3843527Y0080652D03*
X3846676Y0080652D03*
X3849826Y0080652D03*
X3852976Y0080652D03*
X3856125Y0080652D03*
X3856125Y0043723D03*
X3852976Y0043723D03*
X3849826Y0043723D03*
X3846676Y0043723D03*
X3843527Y0043723D03*
X3840377Y0043723D03*
X3837228Y0043723D03*
X3834078Y0043723D03*
X3830928Y0043723D03*
X3827779Y0043723D03*
X3824629Y0043723D03*
X3861385Y3819929D03*
X3864534Y3819929D03*
X3867684Y3819929D03*
X3870833Y3819929D03*
X3873983Y3819929D03*
X3877133Y3819929D03*
X3880282Y3819929D03*
X3883432Y3819929D03*
X3886581Y3819929D03*
X3889731Y3819929D03*
X3892881Y3819929D03*
X3892881Y3856858D03*
X3889731Y3856858D03*
X3886581Y3856858D03*
X3883432Y3856858D03*
X3880282Y3856858D03*
X3877133Y3856858D03*
X3873983Y3856858D03*
X3870833Y3856858D03*
X3867684Y3856858D03*
X3864534Y3856858D03*
X3861385Y3856858D03*
D17*
X3875558Y3870284D03*
X3881463Y3870284D03*
X3836463Y3844378D03*
X3836463Y3838473D03*
X3840456Y0102857D03*
X3846361Y0102857D03*
X3872267Y0063762D03*
X3872267Y0057857D03*
X0103582Y0096028D03*
X0103582Y0101934D03*
X0064487Y0070123D03*
X0058582Y0070123D03*
X0094455Y3834345D03*
X0100360Y3834345D03*
X0068549Y3873440D03*
X0068549Y3879345D03*
D18*
X0081459Y3900075D03*
X0081459Y3906768D03*
X0091648Y3904742D03*
X0091648Y3898049D03*
X0102959Y3898007D03*
X0102959Y3904699D03*
X0038621Y0118469D03*
X0038621Y0111776D03*
X0023943Y0081968D03*
X0023943Y0075275D03*
X3837858Y0039195D03*
X3837858Y0032502D03*
X3849169Y0032460D03*
X3849169Y0039153D03*
X3859357Y0037126D03*
X3859357Y0030434D03*
X3901424Y3821937D03*
X3901424Y3828630D03*
X3916102Y3858438D03*
X3916102Y3865131D03*
D19*
X3908886Y3857374D03*
X3902193Y3857374D03*
X3900167Y3847185D03*
X3906860Y3847185D03*
X3906818Y3835874D03*
X3900125Y3835874D03*
X0116896Y3899306D03*
X0110203Y3899306D03*
X0080395Y3913984D03*
X0073702Y3913984D03*
X0039920Y0104532D03*
X0033227Y0104532D03*
X0033185Y0093221D03*
X0039878Y0093221D03*
X0037851Y0083033D03*
X0031158Y0083033D03*
X3823921Y0037896D03*
X3830613Y0037896D03*
X3860422Y0023218D03*
X3867114Y0023218D03*
D20*
X3866952Y0058723D03*
X3866952Y0063841D03*
X3876215Y0094852D03*
X3876215Y0099970D03*
X3815495Y0071676D03*
X3815495Y0066557D03*
X0096219Y0113351D03*
X0091770Y0113351D03*
X0091770Y0118469D03*
X0096219Y0118469D03*
X0094054Y0101107D03*
X0094054Y0095989D03*
X0094015Y0088902D03*
X0094015Y0083784D03*
X0081613Y0072249D03*
X0081613Y0067130D03*
X0050482Y0068271D03*
X0046180Y0068312D03*
X0041985Y0068346D03*
X0037714Y0068392D03*
X0037714Y0073510D03*
X0041985Y0073464D03*
X0046180Y0073430D03*
X0050482Y0073389D03*
X0050444Y0061462D03*
X0046180Y0061422D03*
X0041947Y0061380D03*
X0037713Y0061376D03*
X0037713Y0056258D03*
X0041947Y0056262D03*
X0046180Y0056304D03*
X0050444Y0056344D03*
X0064601Y3837232D03*
X0064601Y3842350D03*
X0073864Y3873361D03*
X0073864Y3878479D03*
X0125321Y3870644D03*
X0125321Y3865526D03*
X3843826Y3827055D03*
X3848274Y3827055D03*
X3848274Y3821937D03*
X3843826Y3821937D03*
X3845991Y3839299D03*
X3845991Y3844418D03*
X3846030Y3851504D03*
X3846030Y3856622D03*
X3858432Y3868158D03*
X3858432Y3873276D03*
X3889563Y3872135D03*
X3893865Y3872095D03*
X3898060Y3872060D03*
X3902330Y3872015D03*
X3902330Y3866897D03*
X3898060Y3866942D03*
X3893865Y3866977D03*
X3889563Y3867017D03*
X3889601Y3878944D03*
X3893865Y3878984D03*
X3898098Y3879026D03*
X3902332Y3879030D03*
X3902332Y3884148D03*
X3898098Y3884144D03*
X3893865Y3884103D03*
X3889601Y3884062D03*
D21*
X3846739Y3868118D03*
X3846739Y3866150D03*
X3844770Y3866150D03*
X3842802Y3866150D03*
X3842802Y3868118D03*
X3844770Y3868118D03*
X3844770Y3864181D03*
X3842802Y3864181D03*
X3846739Y3864181D03*
X3866165Y0096518D03*
X3868133Y0096518D03*
X3868133Y0094550D03*
X3866165Y0094550D03*
X3866165Y0092581D03*
X3868133Y0092581D03*
X3870102Y0092581D03*
X3870102Y0094550D03*
X3870102Y0096518D03*
X0097243Y0076225D03*
X0097243Y0074256D03*
X0097243Y0072288D03*
X0095274Y0072288D03*
X0093306Y0072288D03*
X0093306Y0074256D03*
X0095274Y0074256D03*
X0095274Y0076225D03*
X0093306Y0076225D03*
X0074652Y3840684D03*
X0074652Y3842652D03*
X0074652Y3844621D03*
X0072683Y3844621D03*
X0070715Y3844621D03*
X0070715Y3842652D03*
X0072683Y3842652D03*
X0072683Y3840684D03*
X0070715Y3840684D03*
D22*
X0057171Y3836550D03*
X0049691Y3836550D03*
X0049691Y3845999D03*
X0057171Y3845999D03*
X3838668Y3881662D03*
X3838668Y3889142D03*
X3848117Y3889142D03*
X3848117Y3881662D03*
X3883645Y0100652D03*
X3891125Y0100652D03*
X3891125Y0091203D03*
X3883645Y0091203D03*
X0101377Y0058745D03*
X0101377Y0051264D03*
X0091928Y0051264D03*
X0091928Y0058745D03*
D23*
X3902424Y0012384D03*
X3929984Y0012384D03*
X0038392Y3924818D03*
X0010833Y3924818D03*
D24*
X0092561Y3913022D03*
X3848255Y0024180D03*
D25*
X3845499Y0022507D03*
X3851011Y0022507D03*
X0095317Y3914695D03*
X0089805Y3914695D03*
D26*
X0092561Y3917254D03*
X0020672Y0094135D03*
X3848255Y0019948D03*
X3919372Y3846272D03*
D27*
X3865715Y3885481D03*
X3858629Y3885481D03*
X0081416Y0054926D03*
X0074330Y0054926D03*
D28*
X0113227Y0104729D03*
X3826818Y3835677D03*
D29*
X3745912Y3835677D03*
X0194133Y0104729D03*
D30*
X0013109Y0012406D03*
X0013109Y0039965D03*
X3926936Y3900441D03*
X3926936Y3928000D03*
D31*
X3915140Y3846272D03*
X0024905Y0094135D03*
D32*
X0023232Y0096890D03*
X0023232Y0091379D03*
X3916813Y3843516D03*
X3916813Y3849028D03*
M02*
