%
M48
M72
T01C0.01378
%
T01
X31663Y12137
X31710Y21492
X31663Y31830
X31483Y41695
X20058Y53169
X7747Y52911
X7691Y63117
X13177Y71282
X7860Y75445
X31235Y88321
X33879Y97495
X33081Y110603
X33091Y114676
X43120Y123175
X40354Y125923
X43201Y134311
X51053Y132754
X53739Y136382
X58040Y136357
X56259Y130123
X56298Y125516
X78635Y135163
X79518Y151547
X70506Y151351
X60221Y151351
X50344Y151325
X39093Y151036
X27683Y150954
X15176Y150743
X14120Y173346
X21994Y173346
X29868Y173346
X37742Y173346
X45616Y173346
X53490Y173346
X61364Y173346
X69238Y173346
X77112Y173346
X77112Y196968
X84986Y196968
X69238Y196968
X61364Y196968
X53490Y196968
X45616Y196968
X37742Y196968
X29868Y196968
X21994Y196968
X14120Y196968
X93745Y151779
X105932Y135976
X86357Y114611
X85857Y107829
X91770Y107376
X99369Y100713
X100140Y93267
X104281Y87727
X104607Y81579
X104940Y71793
X90260Y69293
X90243Y65436
X82341Y77919
X82388Y82812
X85668Y85831
X75471Y64808
X67213Y63005
X62971Y62989
X61763Y54129
X69970Y46359
X76613Y48036
X81409Y46377
X78952Y42272
X93719Y37759
X99113Y37844
X106153Y31699
X103938Y11660
X92562Y11303
X52957Y12321
X42025Y12203
X51235Y46250
X46475Y51206
X37483Y78505
X17269Y108921
X123882Y104539
X3745421Y84261
X3745421Y76387
X3745421Y68513
X3745421Y60639
X3745421Y52765
X3745421Y44891
X3745421Y37017
X3745421Y29143
X3745421Y21269
X3745421Y13395
X3769043Y13395
X3769043Y21269
X3769043Y29143
X3769043Y37017
X3769043Y44891
X3769043Y52765
X3769043Y60639
X3769043Y68513
X3769043Y76387
X3790843Y78793
X3791039Y69781
X3791039Y59496
X3791064Y49619
X3791353Y38368
X3791435Y26959
X3791647Y14451
X3808079Y42476
X3809636Y50328
X3806007Y53014
X3806032Y57315
X3812267Y55534
X3816873Y55573
X3819215Y42395
X3816466Y39629
X3827713Y32366
X3831787Y32357
X3844895Y33155
X3854069Y30510
X3863884Y36758
X3871108Y12452
X3866945Y7135
X3879273Y6966
X3889478Y7022
X3889221Y19333
X3900695Y30758
X3910560Y30938
X3920897Y30985
X3930253Y30938
X3930186Y41300
X3930069Y52233
X3896139Y50510
X3891184Y45750
X3888260Y61038
X3879401Y62246
X3879385Y66488
X3877582Y74746
X3876954Y89518
X3873096Y89535
X3864470Y81616
X3859578Y81664
X3856558Y84943
X3849123Y99416
X3854662Y103556
X3860811Y103882
X3870596Y104215
X3841676Y98644
X3835014Y91046
X3834560Y85132
X3827779Y85632
X3807226Y77911
X3790610Y93020
X3806413Y105207
X3837851Y123158
X3896013Y80684
X3900118Y78227
X3894354Y75888
X3896031Y69245
X3904630Y92994
X3904545Y98388
X3910690Y105428
X3930729Y103213
X3931086Y91837
X3833468Y16544
X3855059Y3743438
X3862933Y3743438
X3870807Y3743438
X3878681Y3743438
X3886555Y3743438
X3894429Y3743438
X3902303Y3743438
X3910177Y3743438
X3918051Y3743438
X3925925Y3743438
X3925925Y3767060
X3918051Y3767060
X3910177Y3767060
X3902303Y3767060
X3894429Y3767060
X3886555Y3767060
X3878681Y3767060
X3870807Y3767060
X3862933Y3767060
X3860527Y3788859
X3869539Y3789055
X3879824Y3789055
X3889701Y3789081
X3900952Y3789370
X3912361Y3789452
X3924869Y3789663
X3896844Y3806096
X3888992Y3807653
X3886306Y3804024
X3882005Y3804049
X3883786Y3810284
X3883747Y3814890
X3896925Y3817231
X3899691Y3814483
X3906954Y3825730
X3906963Y3829803
X3906165Y3842912
X3908810Y3852085
X3902562Y3861901
X3926868Y3869124
X3932185Y3864962
X3932354Y3877289
X3932298Y3887495
X3919987Y3887238
X3908562Y3898711
X3908382Y3908576
X3908335Y3918914
X3908382Y3928270
X3898020Y3928203
X3887087Y3928085
X3888809Y3894156
X3893570Y3889201
X3878282Y3886277
X3877074Y3877418
X3872832Y3877401
X3864574Y3875599
X3849802Y3874971
X3849785Y3871113
X3857704Y3862487
X3857656Y3857594
X3854377Y3854575
X3839904Y3847140
X3835764Y3852679
X3835437Y3858828
X3835105Y3868613
X3840676Y3839693
X3848274Y3833030
X3854188Y3832577
X3853687Y3825795
X3861409Y3805243
X3846300Y3788627
X3834113Y3804430
X3816162Y3835867
X3858636Y3894030
X3861093Y3898134
X3863432Y3892370
X3870075Y3894048
X3846326Y3902647
X3840931Y3902562
X3833892Y3908707
X3836107Y3928746
X3847483Y3929103
X3922776Y3831485
X195395Y3852941
X195395Y3860815
X195395Y3868689
X195395Y3876563
X195395Y3884437
X195395Y3892311
X195395Y3900185
X195395Y3908059
X195395Y3915933
X195395Y3923807
X171773Y3923807
X171773Y3915933
X171773Y3908059
X171773Y3900185
X171773Y3892311
X171773Y3884437
X171773Y3876563
X171773Y3868689
X171773Y3860815
X149974Y3858409
X149778Y3867421
X149778Y3877706
X149752Y3887583
X149463Y3898834
X149381Y3910243
X149170Y3922751
X132737Y3894726
X131180Y3886874
X134809Y3884188
X134784Y3879887
X128549Y3881668
X123943Y3881629
X121602Y3894807
X124350Y3897573
X113103Y3904836
X109030Y3904845
X95921Y3904047
X86748Y3906692
X76932Y3900444
X69709Y3924750
X73871Y3930067
X61544Y3930236
X51338Y3930180
X51595Y3917868
X40122Y3906444
X30257Y3906264
X19919Y3906217
X10563Y3906264
X10630Y3895902
X10748Y3884969
X44677Y3886691
X49632Y3891452
X52556Y3876163
X61415Y3874956
X61432Y3870714
X63234Y3862455
X63862Y3847684
X67720Y3847667
X76346Y3855585
X81239Y3855538
X84258Y3852259
X91693Y3837786
X86154Y3833646
X80005Y3833319
X70220Y3832987
X99140Y3838558
X105803Y3846156
X106256Y3852070
X113037Y3851569
X133590Y3859291
X150206Y3844182
X134403Y3831995
X102966Y3814044
X44803Y3856518
X40698Y3858975
X46463Y3861314
X44785Y3867957
X36186Y3844208
X36271Y3838813
X30126Y3831774
X10087Y3833989
X9730Y3845365
X107348Y3920658
M30
