G75*
%MOIN*%
%OFA0B0*%
%FSLAX25Y25*%
%IPPOS*%
%LPD*%
%AMOC8*
5,1,8,0,0,1.08239X$1,22.5*
%
%ADD10C,0.02178*%
%ADD11C,0.00600*%
%ADD12C,0.04000*%
%ADD13C,0.01000*%
D10*
X0031663Y0012137D03*
X0031710Y0021492D03*
X0031663Y0031830D03*
X0031483Y0041695D03*
X0020058Y0053169D03*
X0007747Y0052911D03*
X0007691Y0063117D03*
X0013177Y0071282D03*
X0007860Y0075445D03*
X0031235Y0088321D03*
X0033879Y0097495D03*
X0033081Y0110603D03*
X0033091Y0114676D03*
X0043120Y0123175D03*
X0040354Y0125923D03*
X0043201Y0134311D03*
X0051053Y0132754D03*
X0053739Y0136382D03*
X0058040Y0136357D03*
X0056259Y0130123D03*
X0056298Y0125516D03*
X0078635Y0135163D03*
X0079518Y0151547D03*
X0070506Y0151351D03*
X0060221Y0151351D03*
X0050344Y0151325D03*
X0039093Y0151036D03*
X0027683Y0150954D03*
X0015176Y0150743D03*
X0014120Y0173346D03*
X0021994Y0173346D03*
X0029868Y0173346D03*
X0037742Y0173346D03*
X0045616Y0173346D03*
X0053490Y0173346D03*
X0061364Y0173346D03*
X0069238Y0173346D03*
X0077112Y0173346D03*
X0077112Y0196968D03*
X0084986Y0196968D03*
X0069238Y0196968D03*
X0061364Y0196968D03*
X0053490Y0196968D03*
X0045616Y0196968D03*
X0037742Y0196968D03*
X0029868Y0196968D03*
X0021994Y0196968D03*
X0014120Y0196968D03*
X0093745Y0151779D03*
X0105932Y0135976D03*
X0086357Y0114611D03*
X0085857Y0107829D03*
X0091770Y0107376D03*
X0099369Y0100713D03*
X0100140Y0093267D03*
X0104281Y0087727D03*
X0104607Y0081579D03*
X0104940Y0071793D03*
X0090260Y0069293D03*
X0090243Y0065436D03*
X0082341Y0077919D03*
X0082388Y0082812D03*
X0085668Y0085831D03*
X0075471Y0064808D03*
X0067213Y0063005D03*
X0062971Y0062989D03*
X0061763Y0054129D03*
X0069970Y0046359D03*
X0076613Y0048036D03*
X0081409Y0046377D03*
X0078952Y0042272D03*
X0093719Y0037759D03*
X0099113Y0037844D03*
X0106153Y0031699D03*
X0103938Y0011660D03*
X0092562Y0011303D03*
X0052957Y0012321D03*
X0042025Y0012203D03*
X0051235Y0046250D03*
X0046475Y0051206D03*
X0037483Y0078505D03*
X0017269Y0108921D03*
X0123882Y0104539D03*
X2170618Y0084261D03*
X2170618Y0076387D03*
X2170618Y0068513D03*
X2170618Y0060639D03*
X2170618Y0052765D03*
X2170618Y0044891D03*
X2170618Y0037017D03*
X2170618Y0029143D03*
X2170618Y0021269D03*
X2170618Y0013395D03*
X2194240Y0013395D03*
X2194240Y0021269D03*
X2194240Y0029143D03*
X2194240Y0037017D03*
X2194240Y0044891D03*
X2194240Y0052765D03*
X2194240Y0060639D03*
X2194240Y0068513D03*
X2194240Y0076387D03*
X2216039Y0078793D03*
X2216235Y0069781D03*
X2216235Y0059496D03*
X2216261Y0049619D03*
X2216550Y0038368D03*
X2216632Y0026959D03*
X2216844Y0014451D03*
X2233276Y0042476D03*
X2234833Y0050328D03*
X2231204Y0053014D03*
X2231229Y0057315D03*
X2237464Y0055534D03*
X2242070Y0055573D03*
X2244412Y0042395D03*
X2241663Y0039629D03*
X2252910Y0032366D03*
X2256983Y0032357D03*
X2270092Y0033155D03*
X2279266Y0030510D03*
X2289081Y0036758D03*
X2296304Y0012452D03*
X2292142Y0007135D03*
X2304469Y0006966D03*
X2314675Y0007022D03*
X2314418Y0019333D03*
X2325892Y0030758D03*
X2335757Y0030938D03*
X2346094Y0030985D03*
X2355450Y0030938D03*
X2355383Y0041300D03*
X2355265Y0052233D03*
X2321336Y0050510D03*
X2316381Y0045750D03*
X2313457Y0061038D03*
X2304598Y0062246D03*
X2304581Y0066488D03*
X2302779Y0074746D03*
X2302151Y0089518D03*
X2298293Y0089535D03*
X2289667Y0081616D03*
X2284774Y0081664D03*
X2281755Y0084943D03*
X2274320Y0099416D03*
X2279859Y0103556D03*
X2286008Y0103882D03*
X2295793Y0104215D03*
X2329742Y0098388D03*
X2329827Y0092994D03*
X2335887Y0105428D03*
X2355926Y0103213D03*
X2356283Y0091837D03*
X2325315Y0078227D03*
X2321210Y0080684D03*
X2319550Y0075888D03*
X2321228Y0069245D03*
X2266873Y0098644D03*
X2260211Y0091046D03*
X2259757Y0085132D03*
X2252976Y0085632D03*
X2232423Y0077911D03*
X2215807Y0093020D03*
X2231610Y0105207D03*
X2263048Y0123158D03*
X2258665Y0016544D03*
X2280256Y2168635D03*
X2288130Y2168635D03*
X2296004Y2168635D03*
X2303878Y2168635D03*
X2311752Y2168635D03*
X2319626Y2168635D03*
X2327500Y2168635D03*
X2335374Y2168635D03*
X2343248Y2168635D03*
X2351122Y2168635D03*
X2351122Y2192257D03*
X2343248Y2192257D03*
X2335374Y2192257D03*
X2327500Y2192257D03*
X2319626Y2192257D03*
X2311752Y2192257D03*
X2303878Y2192257D03*
X2296004Y2192257D03*
X2288130Y2192257D03*
X2285724Y2214056D03*
X2294736Y2214252D03*
X2305021Y2214252D03*
X2314898Y2214278D03*
X2326149Y2214567D03*
X2337558Y2214649D03*
X2350066Y2214860D03*
X2322041Y2231293D03*
X2314189Y2232850D03*
X2311503Y2229221D03*
X2307202Y2229246D03*
X2308983Y2235481D03*
X2308944Y2240087D03*
X2322122Y2242428D03*
X2324888Y2239680D03*
X2332151Y2250927D03*
X2332160Y2255000D03*
X2331362Y2268109D03*
X2334007Y2277282D03*
X2327759Y2287098D03*
X2352065Y2294321D03*
X2357382Y2290158D03*
X2357551Y2302486D03*
X2357495Y2312692D03*
X2345183Y2312434D03*
X2333759Y2323908D03*
X2333579Y2333773D03*
X2333532Y2344111D03*
X2333579Y2353466D03*
X2323217Y2353400D03*
X2312284Y2353282D03*
X2314006Y2319353D03*
X2318767Y2314398D03*
X2303478Y2311474D03*
X2302271Y2302614D03*
X2298029Y2302598D03*
X2289770Y2300795D03*
X2274999Y2300167D03*
X2274982Y2296310D03*
X2282900Y2287684D03*
X2282853Y2282791D03*
X2279574Y2279772D03*
X2265101Y2272336D03*
X2260961Y2277876D03*
X2260634Y2284024D03*
X2260302Y2293810D03*
X2266128Y2327759D03*
X2271523Y2327844D03*
X2259089Y2333904D03*
X2261304Y2353943D03*
X2272680Y2354300D03*
X2286290Y2323331D03*
X2283833Y2319227D03*
X2288629Y2317567D03*
X2295272Y2319244D03*
X2265873Y2264890D03*
X2273471Y2258227D03*
X2279385Y2257774D03*
X2278884Y2250992D03*
X2286606Y2230440D03*
X2271497Y2213824D03*
X2259310Y2229627D03*
X2241359Y2261064D03*
X2347973Y2256682D03*
X0195395Y2278138D03*
X0195395Y2286012D03*
X0195395Y2293886D03*
X0195395Y2301760D03*
X0195395Y2309634D03*
X0195395Y2317508D03*
X0195395Y2325382D03*
X0195395Y2333256D03*
X0195395Y2341130D03*
X0195395Y2349004D03*
X0171773Y2349004D03*
X0171773Y2341130D03*
X0171773Y2333256D03*
X0171773Y2325382D03*
X0171773Y2317508D03*
X0171773Y2309634D03*
X0171773Y2301760D03*
X0171773Y2293886D03*
X0171773Y2286012D03*
X0149974Y2283606D03*
X0149778Y2292617D03*
X0149778Y2302902D03*
X0149752Y2312780D03*
X0149463Y2324031D03*
X0149381Y2335440D03*
X0149170Y2347948D03*
X0132737Y2319923D03*
X0131180Y2312071D03*
X0134809Y2309385D03*
X0134784Y2305083D03*
X0128549Y2306865D03*
X0123943Y2306825D03*
X0121602Y2320004D03*
X0124350Y2322770D03*
X0113103Y2330033D03*
X0109030Y2330042D03*
X0095921Y2329244D03*
X0086748Y2331889D03*
X0076932Y2325641D03*
X0069709Y2349947D03*
X0073871Y2355263D03*
X0061544Y2355433D03*
X0051338Y2355377D03*
X0051595Y2343065D03*
X0040122Y2331640D03*
X0030257Y2331461D03*
X0019919Y2331414D03*
X0010563Y2331461D03*
X0010630Y2321099D03*
X0010748Y2310166D03*
X0044677Y2311888D03*
X0049632Y2316648D03*
X0052556Y2301360D03*
X0061415Y2300153D03*
X0061432Y2295911D03*
X0063234Y2287652D03*
X0063862Y2272881D03*
X0067720Y2272864D03*
X0076346Y2280782D03*
X0081239Y2280735D03*
X0084258Y2277455D03*
X0091693Y2262983D03*
X0086154Y2258843D03*
X0080005Y2258516D03*
X0070220Y2258184D03*
X0036271Y2264010D03*
X0036186Y2269405D03*
X0030126Y2256971D03*
X0010087Y2259186D03*
X0009730Y2270562D03*
X0040698Y2284172D03*
X0044803Y2281715D03*
X0046463Y2286511D03*
X0044785Y2293154D03*
X0099140Y2263755D03*
X0105803Y2271353D03*
X0106256Y2277267D03*
X0113037Y2276766D03*
X0133590Y2284488D03*
X0150206Y2269379D03*
X0134403Y2257191D03*
X0102966Y2239241D03*
X0107348Y2345855D03*
D11*
X0105297Y2343804D01*
X0057639Y2343804D01*
X0018934Y2305098D01*
X0018934Y2187759D01*
X0032854Y2173297D01*
X0170662Y2173297D01*
X0184268Y2186903D01*
X0184268Y2236430D01*
X0158645Y2262053D01*
X0148485Y2262053D01*
X0144106Y2266432D01*
X0144059Y2323423D01*
X0111875Y2341267D01*
X0057875Y2341404D01*
X0021749Y2305277D01*
X0021749Y2188311D01*
X0033987Y2176072D01*
X0169827Y2176072D01*
X0181557Y2187802D01*
X0181557Y2235842D01*
X0157532Y2259867D01*
X0147550Y2259867D01*
X0141864Y2265553D01*
X0141864Y2322660D01*
X0112007Y2339201D01*
X0058253Y2339147D01*
X0024626Y2305520D01*
X0024626Y2188511D01*
X0034894Y2178243D01*
X0168970Y2178243D01*
X0179081Y2188354D01*
X0179081Y2235549D01*
X0156763Y2257867D01*
X0146793Y2257867D01*
X0139800Y2264860D01*
X0139895Y2321821D01*
X0112619Y2336870D01*
X0058535Y2336870D01*
X0026989Y2305324D01*
X0026989Y2188656D01*
X0035315Y2180330D01*
X0168295Y2180330D01*
X0167999Y2180034D01*
X0168295Y2180330D02*
X0176833Y2188869D01*
X0176833Y2235241D01*
X0156363Y2255711D01*
X0146117Y2255711D01*
X0137730Y2264098D01*
X0137730Y2318234D01*
X0137765Y2320849D01*
X0113006Y2334809D01*
X0112823Y2334809D01*
X0059007Y2334835D01*
X0030088Y2305916D01*
X0030088Y2263658D01*
X0030126Y2256971D01*
X0031836Y2259183D02*
X0068548Y2259183D01*
X0068331Y2258966D02*
X0068331Y2257402D01*
X0069437Y2256295D01*
X0071002Y2256295D01*
X0072109Y2257402D01*
X0072109Y2258966D01*
X0071002Y2260073D01*
X0069437Y2260073D01*
X0068331Y2258966D01*
X0068331Y2258585D02*
X0032452Y2258585D01*
X0033069Y2257986D02*
X0068331Y2257986D01*
X0068345Y2257388D02*
X0033685Y2257388D01*
X0034301Y2256789D02*
X0068943Y2256789D01*
X0071496Y2256789D02*
X0136819Y2256789D01*
X0136809Y2256191D02*
X0034917Y2256191D01*
X0035450Y2255673D02*
X0031307Y2259697D01*
X0031188Y2263969D01*
X0031188Y2269019D01*
X0041422Y2279058D01*
X0041417Y2282283D01*
X0041481Y2282283D01*
X0042587Y2283389D01*
X0042587Y2284505D01*
X0044574Y2286491D01*
X0044574Y2285728D01*
X0045680Y2284622D01*
X0047245Y2284622D01*
X0048352Y2285728D01*
X0048352Y2286844D01*
X0059482Y2297974D01*
X0060126Y2298619D01*
X0060126Y2300687D01*
X0065165Y2305725D01*
X0122372Y2305725D01*
X0123161Y2304936D01*
X0124725Y2304936D01*
X0125832Y2306043D01*
X0125832Y2306759D01*
X0126827Y2305765D01*
X0126978Y2305765D01*
X0127767Y2304976D01*
X0129332Y2304976D01*
X0130438Y2306082D01*
X0130438Y2307647D01*
X0129332Y2308754D01*
X0127767Y2308754D01*
X0127358Y2308345D01*
X0126033Y2309670D01*
X0125388Y2310314D01*
X0064946Y2310314D01*
X0056726Y2302095D01*
X0056726Y2301755D01*
X0041409Y2286438D01*
X0041355Y2315627D01*
X0059463Y2333735D01*
X0112366Y2333709D01*
X0112366Y2333709D01*
X0112717Y2333709D01*
X0124036Y2327327D01*
X0132190Y2321812D01*
X0131955Y2321812D01*
X0130848Y2320705D01*
X0130848Y2319140D01*
X0131955Y2318034D01*
X0133520Y2318034D01*
X0134626Y2319140D01*
X0134626Y2320163D01*
X0136637Y2318803D01*
X0136636Y2318696D01*
X0136630Y2318689D01*
X0136630Y2318241D01*
X0136623Y2317793D01*
X0136630Y2317787D01*
X0136630Y2310235D01*
X0135592Y2311273D01*
X0134027Y2311273D01*
X0132920Y2310167D01*
X0132920Y2308602D01*
X0134027Y2307496D01*
X0135592Y2307496D01*
X0136630Y2308534D01*
X0136630Y2263643D01*
X0136927Y2263346D01*
X0136808Y2256142D01*
X0136909Y2255639D01*
X0136715Y2255445D01*
X0035450Y2255673D01*
X0031305Y2259782D02*
X0069146Y2259782D01*
X0071294Y2259782D02*
X0084422Y2259782D01*
X0084265Y2259625D02*
X0084265Y2258060D01*
X0085372Y2256954D01*
X0086936Y2256954D01*
X0088043Y2258060D01*
X0088043Y2259625D01*
X0086936Y2260732D01*
X0085372Y2260732D01*
X0084265Y2259625D01*
X0084265Y2259183D02*
X0071892Y2259183D01*
X0072109Y2258585D02*
X0084265Y2258585D01*
X0084339Y2257986D02*
X0072109Y2257986D01*
X0072095Y2257388D02*
X0084937Y2257388D01*
X0087370Y2257388D02*
X0136829Y2257388D01*
X0136839Y2257986D02*
X0087969Y2257986D01*
X0088043Y2258585D02*
X0136848Y2258585D01*
X0136858Y2259183D02*
X0088043Y2259183D01*
X0087886Y2259782D02*
X0136868Y2259782D01*
X0136878Y2260380D02*
X0087288Y2260380D01*
X0085020Y2260380D02*
X0031288Y2260380D01*
X0031272Y2260979D02*
X0136888Y2260979D01*
X0136898Y2261577D02*
X0092959Y2261577D01*
X0092476Y2261094D02*
X0093582Y2262201D01*
X0093582Y2263295D01*
X0105901Y2275378D01*
X0107039Y2275378D01*
X0108145Y2276484D01*
X0108145Y2278049D01*
X0107039Y2279156D01*
X0105474Y2279156D01*
X0104367Y2278049D01*
X0104367Y2276955D01*
X0092048Y2264872D01*
X0090911Y2264872D01*
X0089804Y2263766D01*
X0089804Y2262201D01*
X0090911Y2261094D01*
X0092476Y2261094D01*
X0093557Y2262176D02*
X0136908Y2262176D01*
X0136917Y2262774D02*
X0093582Y2262774D01*
X0093662Y2263373D02*
X0136900Y2263373D01*
X0136630Y2263971D02*
X0094272Y2263971D01*
X0094882Y2264570D02*
X0136630Y2264570D01*
X0136630Y2265168D02*
X0095492Y2265168D01*
X0096102Y2265767D02*
X0136630Y2265767D01*
X0136630Y2266365D02*
X0096713Y2266365D01*
X0097323Y2266964D02*
X0136630Y2266964D01*
X0136630Y2267562D02*
X0097933Y2267562D01*
X0098543Y2268161D02*
X0136630Y2268161D01*
X0136630Y2268759D02*
X0099153Y2268759D01*
X0099764Y2269358D02*
X0136630Y2269358D01*
X0136630Y2269956D02*
X0107077Y2269956D01*
X0106585Y2269464D02*
X0107692Y2270571D01*
X0107692Y2272135D01*
X0106585Y2273242D01*
X0105020Y2273242D01*
X0103914Y2272135D01*
X0103914Y2270571D01*
X0105020Y2269464D01*
X0106585Y2269464D01*
X0107676Y2270555D02*
X0136630Y2270555D01*
X0136630Y2271153D02*
X0107692Y2271153D01*
X0107692Y2271752D02*
X0136630Y2271752D01*
X0136630Y2272350D02*
X0107477Y2272350D01*
X0106878Y2272949D02*
X0136630Y2272949D01*
X0136630Y2273547D02*
X0104035Y2273547D01*
X0103425Y2272949D02*
X0104727Y2272949D01*
X0104129Y2272350D02*
X0102815Y2272350D01*
X0102204Y2271752D02*
X0103914Y2271752D01*
X0103914Y2271153D02*
X0101594Y2271153D01*
X0100984Y2270555D02*
X0103929Y2270555D01*
X0104528Y2269956D02*
X0100374Y2269956D01*
X0099063Y2271752D02*
X0069279Y2271752D01*
X0069609Y2272082D02*
X0069609Y2273646D01*
X0068502Y2274753D01*
X0067386Y2274753D01*
X0061945Y2280194D01*
X0061945Y2286270D01*
X0062452Y2285763D01*
X0064017Y2285763D01*
X0065123Y2286870D01*
X0065123Y2288435D01*
X0064017Y2289541D01*
X0062532Y2289541D01*
X0062532Y2294340D01*
X0063321Y2295129D01*
X0063321Y2296693D01*
X0062214Y2297800D01*
X0060649Y2297800D01*
X0059543Y2296693D01*
X0059543Y2295129D01*
X0060332Y2294340D01*
X0060332Y2289684D01*
X0059745Y2289097D01*
X0059745Y2279283D01*
X0060390Y2278638D01*
X0064258Y2274770D01*
X0063080Y2274770D01*
X0061973Y2273663D01*
X0061973Y2272098D01*
X0063080Y2270992D01*
X0064645Y2270992D01*
X0065751Y2272098D01*
X0065751Y2273277D01*
X0065831Y2273197D01*
X0065831Y2272082D01*
X0066937Y2270975D01*
X0068502Y2270975D01*
X0069609Y2272082D01*
X0069609Y2272350D02*
X0099673Y2272350D01*
X0100283Y2272949D02*
X0069609Y2272949D01*
X0069609Y2273547D02*
X0100893Y2273547D01*
X0101504Y2274146D02*
X0069109Y2274146D01*
X0068511Y2274745D02*
X0102114Y2274745D01*
X0102724Y2275343D02*
X0066796Y2275343D01*
X0066198Y2275942D02*
X0083100Y2275942D01*
X0083476Y2275566D02*
X0085040Y2275566D01*
X0086147Y2276673D01*
X0086147Y2278238D01*
X0085040Y2279344D01*
X0083476Y2279344D01*
X0082369Y2278238D01*
X0082369Y2276673D01*
X0083476Y2275566D01*
X0082502Y2276540D02*
X0065599Y2276540D01*
X0065001Y2277139D02*
X0082369Y2277139D01*
X0082369Y2277737D02*
X0064402Y2277737D01*
X0063804Y2278336D02*
X0082467Y2278336D01*
X0082021Y2278846D02*
X0083128Y2279953D01*
X0083128Y2281517D01*
X0082021Y2282624D01*
X0080456Y2282624D01*
X0079350Y2281517D01*
X0079350Y2279953D01*
X0080456Y2278846D01*
X0082021Y2278846D01*
X0082109Y2278934D02*
X0083065Y2278934D01*
X0082708Y2279533D02*
X0136630Y2279533D01*
X0136630Y2280131D02*
X0083128Y2280131D01*
X0083128Y2280730D02*
X0136630Y2280730D01*
X0136630Y2281328D02*
X0083128Y2281328D01*
X0082718Y2281927D02*
X0136630Y2281927D01*
X0136630Y2282525D02*
X0082120Y2282525D01*
X0080357Y2282525D02*
X0077274Y2282525D01*
X0077128Y2282671D02*
X0075563Y2282671D01*
X0074457Y2281565D01*
X0074457Y2280000D01*
X0075563Y2278893D01*
X0077128Y2278893D01*
X0078235Y2280000D01*
X0078235Y2281565D01*
X0077128Y2282671D01*
X0077873Y2281927D02*
X0079759Y2281927D01*
X0079350Y2281328D02*
X0078235Y2281328D01*
X0078235Y2280730D02*
X0079350Y2280730D01*
X0079350Y2280131D02*
X0078235Y2280131D01*
X0077768Y2279533D02*
X0079770Y2279533D01*
X0080368Y2278934D02*
X0077169Y2278934D01*
X0075522Y2278934D02*
X0063205Y2278934D01*
X0062607Y2279533D02*
X0074924Y2279533D01*
X0074457Y2280131D02*
X0062008Y2280131D01*
X0061945Y2280730D02*
X0074457Y2280730D01*
X0074457Y2281328D02*
X0061945Y2281328D01*
X0061945Y2281927D02*
X0074819Y2281927D01*
X0075417Y2282525D02*
X0061945Y2282525D01*
X0061945Y2283124D02*
X0136630Y2283124D01*
X0136630Y2283722D02*
X0061945Y2283722D01*
X0061945Y2284321D02*
X0136630Y2284321D01*
X0136630Y2284919D02*
X0061945Y2284919D01*
X0061945Y2285518D02*
X0136630Y2285518D01*
X0136630Y2286116D02*
X0064370Y2286116D01*
X0064968Y2286715D02*
X0136630Y2286715D01*
X0136630Y2287313D02*
X0065123Y2287313D01*
X0065123Y2287912D02*
X0136630Y2287912D01*
X0136630Y2288510D02*
X0065048Y2288510D01*
X0064449Y2289109D02*
X0136630Y2289109D01*
X0136630Y2289707D02*
X0062532Y2289707D01*
X0062532Y2290306D02*
X0136630Y2290306D01*
X0136630Y2290904D02*
X0062532Y2290904D01*
X0062532Y2291503D02*
X0136630Y2291503D01*
X0136630Y2292101D02*
X0062532Y2292101D01*
X0062532Y2292700D02*
X0136630Y2292700D01*
X0136630Y2293298D02*
X0062532Y2293298D01*
X0062532Y2293897D02*
X0136630Y2293897D01*
X0136630Y2294495D02*
X0062687Y2294495D01*
X0063286Y2295094D02*
X0136630Y2295094D01*
X0136630Y2295692D02*
X0063321Y2295692D01*
X0063321Y2296291D02*
X0136630Y2296291D01*
X0136630Y2296889D02*
X0063125Y2296889D01*
X0062526Y2297488D02*
X0136630Y2297488D01*
X0136630Y2298086D02*
X0059594Y2298086D01*
X0060126Y2298685D02*
X0136630Y2298685D01*
X0136630Y2299283D02*
X0060126Y2299283D01*
X0060126Y2299882D02*
X0136630Y2299882D01*
X0136630Y2300480D02*
X0060126Y2300480D01*
X0060519Y2301079D02*
X0136630Y2301079D01*
X0136630Y2301678D02*
X0061117Y2301678D01*
X0061716Y2302276D02*
X0136630Y2302276D01*
X0136630Y2302875D02*
X0062314Y2302875D01*
X0062913Y2303473D02*
X0136630Y2303473D01*
X0136630Y2304072D02*
X0063511Y2304072D01*
X0064110Y2304670D02*
X0136630Y2304670D01*
X0136630Y2305269D02*
X0129624Y2305269D01*
X0130223Y2305867D02*
X0136630Y2305867D01*
X0136630Y2306466D02*
X0130438Y2306466D01*
X0130438Y2307064D02*
X0136630Y2307064D01*
X0136630Y2307663D02*
X0135759Y2307663D01*
X0136357Y2308261D02*
X0136630Y2308261D01*
X0136630Y2310655D02*
X0136210Y2310655D01*
X0136630Y2311254D02*
X0135611Y2311254D01*
X0136630Y2311852D02*
X0133069Y2311852D01*
X0133069Y2311288D02*
X0131963Y2310182D01*
X0130398Y2310182D01*
X0129291Y2311288D01*
X0129291Y2312853D01*
X0130398Y2313960D01*
X0131963Y2313960D01*
X0133069Y2312853D01*
X0133069Y2311288D01*
X0133034Y2311254D02*
X0134007Y2311254D01*
X0133408Y2310655D02*
X0132436Y2310655D01*
X0132920Y2310057D02*
X0125646Y2310057D01*
X0126244Y2309458D02*
X0132920Y2309458D01*
X0132920Y2308860D02*
X0126843Y2308860D01*
X0124933Y2309214D02*
X0065402Y2309214D01*
X0057826Y2301639D01*
X0057826Y2301299D01*
X0040698Y2284172D01*
X0042587Y2284321D02*
X0059745Y2284321D01*
X0059745Y2284919D02*
X0047543Y2284919D01*
X0048141Y2285518D02*
X0059745Y2285518D01*
X0059745Y2286116D02*
X0048352Y2286116D01*
X0048352Y2286715D02*
X0059745Y2286715D01*
X0059745Y2287313D02*
X0048821Y2287313D01*
X0049420Y2287912D02*
X0059745Y2287912D01*
X0059745Y2288510D02*
X0050018Y2288510D01*
X0050617Y2289109D02*
X0059757Y2289109D01*
X0060332Y2289707D02*
X0051215Y2289707D01*
X0051814Y2290306D02*
X0060332Y2290306D01*
X0060332Y2290904D02*
X0052412Y2290904D01*
X0053011Y2291503D02*
X0060332Y2291503D01*
X0060332Y2292101D02*
X0053609Y2292101D01*
X0054208Y2292700D02*
X0060332Y2292700D01*
X0060332Y2293298D02*
X0054806Y2293298D01*
X0055405Y2293897D02*
X0060332Y2293897D01*
X0060176Y2294495D02*
X0056003Y2294495D01*
X0056602Y2295094D02*
X0059577Y2295094D01*
X0059543Y2295692D02*
X0057200Y2295692D01*
X0057799Y2296291D02*
X0059543Y2296291D01*
X0059739Y2296889D02*
X0058397Y2296889D01*
X0058996Y2297488D02*
X0060337Y2297488D01*
X0061432Y2295911D02*
X0061432Y2289228D01*
X0060845Y2288642D01*
X0060845Y2279738D01*
X0067720Y2272864D01*
X0065831Y2272949D02*
X0065751Y2272949D01*
X0065751Y2272350D02*
X0065831Y2272350D01*
X0066160Y2271752D02*
X0065405Y2271752D01*
X0064806Y2271153D02*
X0066759Y2271153D01*
X0068681Y2271153D02*
X0098452Y2271153D01*
X0097842Y2270555D02*
X0032754Y2270555D01*
X0032144Y2269956D02*
X0097232Y2269956D01*
X0096622Y2269358D02*
X0031534Y2269358D01*
X0031188Y2268759D02*
X0096012Y2268759D01*
X0095401Y2268161D02*
X0031188Y2268161D01*
X0031188Y2267562D02*
X0094791Y2267562D01*
X0094181Y2266964D02*
X0031188Y2266964D01*
X0031188Y2266365D02*
X0093571Y2266365D01*
X0092961Y2265767D02*
X0037186Y2265767D01*
X0037053Y2265899D02*
X0035489Y2265899D01*
X0034382Y2264793D01*
X0034382Y2263228D01*
X0035489Y2262121D01*
X0037053Y2262121D01*
X0038160Y2263228D01*
X0038160Y2264793D01*
X0037053Y2265899D01*
X0037784Y2265168D02*
X0092350Y2265168D01*
X0090609Y2264570D02*
X0038160Y2264570D01*
X0038160Y2263971D02*
X0090010Y2263971D01*
X0089804Y2263373D02*
X0038160Y2263373D01*
X0037707Y2262774D02*
X0089804Y2262774D01*
X0089829Y2262176D02*
X0037108Y2262176D01*
X0035434Y2262176D02*
X0031238Y2262176D01*
X0031221Y2262774D02*
X0034835Y2262774D01*
X0034382Y2263373D02*
X0031205Y2263373D01*
X0031188Y2263971D02*
X0034382Y2263971D01*
X0034382Y2264570D02*
X0031188Y2264570D01*
X0031188Y2265168D02*
X0034758Y2265168D01*
X0035356Y2265767D02*
X0031188Y2265767D01*
X0031255Y2261577D02*
X0090428Y2261577D01*
X0091693Y2262983D02*
X0106256Y2277267D01*
X0107602Y2275942D02*
X0111191Y2275942D01*
X0111148Y2275984D02*
X0112255Y2274877D01*
X0113820Y2274877D01*
X0114926Y2275984D01*
X0114926Y2277549D01*
X0113820Y2278655D01*
X0112255Y2278655D01*
X0111148Y2277549D01*
X0111148Y2275984D01*
X0111148Y2276540D02*
X0108145Y2276540D01*
X0108145Y2277139D02*
X0111148Y2277139D01*
X0111337Y2277737D02*
X0108145Y2277737D01*
X0107859Y2278336D02*
X0111935Y2278336D01*
X0114139Y2278336D02*
X0136630Y2278336D01*
X0136630Y2278934D02*
X0107260Y2278934D01*
X0105252Y2278934D02*
X0085451Y2278934D01*
X0086049Y2278336D02*
X0104654Y2278336D01*
X0104367Y2277737D02*
X0086147Y2277737D01*
X0086147Y2277139D02*
X0104367Y2277139D01*
X0103944Y2276540D02*
X0086014Y2276540D01*
X0085415Y2275942D02*
X0103334Y2275942D01*
X0104645Y2274146D02*
X0136630Y2274146D01*
X0136630Y2274745D02*
X0105256Y2274745D01*
X0105866Y2275343D02*
X0111789Y2275343D01*
X0114286Y2275343D02*
X0136630Y2275343D01*
X0136630Y2275942D02*
X0114884Y2275942D01*
X0114926Y2276540D02*
X0136630Y2276540D01*
X0136630Y2277139D02*
X0114926Y2277139D01*
X0114738Y2277737D02*
X0136630Y2277737D01*
X0134473Y2284369D02*
X0133590Y2284488D01*
X0134784Y2305083D02*
X0135738Y2305940D01*
X0133860Y2307663D02*
X0130423Y2307663D01*
X0129824Y2308261D02*
X0133261Y2308261D01*
X0129925Y2310655D02*
X0046116Y2310655D01*
X0046566Y2311106D02*
X0045460Y2309999D01*
X0043895Y2309999D01*
X0042788Y2311106D01*
X0042788Y2312671D01*
X0043895Y2313777D01*
X0045460Y2313777D01*
X0046566Y2312671D01*
X0046566Y2311106D01*
X0046566Y2311254D02*
X0129326Y2311254D01*
X0129291Y2311852D02*
X0046566Y2311852D01*
X0046566Y2312451D02*
X0129291Y2312451D01*
X0129487Y2313049D02*
X0046187Y2313049D01*
X0045589Y2313648D02*
X0130086Y2313648D01*
X0132275Y2313648D02*
X0136630Y2313648D01*
X0136630Y2314246D02*
X0041358Y2314246D01*
X0041359Y2313648D02*
X0043765Y2313648D01*
X0043167Y2313049D02*
X0041360Y2313049D01*
X0041361Y2312451D02*
X0042788Y2312451D01*
X0042788Y2311852D02*
X0041362Y2311852D01*
X0041363Y2311254D02*
X0042788Y2311254D01*
X0043239Y2310655D02*
X0041364Y2310655D01*
X0041366Y2310057D02*
X0043837Y2310057D01*
X0045517Y2310057D02*
X0064688Y2310057D01*
X0064090Y2309458D02*
X0041367Y2309458D01*
X0041368Y2308860D02*
X0063491Y2308860D01*
X0062893Y2308261D02*
X0041369Y2308261D01*
X0041370Y2307663D02*
X0062294Y2307663D01*
X0061696Y2307064D02*
X0041371Y2307064D01*
X0041372Y2306466D02*
X0061097Y2306466D01*
X0060499Y2305867D02*
X0041373Y2305867D01*
X0041374Y2305269D02*
X0059900Y2305269D01*
X0059302Y2304670D02*
X0041375Y2304670D01*
X0041377Y2304072D02*
X0058703Y2304072D01*
X0058105Y2303473D02*
X0041378Y2303473D01*
X0041379Y2302875D02*
X0051399Y2302875D01*
X0051774Y2303249D02*
X0050667Y2302143D01*
X0050667Y2300578D01*
X0051774Y2299471D01*
X0053339Y2299471D01*
X0054445Y2300578D01*
X0054445Y2302143D01*
X0053339Y2303249D01*
X0051774Y2303249D01*
X0050800Y2302276D02*
X0041380Y2302276D01*
X0041381Y2301678D02*
X0050667Y2301678D01*
X0050667Y2301079D02*
X0041382Y2301079D01*
X0041383Y2300480D02*
X0050765Y2300480D01*
X0051363Y2299882D02*
X0041384Y2299882D01*
X0041385Y2299283D02*
X0054255Y2299283D01*
X0053749Y2299882D02*
X0054853Y2299882D01*
X0054348Y2300480D02*
X0055452Y2300480D01*
X0056050Y2301079D02*
X0054445Y2301079D01*
X0054445Y2301678D02*
X0056649Y2301678D01*
X0056908Y2302276D02*
X0054312Y2302276D01*
X0053713Y2302875D02*
X0057506Y2302875D01*
X0059026Y2301142D02*
X0064710Y2306825D01*
X0123943Y2306825D01*
X0125058Y2305269D02*
X0127474Y2305269D01*
X0126724Y2305867D02*
X0125656Y2305867D01*
X0125832Y2306466D02*
X0126126Y2306466D01*
X0127282Y2306865D02*
X0124933Y2309214D01*
X0127282Y2306865D02*
X0128549Y2306865D01*
X0122828Y2305269D02*
X0064708Y2305269D01*
X0059026Y2301142D02*
X0059026Y2299074D01*
X0046463Y2286511D01*
X0045383Y2284919D02*
X0043002Y2284919D01*
X0043600Y2285518D02*
X0044784Y2285518D01*
X0044574Y2286116D02*
X0044199Y2286116D01*
X0042883Y2287912D02*
X0041406Y2287912D01*
X0041405Y2288510D02*
X0043482Y2288510D01*
X0044080Y2289109D02*
X0041404Y2289109D01*
X0041403Y2289707D02*
X0044679Y2289707D01*
X0045277Y2290306D02*
X0041402Y2290306D01*
X0041401Y2290904D02*
X0045876Y2290904D01*
X0046474Y2291503D02*
X0041400Y2291503D01*
X0041399Y2292101D02*
X0047073Y2292101D01*
X0047671Y2292700D02*
X0041397Y2292700D01*
X0041396Y2293298D02*
X0048270Y2293298D01*
X0048868Y2293897D02*
X0041395Y2293897D01*
X0041394Y2294495D02*
X0049467Y2294495D01*
X0050065Y2295094D02*
X0041393Y2295094D01*
X0041392Y2295692D02*
X0050664Y2295692D01*
X0051262Y2296291D02*
X0041391Y2296291D01*
X0041390Y2296889D02*
X0051861Y2296889D01*
X0052459Y2297488D02*
X0041389Y2297488D01*
X0041388Y2298086D02*
X0053058Y2298086D01*
X0053656Y2298685D02*
X0041386Y2298685D01*
X0044277Y2293368D02*
X0044785Y2293154D01*
X0042285Y2287313D02*
X0041407Y2287313D01*
X0041408Y2286715D02*
X0041686Y2286715D01*
X0042587Y2283722D02*
X0059745Y2283722D01*
X0059745Y2283124D02*
X0046066Y2283124D01*
X0045586Y2283604D02*
X0044021Y2283604D01*
X0042914Y2282497D01*
X0042914Y2280932D01*
X0044021Y2279826D01*
X0045586Y2279826D01*
X0046692Y2280932D01*
X0046692Y2282497D01*
X0045586Y2283604D01*
X0046664Y2282525D02*
X0059745Y2282525D01*
X0059745Y2281927D02*
X0046692Y2281927D01*
X0046692Y2281328D02*
X0059745Y2281328D01*
X0059745Y2280730D02*
X0046489Y2280730D01*
X0045891Y2280131D02*
X0059745Y2280131D01*
X0059745Y2279533D02*
X0041422Y2279533D01*
X0041420Y2280131D02*
X0043716Y2280131D01*
X0043117Y2280730D02*
X0041419Y2280730D01*
X0041418Y2281328D02*
X0042914Y2281328D01*
X0042914Y2281927D02*
X0041417Y2281927D01*
X0041724Y2282525D02*
X0042942Y2282525D01*
X0043541Y2283124D02*
X0042322Y2283124D01*
X0041296Y2278934D02*
X0060094Y2278934D01*
X0060693Y2278336D02*
X0040686Y2278336D01*
X0040076Y2277737D02*
X0061291Y2277737D01*
X0061890Y2277139D02*
X0039466Y2277139D01*
X0038856Y2276540D02*
X0062488Y2276540D01*
X0063087Y2275942D02*
X0038245Y2275942D01*
X0037635Y2275343D02*
X0063685Y2275343D01*
X0063055Y2274745D02*
X0037025Y2274745D01*
X0036415Y2274146D02*
X0062456Y2274146D01*
X0061973Y2273547D02*
X0035805Y2273547D01*
X0035195Y2272949D02*
X0061973Y2272949D01*
X0061973Y2272350D02*
X0034585Y2272350D01*
X0033974Y2271752D02*
X0062320Y2271752D01*
X0062918Y2271153D02*
X0033364Y2271153D01*
X0061945Y2286116D02*
X0062099Y2286116D01*
X0071425Y2255592D02*
X0136862Y2255592D01*
X0135634Y2255961D02*
X0134403Y2257191D01*
X0080005Y2258516D02*
X0079493Y2258004D01*
X0049632Y2316648D02*
X0049632Y2317836D01*
X0046558Y2320830D02*
X0119756Y2320830D01*
X0119713Y2320786D02*
X0119713Y2319221D01*
X0120819Y2318115D01*
X0122384Y2318115D01*
X0123491Y2319221D01*
X0123491Y2320786D01*
X0122384Y2321893D01*
X0120819Y2321893D01*
X0119713Y2320786D01*
X0119713Y2320231D02*
X0045959Y2320231D01*
X0045361Y2319633D02*
X0119713Y2319633D01*
X0119900Y2319034D02*
X0044762Y2319034D01*
X0044164Y2318436D02*
X0120498Y2318436D01*
X0122705Y2318436D02*
X0131553Y2318436D01*
X0130954Y2319034D02*
X0123303Y2319034D01*
X0123491Y2319633D02*
X0130848Y2319633D01*
X0130848Y2320231D02*
X0123491Y2320231D01*
X0123447Y2320830D02*
X0130973Y2320830D01*
X0131572Y2321428D02*
X0125680Y2321428D01*
X0125133Y2320881D02*
X0126239Y2321987D01*
X0126239Y2323552D01*
X0125133Y2324659D01*
X0123568Y2324659D01*
X0122461Y2323552D01*
X0122461Y2321987D01*
X0123568Y2320881D01*
X0125133Y2320881D01*
X0126239Y2322027D02*
X0131871Y2322027D01*
X0130986Y2322625D02*
X0126239Y2322625D01*
X0126239Y2323224D02*
X0130102Y2323224D01*
X0129217Y2323822D02*
X0125969Y2323822D01*
X0125370Y2324421D02*
X0128332Y2324421D01*
X0127447Y2325019D02*
X0078821Y2325019D01*
X0078821Y2324858D02*
X0077714Y2323752D01*
X0076150Y2323752D01*
X0075043Y2324858D01*
X0075043Y2326423D01*
X0076150Y2327530D01*
X0077714Y2327530D01*
X0078821Y2326423D01*
X0078821Y2324858D01*
X0078384Y2324421D02*
X0123330Y2324421D01*
X0122731Y2323822D02*
X0077785Y2323822D01*
X0076079Y2323822D02*
X0049550Y2323822D01*
X0048952Y2323224D02*
X0122461Y2323224D01*
X0122461Y2322625D02*
X0048353Y2322625D01*
X0047755Y2322027D02*
X0122461Y2322027D01*
X0122848Y2321428D02*
X0123020Y2321428D01*
X0120355Y2321428D02*
X0047156Y2321428D01*
X0050149Y2324421D02*
X0075480Y2324421D01*
X0075043Y2325019D02*
X0050747Y2325019D01*
X0051346Y2325618D02*
X0075043Y2325618D01*
X0075043Y2326216D02*
X0051944Y2326216D01*
X0052543Y2326815D02*
X0075435Y2326815D01*
X0076033Y2327413D02*
X0053141Y2327413D01*
X0053740Y2328012D02*
X0094482Y2328012D01*
X0094032Y2328462D02*
X0095139Y2327355D01*
X0096704Y2327355D01*
X0097810Y2328462D01*
X0097810Y2330027D01*
X0096704Y2331133D01*
X0095139Y2331133D01*
X0094032Y2330027D01*
X0094032Y2328462D01*
X0094032Y2328611D02*
X0054338Y2328611D01*
X0054937Y2329209D02*
X0094032Y2329209D01*
X0094032Y2329808D02*
X0055536Y2329808D01*
X0056134Y2330406D02*
X0094412Y2330406D01*
X0095010Y2331005D02*
X0056733Y2331005D01*
X0057331Y2331603D02*
X0112002Y2331603D01*
X0112321Y2331922D02*
X0111214Y2330815D01*
X0111214Y2329250D01*
X0112321Y2328144D01*
X0113885Y2328144D01*
X0114992Y2329250D01*
X0114992Y2330815D01*
X0113885Y2331922D01*
X0112321Y2331922D01*
X0111403Y2331005D02*
X0096832Y2331005D01*
X0097431Y2330406D02*
X0111214Y2330406D01*
X0111214Y2329808D02*
X0097810Y2329808D01*
X0097810Y2329209D02*
X0111255Y2329209D01*
X0111854Y2328611D02*
X0097810Y2328611D01*
X0097361Y2328012D02*
X0122821Y2328012D01*
X0123882Y2327413D02*
X0096762Y2327413D01*
X0095080Y2327413D02*
X0077831Y2327413D01*
X0078429Y2326815D02*
X0124793Y2326815D01*
X0125677Y2326216D02*
X0078821Y2326216D01*
X0078821Y2325618D02*
X0126562Y2325618D01*
X0121759Y2328611D02*
X0114352Y2328611D01*
X0114951Y2329209D02*
X0120698Y2329209D01*
X0119636Y2329808D02*
X0114992Y2329808D01*
X0114992Y2330406D02*
X0118575Y2330406D01*
X0117513Y2331005D02*
X0114802Y2331005D01*
X0114204Y2331603D02*
X0116452Y2331603D01*
X0115390Y2332202D02*
X0057930Y2332202D01*
X0058528Y2332800D02*
X0114329Y2332800D01*
X0113267Y2333399D02*
X0059127Y2333399D01*
X0072157Y2331311D02*
X0073608Y2331362D01*
X0086498Y2331817D02*
X0086748Y2331889D01*
X0108909Y2330717D02*
X0109030Y2330042D01*
X0133922Y2318436D02*
X0136630Y2318436D01*
X0136624Y2317837D02*
X0043565Y2317837D01*
X0042967Y2317239D02*
X0136630Y2317239D01*
X0136630Y2316640D02*
X0042368Y2316640D01*
X0041770Y2316042D02*
X0136630Y2316042D01*
X0136630Y2315443D02*
X0041356Y2315443D01*
X0041357Y2314845D02*
X0136630Y2314845D01*
X0136630Y2313049D02*
X0132873Y2313049D01*
X0133069Y2312451D02*
X0136630Y2312451D01*
X0137773Y2318190D02*
X0137730Y2318234D01*
X0136295Y2319034D02*
X0134520Y2319034D01*
X0134626Y2319633D02*
X0135411Y2319633D01*
X2175415Y2331176D02*
X2175415Y2193368D01*
X2189021Y2179762D01*
X2238548Y2179762D01*
X2264171Y2205385D01*
X2264171Y2215545D01*
X2268550Y2219923D01*
X2325541Y2219971D01*
X2343385Y2252155D01*
X2343522Y2306155D01*
X2307395Y2342281D01*
X2190429Y2342281D01*
X2178190Y2330042D01*
X2178190Y2194203D01*
X2189920Y2182473D01*
X2237960Y2182473D01*
X2261985Y2206497D01*
X2261985Y2216480D01*
X2267671Y2222166D01*
X2324778Y2222166D01*
X2341320Y2252023D01*
X2341265Y2305777D01*
X2307638Y2339404D01*
X2190629Y2339404D01*
X2180361Y2329136D01*
X2180361Y2195060D01*
X2190472Y2184949D01*
X2237667Y2184949D01*
X2259985Y2207267D01*
X2259985Y2217236D01*
X2266978Y2224229D01*
X2323939Y2224135D01*
X2338988Y2251411D01*
X2338988Y2305495D01*
X2307443Y2337041D01*
X2190774Y2337041D01*
X2182449Y2328715D01*
X2182449Y2195735D01*
X2182153Y2196031D01*
X2182449Y2195735D02*
X2190987Y2187197D01*
X2237359Y2187197D01*
X2257829Y2207667D01*
X2257829Y2217913D01*
X2266217Y2226300D01*
X2320352Y2226300D01*
X2322967Y2226265D01*
X2336927Y2251024D01*
X2336927Y2251207D01*
X2336953Y2305022D01*
X2308034Y2333942D01*
X2265776Y2333942D01*
X2259089Y2333904D01*
X2261309Y2332202D02*
X2271765Y2332202D01*
X2271178Y2332800D02*
X2264593Y2332800D01*
X2266087Y2332842D02*
X2271137Y2332842D01*
X2281176Y2322607D01*
X2284401Y2322613D01*
X2284401Y2322549D01*
X2285507Y2321442D01*
X2286623Y2321442D01*
X2288609Y2319456D01*
X2287846Y2319456D01*
X2286740Y2318350D01*
X2286740Y2316785D01*
X2287846Y2315678D01*
X2288962Y2315678D01*
X2300092Y2304548D01*
X2300737Y2303903D01*
X2302805Y2303903D01*
X2307844Y2298864D01*
X2307844Y2241658D01*
X2307055Y2240869D01*
X2307055Y2239304D01*
X2308161Y2238198D01*
X2308878Y2238198D01*
X2308527Y2237848D01*
X2307883Y2237203D01*
X2307883Y2237052D01*
X2307094Y2236263D01*
X2307094Y2234698D01*
X2308201Y2233592D01*
X2309765Y2233592D01*
X2310872Y2234698D01*
X2310872Y2236263D01*
X2310463Y2236672D01*
X2311788Y2237997D01*
X2312433Y2238642D01*
X2312433Y2299084D01*
X2304857Y2306659D01*
X2304857Y2306659D01*
X2304213Y2307303D01*
X2303873Y2307303D01*
X2288556Y2322621D01*
X2317745Y2322674D01*
X2335853Y2304567D01*
X2335827Y2251663D01*
X2335827Y2251313D01*
X2329445Y2239994D01*
X2323930Y2231840D01*
X2323930Y2232075D01*
X2322823Y2233182D01*
X2321258Y2233182D01*
X2320152Y2232075D01*
X2320152Y2230510D01*
X2321258Y2229404D01*
X2322282Y2229404D01*
X2320921Y2227393D01*
X2320814Y2227394D01*
X2320807Y2227400D01*
X2320359Y2227400D01*
X2319911Y2227406D01*
X2319905Y2227400D01*
X2312354Y2227400D01*
X2313392Y2228438D01*
X2313392Y2230003D01*
X2312285Y2231110D01*
X2310720Y2231110D01*
X2309614Y2230003D01*
X2309614Y2228438D01*
X2310652Y2227400D01*
X2265761Y2227400D01*
X2265464Y2227103D01*
X2258261Y2227222D01*
X2257757Y2227121D01*
X2257564Y2227315D01*
X2257791Y2328580D01*
X2261815Y2332722D01*
X2266087Y2332842D01*
X2265346Y2329648D02*
X2264239Y2328541D01*
X2264239Y2326976D01*
X2265346Y2325870D01*
X2266911Y2325870D01*
X2268017Y2326976D01*
X2268017Y2328541D01*
X2266911Y2329648D01*
X2265346Y2329648D01*
X2264907Y2329209D02*
X2258402Y2329209D01*
X2257821Y2328611D02*
X2264309Y2328611D01*
X2264239Y2328012D02*
X2257790Y2328012D01*
X2257789Y2327413D02*
X2264239Y2327413D01*
X2264401Y2326815D02*
X2257787Y2326815D01*
X2257786Y2326216D02*
X2264999Y2326216D01*
X2267257Y2326216D02*
X2277636Y2326216D01*
X2278223Y2325618D02*
X2257784Y2325618D01*
X2257783Y2325019D02*
X2278810Y2325019D01*
X2279397Y2324421D02*
X2257782Y2324421D01*
X2257780Y2323822D02*
X2279984Y2323822D01*
X2280571Y2323224D02*
X2257779Y2323224D01*
X2257778Y2322625D02*
X2281158Y2322625D01*
X2282765Y2320830D02*
X2257774Y2320830D01*
X2257775Y2321428D02*
X2286637Y2321428D01*
X2287235Y2320830D02*
X2284901Y2320830D01*
X2284615Y2321115D02*
X2283051Y2321115D01*
X2281944Y2320009D01*
X2281944Y2318444D01*
X2283051Y2317338D01*
X2284615Y2317338D01*
X2285722Y2318444D01*
X2285722Y2320009D01*
X2284615Y2321115D01*
X2284923Y2322027D02*
X2257776Y2322027D01*
X2257772Y2320231D02*
X2282166Y2320231D01*
X2281944Y2319633D02*
X2257771Y2319633D01*
X2257770Y2319034D02*
X2281944Y2319034D01*
X2281952Y2318436D02*
X2257768Y2318436D01*
X2257767Y2317837D02*
X2282551Y2317837D01*
X2285115Y2317837D02*
X2286740Y2317837D01*
X2286740Y2317239D02*
X2257766Y2317239D01*
X2257764Y2316640D02*
X2286884Y2316640D01*
X2287483Y2316042D02*
X2257763Y2316042D01*
X2257762Y2315443D02*
X2289197Y2315443D01*
X2289795Y2314845D02*
X2257760Y2314845D01*
X2257759Y2314246D02*
X2290394Y2314246D01*
X2290992Y2313648D02*
X2257758Y2313648D01*
X2257756Y2313049D02*
X2291591Y2313049D01*
X2292189Y2312451D02*
X2257755Y2312451D01*
X2257754Y2311852D02*
X2292788Y2311852D01*
X2293386Y2311254D02*
X2257752Y2311254D01*
X2257751Y2310655D02*
X2293985Y2310655D01*
X2294583Y2310057D02*
X2257750Y2310057D01*
X2257748Y2309458D02*
X2295182Y2309458D01*
X2295780Y2308860D02*
X2257747Y2308860D01*
X2257745Y2308261D02*
X2296379Y2308261D01*
X2296978Y2307663D02*
X2257744Y2307663D01*
X2257743Y2307064D02*
X2297576Y2307064D01*
X2298175Y2306466D02*
X2257741Y2306466D01*
X2257740Y2305867D02*
X2298773Y2305867D01*
X2299372Y2305269D02*
X2257739Y2305269D01*
X2257737Y2304670D02*
X2299970Y2304670D01*
X2300569Y2304072D02*
X2299227Y2304072D01*
X2298812Y2304487D02*
X2297247Y2304487D01*
X2296458Y2303698D01*
X2291802Y2303698D01*
X2291216Y2304284D01*
X2281401Y2304284D01*
X2280757Y2303640D01*
X2276888Y2299771D01*
X2276888Y2300950D01*
X2275781Y2302056D01*
X2274216Y2302056D01*
X2273110Y2300950D01*
X2273110Y2299385D01*
X2274216Y2298278D01*
X2275395Y2298278D01*
X2275315Y2298199D01*
X2274200Y2298199D01*
X2273093Y2297092D01*
X2273093Y2295528D01*
X2274200Y2294421D01*
X2275765Y2294421D01*
X2276871Y2295528D01*
X2276871Y2296643D01*
X2282312Y2302084D01*
X2288388Y2302084D01*
X2287881Y2301578D01*
X2287881Y2300013D01*
X2288988Y2298907D01*
X2290553Y2298907D01*
X2291659Y2300013D01*
X2291659Y2301498D01*
X2296458Y2301498D01*
X2297247Y2300709D01*
X2298812Y2300709D01*
X2299918Y2301816D01*
X2299918Y2303381D01*
X2298812Y2304487D01*
X2299826Y2303473D02*
X2303235Y2303473D01*
X2303834Y2302875D02*
X2299918Y2302875D01*
X2299918Y2302276D02*
X2304432Y2302276D01*
X2305031Y2301678D02*
X2299780Y2301678D01*
X2299181Y2301079D02*
X2305629Y2301079D01*
X2306228Y2300480D02*
X2291659Y2300480D01*
X2291659Y2301079D02*
X2296877Y2301079D01*
X2298029Y2302598D02*
X2291346Y2302598D01*
X2290760Y2303184D01*
X2281857Y2303184D01*
X2274982Y2296310D01*
X2273093Y2296291D02*
X2257719Y2296291D01*
X2257720Y2296889D02*
X2273093Y2296889D01*
X2273489Y2297488D02*
X2257721Y2297488D01*
X2257723Y2298086D02*
X2274087Y2298086D01*
X2273810Y2298685D02*
X2257724Y2298685D01*
X2257725Y2299283D02*
X2273212Y2299283D01*
X2273110Y2299882D02*
X2257727Y2299882D01*
X2257728Y2300480D02*
X2273110Y2300480D01*
X2273239Y2301079D02*
X2257729Y2301079D01*
X2257731Y2301678D02*
X2273838Y2301678D01*
X2276160Y2301678D02*
X2278794Y2301678D01*
X2279393Y2302276D02*
X2257732Y2302276D01*
X2257733Y2302875D02*
X2279991Y2302875D01*
X2280590Y2303473D02*
X2257735Y2303473D01*
X2257736Y2304072D02*
X2281188Y2304072D01*
X2281905Y2301678D02*
X2287981Y2301678D01*
X2287881Y2301079D02*
X2281307Y2301079D01*
X2280708Y2300480D02*
X2287881Y2300480D01*
X2288012Y2299882D02*
X2280110Y2299882D01*
X2279511Y2299283D02*
X2288611Y2299283D01*
X2290930Y2299283D02*
X2307425Y2299283D01*
X2307844Y2298685D02*
X2278913Y2298685D01*
X2278314Y2298086D02*
X2307844Y2298086D01*
X2307844Y2297488D02*
X2277716Y2297488D01*
X2277117Y2296889D02*
X2307844Y2296889D01*
X2307844Y2296291D02*
X2276871Y2296291D01*
X2276871Y2295692D02*
X2307844Y2295692D01*
X2307844Y2295094D02*
X2276437Y2295094D01*
X2275839Y2294495D02*
X2307844Y2294495D01*
X2307844Y2293897D02*
X2262191Y2293897D01*
X2262191Y2294495D02*
X2274125Y2294495D01*
X2273527Y2295094D02*
X2261690Y2295094D01*
X2262191Y2294592D02*
X2261085Y2295699D01*
X2259520Y2295699D01*
X2258413Y2294592D01*
X2258413Y2293027D01*
X2259520Y2291921D01*
X2261085Y2291921D01*
X2262191Y2293027D01*
X2262191Y2294592D01*
X2262191Y2293298D02*
X2307844Y2293298D01*
X2307844Y2292700D02*
X2261863Y2292700D01*
X2261265Y2292101D02*
X2307844Y2292101D01*
X2307844Y2291503D02*
X2257708Y2291503D01*
X2257709Y2292101D02*
X2259339Y2292101D01*
X2258741Y2292700D02*
X2257710Y2292700D01*
X2257712Y2293298D02*
X2258413Y2293298D01*
X2258413Y2293897D02*
X2257713Y2293897D01*
X2257715Y2294495D02*
X2258413Y2294495D01*
X2258915Y2295094D02*
X2257716Y2295094D01*
X2257717Y2295692D02*
X2259513Y2295692D01*
X2261091Y2295692D02*
X2273093Y2295692D01*
X2276888Y2299882D02*
X2276998Y2299882D01*
X2276888Y2300480D02*
X2277597Y2300480D01*
X2278196Y2301079D02*
X2276759Y2301079D01*
X2282118Y2289573D02*
X2281011Y2288466D01*
X2281011Y2286902D01*
X2282118Y2285795D01*
X2283683Y2285795D01*
X2284789Y2286902D01*
X2284789Y2288466D01*
X2283683Y2289573D01*
X2282118Y2289573D01*
X2281654Y2289109D02*
X2257702Y2289109D01*
X2257704Y2289707D02*
X2307844Y2289707D01*
X2307844Y2289109D02*
X2284147Y2289109D01*
X2284746Y2288510D02*
X2307844Y2288510D01*
X2307844Y2287912D02*
X2284789Y2287912D01*
X2284789Y2287313D02*
X2307844Y2287313D01*
X2307844Y2286715D02*
X2284602Y2286715D01*
X2284004Y2286116D02*
X2307844Y2286116D01*
X2307844Y2285518D02*
X2257694Y2285518D01*
X2257696Y2286116D02*
X2281797Y2286116D01*
X2281198Y2286715D02*
X2257697Y2286715D01*
X2257698Y2287313D02*
X2281011Y2287313D01*
X2281011Y2287912D02*
X2257700Y2287912D01*
X2257701Y2288510D02*
X2281055Y2288510D01*
X2282071Y2284680D02*
X2280964Y2283574D01*
X2280964Y2282009D01*
X2282071Y2280902D01*
X2283636Y2280902D01*
X2284742Y2282009D01*
X2284742Y2283574D01*
X2283636Y2284680D01*
X2282071Y2284680D01*
X2281711Y2284321D02*
X2257692Y2284321D01*
X2257693Y2284919D02*
X2307844Y2284919D01*
X2307844Y2284321D02*
X2283995Y2284321D01*
X2284594Y2283722D02*
X2307844Y2283722D01*
X2307844Y2283124D02*
X2284742Y2283124D01*
X2284742Y2282525D02*
X2307844Y2282525D01*
X2307844Y2281927D02*
X2284660Y2281927D01*
X2284062Y2281328D02*
X2307844Y2281328D01*
X2307844Y2280730D02*
X2281287Y2280730D01*
X2281463Y2280554D02*
X2280356Y2281661D01*
X2278791Y2281661D01*
X2277685Y2280554D01*
X2277685Y2278989D01*
X2278791Y2277883D01*
X2280356Y2277883D01*
X2281463Y2278989D01*
X2281463Y2280554D01*
X2281463Y2280131D02*
X2307844Y2280131D01*
X2307844Y2279533D02*
X2281463Y2279533D01*
X2281407Y2278934D02*
X2307844Y2278934D01*
X2307844Y2278336D02*
X2280809Y2278336D01*
X2278338Y2278336D02*
X2262850Y2278336D01*
X2262850Y2278658D02*
X2261743Y2279765D01*
X2260178Y2279765D01*
X2259072Y2278658D01*
X2259072Y2277093D01*
X2260178Y2275987D01*
X2261743Y2275987D01*
X2262850Y2277093D01*
X2262850Y2278658D01*
X2262574Y2278934D02*
X2277740Y2278934D01*
X2277685Y2279533D02*
X2261975Y2279533D01*
X2262850Y2277737D02*
X2307844Y2277737D01*
X2307844Y2277139D02*
X2262850Y2277139D01*
X2262296Y2276540D02*
X2307844Y2276540D01*
X2307844Y2275942D02*
X2257673Y2275942D01*
X2257674Y2276540D02*
X2259625Y2276540D01*
X2259072Y2277139D02*
X2257676Y2277139D01*
X2257677Y2277737D02*
X2259072Y2277737D01*
X2259072Y2278336D02*
X2257678Y2278336D01*
X2257680Y2278934D02*
X2259348Y2278934D01*
X2259946Y2279533D02*
X2257681Y2279533D01*
X2257682Y2280131D02*
X2277685Y2280131D01*
X2277860Y2280730D02*
X2257684Y2280730D01*
X2257685Y2281328D02*
X2278458Y2281328D01*
X2280689Y2281328D02*
X2281645Y2281328D01*
X2281046Y2281927D02*
X2257686Y2281927D01*
X2257688Y2282525D02*
X2280964Y2282525D01*
X2280964Y2283124D02*
X2257689Y2283124D01*
X2257690Y2283722D02*
X2281113Y2283722D01*
X2266990Y2273119D02*
X2266990Y2271981D01*
X2279073Y2259663D01*
X2280167Y2259663D01*
X2281274Y2258556D01*
X2281274Y2256991D01*
X2280167Y2255885D01*
X2278602Y2255885D01*
X2277496Y2256991D01*
X2277496Y2258129D01*
X2265413Y2270447D01*
X2264319Y2270447D01*
X2263212Y2271554D01*
X2263212Y2273119D01*
X2264319Y2274225D01*
X2265884Y2274225D01*
X2266990Y2273119D01*
X2266990Y2272949D02*
X2307844Y2272949D01*
X2307844Y2273547D02*
X2266562Y2273547D01*
X2265963Y2274146D02*
X2307844Y2274146D01*
X2307844Y2274745D02*
X2257670Y2274745D01*
X2257671Y2275343D02*
X2307844Y2275343D01*
X2307844Y2272350D02*
X2266990Y2272350D01*
X2267215Y2271752D02*
X2307844Y2271752D01*
X2307844Y2271153D02*
X2267802Y2271153D01*
X2268389Y2270555D02*
X2307844Y2270555D01*
X2307844Y2269956D02*
X2268976Y2269956D01*
X2269563Y2269358D02*
X2307844Y2269358D01*
X2307844Y2268759D02*
X2270151Y2268759D01*
X2270738Y2268161D02*
X2307844Y2268161D01*
X2307844Y2267562D02*
X2271325Y2267562D01*
X2271912Y2266964D02*
X2307844Y2266964D01*
X2307844Y2266365D02*
X2272499Y2266365D01*
X2273086Y2265767D02*
X2307844Y2265767D01*
X2307844Y2265168D02*
X2273673Y2265168D01*
X2274260Y2264570D02*
X2307844Y2264570D01*
X2307844Y2263971D02*
X2274847Y2263971D01*
X2275434Y2263373D02*
X2307844Y2263373D01*
X2307844Y2262774D02*
X2276021Y2262774D01*
X2276608Y2262176D02*
X2307844Y2262176D01*
X2307844Y2261577D02*
X2277195Y2261577D01*
X2277782Y2260979D02*
X2307844Y2260979D01*
X2307844Y2260380D02*
X2278369Y2260380D01*
X2278956Y2259782D02*
X2307844Y2259782D01*
X2307844Y2259183D02*
X2280647Y2259183D01*
X2281245Y2258585D02*
X2307844Y2258585D01*
X2307844Y2257986D02*
X2281274Y2257986D01*
X2281274Y2257388D02*
X2307844Y2257388D01*
X2307844Y2256789D02*
X2281072Y2256789D01*
X2280473Y2256191D02*
X2307844Y2256191D01*
X2307844Y2255592D02*
X2257627Y2255592D01*
X2257626Y2254994D02*
X2307844Y2254994D01*
X2307844Y2254395D02*
X2257624Y2254395D01*
X2257623Y2253797D02*
X2307844Y2253797D01*
X2307844Y2253198D02*
X2257622Y2253198D01*
X2257620Y2252600D02*
X2277820Y2252600D01*
X2278102Y2252881D02*
X2276995Y2251775D01*
X2276995Y2250210D01*
X2278102Y2249103D01*
X2279667Y2249103D01*
X2280773Y2250210D01*
X2280773Y2251775D01*
X2279667Y2252881D01*
X2278102Y2252881D01*
X2277222Y2252001D02*
X2257619Y2252001D01*
X2257618Y2251403D02*
X2276995Y2251403D01*
X2276995Y2250804D02*
X2257616Y2250804D01*
X2257615Y2250206D02*
X2277000Y2250206D01*
X2277598Y2249607D02*
X2257614Y2249607D01*
X2257612Y2249009D02*
X2307844Y2249009D01*
X2307844Y2249607D02*
X2280170Y2249607D01*
X2280769Y2250206D02*
X2307844Y2250206D01*
X2307844Y2250804D02*
X2280773Y2250804D01*
X2280773Y2251403D02*
X2307844Y2251403D01*
X2307844Y2252001D02*
X2280547Y2252001D01*
X2279948Y2252600D02*
X2307844Y2252600D01*
X2307844Y2248410D02*
X2257611Y2248410D01*
X2257610Y2247811D02*
X2307844Y2247811D01*
X2307844Y2247213D02*
X2257608Y2247213D01*
X2257607Y2246614D02*
X2307844Y2246614D01*
X2307844Y2246016D02*
X2257606Y2246016D01*
X2257604Y2245417D02*
X2307844Y2245417D01*
X2307844Y2244819D02*
X2257603Y2244819D01*
X2257602Y2244220D02*
X2307844Y2244220D01*
X2307844Y2243622D02*
X2257600Y2243622D01*
X2257599Y2243023D02*
X2307844Y2243023D01*
X2307844Y2242425D02*
X2257597Y2242425D01*
X2257596Y2241826D02*
X2307844Y2241826D01*
X2307413Y2241228D02*
X2257595Y2241228D01*
X2257593Y2240629D02*
X2307055Y2240629D01*
X2307055Y2240031D02*
X2257592Y2240031D01*
X2257591Y2239432D02*
X2307055Y2239432D01*
X2307525Y2238834D02*
X2257589Y2238834D01*
X2257588Y2238235D02*
X2308124Y2238235D01*
X2308527Y2237848D02*
X2308527Y2237848D01*
X2308316Y2237637D02*
X2257587Y2237637D01*
X2257585Y2237038D02*
X2307869Y2237038D01*
X2307271Y2236440D02*
X2257584Y2236440D01*
X2257583Y2235841D02*
X2307094Y2235841D01*
X2307094Y2235243D02*
X2257581Y2235243D01*
X2257580Y2234644D02*
X2307148Y2234644D01*
X2307746Y2234046D02*
X2257579Y2234046D01*
X2257577Y2233447D02*
X2312300Y2233447D01*
X2312300Y2233632D02*
X2312300Y2232067D01*
X2313407Y2230961D01*
X2314971Y2230961D01*
X2316078Y2232067D01*
X2316078Y2233632D01*
X2314971Y2234738D01*
X2313407Y2234738D01*
X2312300Y2233632D01*
X2312714Y2234046D02*
X2310220Y2234046D01*
X2310818Y2234644D02*
X2313312Y2234644D01*
X2315066Y2234644D02*
X2325826Y2234644D01*
X2325422Y2234046D02*
X2315664Y2234046D01*
X2316078Y2233447D02*
X2325017Y2233447D01*
X2324612Y2232849D02*
X2323156Y2232849D01*
X2323755Y2232250D02*
X2324207Y2232250D01*
X2320925Y2232849D02*
X2316078Y2232849D01*
X2316078Y2232250D02*
X2320327Y2232250D01*
X2320152Y2231652D02*
X2315663Y2231652D01*
X2315064Y2231053D02*
X2320152Y2231053D01*
X2320207Y2230455D02*
X2312940Y2230455D01*
X2313314Y2231053D02*
X2312342Y2231053D01*
X2312715Y2231652D02*
X2257573Y2231652D01*
X2257575Y2232250D02*
X2312300Y2232250D01*
X2312300Y2232849D02*
X2257576Y2232849D01*
X2257572Y2231053D02*
X2310664Y2231053D01*
X2310065Y2230455D02*
X2257571Y2230455D01*
X2257569Y2229856D02*
X2309614Y2229856D01*
X2309614Y2229258D02*
X2257568Y2229258D01*
X2257567Y2228659D02*
X2309614Y2228659D01*
X2309991Y2228061D02*
X2257565Y2228061D01*
X2257564Y2227462D02*
X2310590Y2227462D01*
X2312415Y2227462D02*
X2320968Y2227462D01*
X2321373Y2228061D02*
X2313014Y2228061D01*
X2313392Y2228659D02*
X2321778Y2228659D01*
X2322183Y2229258D02*
X2313392Y2229258D01*
X2313392Y2229856D02*
X2320806Y2229856D01*
X2320352Y2226300D02*
X2320309Y2226257D01*
X2326231Y2235243D02*
X2310872Y2235243D01*
X2310872Y2235841D02*
X2326636Y2235841D01*
X2327041Y2236440D02*
X2310695Y2236440D01*
X2310829Y2237038D02*
X2327446Y2237038D01*
X2327851Y2237637D02*
X2311428Y2237637D01*
X2311788Y2237997D02*
X2311788Y2237997D01*
X2312026Y2238235D02*
X2323661Y2238235D01*
X2324105Y2237791D02*
X2325670Y2237791D01*
X2326777Y2238897D01*
X2326777Y2240462D01*
X2325670Y2241569D01*
X2324105Y2241569D01*
X2322999Y2240462D01*
X2322999Y2238897D01*
X2324105Y2237791D01*
X2323062Y2238834D02*
X2312433Y2238834D01*
X2312433Y2239432D02*
X2322999Y2239432D01*
X2322999Y2240031D02*
X2312433Y2240031D01*
X2312433Y2240629D02*
X2321249Y2240629D01*
X2321340Y2240539D02*
X2322904Y2240539D01*
X2324011Y2241646D01*
X2324011Y2243211D01*
X2322904Y2244317D01*
X2321340Y2244317D01*
X2320233Y2243211D01*
X2320233Y2241646D01*
X2321340Y2240539D01*
X2320651Y2241228D02*
X2312433Y2241228D01*
X2312433Y2241826D02*
X2320233Y2241826D01*
X2320233Y2242425D02*
X2312433Y2242425D01*
X2312433Y2243023D02*
X2320233Y2243023D01*
X2320644Y2243622D02*
X2312433Y2243622D01*
X2312433Y2244220D02*
X2321243Y2244220D01*
X2323001Y2244220D02*
X2331828Y2244220D01*
X2331491Y2243622D02*
X2323600Y2243622D01*
X2324011Y2243023D02*
X2331153Y2243023D01*
X2330816Y2242425D02*
X2324011Y2242425D01*
X2324011Y2241826D02*
X2330478Y2241826D01*
X2330141Y2241228D02*
X2326011Y2241228D01*
X2326610Y2240629D02*
X2329803Y2240629D01*
X2329466Y2240031D02*
X2326777Y2240031D01*
X2326777Y2239432D02*
X2329065Y2239432D01*
X2328660Y2238834D02*
X2326713Y2238834D01*
X2326115Y2238235D02*
X2328255Y2238235D01*
X2323765Y2241228D02*
X2323593Y2241228D01*
X2323166Y2240629D02*
X2322995Y2240629D01*
X2332166Y2244819D02*
X2312433Y2244819D01*
X2312433Y2245417D02*
X2332503Y2245417D01*
X2332840Y2246016D02*
X2312433Y2246016D01*
X2312433Y2246614D02*
X2333178Y2246614D01*
X2333515Y2247213D02*
X2312433Y2247213D01*
X2312433Y2247811D02*
X2333853Y2247811D01*
X2334190Y2248410D02*
X2312433Y2248410D01*
X2312433Y2249009D02*
X2334528Y2249009D01*
X2334865Y2249607D02*
X2333502Y2249607D01*
X2334040Y2250144D02*
X2332933Y2249038D01*
X2331368Y2249038D01*
X2330262Y2250144D01*
X2330262Y2251709D01*
X2331368Y2252816D01*
X2332933Y2252816D01*
X2334040Y2251709D01*
X2334040Y2250144D01*
X2334040Y2250206D02*
X2335203Y2250206D01*
X2335540Y2250804D02*
X2334040Y2250804D01*
X2334040Y2251403D02*
X2335827Y2251403D01*
X2335827Y2251663D02*
X2335827Y2251663D01*
X2335827Y2252001D02*
X2333748Y2252001D01*
X2333150Y2252600D02*
X2335828Y2252600D01*
X2335828Y2253198D02*
X2312433Y2253198D01*
X2312433Y2252600D02*
X2331152Y2252600D01*
X2330554Y2252001D02*
X2312433Y2252001D01*
X2312433Y2251403D02*
X2330262Y2251403D01*
X2330262Y2250804D02*
X2312433Y2250804D01*
X2312433Y2250206D02*
X2330262Y2250206D01*
X2330799Y2249607D02*
X2312433Y2249607D01*
X2312433Y2253797D02*
X2335828Y2253797D01*
X2335828Y2254395D02*
X2312433Y2254395D01*
X2312433Y2254994D02*
X2335829Y2254994D01*
X2335829Y2255592D02*
X2312433Y2255592D01*
X2312433Y2256191D02*
X2335829Y2256191D01*
X2335830Y2256789D02*
X2312433Y2256789D01*
X2312433Y2257388D02*
X2335830Y2257388D01*
X2335830Y2257986D02*
X2312433Y2257986D01*
X2312433Y2258585D02*
X2335830Y2258585D01*
X2335831Y2259183D02*
X2312433Y2259183D01*
X2312433Y2259782D02*
X2335831Y2259782D01*
X2335831Y2260380D02*
X2312433Y2260380D01*
X2312433Y2260979D02*
X2335832Y2260979D01*
X2335832Y2261577D02*
X2312433Y2261577D01*
X2312433Y2262176D02*
X2335832Y2262176D01*
X2335833Y2262774D02*
X2312433Y2262774D01*
X2312433Y2263373D02*
X2335833Y2263373D01*
X2335833Y2263971D02*
X2312433Y2263971D01*
X2312433Y2264570D02*
X2335833Y2264570D01*
X2335834Y2265168D02*
X2312433Y2265168D01*
X2312433Y2265767D02*
X2335834Y2265767D01*
X2335834Y2266365D02*
X2332290Y2266365D01*
X2332145Y2266220D02*
X2333251Y2267326D01*
X2333251Y2268891D01*
X2332145Y2269998D01*
X2330580Y2269998D01*
X2329473Y2268891D01*
X2329473Y2267326D01*
X2330580Y2266220D01*
X2332145Y2266220D01*
X2332889Y2266964D02*
X2335835Y2266964D01*
X2335835Y2267562D02*
X2333251Y2267562D01*
X2333251Y2268161D02*
X2335835Y2268161D01*
X2335835Y2268759D02*
X2333251Y2268759D01*
X2332784Y2269358D02*
X2335836Y2269358D01*
X2335836Y2269956D02*
X2332186Y2269956D01*
X2330539Y2269956D02*
X2312433Y2269956D01*
X2312433Y2269358D02*
X2329940Y2269358D01*
X2329473Y2268759D02*
X2312433Y2268759D01*
X2312433Y2268161D02*
X2329473Y2268161D01*
X2329473Y2267562D02*
X2312433Y2267562D01*
X2312433Y2266964D02*
X2329836Y2266964D01*
X2330434Y2266365D02*
X2312433Y2266365D01*
X2312433Y2270555D02*
X2335836Y2270555D01*
X2335837Y2271153D02*
X2312433Y2271153D01*
X2312433Y2271752D02*
X2335837Y2271752D01*
X2335837Y2272350D02*
X2312433Y2272350D01*
X2312433Y2272949D02*
X2335837Y2272949D01*
X2335838Y2273547D02*
X2312433Y2273547D01*
X2312433Y2274146D02*
X2335838Y2274146D01*
X2335838Y2274745D02*
X2312433Y2274745D01*
X2312433Y2275343D02*
X2335839Y2275343D01*
X2335839Y2275942D02*
X2312433Y2275942D01*
X2312433Y2276540D02*
X2335839Y2276540D01*
X2335840Y2277139D02*
X2312433Y2277139D01*
X2312433Y2277737D02*
X2335840Y2277737D01*
X2335840Y2278336D02*
X2312433Y2278336D01*
X2312433Y2278934D02*
X2335840Y2278934D01*
X2335841Y2279533D02*
X2312433Y2279533D01*
X2312433Y2280131D02*
X2335841Y2280131D01*
X2335841Y2280730D02*
X2312433Y2280730D01*
X2312433Y2281328D02*
X2335842Y2281328D01*
X2335842Y2281927D02*
X2312433Y2281927D01*
X2312433Y2282525D02*
X2335842Y2282525D01*
X2335842Y2283124D02*
X2312433Y2283124D01*
X2312433Y2283722D02*
X2335843Y2283722D01*
X2335843Y2284321D02*
X2312433Y2284321D01*
X2312433Y2284919D02*
X2335843Y2284919D01*
X2335844Y2285518D02*
X2328850Y2285518D01*
X2328541Y2285209D02*
X2329648Y2286315D01*
X2329648Y2287880D01*
X2328541Y2288987D01*
X2326976Y2288987D01*
X2325870Y2287880D01*
X2325870Y2286315D01*
X2326976Y2285209D01*
X2328541Y2285209D01*
X2329449Y2286116D02*
X2335844Y2286116D01*
X2335844Y2286715D02*
X2329648Y2286715D01*
X2329648Y2287313D02*
X2335844Y2287313D01*
X2335845Y2287912D02*
X2329616Y2287912D01*
X2329018Y2288510D02*
X2335845Y2288510D01*
X2335845Y2289109D02*
X2312433Y2289109D01*
X2312433Y2289707D02*
X2335846Y2289707D01*
X2335846Y2290306D02*
X2312433Y2290306D01*
X2312433Y2290904D02*
X2335846Y2290904D01*
X2335847Y2291503D02*
X2312433Y2291503D01*
X2312433Y2292101D02*
X2335847Y2292101D01*
X2335847Y2292700D02*
X2312433Y2292700D01*
X2312433Y2293298D02*
X2335847Y2293298D01*
X2335848Y2293897D02*
X2312433Y2293897D01*
X2312433Y2294495D02*
X2335848Y2294495D01*
X2335848Y2295094D02*
X2312433Y2295094D01*
X2312433Y2295692D02*
X2335849Y2295692D01*
X2335849Y2296291D02*
X2312433Y2296291D01*
X2312433Y2296889D02*
X2335849Y2296889D01*
X2335849Y2297488D02*
X2312433Y2297488D01*
X2312433Y2298086D02*
X2335850Y2298086D01*
X2335850Y2298685D02*
X2312433Y2298685D01*
X2312233Y2299283D02*
X2335850Y2299283D01*
X2335851Y2299882D02*
X2311634Y2299882D01*
X2311036Y2300480D02*
X2335851Y2300480D01*
X2335851Y2301079D02*
X2310437Y2301079D01*
X2309839Y2301678D02*
X2335852Y2301678D01*
X2335852Y2302276D02*
X2309240Y2302276D01*
X2308642Y2302875D02*
X2335852Y2302875D01*
X2335852Y2303473D02*
X2308043Y2303473D01*
X2307445Y2304072D02*
X2335853Y2304072D01*
X2335750Y2304670D02*
X2306846Y2304670D01*
X2306248Y2305269D02*
X2335151Y2305269D01*
X2334553Y2305867D02*
X2305649Y2305867D01*
X2305051Y2306466D02*
X2333954Y2306466D01*
X2333356Y2307064D02*
X2304452Y2307064D01*
X2303757Y2306203D02*
X2311333Y2298628D01*
X2311333Y2239097D01*
X2308983Y2236748D01*
X2308983Y2235481D01*
X2308944Y2240087D02*
X2308944Y2299320D01*
X2303260Y2305003D01*
X2301192Y2305003D01*
X2288629Y2317567D01*
X2287424Y2319034D02*
X2285722Y2319034D01*
X2285714Y2318436D02*
X2286826Y2318436D01*
X2285722Y2319633D02*
X2288432Y2319633D01*
X2287834Y2320231D02*
X2285500Y2320231D01*
X2286290Y2323331D02*
X2303418Y2306203D01*
X2303757Y2306203D01*
X2303514Y2307663D02*
X2332757Y2307663D01*
X2332159Y2308261D02*
X2302915Y2308261D01*
X2302317Y2308860D02*
X2331560Y2308860D01*
X2330962Y2309458D02*
X2301718Y2309458D01*
X2302224Y2310057D02*
X2301120Y2310057D01*
X2301626Y2310655D02*
X2300521Y2310655D01*
X2299923Y2311254D02*
X2301590Y2311254D01*
X2301590Y2310691D02*
X2302696Y2309585D01*
X2304261Y2309585D01*
X2305367Y2310691D01*
X2305367Y2312256D01*
X2304261Y2313363D01*
X2302696Y2313363D01*
X2301590Y2312256D01*
X2301590Y2310691D01*
X2301590Y2311852D02*
X2299324Y2311852D01*
X2298726Y2312451D02*
X2301784Y2312451D01*
X2302383Y2313049D02*
X2298127Y2313049D01*
X2297529Y2313648D02*
X2326772Y2313648D01*
X2326174Y2314246D02*
X2296930Y2314246D01*
X2296332Y2314845D02*
X2325575Y2314845D01*
X2324977Y2315443D02*
X2295733Y2315443D01*
X2295135Y2316042D02*
X2324378Y2316042D01*
X2323780Y2316640D02*
X2294536Y2316640D01*
X2293938Y2317239D02*
X2323181Y2317239D01*
X2322583Y2317837D02*
X2315162Y2317837D01*
X2314789Y2317464D02*
X2315895Y2318570D01*
X2315895Y2320135D01*
X2314789Y2321242D01*
X2313224Y2321242D01*
X2312117Y2320135D01*
X2312117Y2318570D01*
X2313224Y2317464D01*
X2314789Y2317464D01*
X2315761Y2318436D02*
X2321984Y2318436D01*
X2321386Y2319034D02*
X2315895Y2319034D01*
X2315895Y2319633D02*
X2320787Y2319633D01*
X2320189Y2320231D02*
X2315799Y2320231D01*
X2315200Y2320830D02*
X2319590Y2320830D01*
X2318992Y2321428D02*
X2289748Y2321428D01*
X2290347Y2320830D02*
X2312812Y2320830D01*
X2312214Y2320231D02*
X2290945Y2320231D01*
X2291544Y2319633D02*
X2312117Y2319633D01*
X2312117Y2319034D02*
X2292142Y2319034D01*
X2292741Y2318436D02*
X2312252Y2318436D01*
X2312850Y2317837D02*
X2293339Y2317837D01*
X2295272Y2319244D02*
X2295487Y2319753D01*
X2291014Y2322625D02*
X2317795Y2322625D01*
X2318393Y2322027D02*
X2289150Y2322027D01*
X2277049Y2326815D02*
X2267856Y2326815D01*
X2268017Y2327413D02*
X2276462Y2327413D01*
X2275874Y2328012D02*
X2268017Y2328012D01*
X2267948Y2328611D02*
X2275287Y2328611D01*
X2274700Y2329209D02*
X2267349Y2329209D01*
X2272352Y2331603D02*
X2260728Y2331603D01*
X2260146Y2331005D02*
X2272939Y2331005D01*
X2273526Y2330406D02*
X2259565Y2330406D01*
X2258984Y2329808D02*
X2274113Y2329808D01*
X2291428Y2304072D02*
X2296831Y2304072D01*
X2291528Y2299882D02*
X2306826Y2299882D01*
X2307844Y2290904D02*
X2257706Y2290904D01*
X2257705Y2290306D02*
X2307844Y2290306D01*
X2312433Y2288510D02*
X2326500Y2288510D01*
X2325901Y2287912D02*
X2312433Y2287912D01*
X2312433Y2287313D02*
X2325870Y2287313D01*
X2325870Y2286715D02*
X2312433Y2286715D01*
X2312433Y2286116D02*
X2326069Y2286116D01*
X2326668Y2285518D02*
X2312433Y2285518D01*
X2333480Y2290422D02*
X2333430Y2291873D01*
X2333935Y2277532D02*
X2334007Y2277282D01*
X2345922Y2258733D02*
X2347973Y2256682D01*
X2345922Y2258733D02*
X2345922Y2306391D01*
X2307217Y2345096D01*
X2189877Y2345096D01*
X2175415Y2331176D01*
X2260122Y2284537D02*
X2260634Y2284024D01*
X2257669Y2274146D02*
X2264239Y2274146D01*
X2263641Y2273547D02*
X2257667Y2273547D01*
X2257666Y2272949D02*
X2263212Y2272949D01*
X2263212Y2272350D02*
X2257665Y2272350D01*
X2257663Y2271752D02*
X2263212Y2271752D01*
X2263613Y2271153D02*
X2257662Y2271153D01*
X2257661Y2270555D02*
X2264211Y2270555D01*
X2265895Y2269956D02*
X2257659Y2269956D01*
X2257658Y2269358D02*
X2266482Y2269358D01*
X2267069Y2268759D02*
X2257657Y2268759D01*
X2257655Y2268161D02*
X2267656Y2268161D01*
X2268243Y2267562D02*
X2257654Y2267562D01*
X2257653Y2266964D02*
X2268830Y2266964D01*
X2269417Y2266365D02*
X2257651Y2266365D01*
X2257650Y2265767D02*
X2270004Y2265767D01*
X2270591Y2265168D02*
X2257649Y2265168D01*
X2257647Y2264570D02*
X2271178Y2264570D01*
X2271765Y2263971D02*
X2257646Y2263971D01*
X2257645Y2263373D02*
X2272352Y2263373D01*
X2272939Y2262774D02*
X2257643Y2262774D01*
X2257642Y2262176D02*
X2273526Y2262176D01*
X2274113Y2261577D02*
X2257641Y2261577D01*
X2257639Y2260979D02*
X2274700Y2260979D01*
X2275287Y2260380D02*
X2257638Y2260380D01*
X2257636Y2259782D02*
X2272354Y2259782D01*
X2272689Y2260116D02*
X2271582Y2259010D01*
X2271582Y2257445D01*
X2272689Y2256338D01*
X2274254Y2256338D01*
X2275360Y2257445D01*
X2275360Y2259010D01*
X2274254Y2260116D01*
X2272689Y2260116D01*
X2271756Y2259183D02*
X2257635Y2259183D01*
X2257634Y2258585D02*
X2271582Y2258585D01*
X2271582Y2257986D02*
X2257632Y2257986D01*
X2257631Y2257388D02*
X2271639Y2257388D01*
X2272238Y2256789D02*
X2257630Y2256789D01*
X2257628Y2256191D02*
X2278296Y2256191D01*
X2277698Y2256789D02*
X2274705Y2256789D01*
X2275303Y2257388D02*
X2277496Y2257388D01*
X2277496Y2257986D02*
X2275360Y2257986D01*
X2275360Y2258585D02*
X2277049Y2258585D01*
X2276462Y2259183D02*
X2275187Y2259183D01*
X2274588Y2259782D02*
X2275875Y2259782D01*
X2279385Y2257774D02*
X2265101Y2272336D01*
X2259310Y2229627D02*
X2258079Y2228396D01*
X2286487Y2229557D02*
X2286606Y2230440D01*
X2307202Y2229246D02*
X2308058Y2228292D01*
X2332160Y2255000D02*
X2332835Y2255121D01*
X2330363Y2310057D02*
X2304733Y2310057D01*
X2305331Y2310655D02*
X2329765Y2310655D01*
X2329166Y2311254D02*
X2305367Y2311254D01*
X2305367Y2311852D02*
X2328568Y2311852D01*
X2327969Y2312451D02*
X2305173Y2312451D01*
X2304574Y2313049D02*
X2327371Y2313049D01*
X2319954Y2314398D02*
X2318767Y2314398D01*
X2333159Y0189102D02*
X2195351Y0189102D01*
X2181745Y0175496D01*
X2181745Y0125969D01*
X2207368Y0100346D01*
X2217528Y0100346D01*
X2221907Y0095967D01*
X2221954Y0038975D01*
X2254138Y0021131D01*
X2308138Y0020995D01*
X2344264Y0057121D01*
X2344264Y0174088D01*
X2332026Y0186326D01*
X2196186Y0186326D01*
X2184456Y0174596D01*
X2184456Y0126556D01*
X2208481Y0102531D01*
X2218463Y0102531D01*
X2224149Y0096845D01*
X2224149Y0039739D01*
X2254006Y0023197D01*
X2307760Y0023252D01*
X2341387Y0056879D01*
X2341387Y0173888D01*
X2331119Y0184156D01*
X2197043Y0184156D01*
X2186932Y0174044D01*
X2186932Y0126850D01*
X2209251Y0104531D01*
X2219220Y0104531D01*
X2226213Y0097539D01*
X2226118Y0040578D01*
X2253394Y0025529D01*
X2307478Y0025529D01*
X2339024Y0057074D01*
X2339024Y0173743D01*
X2330699Y0182068D01*
X2197718Y0182068D01*
X2198014Y0182364D01*
X2197718Y0182068D02*
X2189180Y0173530D01*
X2189180Y0127157D01*
X2209650Y0106687D01*
X2219896Y0106687D01*
X2228284Y0098300D01*
X2228284Y0044165D01*
X2228248Y0041550D01*
X2253007Y0027590D01*
X2253191Y0027590D01*
X2307006Y0027564D01*
X2335925Y0056483D01*
X2335925Y0098741D01*
X2335887Y0105428D01*
X2334043Y0103345D02*
X2297595Y0103345D01*
X2297682Y0103432D02*
X2296576Y0102326D01*
X2295011Y0102326D01*
X2293904Y0103432D01*
X2293904Y0104997D01*
X2295011Y0106104D01*
X2296576Y0106104D01*
X2297682Y0104997D01*
X2297682Y0103432D01*
X2297682Y0103944D02*
X2333427Y0103944D01*
X2332811Y0104542D02*
X2297682Y0104542D01*
X2297538Y0105141D02*
X2332195Y0105141D01*
X2331578Y0105739D02*
X2296940Y0105739D01*
X2294647Y0105739D02*
X2229196Y0105739D01*
X2229205Y0106256D02*
X2229104Y0106759D01*
X2229298Y0106953D01*
X2330563Y0106726D01*
X2334706Y0102702D01*
X2334825Y0098430D01*
X2334825Y0093380D01*
X2324591Y0083341D01*
X2324597Y0080116D01*
X2324532Y0080116D01*
X2323426Y0079010D01*
X2323426Y0077894D01*
X2321439Y0075908D01*
X2321439Y0076671D01*
X2320333Y0077777D01*
X2318768Y0077777D01*
X2317661Y0076671D01*
X2317661Y0075555D01*
X2306531Y0064424D01*
X2305887Y0063780D01*
X2305887Y0061712D01*
X2300848Y0056673D01*
X2243642Y0056673D01*
X2242853Y0057462D01*
X2241288Y0057462D01*
X2240181Y0056356D01*
X2240181Y0055639D01*
X2239187Y0056634D01*
X2239035Y0056634D01*
X2238246Y0057423D01*
X2236681Y0057423D01*
X2235575Y0056316D01*
X2235575Y0054751D01*
X2236681Y0053645D01*
X2238246Y0053645D01*
X2238655Y0054054D01*
X2239981Y0052729D01*
X2240625Y0052084D01*
X2301067Y0052084D01*
X2309287Y0060304D01*
X2309287Y0060644D01*
X2324604Y0075961D01*
X2324658Y0046771D01*
X2306550Y0028664D01*
X2253647Y0028690D01*
X2253296Y0028690D01*
X2241977Y0035072D01*
X2233824Y0040587D01*
X2234058Y0040587D01*
X2235165Y0041694D01*
X2235165Y0043258D01*
X2234058Y0044365D01*
X2232493Y0044365D01*
X2231387Y0043258D01*
X2231387Y0042235D01*
X2229376Y0043596D01*
X2229377Y0043703D01*
X2229384Y0043709D01*
X2229384Y0044157D01*
X2229390Y0044606D01*
X2229384Y0044612D01*
X2229384Y0052163D01*
X2230422Y0051125D01*
X2231986Y0051125D01*
X2233093Y0052232D01*
X2233093Y0053797D01*
X2231986Y0054903D01*
X2230422Y0054903D01*
X2229384Y0053865D01*
X2229384Y0098756D01*
X2229086Y0099053D01*
X2229205Y0106256D01*
X2229189Y0106338D02*
X2330962Y0106338D01*
X2334659Y0102747D02*
X2296997Y0102747D01*
X2294590Y0102747D02*
X2281721Y0102747D01*
X2281748Y0102774D02*
X2280642Y0101667D01*
X2279077Y0101667D01*
X2277970Y0102774D01*
X2277970Y0104338D01*
X2279077Y0105445D01*
X2280642Y0105445D01*
X2281748Y0104338D01*
X2281748Y0102774D01*
X2281748Y0103345D02*
X2293991Y0103345D01*
X2293904Y0103944D02*
X2281748Y0103944D01*
X2281544Y0104542D02*
X2293904Y0104542D01*
X2294048Y0105141D02*
X2280946Y0105141D01*
X2278773Y0105141D02*
X2229187Y0105141D01*
X2229177Y0104542D02*
X2278174Y0104542D01*
X2277970Y0103944D02*
X2229167Y0103944D01*
X2229157Y0103345D02*
X2277970Y0103345D01*
X2277997Y0102747D02*
X2229147Y0102747D01*
X2229137Y0102148D02*
X2278595Y0102148D01*
X2281123Y0102148D02*
X2334721Y0102148D01*
X2334738Y0101550D02*
X2229127Y0101550D01*
X2229118Y0100951D02*
X2273184Y0100951D01*
X2273537Y0101304D02*
X2272431Y0100198D01*
X2272431Y0099104D01*
X2260112Y0087021D01*
X2258975Y0087021D01*
X2257868Y0085914D01*
X2257868Y0084349D01*
X2258975Y0083243D01*
X2260539Y0083243D01*
X2261646Y0084349D01*
X2261646Y0085444D01*
X2273965Y0097527D01*
X2275102Y0097527D01*
X2276209Y0098633D01*
X2276209Y0100198D01*
X2275102Y0101304D01*
X2273537Y0101304D01*
X2272586Y0100353D02*
X2229108Y0100353D01*
X2229098Y0099754D02*
X2272431Y0099754D01*
X2272431Y0099156D02*
X2229088Y0099156D01*
X2229384Y0098557D02*
X2271874Y0098557D01*
X2271264Y0097959D02*
X2229384Y0097959D01*
X2229384Y0097360D02*
X2270653Y0097360D01*
X2270043Y0096762D02*
X2229384Y0096762D01*
X2229384Y0096163D02*
X2269433Y0096163D01*
X2268823Y0095565D02*
X2229384Y0095565D01*
X2229384Y0094966D02*
X2268213Y0094966D01*
X2267602Y0094368D02*
X2229384Y0094368D01*
X2229384Y0093769D02*
X2266992Y0093769D01*
X2266382Y0093171D02*
X2229384Y0093171D01*
X2229384Y0092572D02*
X2259066Y0092572D01*
X2259428Y0092935D02*
X2258322Y0091828D01*
X2258322Y0090263D01*
X2259428Y0089157D01*
X2260993Y0089157D01*
X2262100Y0090263D01*
X2262100Y0091828D01*
X2260993Y0092935D01*
X2259428Y0092935D01*
X2258467Y0091974D02*
X2229384Y0091974D01*
X2229384Y0091375D02*
X2258322Y0091375D01*
X2258322Y0090777D02*
X2229384Y0090777D01*
X2229384Y0090178D02*
X2258407Y0090178D01*
X2259005Y0089580D02*
X2229384Y0089580D01*
X2229384Y0088981D02*
X2262111Y0088981D01*
X2262721Y0089580D02*
X2261416Y0089580D01*
X2262015Y0090178D02*
X2263331Y0090178D01*
X2263941Y0090777D02*
X2262100Y0090777D01*
X2262100Y0091375D02*
X2264551Y0091375D01*
X2265162Y0091974D02*
X2261954Y0091974D01*
X2261355Y0092572D02*
X2265772Y0092572D01*
X2267083Y0090777D02*
X2296864Y0090777D01*
X2296404Y0090317D02*
X2296404Y0088752D01*
X2297511Y0087646D01*
X2298627Y0087646D01*
X2304068Y0082205D01*
X2304068Y0076129D01*
X2303561Y0076635D01*
X2301996Y0076635D01*
X2300890Y0075529D01*
X2300890Y0073964D01*
X2301996Y0072857D01*
X2303481Y0072857D01*
X2303481Y0068059D01*
X2302693Y0067270D01*
X2302693Y0065705D01*
X2303799Y0064599D01*
X2305364Y0064599D01*
X2306470Y0065705D01*
X2306470Y0067270D01*
X2305681Y0068059D01*
X2305681Y0072715D01*
X2306268Y0073301D01*
X2306268Y0083116D01*
X2305623Y0083760D01*
X2301755Y0087629D01*
X2302933Y0087629D01*
X2304040Y0088735D01*
X2304040Y0090300D01*
X2302933Y0091407D01*
X2301368Y0091407D01*
X2300262Y0090300D01*
X2300262Y0089122D01*
X2300182Y0089201D01*
X2300182Y0090317D01*
X2299076Y0091424D01*
X2297511Y0091424D01*
X2296404Y0090317D01*
X2296404Y0090178D02*
X2266473Y0090178D01*
X2265863Y0089580D02*
X2296404Y0089580D01*
X2296404Y0088981D02*
X2265252Y0088981D01*
X2264642Y0088383D02*
X2296774Y0088383D01*
X2297372Y0087784D02*
X2264032Y0087784D01*
X2263422Y0087186D02*
X2299087Y0087186D01*
X2299685Y0086587D02*
X2282783Y0086587D01*
X2282538Y0086832D02*
X2280973Y0086832D01*
X2279866Y0085726D01*
X2279866Y0084161D01*
X2280973Y0083054D01*
X2282538Y0083054D01*
X2283644Y0084161D01*
X2283644Y0085726D01*
X2282538Y0086832D01*
X2283381Y0085989D02*
X2300284Y0085989D01*
X2300882Y0085390D02*
X2283644Y0085390D01*
X2283644Y0084792D02*
X2301481Y0084792D01*
X2302079Y0084193D02*
X2283644Y0084193D01*
X2283992Y0083553D02*
X2282885Y0082446D01*
X2282885Y0080881D01*
X2283992Y0079775D01*
X2285557Y0079775D01*
X2286663Y0080881D01*
X2286663Y0082446D01*
X2285557Y0083553D01*
X2283992Y0083553D01*
X2283436Y0082996D02*
X2229384Y0082996D01*
X2229384Y0082398D02*
X2282885Y0082398D01*
X2282885Y0081799D02*
X2229384Y0081799D01*
X2229384Y0081201D02*
X2282885Y0081201D01*
X2283165Y0080602D02*
X2229384Y0080602D01*
X2229384Y0080003D02*
X2283763Y0080003D01*
X2285786Y0080003D02*
X2288609Y0080003D01*
X2288885Y0079727D02*
X2290450Y0079727D01*
X2291556Y0080834D01*
X2291556Y0082399D01*
X2290450Y0083505D01*
X2288885Y0083505D01*
X2287778Y0082399D01*
X2287778Y0080834D01*
X2288885Y0079727D01*
X2288010Y0080602D02*
X2286384Y0080602D01*
X2286663Y0081201D02*
X2287778Y0081201D01*
X2287778Y0081799D02*
X2286663Y0081799D01*
X2286663Y0082398D02*
X2287778Y0082398D01*
X2288376Y0082996D02*
X2286113Y0082996D01*
X2283078Y0083595D02*
X2302678Y0083595D01*
X2303276Y0082996D02*
X2290959Y0082996D01*
X2291556Y0082398D02*
X2303875Y0082398D01*
X2304068Y0081799D02*
X2291556Y0081799D01*
X2291556Y0081201D02*
X2304068Y0081201D01*
X2304068Y0080602D02*
X2291324Y0080602D01*
X2290726Y0080003D02*
X2304068Y0080003D01*
X2304068Y0079405D02*
X2229384Y0079405D01*
X2229384Y0078806D02*
X2304068Y0078806D01*
X2304068Y0078208D02*
X2229384Y0078208D01*
X2229384Y0077609D02*
X2304068Y0077609D01*
X2304068Y0077011D02*
X2229384Y0077011D01*
X2229384Y0076412D02*
X2301773Y0076412D01*
X2301175Y0075814D02*
X2229384Y0075814D01*
X2229384Y0075215D02*
X2300890Y0075215D01*
X2300890Y0074617D02*
X2229384Y0074617D01*
X2229384Y0074018D02*
X2300890Y0074018D01*
X2301434Y0073420D02*
X2229384Y0073420D01*
X2229384Y0072821D02*
X2303481Y0072821D01*
X2303481Y0072223D02*
X2229384Y0072223D01*
X2229384Y0071624D02*
X2303481Y0071624D01*
X2303481Y0071026D02*
X2229384Y0071026D01*
X2229384Y0070427D02*
X2303481Y0070427D01*
X2303481Y0069829D02*
X2229384Y0069829D01*
X2229384Y0069230D02*
X2303481Y0069230D01*
X2303481Y0068632D02*
X2229384Y0068632D01*
X2229384Y0068033D02*
X2303456Y0068033D01*
X2302857Y0067435D02*
X2229384Y0067435D01*
X2229384Y0066836D02*
X2302693Y0066836D01*
X2302693Y0066238D02*
X2229384Y0066238D01*
X2229384Y0065639D02*
X2302759Y0065639D01*
X2303357Y0065041D02*
X2229384Y0065041D01*
X2229384Y0064442D02*
X2306549Y0064442D01*
X2305950Y0063844D02*
X2229384Y0063844D01*
X2229384Y0063245D02*
X2305887Y0063245D01*
X2305887Y0062647D02*
X2229384Y0062647D01*
X2229384Y0062048D02*
X2305887Y0062048D01*
X2305624Y0061450D02*
X2229384Y0061450D01*
X2229384Y0060851D02*
X2305026Y0060851D01*
X2304427Y0060253D02*
X2229384Y0060253D01*
X2229384Y0059654D02*
X2303829Y0059654D01*
X2303230Y0059056D02*
X2229384Y0059056D01*
X2229384Y0058457D02*
X2302632Y0058457D01*
X2302033Y0057859D02*
X2229384Y0057859D01*
X2229384Y0057260D02*
X2236519Y0057260D01*
X2235920Y0056662D02*
X2229384Y0056662D01*
X2229384Y0056063D02*
X2235575Y0056063D01*
X2235575Y0055465D02*
X2229384Y0055465D01*
X2229384Y0054866D02*
X2230385Y0054866D01*
X2229786Y0054268D02*
X2229384Y0054268D01*
X2230275Y0056459D02*
X2231229Y0057315D01*
X2232023Y0054866D02*
X2235575Y0054866D01*
X2236059Y0054268D02*
X2232622Y0054268D01*
X2233093Y0053669D02*
X2236657Y0053669D01*
X2238270Y0053669D02*
X2239040Y0053669D01*
X2239639Y0053070D02*
X2233093Y0053070D01*
X2233093Y0052472D02*
X2240237Y0052472D01*
X2241081Y0053184D02*
X2300612Y0053184D01*
X2308187Y0060759D01*
X2308187Y0061099D01*
X2325315Y0078227D01*
X2323426Y0078208D02*
X2306268Y0078208D01*
X2306268Y0078806D02*
X2320416Y0078806D01*
X2320427Y0078795D02*
X2321992Y0078795D01*
X2323099Y0079901D01*
X2323099Y0081466D01*
X2321992Y0082573D01*
X2320427Y0082573D01*
X2319321Y0081466D01*
X2319321Y0079901D01*
X2320427Y0078795D01*
X2319817Y0079405D02*
X2306268Y0079405D01*
X2306268Y0080003D02*
X2319321Y0080003D01*
X2319321Y0080602D02*
X2306268Y0080602D01*
X2306268Y0081201D02*
X2319321Y0081201D01*
X2319654Y0081799D02*
X2306268Y0081799D01*
X2306268Y0082398D02*
X2320252Y0082398D01*
X2322167Y0082398D02*
X2324592Y0082398D01*
X2324591Y0082996D02*
X2306268Y0082996D01*
X2305789Y0083595D02*
X2324850Y0083595D01*
X2325460Y0084193D02*
X2305190Y0084193D01*
X2304592Y0084792D02*
X2326070Y0084792D01*
X2326680Y0085390D02*
X2303993Y0085390D01*
X2303395Y0085989D02*
X2327290Y0085989D01*
X2327900Y0086587D02*
X2302796Y0086587D01*
X2302198Y0087186D02*
X2328510Y0087186D01*
X2329121Y0087784D02*
X2303088Y0087784D01*
X2303687Y0088383D02*
X2329731Y0088383D01*
X2330341Y0088981D02*
X2304040Y0088981D01*
X2304040Y0089580D02*
X2330951Y0089580D01*
X2331561Y0090178D02*
X2304040Y0090178D01*
X2303563Y0090777D02*
X2332171Y0090777D01*
X2332781Y0091375D02*
X2302965Y0091375D01*
X2301337Y0091375D02*
X2299124Y0091375D01*
X2299723Y0090777D02*
X2300738Y0090777D01*
X2300262Y0090178D02*
X2300182Y0090178D01*
X2300182Y0089580D02*
X2300262Y0089580D01*
X2298293Y0089535D02*
X2305168Y0082660D01*
X2305168Y0073757D01*
X2304581Y0073171D01*
X2304581Y0066488D01*
X2305806Y0065041D02*
X2307147Y0065041D01*
X2307746Y0065639D02*
X2306404Y0065639D01*
X2306470Y0066238D02*
X2308344Y0066238D01*
X2308943Y0066836D02*
X2306470Y0066836D01*
X2306306Y0067435D02*
X2309541Y0067435D01*
X2310140Y0068033D02*
X2305707Y0068033D01*
X2305681Y0068632D02*
X2310738Y0068632D01*
X2311337Y0069230D02*
X2305681Y0069230D01*
X2305681Y0069829D02*
X2311936Y0069829D01*
X2312534Y0070427D02*
X2305681Y0070427D01*
X2305681Y0071026D02*
X2313133Y0071026D01*
X2313731Y0071624D02*
X2305681Y0071624D01*
X2305681Y0072223D02*
X2314330Y0072223D01*
X2314928Y0072821D02*
X2305788Y0072821D01*
X2306268Y0073420D02*
X2315527Y0073420D01*
X2316125Y0074018D02*
X2306268Y0074018D01*
X2306268Y0074617D02*
X2316724Y0074617D01*
X2317322Y0075215D02*
X2306268Y0075215D01*
X2306268Y0075814D02*
X2317661Y0075814D01*
X2317661Y0076412D02*
X2306268Y0076412D01*
X2306268Y0077011D02*
X2318002Y0077011D01*
X2318600Y0077609D02*
X2306268Y0077609D01*
X2304068Y0076412D02*
X2303784Y0076412D01*
X2306987Y0063324D02*
X2306987Y0061256D01*
X2301303Y0055573D01*
X2242070Y0055573D01*
X2240487Y0056662D02*
X2239007Y0056662D01*
X2238409Y0057260D02*
X2241086Y0057260D01*
X2240181Y0056063D02*
X2239757Y0056063D01*
X2238731Y0055534D02*
X2241081Y0053184D01*
X2238731Y0055534D02*
X2237464Y0055534D01*
X2235615Y0052217D02*
X2234050Y0052217D01*
X2232944Y0051110D01*
X2232944Y0049545D01*
X2234050Y0048439D01*
X2235615Y0048439D01*
X2236722Y0049545D01*
X2236722Y0051110D01*
X2235615Y0052217D01*
X2235958Y0051873D02*
X2320028Y0051873D01*
X2320554Y0052399D02*
X2319447Y0051293D01*
X2319447Y0049728D01*
X2320554Y0048621D01*
X2322118Y0048621D01*
X2323225Y0049728D01*
X2323225Y0051293D01*
X2322118Y0052399D01*
X2320554Y0052399D01*
X2319447Y0051275D02*
X2236557Y0051275D01*
X2236722Y0050676D02*
X2319447Y0050676D01*
X2319447Y0050078D02*
X2236722Y0050078D01*
X2236656Y0049479D02*
X2319696Y0049479D01*
X2320294Y0048881D02*
X2236057Y0048881D01*
X2233608Y0048881D02*
X2229384Y0048881D01*
X2229384Y0049479D02*
X2233010Y0049479D01*
X2232944Y0050078D02*
X2229384Y0050078D01*
X2229384Y0050676D02*
X2232944Y0050676D01*
X2233109Y0051275D02*
X2232136Y0051275D01*
X2232735Y0051873D02*
X2233707Y0051873D01*
X2230272Y0051275D02*
X2229384Y0051275D01*
X2229384Y0051873D02*
X2229673Y0051873D01*
X2229384Y0048282D02*
X2324655Y0048282D01*
X2324656Y0047684D02*
X2229384Y0047684D01*
X2229384Y0047085D02*
X2324657Y0047085D01*
X2324373Y0046487D02*
X2229384Y0046487D01*
X2229384Y0045888D02*
X2323775Y0045888D01*
X2323176Y0045290D02*
X2229384Y0045290D01*
X2229384Y0044691D02*
X2322578Y0044691D01*
X2321979Y0044093D02*
X2245385Y0044093D01*
X2245194Y0044284D02*
X2243629Y0044284D01*
X2242523Y0043177D01*
X2242523Y0041612D01*
X2243629Y0040506D01*
X2245194Y0040506D01*
X2246300Y0041612D01*
X2246300Y0043177D01*
X2245194Y0044284D01*
X2245983Y0043494D02*
X2321381Y0043494D01*
X2320782Y0042896D02*
X2246300Y0042896D01*
X2246300Y0042297D02*
X2320184Y0042297D01*
X2319585Y0041699D02*
X2246300Y0041699D01*
X2245788Y0041100D02*
X2318987Y0041100D01*
X2318388Y0040502D02*
X2243462Y0040502D01*
X2243552Y0040411D02*
X2242445Y0041518D01*
X2240881Y0041518D01*
X2239774Y0040411D01*
X2239774Y0038846D01*
X2240881Y0037740D01*
X2242445Y0037740D01*
X2243552Y0038846D01*
X2243552Y0040411D01*
X2243552Y0039903D02*
X2317790Y0039903D01*
X2317191Y0039305D02*
X2243552Y0039305D01*
X2243412Y0038706D02*
X2316593Y0038706D01*
X2315994Y0038108D02*
X2290403Y0038108D01*
X2289864Y0038647D02*
X2288299Y0038647D01*
X2287192Y0037540D01*
X2287192Y0035975D01*
X2288299Y0034869D01*
X2289864Y0034869D01*
X2290970Y0035975D01*
X2290970Y0037540D01*
X2289864Y0038647D01*
X2290970Y0037509D02*
X2315396Y0037509D01*
X2314797Y0036911D02*
X2290970Y0036911D01*
X2290970Y0036312D02*
X2314199Y0036312D01*
X2313600Y0035714D02*
X2290708Y0035714D01*
X2290110Y0035115D02*
X2313002Y0035115D01*
X2312403Y0034517D02*
X2271401Y0034517D01*
X2270874Y0035043D02*
X2271981Y0033937D01*
X2271981Y0032372D01*
X2270874Y0031266D01*
X2269309Y0031266D01*
X2268203Y0032372D01*
X2268203Y0033937D01*
X2269309Y0035043D01*
X2270874Y0035043D01*
X2271981Y0033918D02*
X2311805Y0033918D01*
X2311206Y0033320D02*
X2271981Y0033320D01*
X2271981Y0032721D02*
X2310608Y0032721D01*
X2310009Y0032123D02*
X2271731Y0032123D01*
X2271133Y0031524D02*
X2309411Y0031524D01*
X2308812Y0030926D02*
X2254141Y0030926D01*
X2253693Y0030477D02*
X2254799Y0031583D01*
X2254799Y0033148D01*
X2253693Y0034255D01*
X2252128Y0034255D01*
X2251021Y0033148D01*
X2251021Y0031583D01*
X2252128Y0030477D01*
X2253693Y0030477D01*
X2254740Y0031524D02*
X2269051Y0031524D01*
X2268452Y0032123D02*
X2254799Y0032123D01*
X2254799Y0032721D02*
X2268203Y0032721D01*
X2268203Y0033320D02*
X2254628Y0033320D01*
X2254029Y0033918D02*
X2268203Y0033918D01*
X2268783Y0034517D02*
X2242962Y0034517D01*
X2241913Y0035115D02*
X2288052Y0035115D01*
X2287454Y0035714D02*
X2241028Y0035714D01*
X2240143Y0036312D02*
X2287192Y0036312D01*
X2287192Y0036911D02*
X2239259Y0036911D01*
X2238374Y0037509D02*
X2287192Y0037509D01*
X2287760Y0038108D02*
X2242813Y0038108D01*
X2240513Y0038108D02*
X2237489Y0038108D01*
X2236604Y0038706D02*
X2239914Y0038706D01*
X2239774Y0039305D02*
X2235719Y0039305D01*
X2234834Y0039903D02*
X2239774Y0039903D01*
X2239864Y0040502D02*
X2233950Y0040502D01*
X2234572Y0041100D02*
X2240463Y0041100D01*
X2242523Y0041699D02*
X2235165Y0041699D01*
X2235165Y0042297D02*
X2242523Y0042297D01*
X2242523Y0042896D02*
X2235165Y0042896D01*
X2234929Y0043494D02*
X2242840Y0043494D01*
X2243438Y0044093D02*
X2234330Y0044093D01*
X2232221Y0044093D02*
X2229384Y0044093D01*
X2229526Y0043494D02*
X2231623Y0043494D01*
X2231387Y0042896D02*
X2230410Y0042896D01*
X2231295Y0042297D02*
X2231387Y0042297D01*
X2228284Y0044165D02*
X2228240Y0044208D01*
X2242863Y0041100D02*
X2243035Y0041100D01*
X2244023Y0033918D02*
X2251791Y0033918D01*
X2251192Y0033320D02*
X2245085Y0033320D01*
X2246146Y0032721D02*
X2251021Y0032721D01*
X2251021Y0032123D02*
X2247208Y0032123D01*
X2248269Y0031524D02*
X2251081Y0031524D01*
X2251679Y0030926D02*
X2249331Y0030926D01*
X2250392Y0030327D02*
X2308214Y0030327D01*
X2307615Y0029729D02*
X2251454Y0029729D01*
X2252515Y0029130D02*
X2307017Y0029130D01*
X2308374Y0018595D02*
X2260716Y0018595D01*
X2258665Y0016544D01*
X2253647Y0028690D02*
X2253647Y0028690D01*
X2257104Y0031682D02*
X2256983Y0032357D01*
X2279266Y0030510D02*
X2279516Y0030581D01*
X2292405Y0031036D02*
X2293856Y0031087D01*
X2308374Y0018595D02*
X2347079Y0057300D01*
X2347079Y0174639D01*
X2333159Y0189102D01*
X2334755Y0100951D02*
X2275455Y0100951D01*
X2276054Y0100353D02*
X2334771Y0100353D01*
X2334788Y0099754D02*
X2331048Y0099754D01*
X2330525Y0100277D02*
X2328960Y0100277D01*
X2327853Y0099171D01*
X2327853Y0097606D01*
X2328960Y0096500D01*
X2330525Y0096500D01*
X2331631Y0097606D01*
X2331631Y0099171D01*
X2330525Y0100277D01*
X2331631Y0099156D02*
X2334805Y0099156D01*
X2334822Y0098557D02*
X2331631Y0098557D01*
X2331631Y0097959D02*
X2334825Y0097959D01*
X2334825Y0097360D02*
X2331385Y0097360D01*
X2330787Y0096762D02*
X2334825Y0096762D01*
X2334825Y0096163D02*
X2272575Y0096163D01*
X2271965Y0095565D02*
X2334825Y0095565D01*
X2334825Y0094966D02*
X2271354Y0094966D01*
X2270744Y0094368D02*
X2334825Y0094368D01*
X2334825Y0093769D02*
X2270134Y0093769D01*
X2269524Y0093171D02*
X2334612Y0093171D01*
X2334002Y0092572D02*
X2268914Y0092572D01*
X2268303Y0091974D02*
X2333392Y0091974D01*
X2328697Y0096762D02*
X2273185Y0096762D01*
X2273795Y0097360D02*
X2328099Y0097360D01*
X2327853Y0097959D02*
X2275534Y0097959D01*
X2276133Y0098557D02*
X2327853Y0098557D01*
X2327853Y0099156D02*
X2276209Y0099156D01*
X2276209Y0099754D02*
X2328437Y0099754D01*
X2324593Y0081799D02*
X2322766Y0081799D01*
X2323099Y0081201D02*
X2324595Y0081201D01*
X2324596Y0080602D02*
X2323099Y0080602D01*
X2323099Y0080003D02*
X2324420Y0080003D01*
X2323821Y0079405D02*
X2322602Y0079405D01*
X2322004Y0078806D02*
X2323426Y0078806D01*
X2323141Y0077609D02*
X2320501Y0077609D01*
X2321099Y0077011D02*
X2322543Y0077011D01*
X2321944Y0076412D02*
X2321439Y0076412D01*
X2319550Y0075888D02*
X2306987Y0063324D01*
X2309494Y0060851D02*
X2311568Y0060851D01*
X2311568Y0060256D02*
X2312675Y0059149D01*
X2314239Y0059149D01*
X2315346Y0060256D01*
X2315346Y0061821D01*
X2314239Y0062927D01*
X2312675Y0062927D01*
X2311568Y0061821D01*
X2311568Y0060256D01*
X2311571Y0060253D02*
X2309236Y0060253D01*
X2308637Y0059654D02*
X2312170Y0059654D01*
X2311568Y0061450D02*
X2310093Y0061450D01*
X2310691Y0062048D02*
X2311795Y0062048D01*
X2311290Y0062647D02*
X2312394Y0062647D01*
X2311888Y0063245D02*
X2324628Y0063245D01*
X2324629Y0062647D02*
X2314520Y0062647D01*
X2315118Y0062048D02*
X2324630Y0062048D01*
X2324631Y0061450D02*
X2315346Y0061450D01*
X2315346Y0060851D02*
X2324632Y0060851D01*
X2324633Y0060253D02*
X2315343Y0060253D01*
X2314744Y0059654D02*
X2324634Y0059654D01*
X2324635Y0059056D02*
X2308039Y0059056D01*
X2307440Y0058457D02*
X2324636Y0058457D01*
X2324637Y0057859D02*
X2306842Y0057859D01*
X2306243Y0057260D02*
X2324639Y0057260D01*
X2324640Y0056662D02*
X2305645Y0056662D01*
X2305046Y0056063D02*
X2324641Y0056063D01*
X2324642Y0055465D02*
X2304448Y0055465D01*
X2303849Y0054866D02*
X2324643Y0054866D01*
X2324644Y0054268D02*
X2303250Y0054268D01*
X2302652Y0053669D02*
X2324645Y0053669D01*
X2324646Y0053070D02*
X2302053Y0053070D01*
X2301455Y0052472D02*
X2324647Y0052472D01*
X2324648Y0051873D02*
X2322644Y0051873D01*
X2323225Y0051275D02*
X2324650Y0051275D01*
X2324651Y0050676D02*
X2323225Y0050676D01*
X2323225Y0050078D02*
X2324652Y0050078D01*
X2324653Y0049479D02*
X2322976Y0049479D01*
X2322378Y0048881D02*
X2324654Y0048881D01*
X2316381Y0045750D02*
X2316381Y0044563D01*
X2301435Y0057260D02*
X2243055Y0057260D01*
X2232423Y0077911D02*
X2231540Y0078029D01*
X2229384Y0083595D02*
X2258623Y0083595D01*
X2258024Y0084193D02*
X2254208Y0084193D01*
X2253758Y0083743D02*
X2254865Y0084850D01*
X2254865Y0086415D01*
X2253758Y0087521D01*
X2252193Y0087521D01*
X2251087Y0086415D01*
X2251087Y0084850D01*
X2252193Y0083743D01*
X2253758Y0083743D01*
X2254806Y0084792D02*
X2257868Y0084792D01*
X2257868Y0085390D02*
X2254865Y0085390D01*
X2254865Y0085989D02*
X2257942Y0085989D01*
X2258541Y0086587D02*
X2254692Y0086587D01*
X2254094Y0087186D02*
X2260280Y0087186D01*
X2260890Y0087784D02*
X2229384Y0087784D01*
X2229384Y0087186D02*
X2251857Y0087186D01*
X2251259Y0086587D02*
X2229384Y0086587D01*
X2229384Y0085989D02*
X2251087Y0085989D01*
X2251087Y0085390D02*
X2229384Y0085390D01*
X2229384Y0084792D02*
X2251145Y0084792D01*
X2251744Y0084193D02*
X2229384Y0084193D01*
X2229384Y0088383D02*
X2261500Y0088383D01*
X2262812Y0086587D02*
X2280728Y0086587D01*
X2280129Y0085989D02*
X2262201Y0085989D01*
X2261646Y0085390D02*
X2279866Y0085390D01*
X2279866Y0084792D02*
X2261646Y0084792D01*
X2261490Y0084193D02*
X2279866Y0084193D01*
X2280432Y0083595D02*
X2260891Y0083595D01*
X2259757Y0085132D02*
X2274320Y0099416D01*
X2267693Y0091375D02*
X2297462Y0091375D01*
X2286008Y0103882D02*
X2286520Y0104395D01*
X2319669Y0071026D02*
X2324613Y0071026D01*
X2324612Y0071624D02*
X2320267Y0071624D01*
X2320866Y0072223D02*
X2324611Y0072223D01*
X2324610Y0072821D02*
X2321465Y0072821D01*
X2322063Y0073420D02*
X2324609Y0073420D01*
X2324608Y0074018D02*
X2322662Y0074018D01*
X2323260Y0074617D02*
X2324607Y0074617D01*
X2324606Y0075215D02*
X2323859Y0075215D01*
X2324457Y0075814D02*
X2324604Y0075814D01*
X2324614Y0070427D02*
X2319070Y0070427D01*
X2318472Y0069829D02*
X2324615Y0069829D01*
X2324617Y0069230D02*
X2317873Y0069230D01*
X2317275Y0068632D02*
X2324618Y0068632D01*
X2324619Y0068033D02*
X2316676Y0068033D01*
X2316078Y0067435D02*
X2324620Y0067435D01*
X2324621Y0066836D02*
X2315479Y0066836D01*
X2314881Y0066238D02*
X2324622Y0066238D01*
X2324623Y0065639D02*
X2314282Y0065639D01*
X2313684Y0065041D02*
X2324624Y0065041D01*
X2324625Y0064442D02*
X2313085Y0064442D01*
X2312487Y0063844D02*
X2324626Y0063844D01*
X2321736Y0069030D02*
X2321228Y0069245D01*
X2236747Y0106937D02*
X2229281Y0106937D01*
X2230380Y0106438D02*
X2231610Y0105207D01*
X0189827Y0172235D02*
X0189827Y0034427D01*
X0175364Y0020507D01*
X0058025Y0020507D01*
X0019320Y0059212D01*
X0019320Y0106870D01*
X0017269Y0108921D01*
X0021856Y0113448D02*
X0039700Y0145633D01*
X0096692Y0145680D01*
X0101071Y0150058D01*
X0101071Y0160218D01*
X0126694Y0185841D01*
X0176221Y0185841D01*
X0189827Y0172235D01*
X0187051Y0171401D02*
X0187051Y0035561D01*
X0174813Y0023322D01*
X0057846Y0023322D01*
X0021720Y0059448D01*
X0021856Y0113448D01*
X0023922Y0113580D02*
X0040464Y0143437D01*
X0097570Y0143437D01*
X0103256Y0149124D01*
X0103256Y0159106D01*
X0127281Y0183131D01*
X0175321Y0183131D01*
X0187051Y0171401D01*
X0184881Y0170543D02*
X0184881Y0036467D01*
X0174613Y0026200D01*
X0057603Y0026200D01*
X0023977Y0059826D01*
X0023922Y0113580D01*
X0026254Y0114192D02*
X0041303Y0141468D01*
X0098263Y0141374D01*
X0105256Y0148367D01*
X0105256Y0158336D01*
X0127575Y0180654D01*
X0174769Y0180654D01*
X0184881Y0170543D01*
X0183089Y0169572D02*
X0182793Y0169868D01*
X0182793Y0036888D01*
X0174468Y0028563D01*
X0057799Y0028563D01*
X0026254Y0060108D01*
X0026254Y0114192D01*
X0028315Y0114396D02*
X0028289Y0060581D01*
X0057208Y0031661D01*
X0099465Y0031661D01*
X0106153Y0031699D01*
X0104434Y0033918D02*
X0092970Y0033918D01*
X0093557Y0033320D02*
X0103853Y0033320D01*
X0103427Y0032881D02*
X0099155Y0032761D01*
X0094105Y0032761D01*
X0084066Y0042996D01*
X0080841Y0042990D01*
X0080841Y0043054D01*
X0079734Y0044161D01*
X0078619Y0044161D01*
X0076632Y0046147D01*
X0077395Y0046147D01*
X0078502Y0047254D01*
X0078502Y0048818D01*
X0077395Y0049925D01*
X0076280Y0049925D01*
X0065149Y0061055D01*
X0064505Y0061700D01*
X0062437Y0061700D01*
X0057398Y0066739D01*
X0057398Y0123945D01*
X0058187Y0124734D01*
X0058187Y0126299D01*
X0057080Y0127405D01*
X0056364Y0127405D01*
X0057359Y0128400D01*
X0057359Y0128551D01*
X0058148Y0129340D01*
X0058148Y0130905D01*
X0057041Y0132012D01*
X0055476Y0132012D01*
X0054370Y0130905D01*
X0054370Y0129340D01*
X0054779Y0128931D01*
X0053453Y0127606D01*
X0052809Y0126961D01*
X0052809Y0066519D01*
X0061029Y0058300D01*
X0061368Y0058300D01*
X0076686Y0042982D01*
X0047496Y0042929D01*
X0029389Y0061036D01*
X0029415Y0113940D01*
X0029415Y0114290D01*
X0035797Y0125610D01*
X0041312Y0133763D01*
X0041312Y0133528D01*
X0042418Y0132422D01*
X0043983Y0132422D01*
X0045090Y0133528D01*
X0045090Y0135093D01*
X0043983Y0136200D01*
X0042960Y0136200D01*
X0044320Y0138211D01*
X0044428Y0138209D01*
X0044434Y0138203D01*
X0044882Y0138203D01*
X0045330Y0138197D01*
X0045337Y0138203D01*
X0052888Y0138203D01*
X0051850Y0137165D01*
X0051850Y0135600D01*
X0052957Y0134493D01*
X0054521Y0134493D01*
X0055628Y0135600D01*
X0055628Y0137165D01*
X0054590Y0138203D01*
X0099481Y0138203D01*
X0099778Y0138500D01*
X0106981Y0138381D01*
X0107484Y0138482D01*
X0107678Y0138288D01*
X0107451Y0037023D01*
X0103427Y0032881D01*
X0105016Y0034517D02*
X0092383Y0034517D01*
X0091796Y0035115D02*
X0105597Y0035115D01*
X0106178Y0035714D02*
X0091209Y0035714D01*
X0090622Y0036312D02*
X0097974Y0036312D01*
X0098331Y0035955D02*
X0099896Y0035955D01*
X0101002Y0037062D01*
X0101002Y0038627D01*
X0099896Y0039733D01*
X0098331Y0039733D01*
X0097224Y0038627D01*
X0097224Y0037062D01*
X0098331Y0035955D01*
X0097376Y0036911D02*
X0090035Y0036911D01*
X0089448Y0037509D02*
X0097224Y0037509D01*
X0097224Y0038108D02*
X0088860Y0038108D01*
X0088273Y0038706D02*
X0097304Y0038706D01*
X0097902Y0039305D02*
X0087686Y0039305D01*
X0087099Y0039903D02*
X0107457Y0039903D01*
X0107456Y0039305D02*
X0100324Y0039305D01*
X0100923Y0038706D02*
X0107454Y0038706D01*
X0107453Y0038108D02*
X0101002Y0038108D01*
X0101002Y0037509D02*
X0107452Y0037509D01*
X0107341Y0036911D02*
X0100851Y0036911D01*
X0100253Y0036312D02*
X0106760Y0036312D01*
X0107458Y0040502D02*
X0086512Y0040502D01*
X0085925Y0041100D02*
X0107460Y0041100D01*
X0107461Y0041699D02*
X0085338Y0041699D01*
X0084751Y0042297D02*
X0107462Y0042297D01*
X0107464Y0042896D02*
X0084164Y0042896D01*
X0082395Y0044691D02*
X0107468Y0044691D01*
X0107466Y0044093D02*
X0079802Y0044093D01*
X0080401Y0043494D02*
X0107465Y0043494D01*
X0107469Y0045290D02*
X0082993Y0045290D01*
X0083298Y0045594D02*
X0082191Y0044488D01*
X0080626Y0044488D01*
X0079520Y0045594D01*
X0079520Y0047159D01*
X0080626Y0048266D01*
X0082191Y0048266D01*
X0083298Y0047159D01*
X0083298Y0045594D01*
X0083298Y0045888D02*
X0107470Y0045888D01*
X0107472Y0046487D02*
X0083298Y0046487D01*
X0083298Y0047085D02*
X0107473Y0047085D01*
X0107474Y0047684D02*
X0082773Y0047684D01*
X0080045Y0047684D02*
X0078502Y0047684D01*
X0078502Y0048282D02*
X0107476Y0048282D01*
X0107477Y0048881D02*
X0078439Y0048881D01*
X0077841Y0049479D02*
X0107479Y0049479D01*
X0107480Y0050078D02*
X0076127Y0050078D01*
X0075528Y0050676D02*
X0107481Y0050676D01*
X0107483Y0051275D02*
X0074930Y0051275D01*
X0074331Y0051873D02*
X0107484Y0051873D01*
X0107485Y0052472D02*
X0073733Y0052472D01*
X0073134Y0053070D02*
X0107487Y0053070D01*
X0107488Y0053669D02*
X0072536Y0053669D01*
X0071937Y0054268D02*
X0107489Y0054268D01*
X0107491Y0054866D02*
X0071339Y0054866D01*
X0070740Y0055465D02*
X0107492Y0055465D01*
X0107493Y0056063D02*
X0070142Y0056063D01*
X0069543Y0056662D02*
X0107495Y0056662D01*
X0107496Y0057260D02*
X0068945Y0057260D01*
X0068346Y0057859D02*
X0107497Y0057859D01*
X0107499Y0058457D02*
X0067748Y0058457D01*
X0067149Y0059056D02*
X0107500Y0059056D01*
X0107501Y0059654D02*
X0066551Y0059654D01*
X0065952Y0060253D02*
X0107503Y0060253D01*
X0107504Y0060851D02*
X0065353Y0060851D01*
X0064755Y0061450D02*
X0066096Y0061450D01*
X0066430Y0061116D02*
X0067995Y0061116D01*
X0068784Y0061905D01*
X0073440Y0061905D01*
X0074026Y0061319D01*
X0083841Y0061319D01*
X0084485Y0061963D01*
X0088354Y0065832D01*
X0088354Y0064653D01*
X0089460Y0063547D01*
X0091025Y0063547D01*
X0092132Y0064653D01*
X0092132Y0066218D01*
X0091025Y0067325D01*
X0089847Y0067325D01*
X0089926Y0067404D01*
X0091042Y0067404D01*
X0092149Y0068511D01*
X0092149Y0070076D01*
X0091042Y0071182D01*
X0089477Y0071182D01*
X0088371Y0070076D01*
X0088371Y0068960D01*
X0082929Y0063519D01*
X0076854Y0063519D01*
X0077360Y0064025D01*
X0077360Y0065590D01*
X0076254Y0066697D01*
X0074689Y0066697D01*
X0073582Y0065590D01*
X0073582Y0064105D01*
X0068784Y0064105D01*
X0067995Y0064894D01*
X0066430Y0064894D01*
X0065324Y0063787D01*
X0065324Y0062223D01*
X0066430Y0061116D01*
X0065498Y0062048D02*
X0062089Y0062048D01*
X0061490Y0062647D02*
X0065324Y0062647D01*
X0065324Y0063245D02*
X0060891Y0063245D01*
X0060293Y0063844D02*
X0065380Y0063844D01*
X0065978Y0064442D02*
X0059694Y0064442D01*
X0059096Y0065041D02*
X0073582Y0065041D01*
X0073582Y0064442D02*
X0068447Y0064442D01*
X0067213Y0063005D02*
X0073895Y0063005D01*
X0074482Y0062419D01*
X0083385Y0062419D01*
X0090260Y0069293D01*
X0092149Y0069230D02*
X0107523Y0069230D01*
X0107522Y0068632D02*
X0092149Y0068632D01*
X0091671Y0068033D02*
X0107520Y0068033D01*
X0107519Y0067435D02*
X0091073Y0067435D01*
X0091514Y0066836D02*
X0107518Y0066836D01*
X0107516Y0066238D02*
X0092112Y0066238D01*
X0092132Y0065639D02*
X0107515Y0065639D01*
X0107514Y0065041D02*
X0092132Y0065041D01*
X0091921Y0064442D02*
X0107512Y0064442D01*
X0107511Y0063844D02*
X0091322Y0063844D01*
X0089163Y0063844D02*
X0086366Y0063844D01*
X0086964Y0064442D02*
X0088565Y0064442D01*
X0088354Y0065041D02*
X0087563Y0065041D01*
X0088161Y0065639D02*
X0088354Y0065639D01*
X0086846Y0067435D02*
X0057398Y0067435D01*
X0057398Y0068033D02*
X0087444Y0068033D01*
X0088043Y0068632D02*
X0057398Y0068632D01*
X0057398Y0069230D02*
X0088371Y0069230D01*
X0088371Y0069829D02*
X0057398Y0069829D01*
X0057398Y0070427D02*
X0088722Y0070427D01*
X0089321Y0071026D02*
X0057398Y0071026D01*
X0057398Y0071624D02*
X0103051Y0071624D01*
X0103051Y0071026D02*
X0091198Y0071026D01*
X0091797Y0070427D02*
X0103634Y0070427D01*
X0104157Y0069904D02*
X0105722Y0069904D01*
X0106829Y0071011D01*
X0106829Y0072576D01*
X0105722Y0073682D01*
X0104157Y0073682D01*
X0103051Y0072576D01*
X0103051Y0071011D01*
X0104157Y0069904D01*
X0106245Y0070427D02*
X0107526Y0070427D01*
X0107524Y0069829D02*
X0092149Y0069829D01*
X0086247Y0066836D02*
X0057398Y0066836D01*
X0057899Y0066238D02*
X0074230Y0066238D01*
X0073631Y0065639D02*
X0058497Y0065639D01*
X0056298Y0066283D02*
X0061981Y0060600D01*
X0064049Y0060600D01*
X0076613Y0048036D01*
X0077735Y0046487D02*
X0079520Y0046487D01*
X0079520Y0047085D02*
X0078334Y0047085D01*
X0079520Y0045888D02*
X0076891Y0045888D01*
X0077490Y0045290D02*
X0079824Y0045290D01*
X0080423Y0044691D02*
X0078088Y0044691D01*
X0076174Y0043494D02*
X0046930Y0043494D01*
X0046332Y0044093D02*
X0075575Y0044093D01*
X0074977Y0044691D02*
X0052348Y0044691D01*
X0052018Y0044361D02*
X0053124Y0045468D01*
X0053124Y0047033D01*
X0052018Y0048139D01*
X0050453Y0048139D01*
X0049346Y0047033D01*
X0049346Y0045468D01*
X0050453Y0044361D01*
X0052018Y0044361D01*
X0052946Y0045290D02*
X0074378Y0045290D01*
X0073780Y0045888D02*
X0053124Y0045888D01*
X0053124Y0046487D02*
X0073181Y0046487D01*
X0072583Y0047085D02*
X0053072Y0047085D01*
X0052473Y0047684D02*
X0071984Y0047684D01*
X0071386Y0048282D02*
X0042142Y0048282D01*
X0041544Y0048881D02*
X0070787Y0048881D01*
X0070189Y0049479D02*
X0040945Y0049479D01*
X0040347Y0050078D02*
X0069590Y0050078D01*
X0068992Y0050676D02*
X0039748Y0050676D01*
X0039150Y0051275D02*
X0068393Y0051275D01*
X0067795Y0051873D02*
X0038551Y0051873D01*
X0037953Y0052472D02*
X0060749Y0052472D01*
X0060981Y0052240D02*
X0062546Y0052240D01*
X0063652Y0053347D01*
X0063652Y0054912D01*
X0062546Y0056018D01*
X0060981Y0056018D01*
X0059874Y0054912D01*
X0059874Y0053347D01*
X0060981Y0052240D01*
X0060151Y0053070D02*
X0037354Y0053070D01*
X0036756Y0053669D02*
X0059874Y0053669D01*
X0059874Y0054268D02*
X0036157Y0054268D01*
X0035559Y0054866D02*
X0059874Y0054866D01*
X0060427Y0055465D02*
X0034960Y0055465D01*
X0034362Y0056063D02*
X0063605Y0056063D01*
X0063100Y0055465D02*
X0064204Y0055465D01*
X0063652Y0054866D02*
X0064802Y0054866D01*
X0065401Y0054268D02*
X0063652Y0054268D01*
X0063652Y0053669D02*
X0065999Y0053669D01*
X0066598Y0053070D02*
X0063376Y0053070D01*
X0062777Y0052472D02*
X0067196Y0052472D01*
X0063007Y0056662D02*
X0033763Y0056662D01*
X0033165Y0057260D02*
X0062408Y0057260D01*
X0061810Y0057859D02*
X0032566Y0057859D01*
X0031968Y0058457D02*
X0060871Y0058457D01*
X0060273Y0059056D02*
X0031369Y0059056D01*
X0030771Y0059654D02*
X0059674Y0059654D01*
X0059076Y0060253D02*
X0030172Y0060253D01*
X0029574Y0060851D02*
X0058477Y0060851D01*
X0057879Y0061450D02*
X0029389Y0061450D01*
X0029389Y0062048D02*
X0057280Y0062048D01*
X0056682Y0062647D02*
X0029390Y0062647D01*
X0029390Y0063245D02*
X0056083Y0063245D01*
X0055485Y0063844D02*
X0029390Y0063844D01*
X0029390Y0064442D02*
X0054886Y0064442D01*
X0054288Y0065041D02*
X0029391Y0065041D01*
X0029391Y0065639D02*
X0053689Y0065639D01*
X0053091Y0066238D02*
X0029391Y0066238D01*
X0029392Y0066836D02*
X0052809Y0066836D01*
X0052809Y0067435D02*
X0029392Y0067435D01*
X0029392Y0068033D02*
X0052809Y0068033D01*
X0052809Y0068632D02*
X0029392Y0068632D01*
X0029393Y0069230D02*
X0052809Y0069230D01*
X0052809Y0069829D02*
X0029393Y0069829D01*
X0029393Y0070427D02*
X0052809Y0070427D01*
X0052809Y0071026D02*
X0029394Y0071026D01*
X0029394Y0071624D02*
X0052809Y0071624D01*
X0052809Y0072223D02*
X0029394Y0072223D01*
X0029395Y0072821D02*
X0052809Y0072821D01*
X0052809Y0073420D02*
X0029395Y0073420D01*
X0029395Y0074018D02*
X0052809Y0074018D01*
X0052809Y0074617D02*
X0029395Y0074617D01*
X0029396Y0075215D02*
X0052809Y0075215D01*
X0052809Y0075814D02*
X0029396Y0075814D01*
X0029396Y0076412D02*
X0052809Y0076412D01*
X0052809Y0077011D02*
X0038660Y0077011D01*
X0038265Y0076616D02*
X0039372Y0077723D01*
X0039372Y0079288D01*
X0038265Y0080394D01*
X0036700Y0080394D01*
X0035594Y0079288D01*
X0035594Y0077723D01*
X0036700Y0076616D01*
X0038265Y0076616D01*
X0039258Y0077609D02*
X0052809Y0077609D01*
X0052809Y0078208D02*
X0039372Y0078208D01*
X0039372Y0078806D02*
X0052809Y0078806D01*
X0052809Y0079405D02*
X0039254Y0079405D01*
X0038656Y0080003D02*
X0052809Y0080003D01*
X0052809Y0080602D02*
X0029398Y0080602D01*
X0029399Y0081201D02*
X0052809Y0081201D01*
X0052809Y0081799D02*
X0029399Y0081799D01*
X0029399Y0082398D02*
X0052809Y0082398D01*
X0052809Y0082996D02*
X0029399Y0082996D01*
X0029400Y0083595D02*
X0052809Y0083595D01*
X0052809Y0084193D02*
X0029400Y0084193D01*
X0029400Y0084792D02*
X0052809Y0084792D01*
X0052809Y0085390D02*
X0029401Y0085390D01*
X0029401Y0085989D02*
X0052809Y0085989D01*
X0052809Y0086587D02*
X0029401Y0086587D01*
X0029402Y0087186D02*
X0052809Y0087186D01*
X0052809Y0087784D02*
X0029402Y0087784D01*
X0029402Y0088383D02*
X0052809Y0088383D01*
X0052809Y0088981D02*
X0029402Y0088981D01*
X0029403Y0089580D02*
X0052809Y0089580D01*
X0052809Y0090178D02*
X0029403Y0090178D01*
X0029403Y0090777D02*
X0052809Y0090777D01*
X0052809Y0091375D02*
X0029404Y0091375D01*
X0029404Y0091974D02*
X0052809Y0091974D01*
X0052809Y0092572D02*
X0029404Y0092572D01*
X0029404Y0093171D02*
X0052809Y0093171D01*
X0052809Y0093769D02*
X0029405Y0093769D01*
X0029405Y0094368D02*
X0052809Y0094368D01*
X0052809Y0094966D02*
X0029405Y0094966D01*
X0029406Y0095565D02*
X0052809Y0095565D01*
X0052809Y0096163D02*
X0035220Y0096163D01*
X0035768Y0096712D02*
X0034662Y0095606D01*
X0033097Y0095606D01*
X0031990Y0096712D01*
X0031990Y0098277D01*
X0033097Y0099383D01*
X0034662Y0099383D01*
X0035768Y0098277D01*
X0035768Y0096712D01*
X0035768Y0096762D02*
X0052809Y0096762D01*
X0052809Y0097360D02*
X0035768Y0097360D01*
X0035768Y0097959D02*
X0052809Y0097959D01*
X0052809Y0098557D02*
X0035488Y0098557D01*
X0034889Y0099156D02*
X0052809Y0099156D01*
X0052809Y0099754D02*
X0029408Y0099754D01*
X0029407Y0099156D02*
X0032869Y0099156D01*
X0032271Y0098557D02*
X0029407Y0098557D01*
X0029407Y0097959D02*
X0031990Y0097959D01*
X0031990Y0097360D02*
X0029406Y0097360D01*
X0029406Y0096762D02*
X0031990Y0096762D01*
X0032539Y0096163D02*
X0029406Y0096163D01*
X0029408Y0100353D02*
X0052809Y0100353D01*
X0052809Y0100951D02*
X0029408Y0100951D01*
X0029409Y0101550D02*
X0052809Y0101550D01*
X0052809Y0102148D02*
X0029409Y0102148D01*
X0029409Y0102747D02*
X0052809Y0102747D01*
X0052809Y0103345D02*
X0029409Y0103345D01*
X0029410Y0103944D02*
X0052809Y0103944D01*
X0052809Y0104542D02*
X0029410Y0104542D01*
X0029410Y0105141D02*
X0052809Y0105141D01*
X0052809Y0105739D02*
X0029411Y0105739D01*
X0029411Y0106338D02*
X0052809Y0106338D01*
X0052809Y0106937D02*
X0029411Y0106937D01*
X0029411Y0107535D02*
X0052809Y0107535D01*
X0052809Y0108134D02*
X0029412Y0108134D01*
X0029412Y0108732D02*
X0052809Y0108732D01*
X0052809Y0109331D02*
X0029412Y0109331D01*
X0029413Y0109929D02*
X0052809Y0109929D01*
X0052809Y0110528D02*
X0029413Y0110528D01*
X0029413Y0111126D02*
X0052809Y0111126D01*
X0052809Y0111725D02*
X0029413Y0111725D01*
X0029414Y0112323D02*
X0052809Y0112323D01*
X0052809Y0112922D02*
X0034008Y0112922D01*
X0033873Y0112787D02*
X0034980Y0113894D01*
X0034980Y0115459D01*
X0033873Y0116565D01*
X0032308Y0116565D01*
X0031202Y0115459D01*
X0031202Y0113894D01*
X0032308Y0112787D01*
X0033873Y0112787D01*
X0034606Y0113520D02*
X0052809Y0113520D01*
X0052809Y0114119D02*
X0034980Y0114119D01*
X0034980Y0114717D02*
X0052809Y0114717D01*
X0052809Y0115316D02*
X0034980Y0115316D01*
X0034524Y0115914D02*
X0052809Y0115914D01*
X0052809Y0116513D02*
X0033926Y0116513D01*
X0032256Y0116513D02*
X0030668Y0116513D01*
X0031005Y0117111D02*
X0052809Y0117111D01*
X0052809Y0117710D02*
X0031343Y0117710D01*
X0031680Y0118308D02*
X0052809Y0118308D01*
X0052809Y0118907D02*
X0032018Y0118907D01*
X0032355Y0119505D02*
X0052809Y0119505D01*
X0052809Y0120104D02*
X0032693Y0120104D01*
X0033030Y0120702D02*
X0052809Y0120702D01*
X0052809Y0121301D02*
X0043917Y0121301D01*
X0043902Y0121286D02*
X0045009Y0122392D01*
X0045009Y0123957D01*
X0043902Y0125064D01*
X0042337Y0125064D01*
X0041231Y0123957D01*
X0041231Y0122392D01*
X0042337Y0121286D01*
X0043902Y0121286D01*
X0044515Y0121899D02*
X0052809Y0121899D01*
X0052809Y0122498D02*
X0045009Y0122498D01*
X0045009Y0123096D02*
X0052809Y0123096D01*
X0052809Y0123695D02*
X0045009Y0123695D01*
X0044673Y0124293D02*
X0052809Y0124293D01*
X0052809Y0124892D02*
X0044074Y0124892D01*
X0042243Y0125141D02*
X0041136Y0124034D01*
X0039571Y0124034D01*
X0038465Y0125141D01*
X0038465Y0126706D01*
X0039571Y0127812D01*
X0041136Y0127812D01*
X0042243Y0126706D01*
X0042243Y0125141D01*
X0042165Y0124892D02*
X0041994Y0124892D01*
X0042243Y0125490D02*
X0052809Y0125490D01*
X0052809Y0126089D02*
X0042243Y0126089D01*
X0042243Y0126687D02*
X0052809Y0126687D01*
X0053133Y0127286D02*
X0041663Y0127286D01*
X0039045Y0127286D02*
X0036931Y0127286D01*
X0037336Y0127884D02*
X0053732Y0127884D01*
X0054330Y0128483D02*
X0037740Y0128483D01*
X0038145Y0129081D02*
X0054628Y0129081D01*
X0054370Y0129680D02*
X0038550Y0129680D01*
X0038955Y0130278D02*
X0054370Y0130278D01*
X0054370Y0130877D02*
X0051847Y0130877D01*
X0051835Y0130865D02*
X0052942Y0131971D01*
X0052942Y0133536D01*
X0051835Y0134643D01*
X0050270Y0134643D01*
X0049164Y0133536D01*
X0049164Y0131971D01*
X0050270Y0130865D01*
X0051835Y0130865D01*
X0052446Y0131475D02*
X0054940Y0131475D01*
X0056259Y0130123D02*
X0056259Y0128855D01*
X0053909Y0126506D01*
X0053909Y0066975D01*
X0061484Y0059400D01*
X0061824Y0059400D01*
X0078952Y0042272D01*
X0069970Y0046359D02*
X0069755Y0045850D01*
X0068329Y0061450D02*
X0073895Y0061450D01*
X0077179Y0063844D02*
X0083254Y0063844D01*
X0083853Y0064442D02*
X0077360Y0064442D01*
X0077360Y0065041D02*
X0084451Y0065041D01*
X0085050Y0065639D02*
X0077311Y0065639D01*
X0076713Y0066238D02*
X0085649Y0066238D01*
X0085767Y0063245D02*
X0107509Y0063245D01*
X0107508Y0062647D02*
X0085169Y0062647D01*
X0084570Y0062048D02*
X0107507Y0062048D01*
X0107505Y0061450D02*
X0083972Y0061450D01*
X0083124Y0076030D02*
X0084230Y0077137D01*
X0084230Y0078702D01*
X0083124Y0079808D01*
X0081559Y0079808D01*
X0080452Y0078702D01*
X0080452Y0077137D01*
X0081559Y0076030D01*
X0083124Y0076030D01*
X0083506Y0076412D02*
X0107539Y0076412D01*
X0107538Y0075814D02*
X0057398Y0075814D01*
X0057398Y0076412D02*
X0081177Y0076412D01*
X0080578Y0077011D02*
X0057398Y0077011D01*
X0057398Y0077609D02*
X0080452Y0077609D01*
X0080452Y0078208D02*
X0057398Y0078208D01*
X0057398Y0078806D02*
X0080557Y0078806D01*
X0081156Y0079405D02*
X0057398Y0079405D01*
X0057398Y0080003D02*
X0107547Y0080003D01*
X0107546Y0079405D02*
X0083527Y0079405D01*
X0084125Y0078806D02*
X0107544Y0078806D01*
X0107543Y0078208D02*
X0084230Y0078208D01*
X0084230Y0077609D02*
X0107542Y0077609D01*
X0107540Y0077011D02*
X0084105Y0077011D01*
X0083171Y0080923D02*
X0084277Y0082030D01*
X0084277Y0083594D01*
X0083171Y0084701D01*
X0081606Y0084701D01*
X0080500Y0083594D01*
X0080500Y0082030D01*
X0081606Y0080923D01*
X0083171Y0080923D01*
X0083448Y0081201D02*
X0107550Y0081201D01*
X0107551Y0081799D02*
X0084047Y0081799D01*
X0084277Y0082398D02*
X0107553Y0082398D01*
X0107554Y0082996D02*
X0084277Y0082996D01*
X0084277Y0083595D02*
X0107555Y0083595D01*
X0107557Y0084193D02*
X0086701Y0084193D01*
X0086451Y0083942D02*
X0087557Y0085049D01*
X0087557Y0086614D01*
X0086451Y0087720D01*
X0084886Y0087720D01*
X0083779Y0086614D01*
X0083779Y0085049D01*
X0084886Y0083942D01*
X0086451Y0083942D01*
X0087300Y0084792D02*
X0107558Y0084792D01*
X0107559Y0085390D02*
X0087557Y0085390D01*
X0087557Y0085989D02*
X0103348Y0085989D01*
X0103498Y0085838D02*
X0105063Y0085838D01*
X0106170Y0086945D01*
X0106170Y0088510D01*
X0105063Y0089616D01*
X0103498Y0089616D01*
X0102392Y0088510D01*
X0102392Y0086945D01*
X0103498Y0085838D01*
X0102750Y0086587D02*
X0087557Y0086587D01*
X0086985Y0087186D02*
X0102392Y0087186D01*
X0102392Y0087784D02*
X0057398Y0087784D01*
X0057398Y0087186D02*
X0084351Y0087186D01*
X0083779Y0086587D02*
X0057398Y0086587D01*
X0057398Y0085989D02*
X0083779Y0085989D01*
X0083779Y0085390D02*
X0057398Y0085390D01*
X0057398Y0084792D02*
X0084036Y0084792D01*
X0083679Y0084193D02*
X0084635Y0084193D01*
X0081098Y0084193D02*
X0057398Y0084193D01*
X0057398Y0083595D02*
X0080500Y0083595D01*
X0080500Y0082996D02*
X0057398Y0082996D01*
X0057398Y0082398D02*
X0080500Y0082398D01*
X0080730Y0081799D02*
X0057398Y0081799D01*
X0057398Y0081201D02*
X0081329Y0081201D01*
X0098251Y0092484D02*
X0099358Y0091378D01*
X0100923Y0091378D01*
X0102029Y0092484D01*
X0102029Y0094049D01*
X0100923Y0095156D01*
X0099828Y0095156D01*
X0087746Y0107474D01*
X0087746Y0108612D01*
X0086639Y0109718D01*
X0085074Y0109718D01*
X0083968Y0108612D01*
X0083968Y0107047D01*
X0085074Y0105940D01*
X0086169Y0105940D01*
X0098251Y0093622D01*
X0098251Y0092484D01*
X0098251Y0092572D02*
X0057398Y0092572D01*
X0057398Y0091974D02*
X0098762Y0091974D01*
X0098251Y0093171D02*
X0057398Y0093171D01*
X0057398Y0093769D02*
X0098107Y0093769D01*
X0097520Y0094368D02*
X0057398Y0094368D01*
X0057398Y0094966D02*
X0096933Y0094966D01*
X0096346Y0095565D02*
X0057398Y0095565D01*
X0057398Y0096163D02*
X0095759Y0096163D01*
X0095171Y0096762D02*
X0057398Y0096762D01*
X0057398Y0097360D02*
X0094584Y0097360D01*
X0093997Y0097959D02*
X0057398Y0097959D01*
X0057398Y0098557D02*
X0093410Y0098557D01*
X0092823Y0099156D02*
X0057398Y0099156D01*
X0057398Y0099754D02*
X0092236Y0099754D01*
X0091649Y0100353D02*
X0057398Y0100353D01*
X0057398Y0100951D02*
X0091062Y0100951D01*
X0090475Y0101550D02*
X0057398Y0101550D01*
X0057398Y0102148D02*
X0089888Y0102148D01*
X0089301Y0102747D02*
X0057398Y0102747D01*
X0057398Y0103345D02*
X0088714Y0103345D01*
X0088127Y0103944D02*
X0057398Y0103944D01*
X0057398Y0104542D02*
X0087540Y0104542D01*
X0086953Y0105141D02*
X0057398Y0105141D01*
X0057398Y0105739D02*
X0086366Y0105739D01*
X0084677Y0106338D02*
X0057398Y0106338D01*
X0057398Y0106937D02*
X0084078Y0106937D01*
X0083968Y0107535D02*
X0057398Y0107535D01*
X0057398Y0108134D02*
X0083968Y0108134D01*
X0084088Y0108732D02*
X0057398Y0108732D01*
X0057398Y0109331D02*
X0084686Y0109331D01*
X0085857Y0107829D02*
X0100140Y0093267D01*
X0101519Y0091974D02*
X0107574Y0091974D01*
X0107575Y0092572D02*
X0102029Y0092572D01*
X0102029Y0093171D02*
X0107577Y0093171D01*
X0107578Y0093769D02*
X0102029Y0093769D01*
X0101711Y0094368D02*
X0107579Y0094368D01*
X0107581Y0094966D02*
X0101112Y0094966D01*
X0099427Y0095565D02*
X0107582Y0095565D01*
X0107583Y0096163D02*
X0098840Y0096163D01*
X0098253Y0096762D02*
X0107585Y0096762D01*
X0107586Y0097360D02*
X0097666Y0097360D01*
X0097079Y0097959D02*
X0107587Y0097959D01*
X0107589Y0098557D02*
X0096492Y0098557D01*
X0095905Y0099156D02*
X0107590Y0099156D01*
X0107592Y0099754D02*
X0095318Y0099754D01*
X0094731Y0100353D02*
X0107593Y0100353D01*
X0107594Y0100951D02*
X0094144Y0100951D01*
X0093557Y0101550D02*
X0107596Y0101550D01*
X0107597Y0102148D02*
X0092970Y0102148D01*
X0092383Y0102747D02*
X0107598Y0102747D01*
X0107600Y0103345D02*
X0091796Y0103345D01*
X0091209Y0103944D02*
X0107601Y0103944D01*
X0107602Y0104542D02*
X0090622Y0104542D01*
X0090035Y0105141D02*
X0107604Y0105141D01*
X0107605Y0105739D02*
X0092805Y0105739D01*
X0092553Y0105487D02*
X0093659Y0106593D01*
X0093659Y0108158D01*
X0092553Y0109265D01*
X0090988Y0109265D01*
X0089882Y0108158D01*
X0089882Y0106593D01*
X0090988Y0105487D01*
X0092553Y0105487D01*
X0093404Y0106338D02*
X0107606Y0106338D01*
X0107608Y0106937D02*
X0093659Y0106937D01*
X0093659Y0107535D02*
X0107609Y0107535D01*
X0107610Y0108134D02*
X0093659Y0108134D01*
X0093086Y0108732D02*
X0107612Y0108732D01*
X0107613Y0109331D02*
X0087027Y0109331D01*
X0087626Y0108732D02*
X0090455Y0108732D01*
X0089882Y0108134D02*
X0087746Y0108134D01*
X0087746Y0107535D02*
X0089882Y0107535D01*
X0089882Y0106937D02*
X0088273Y0106937D01*
X0088860Y0106338D02*
X0090137Y0106338D01*
X0090735Y0105739D02*
X0089447Y0105739D01*
X0087140Y0112722D02*
X0088246Y0113828D01*
X0088246Y0115393D01*
X0087140Y0116500D01*
X0085575Y0116500D01*
X0084468Y0115393D01*
X0084468Y0113828D01*
X0085575Y0112722D01*
X0087140Y0112722D01*
X0087340Y0112922D02*
X0107621Y0112922D01*
X0107622Y0113520D02*
X0087938Y0113520D01*
X0088246Y0114119D02*
X0107624Y0114119D01*
X0107625Y0114717D02*
X0088246Y0114717D01*
X0088246Y0115316D02*
X0107627Y0115316D01*
X0107628Y0115914D02*
X0087725Y0115914D01*
X0084989Y0115914D02*
X0057398Y0115914D01*
X0057398Y0115316D02*
X0084468Y0115316D01*
X0084468Y0114717D02*
X0057398Y0114717D01*
X0057398Y0114119D02*
X0084468Y0114119D01*
X0084777Y0113520D02*
X0057398Y0113520D01*
X0057398Y0112922D02*
X0085375Y0112922D01*
X0107620Y0112323D02*
X0057398Y0112323D01*
X0057398Y0111725D02*
X0107618Y0111725D01*
X0107617Y0111126D02*
X0057398Y0111126D01*
X0057398Y0110528D02*
X0107616Y0110528D01*
X0107614Y0109929D02*
X0057398Y0109929D01*
X0057398Y0116513D02*
X0107629Y0116513D01*
X0107631Y0117111D02*
X0057398Y0117111D01*
X0057398Y0117710D02*
X0107632Y0117710D01*
X0107633Y0118308D02*
X0057398Y0118308D01*
X0057398Y0118907D02*
X0107635Y0118907D01*
X0107636Y0119505D02*
X0057398Y0119505D01*
X0057398Y0120104D02*
X0107637Y0120104D01*
X0107639Y0120702D02*
X0057398Y0120702D01*
X0057398Y0121301D02*
X0107640Y0121301D01*
X0107641Y0121899D02*
X0057398Y0121899D01*
X0057398Y0122498D02*
X0107643Y0122498D01*
X0107644Y0123096D02*
X0057398Y0123096D01*
X0057398Y0123695D02*
X0107645Y0123695D01*
X0107647Y0124293D02*
X0057746Y0124293D01*
X0058187Y0124892D02*
X0107648Y0124892D01*
X0107649Y0125490D02*
X0058187Y0125490D01*
X0058187Y0126089D02*
X0107651Y0126089D01*
X0107652Y0126687D02*
X0057798Y0126687D01*
X0057200Y0127286D02*
X0107653Y0127286D01*
X0107655Y0127884D02*
X0056843Y0127884D01*
X0057359Y0128483D02*
X0107656Y0128483D01*
X0107657Y0129081D02*
X0057889Y0129081D01*
X0058148Y0129680D02*
X0107659Y0129680D01*
X0107660Y0130278D02*
X0058148Y0130278D01*
X0058148Y0130877D02*
X0107661Y0130877D01*
X0107663Y0131475D02*
X0057577Y0131475D01*
X0055095Y0135067D02*
X0107671Y0135067D01*
X0107672Y0135665D02*
X0055628Y0135665D01*
X0055628Y0136264D02*
X0107674Y0136264D01*
X0107675Y0136862D02*
X0055628Y0136862D01*
X0055332Y0137461D02*
X0107676Y0137461D01*
X0107162Y0137207D02*
X0105932Y0135976D01*
X0107670Y0134468D02*
X0052010Y0134468D01*
X0052383Y0135067D02*
X0045090Y0135067D01*
X0045090Y0134468D02*
X0050096Y0134468D01*
X0049497Y0133870D02*
X0045090Y0133870D01*
X0044833Y0133271D02*
X0049164Y0133271D01*
X0049164Y0132672D02*
X0044234Y0132672D01*
X0042168Y0132672D02*
X0040574Y0132672D01*
X0040170Y0132074D02*
X0049164Y0132074D01*
X0049659Y0131475D02*
X0039765Y0131475D01*
X0039360Y0130877D02*
X0050258Y0130877D01*
X0052942Y0132074D02*
X0107664Y0132074D01*
X0107666Y0132672D02*
X0052942Y0132672D01*
X0052942Y0133271D02*
X0107667Y0133271D01*
X0107668Y0133870D02*
X0052608Y0133870D01*
X0051850Y0135665D02*
X0044518Y0135665D01*
X0043003Y0136264D02*
X0051850Y0136264D01*
X0051850Y0136862D02*
X0043408Y0136862D01*
X0043813Y0137461D02*
X0052146Y0137461D01*
X0052744Y0138059D02*
X0044218Y0138059D01*
X0044890Y0139303D02*
X0099025Y0139303D01*
X0107412Y0147690D01*
X0107412Y0157937D01*
X0127882Y0178407D01*
X0174255Y0178407D01*
X0182793Y0169868D01*
X0107678Y0138059D02*
X0054734Y0138059D01*
X0057184Y0137311D02*
X0058040Y0136357D01*
X0056298Y0125516D02*
X0056298Y0066283D01*
X0057398Y0072223D02*
X0103051Y0072223D01*
X0103296Y0072821D02*
X0057398Y0072821D01*
X0057398Y0073420D02*
X0103895Y0073420D01*
X0105984Y0073420D02*
X0107532Y0073420D01*
X0107534Y0074018D02*
X0057398Y0074018D01*
X0057398Y0074617D02*
X0107535Y0074617D01*
X0107536Y0075215D02*
X0057398Y0075215D01*
X0057398Y0080602D02*
X0107548Y0080602D01*
X0105120Y0081066D02*
X0104607Y0081579D01*
X0105214Y0085989D02*
X0107561Y0085989D01*
X0107562Y0086587D02*
X0105812Y0086587D01*
X0106170Y0087186D02*
X0107563Y0087186D01*
X0107565Y0087784D02*
X0106170Y0087784D01*
X0106170Y0088383D02*
X0107566Y0088383D01*
X0107567Y0088981D02*
X0105698Y0088981D01*
X0105100Y0089580D02*
X0107569Y0089580D01*
X0107570Y0090178D02*
X0057398Y0090178D01*
X0057398Y0089580D02*
X0103462Y0089580D01*
X0102863Y0088981D02*
X0057398Y0088981D01*
X0057398Y0088383D02*
X0102392Y0088383D01*
X0107571Y0090777D02*
X0057398Y0090777D01*
X0057398Y0091375D02*
X0107573Y0091375D01*
X0107531Y0072821D02*
X0106583Y0072821D01*
X0106829Y0072223D02*
X0107530Y0072223D01*
X0107528Y0071624D02*
X0106829Y0071624D01*
X0106829Y0071026D02*
X0107527Y0071026D01*
X0049997Y0047684D02*
X0042741Y0047684D01*
X0043339Y0047085D02*
X0049399Y0047085D01*
X0049346Y0046487D02*
X0043938Y0046487D01*
X0044536Y0045888D02*
X0049346Y0045888D01*
X0049525Y0045290D02*
X0045135Y0045290D01*
X0045733Y0044691D02*
X0050123Y0044691D01*
X0046475Y0051206D02*
X0045288Y0051206D01*
X0031812Y0073730D02*
X0031761Y0075181D01*
X0029397Y0077011D02*
X0036306Y0077011D01*
X0035707Y0077609D02*
X0029397Y0077609D01*
X0029397Y0078208D02*
X0035594Y0078208D01*
X0035594Y0078806D02*
X0029397Y0078806D01*
X0029398Y0079405D02*
X0035711Y0079405D01*
X0036310Y0080003D02*
X0029398Y0080003D01*
X0031306Y0088071D02*
X0031235Y0088321D01*
X0032407Y0110483D02*
X0033081Y0110603D01*
X0032174Y0112922D02*
X0029414Y0112922D01*
X0029414Y0113520D02*
X0031576Y0113520D01*
X0031202Y0114119D02*
X0029415Y0114119D01*
X0029415Y0113940D02*
X0029415Y0113940D01*
X0029655Y0114717D02*
X0031202Y0114717D01*
X0031202Y0115316D02*
X0029993Y0115316D01*
X0030330Y0115914D02*
X0031657Y0115914D01*
X0028315Y0114579D02*
X0042275Y0139339D01*
X0044890Y0139303D01*
X0044933Y0139346D01*
X0041569Y0133271D02*
X0040979Y0133271D01*
X0038465Y0126687D02*
X0036526Y0126687D01*
X0036121Y0126089D02*
X0038465Y0126089D01*
X0038465Y0125490D02*
X0035730Y0125490D01*
X0035392Y0124892D02*
X0038714Y0124892D01*
X0039313Y0124293D02*
X0035055Y0124293D01*
X0034717Y0123695D02*
X0041231Y0123695D01*
X0041231Y0123096D02*
X0034380Y0123096D01*
X0034042Y0122498D02*
X0041231Y0122498D01*
X0041724Y0121899D02*
X0033705Y0121899D01*
X0033367Y0121301D02*
X0042322Y0121301D01*
X0041567Y0124293D02*
X0041395Y0124293D01*
X0028315Y0114579D02*
X0028315Y0114396D01*
X0078635Y0135163D02*
X0078754Y0136046D01*
D12*
X0099369Y0100713D02*
X0119198Y0100974D01*
X0123882Y0104539D01*
X0102966Y2239241D02*
X0099401Y2243926D01*
X0099140Y2263755D01*
X2241359Y2261064D02*
X2246044Y2264629D01*
X2265873Y2264890D01*
X2263048Y0123158D02*
X2266612Y0118473D01*
X2266873Y0098644D01*
D13*
X2329827Y0092994D02*
X2330112Y0093616D01*
X2271523Y2327844D02*
X2270900Y2328129D01*
X0036186Y2269405D02*
X0035901Y2268782D01*
X0093719Y0037759D02*
X0094341Y0037475D01*
M02*
