%
M48
M72
T01C0.01378
%
T01
X31663Y12137
X31710Y21492
X31663Y31830
X31483Y41695
X20058Y53169
X7747Y52911
X7691Y63117
X13177Y71282
X7860Y75445
X31235Y88321
X33879Y97495
X33081Y110603
X33091Y114676
X43120Y123175
X40354Y125923
X43201Y134311
X51053Y132754
X53739Y136382
X58040Y136357
X56259Y130123
X56298Y125516
X78635Y135163
X79518Y151547
X70506Y151351
X60221Y151351
X50344Y151325
X39093Y151036
X27683Y150954
X15176Y150743
X14120Y173346
X21994Y173346
X29868Y173346
X37742Y173346
X45616Y173346
X53490Y173346
X61364Y173346
X69238Y173346
X77112Y173346
X77112Y196968
X84986Y196968
X69238Y196968
X61364Y196968
X53490Y196968
X45616Y196968
X37742Y196968
X29868Y196968
X21994Y196968
X14120Y196968
X93745Y151779
X105932Y135976
X86357Y114611
X85857Y107829
X91770Y107376
X99369Y100713
X100140Y93267
X104281Y87727
X104607Y81579
X104940Y71793
X90260Y69293
X90243Y65436
X82341Y77919
X82388Y82812
X85668Y85831
X75471Y64808
X67213Y63005
X62971Y62989
X61763Y54129
X69970Y46359
X76613Y48036
X81409Y46377
X78952Y42272
X93719Y37759
X99113Y37844
X106153Y31699
X103938Y11660
X92562Y11303
X52957Y12321
X42025Y12203
X51235Y46250
X46475Y51206
X37483Y78505
X17269Y108921
X123882Y104539
X2170618Y84261
X2170618Y76387
X2170618Y68513
X2170618Y60639
X2170618Y52765
X2170618Y44891
X2170618Y37017
X2170618Y29143
X2170618Y21269
X2170618Y13395
X2194240Y13395
X2194240Y21269
X2194240Y29143
X2194240Y37017
X2194240Y44891
X2194240Y52765
X2194240Y60639
X2194240Y68513
X2194240Y76387
X2216039Y78793
X2216235Y69781
X2216235Y59496
X2216261Y49619
X2216550Y38368
X2216632Y26959
X2216844Y14451
X2233276Y42476
X2234833Y50328
X2231204Y53014
X2231229Y57315
X2237464Y55534
X2242070Y55573
X2244412Y42395
X2241663Y39629
X2252910Y32366
X2256983Y32357
X2270092Y33155
X2279266Y30510
X2289081Y36758
X2296304Y12452
X2292142Y7135
X2304469Y6966
X2314675Y7022
X2314418Y19333
X2325892Y30758
X2335757Y30938
X2346094Y30985
X2355450Y30938
X2355383Y41300
X2355265Y52233
X2321336Y50510
X2316381Y45750
X2313457Y61038
X2304598Y62246
X2304581Y66488
X2302779Y74746
X2302151Y89518
X2298293Y89535
X2289667Y81616
X2284774Y81664
X2281755Y84943
X2274320Y99416
X2279859Y103556
X2286008Y103882
X2295793Y104215
X2329742Y98388
X2329827Y92994
X2335887Y105428
X2355926Y103213
X2356283Y91837
X2325315Y78227
X2321210Y80684
X2319550Y75888
X2321228Y69245
X2266873Y98644
X2260211Y91046
X2259757Y85132
X2252976Y85632
X2232423Y77911
X2215807Y93020
X2231610Y105207
X2263048Y123158
X2258665Y16544
X2280256Y2168635
X2288130Y2168635
X2296004Y2168635
X2303878Y2168635
X2311752Y2168635
X2319626Y2168635
X2327500Y2168635
X2335374Y2168635
X2343248Y2168635
X2351122Y2168635
X2351122Y2192257
X2343248Y2192257
X2335374Y2192257
X2327500Y2192257
X2319626Y2192257
X2311752Y2192257
X2303878Y2192257
X2296004Y2192257
X2288130Y2192257
X2285724Y2214056
X2294736Y2214252
X2305021Y2214252
X2314898Y2214278
X2326149Y2214567
X2337558Y2214649
X2350066Y2214860
X2322041Y2231293
X2314189Y2232850
X2311503Y2229221
X2307202Y2229246
X2308983Y2235481
X2308944Y2240087
X2322122Y2242428
X2324888Y2239680
X2332151Y2250927
X2332160Y2255000
X2331362Y2268109
X2334007Y2277282
X2327759Y2287098
X2352065Y2294321
X2357382Y2290158
X2357551Y2302486
X2357495Y2312692
X2345183Y2312434
X2333759Y2323908
X2333579Y2333773
X2333532Y2344111
X2333579Y2353466
X2323217Y2353400
X2312284Y2353282
X2314006Y2319353
X2318767Y2314398
X2303478Y2311474
X2302271Y2302614
X2298029Y2302598
X2289770Y2300795
X2274999Y2300167
X2274982Y2296310
X2282900Y2287684
X2282853Y2282791
X2279574Y2279772
X2265101Y2272336
X2260961Y2277876
X2260634Y2284024
X2260302Y2293810
X2266128Y2327759
X2271523Y2327844
X2259089Y2333904
X2261304Y2353943
X2272680Y2354300
X2286290Y2323331
X2283833Y2319227
X2288629Y2317567
X2295272Y2319244
X2265873Y2264890
X2273471Y2258227
X2279385Y2257774
X2278884Y2250992
X2286606Y2230440
X2271497Y2213824
X2259310Y2229627
X2241359Y2261064
X2347973Y2256682
X195395Y2278138
X195395Y2286012
X195395Y2293886
X195395Y2301760
X195395Y2309634
X195395Y2317508
X195395Y2325382
X195395Y2333256
X195395Y2341130
X195395Y2349004
X171773Y2349004
X171773Y2341130
X171773Y2333256
X171773Y2325382
X171773Y2317508
X171773Y2309634
X171773Y2301760
X171773Y2293886
X171773Y2286012
X149974Y2283606
X149778Y2292617
X149778Y2302902
X149752Y2312780
X149463Y2324031
X149381Y2335440
X149170Y2347948
X132737Y2319923
X131180Y2312071
X134809Y2309385
X134784Y2305083
X128549Y2306865
X123943Y2306825
X121602Y2320004
X124350Y2322770
X113103Y2330033
X109030Y2330042
X95921Y2329244
X86748Y2331889
X76932Y2325641
X69709Y2349947
X73871Y2355263
X61544Y2355433
X51338Y2355377
X51595Y2343065
X40122Y2331640
X30257Y2331461
X19919Y2331414
X10563Y2331461
X10630Y2321099
X10748Y2310166
X44677Y2311888
X49632Y2316648
X52556Y2301360
X61415Y2300153
X61432Y2295911
X63234Y2287652
X63862Y2272881
X67720Y2272864
X76346Y2280782
X81239Y2280735
X84258Y2277455
X91693Y2262983
X86154Y2258843
X80005Y2258516
X70220Y2258184
X36271Y2264010
X36186Y2269405
X30126Y2256971
X10087Y2259186
X9730Y2270562
X40698Y2284172
X44803Y2281715
X46463Y2286511
X44785Y2293154
X99140Y2263755
X105803Y2271353
X106256Y2277267
X113037Y2276766
X133590Y2284488
X150206Y2269379
X134403Y2257191
X102966Y2239241
X107348Y2345855
M30
