G75*
%MOIN*%
%OFA0B0*%
%FSLAX25Y25*%
%IPPOS*%
%LPD*%
%AMOC8*
5,1,8,0,0,1.08239X$1,22.5*
%
%ADD10R,0.03256X0.04043*%
%ADD11R,0.05224X0.03650*%
%ADD12R,1.85539X0.09161*%
%ADD13R,1.85539X0.04831*%
%ADD14C,0.02862*%
%ADD15R,0.03256X0.01917*%
%ADD16R,0.01917X0.03256*%
%ADD17R,0.03650X0.03650*%
%ADD18R,0.04437X0.04831*%
%ADD19R,0.04831X0.04437*%
%ADD20R,0.04043X0.03256*%
%ADD21C,0.01563*%
%ADD22R,0.04437X0.04437*%
%ADD23R,0.04437X0.08374*%
%ADD24C,0.03478*%
%ADD25R,0.02075X0.03846*%
%ADD26R,0.02075X0.07193*%
%ADD27R,0.02075X0.02075*%
%ADD28R,0.03650X0.05224*%
%ADD29R,0.09161X1.85539*%
%ADD30R,0.04831X1.85539*%
%ADD31R,0.08374X0.04437*%
%ADD32R,0.03846X0.02075*%
%ADD33R,0.07193X0.02075*%
%ADD34C,0.02678*%
D10*
X0059448Y0075438D03*
X0064566Y0075438D03*
X0095577Y0066174D03*
X0100695Y0066174D03*
X0072400Y0126894D03*
X0067282Y0126894D03*
X0111778Y2266904D03*
X0111778Y2271353D03*
X0116896Y2271353D03*
X0116896Y2266904D03*
X0099534Y2269070D03*
X0094415Y2269070D03*
X0087329Y2269109D03*
X0082211Y2269109D03*
X0070675Y2281511D03*
X0065557Y2281511D03*
X0066698Y2312641D03*
X0066738Y2316944D03*
X0066773Y2321139D03*
X0066818Y2325409D03*
X0071936Y2325409D03*
X0071891Y2321139D03*
X0071856Y2316944D03*
X0071816Y2312641D03*
X0059889Y2312679D03*
X0059848Y2316944D03*
X0059807Y2321177D03*
X0059803Y2325410D03*
X0054685Y2325410D03*
X0054689Y2321177D03*
X0054730Y2316944D03*
X0054771Y2312679D03*
X2264547Y2299429D03*
X2269665Y2299429D03*
X2300676Y2290166D03*
X2305794Y2290166D03*
X2297959Y2238709D03*
X2292841Y2238709D03*
X2254235Y0095494D03*
X2254235Y0091046D03*
X2249117Y0091046D03*
X2249117Y0095494D03*
X2266480Y0093329D03*
X2271598Y0093329D03*
X2278684Y0093290D03*
X2283802Y0093290D03*
X2295338Y0080888D03*
X2300456Y0080888D03*
X2299315Y0049757D03*
X2299275Y0045455D03*
X2299240Y0041260D03*
X2299195Y0036990D03*
X2294077Y0036990D03*
X2294122Y0041260D03*
X2294157Y0045455D03*
X2294197Y0049757D03*
X2306124Y0049719D03*
X2306165Y0045455D03*
X2306206Y0041222D03*
X2306210Y0036988D03*
X2311328Y0036988D03*
X2311325Y0041222D03*
X2311283Y0045455D03*
X2311242Y0049719D03*
D11*
X2312661Y0073605D03*
X2312661Y0080691D03*
X0053352Y2281707D03*
X0053352Y2288794D03*
D12*
X0103156Y2249896D03*
X2262858Y0112502D03*
D13*
X2262858Y0193408D03*
X0103156Y2168991D03*
D14*
X0100439Y2288400D03*
X0094534Y2288400D03*
X0094534Y2294306D03*
X0100439Y2294306D03*
X0100439Y2300211D03*
X0094534Y2300211D03*
X0094534Y2306117D03*
X0100439Y2306117D03*
X0100439Y2312022D03*
X0094534Y2312022D03*
X0088628Y2312022D03*
X0088628Y2306117D03*
X0088628Y2300211D03*
X0088628Y2294306D03*
X0088628Y2288400D03*
X0106345Y2288400D03*
X0112250Y2288400D03*
X0112250Y2294306D03*
X0112250Y2300211D03*
X0106345Y2300211D03*
X0106345Y2294306D03*
X0106345Y2306117D03*
X0112250Y2306117D03*
X0112250Y2312022D03*
X0106345Y2312022D03*
X2290518Y2275402D03*
X2290518Y2269496D03*
X2290518Y2263591D03*
X2290518Y2257685D03*
X2290518Y2251780D03*
X2296424Y2251780D03*
X2296424Y2257685D03*
X2302329Y2257685D03*
X2302329Y2251780D03*
X2308235Y2251780D03*
X2308235Y2257685D03*
X2314140Y2257685D03*
X2314140Y2251780D03*
X2314140Y2263591D03*
X2308235Y2263591D03*
X2308235Y2269496D03*
X2314140Y2269496D03*
X2314140Y2275402D03*
X2308235Y2275402D03*
X2302329Y2275402D03*
X2296424Y2275402D03*
X2296424Y2269496D03*
X2296424Y2263591D03*
X2302329Y2263591D03*
X2302329Y2269496D03*
X2277385Y0073998D03*
X2277385Y0068093D03*
X2271480Y0068093D03*
X2271480Y0073998D03*
X2265574Y0073998D03*
X2265574Y0068093D03*
X2259669Y0068093D03*
X2259669Y0073998D03*
X2253763Y0073998D03*
X2253763Y0068093D03*
X2253763Y0062187D03*
X2253763Y0056282D03*
X2259669Y0056282D03*
X2265574Y0056282D03*
X2265574Y0062187D03*
X2259669Y0062187D03*
X2271480Y0062187D03*
X2277385Y0062187D03*
X2277385Y0056282D03*
X2271480Y0056282D03*
X2271480Y0050376D03*
X2277385Y0050376D03*
X2265574Y0050376D03*
X2259669Y0050376D03*
X2253763Y0050376D03*
X0074723Y0090201D03*
X0068818Y0090201D03*
X0062912Y0090201D03*
X0057007Y0090201D03*
X0051101Y0090201D03*
X0051101Y0096107D03*
X0051101Y0102012D03*
X0057007Y0102012D03*
X0057007Y0096107D03*
X0062912Y0096107D03*
X0062912Y0102012D03*
X0068818Y0102012D03*
X0068818Y0096107D03*
X0074723Y0096107D03*
X0074723Y0102012D03*
X0074723Y0107918D03*
X0068818Y0107918D03*
X0068818Y0113823D03*
X0074723Y0113823D03*
X0062912Y0113823D03*
X0062912Y0107918D03*
X0057007Y0107918D03*
X0057007Y0113823D03*
X0051101Y0113823D03*
X0051101Y0107918D03*
D15*
X0044448Y0108312D03*
X0044448Y0111461D03*
X0044448Y0114611D03*
X0044448Y0117760D03*
X0044448Y0105162D03*
X0044448Y0102012D03*
X0044448Y0098863D03*
X0044448Y0095713D03*
X0044448Y0092564D03*
X0044448Y0089414D03*
X0044448Y0086264D03*
X0081377Y0086264D03*
X0081377Y0089414D03*
X0081377Y0092564D03*
X0081377Y0095713D03*
X0081377Y0098863D03*
X0081377Y0102012D03*
X0081377Y0105162D03*
X0081377Y0108312D03*
X0081377Y0111461D03*
X0081377Y0114611D03*
X0081377Y0117760D03*
X2247110Y0077935D03*
X2247110Y0074786D03*
X2247110Y0071636D03*
X2247110Y0068487D03*
X2247110Y0065337D03*
X2247110Y0062187D03*
X2247110Y0059038D03*
X2247110Y0055888D03*
X2247110Y0052739D03*
X2247110Y0049589D03*
X2247110Y0046439D03*
X2284039Y0046439D03*
X2284039Y0049589D03*
X2284039Y0052739D03*
X2284039Y0055888D03*
X2284039Y0059038D03*
X2284039Y0062187D03*
X2284039Y0065337D03*
X2284039Y0068487D03*
X2284039Y0071636D03*
X2284039Y0074786D03*
X2284039Y0077935D03*
X2283865Y2247843D03*
X2283865Y2250992D03*
X2283865Y2254142D03*
X2283865Y2257292D03*
X2283865Y2260441D03*
X2283865Y2263591D03*
X2283865Y2266740D03*
X2283865Y2269890D03*
X2283865Y2273040D03*
X2283865Y2276189D03*
X2283865Y2279339D03*
X2320794Y2279339D03*
X2320794Y2276189D03*
X2320794Y2273040D03*
X2320794Y2269890D03*
X2320794Y2266740D03*
X2320794Y2263591D03*
X2320794Y2260441D03*
X2320794Y2257292D03*
X2320794Y2254142D03*
X2320794Y2250992D03*
X2320794Y2247843D03*
X0118904Y2284463D03*
X0118904Y2287613D03*
X0118904Y2290762D03*
X0118904Y2293912D03*
X0118904Y2297062D03*
X0118904Y2300211D03*
X0118904Y2303361D03*
X0118904Y2306511D03*
X0118904Y2309660D03*
X0118904Y2312810D03*
X0118904Y2315959D03*
X0081974Y2315959D03*
X0081974Y2312810D03*
X0081974Y2309660D03*
X0081974Y2306511D03*
X0081974Y2303361D03*
X0081974Y2300211D03*
X0081974Y2297062D03*
X0081974Y2293912D03*
X0081974Y2290762D03*
X0081974Y2287613D03*
X0081974Y2284463D03*
D16*
X0084691Y2281747D03*
X0087841Y2281747D03*
X0090990Y2281747D03*
X0094140Y2281747D03*
X0097289Y2281747D03*
X0100439Y2281747D03*
X0103589Y2281747D03*
X0106738Y2281747D03*
X0109888Y2281747D03*
X0113037Y2281747D03*
X0116187Y2281747D03*
X0116187Y2318676D03*
X0113037Y2318676D03*
X0109888Y2318676D03*
X0106738Y2318676D03*
X0103589Y2318676D03*
X0100439Y2318676D03*
X0097289Y2318676D03*
X0094140Y2318676D03*
X0090990Y2318676D03*
X0087841Y2318676D03*
X0084691Y2318676D03*
X0078660Y0120477D03*
X0075511Y0120477D03*
X0072361Y0120477D03*
X0069211Y0120477D03*
X0066062Y0120477D03*
X0062912Y0120477D03*
X0059763Y0120477D03*
X0056613Y0120477D03*
X0053463Y0120477D03*
X0050314Y0120477D03*
X0047164Y0120477D03*
X0047164Y0083548D03*
X0050314Y0083548D03*
X0053463Y0083548D03*
X0056613Y0083548D03*
X0059763Y0083548D03*
X0062912Y0083548D03*
X0066062Y0083548D03*
X0069211Y0083548D03*
X0072361Y0083548D03*
X0075511Y0083548D03*
X0078660Y0083548D03*
X2249826Y0080652D03*
X2252976Y0080652D03*
X2256125Y0080652D03*
X2259275Y0080652D03*
X2262424Y0080652D03*
X2265574Y0080652D03*
X2268724Y0080652D03*
X2271873Y0080652D03*
X2275023Y0080652D03*
X2278173Y0080652D03*
X2281322Y0080652D03*
X2281322Y0043723D03*
X2278173Y0043723D03*
X2275023Y0043723D03*
X2271873Y0043723D03*
X2268724Y0043723D03*
X2265574Y0043723D03*
X2262424Y0043723D03*
X2259275Y0043723D03*
X2256125Y0043723D03*
X2252976Y0043723D03*
X2249826Y0043723D03*
X2286581Y2245126D03*
X2289731Y2245126D03*
X2292881Y2245126D03*
X2296030Y2245126D03*
X2299180Y2245126D03*
X2302329Y2245126D03*
X2305479Y2245126D03*
X2308629Y2245126D03*
X2311778Y2245126D03*
X2314928Y2245126D03*
X2318077Y2245126D03*
X2318077Y2282055D03*
X2314928Y2282055D03*
X2311778Y2282055D03*
X2308629Y2282055D03*
X2305479Y2282055D03*
X2302329Y2282055D03*
X2299180Y2282055D03*
X2296030Y2282055D03*
X2292881Y2282055D03*
X2289731Y2282055D03*
X2286581Y2282055D03*
D17*
X2300755Y2295481D03*
X2306660Y2295481D03*
X2261660Y2269575D03*
X2261660Y2263670D03*
X2265653Y0102857D03*
X2271558Y0102857D03*
X2297464Y0063762D03*
X2297464Y0057857D03*
X0103582Y0096028D03*
X0103582Y0101934D03*
X0064487Y0070123D03*
X0058582Y0070123D03*
X0094455Y2259542D03*
X0100360Y2259542D03*
X0068549Y2298636D03*
X0068549Y2304542D03*
D18*
X0081459Y2325272D03*
X0081459Y2331965D03*
X0091648Y2329939D03*
X0091648Y2323246D03*
X0102959Y2323203D03*
X0102959Y2329896D03*
X0038621Y0118469D03*
X0038621Y0111776D03*
X0023943Y0081968D03*
X0023943Y0075275D03*
X2263054Y0039195D03*
X2263054Y0032502D03*
X2274365Y0032460D03*
X2274365Y0039153D03*
X2284554Y0037126D03*
X2284554Y0030434D03*
X2326621Y2247134D03*
X2326621Y2253827D03*
X2341299Y2283635D03*
X2341299Y2290328D03*
D19*
X2334083Y2282571D03*
X2327390Y2282571D03*
X2325364Y2272382D03*
X2332057Y2272382D03*
X2332014Y2261071D03*
X2325322Y2261071D03*
X0116896Y2324503D03*
X0110203Y2324503D03*
X0080395Y2339181D03*
X0073702Y2339181D03*
X0039920Y0104532D03*
X0033227Y0104532D03*
X0033185Y0093221D03*
X0039878Y0093221D03*
X0037851Y0083033D03*
X0031158Y0083033D03*
X2249117Y0037896D03*
X2255810Y0037896D03*
X2285618Y0023218D03*
X2292311Y0023218D03*
D20*
X2292149Y0058723D03*
X2292149Y0063841D03*
X2301412Y0094852D03*
X2301412Y0099970D03*
X2240692Y0071676D03*
X2240692Y0066557D03*
X0096219Y0113351D03*
X0091770Y0113351D03*
X0091770Y0118469D03*
X0096219Y0118469D03*
X0094054Y0101107D03*
X0094054Y0095989D03*
X0094015Y0088902D03*
X0094015Y0083784D03*
X0081613Y0072249D03*
X0081613Y0067130D03*
X0050482Y0068271D03*
X0046180Y0068312D03*
X0041985Y0068346D03*
X0037714Y0068392D03*
X0037714Y0073510D03*
X0041985Y0073464D03*
X0046180Y0073430D03*
X0050482Y0073389D03*
X0050444Y0061462D03*
X0046180Y0061422D03*
X0041947Y0061380D03*
X0037713Y0061376D03*
X0037713Y0056258D03*
X0041947Y0056262D03*
X0046180Y0056304D03*
X0050444Y0056344D03*
X0064601Y2262429D03*
X0064601Y2267547D03*
X0073864Y2298558D03*
X0073864Y2303676D03*
X0125321Y2295841D03*
X0125321Y2290723D03*
X2269022Y2252252D03*
X2273471Y2252252D03*
X2273471Y2247134D03*
X2269022Y2247134D03*
X2271188Y2264496D03*
X2271188Y2269614D03*
X2271227Y2276701D03*
X2271227Y2281819D03*
X2283629Y2293355D03*
X2283629Y2298473D03*
X2314759Y2297332D03*
X2319062Y2297292D03*
X2323257Y2297257D03*
X2327527Y2297212D03*
X2327527Y2292093D03*
X2323257Y2292139D03*
X2319062Y2292173D03*
X2314759Y2292214D03*
X2314798Y2304141D03*
X2319062Y2304181D03*
X2323295Y2304223D03*
X2327528Y2304227D03*
X2327528Y2309345D03*
X2323295Y2309341D03*
X2319062Y2309299D03*
X2314798Y2309259D03*
D21*
X2271936Y2293315D03*
X2271936Y2291347D03*
X2269967Y2291347D03*
X2269967Y2293315D03*
X2267999Y2293315D03*
X2267999Y2291347D03*
X2267999Y2289378D03*
X2269967Y2289378D03*
X2271936Y2289378D03*
X2291361Y0096518D03*
X2291361Y0094550D03*
X2291361Y0092581D03*
X2293330Y0092581D03*
X2295298Y0092581D03*
X2295298Y0094550D03*
X2293330Y0094550D03*
X2293330Y0096518D03*
X2295298Y0096518D03*
X0097243Y0076225D03*
X0097243Y0074256D03*
X0097243Y0072288D03*
X0095274Y0072288D03*
X0093306Y0072288D03*
X0093306Y0074256D03*
X0095274Y0074256D03*
X0095274Y0076225D03*
X0093306Y0076225D03*
X0074652Y2265881D03*
X0074652Y2267849D03*
X0074652Y2269818D03*
X0072683Y2269818D03*
X0070715Y2269818D03*
X0070715Y2267849D03*
X0072683Y2267849D03*
X0072683Y2265881D03*
X0070715Y2265881D03*
D22*
X0057171Y2261747D03*
X0049691Y2261747D03*
X0049691Y2271196D03*
X0057171Y2271196D03*
X2263865Y2306858D03*
X2263865Y2314339D03*
X2273314Y2314339D03*
X2273314Y2306858D03*
X2308842Y0100652D03*
X2316322Y0100652D03*
X2316322Y0091203D03*
X2308842Y0091203D03*
X0101377Y0058745D03*
X0101377Y0051264D03*
X0091928Y0051264D03*
X0091928Y0058745D03*
D23*
X2327621Y0012384D03*
X2355180Y0012384D03*
X0038392Y2350014D03*
X0010833Y2350014D03*
D24*
X0171773Y2349004D03*
X0171773Y2341130D03*
X0171773Y2333256D03*
X0171773Y2325382D03*
X0171773Y2317508D03*
X0171773Y2309634D03*
X0171773Y2301760D03*
X0171773Y2293886D03*
X0171773Y2286012D03*
X0195395Y2286012D03*
X0195395Y2293886D03*
X0195395Y2301760D03*
X0195395Y2309634D03*
X0195395Y2317508D03*
X0195395Y2325382D03*
X0195395Y2333256D03*
X0195395Y2341130D03*
X0195395Y2349004D03*
X0195395Y2278138D03*
X0084986Y0196968D03*
X0077112Y0196968D03*
X0069238Y0196968D03*
X0061364Y0196968D03*
X0053490Y0196968D03*
X0045616Y0196968D03*
X0037742Y0196968D03*
X0029868Y0196968D03*
X0021994Y0196968D03*
X0014120Y0196968D03*
X0014120Y0173346D03*
X0021994Y0173346D03*
X0029868Y0173346D03*
X0037742Y0173346D03*
X0045616Y0173346D03*
X0053490Y0173346D03*
X0061364Y0173346D03*
X0069238Y0173346D03*
X0077112Y0173346D03*
X2170618Y0084261D03*
X2170618Y0076387D03*
X2170618Y0068513D03*
X2170618Y0060639D03*
X2170618Y0052765D03*
X2170618Y0044891D03*
X2170618Y0037017D03*
X2170618Y0029143D03*
X2170618Y0021269D03*
X2170618Y0013395D03*
X2194240Y0013395D03*
X2194240Y0021269D03*
X2194240Y0029143D03*
X2194240Y0037017D03*
X2194240Y0044891D03*
X2194240Y0052765D03*
X2194240Y0060639D03*
X2194240Y0068513D03*
X2194240Y0076387D03*
X2280256Y2168635D03*
X2288130Y2168635D03*
X2296004Y2168635D03*
X2303878Y2168635D03*
X2311752Y2168635D03*
X2319626Y2168635D03*
X2327500Y2168635D03*
X2335374Y2168635D03*
X2343248Y2168635D03*
X2351122Y2168635D03*
X2351122Y2192257D03*
X2343248Y2192257D03*
X2335374Y2192257D03*
X2327500Y2192257D03*
X2319626Y2192257D03*
X2311752Y2192257D03*
X2303878Y2192257D03*
X2296004Y2192257D03*
X2288130Y2192257D03*
D25*
X2273452Y0024180D03*
X0092561Y2338219D03*
D26*
X0089805Y2339892D03*
X0095317Y2339892D03*
X2270696Y0022507D03*
X2276208Y0022507D03*
D27*
X2273452Y0019948D03*
X2344569Y2271469D03*
X0092561Y2342451D03*
X0020672Y0094135D03*
D28*
X0074330Y0054926D03*
X0081416Y0054926D03*
X2283826Y2310677D03*
X2290912Y2310677D03*
D29*
X2252014Y2260874D03*
X0113227Y0104729D03*
D30*
X0194133Y0104729D03*
X2171109Y2260874D03*
D31*
X0013109Y0012406D03*
X0013109Y0039965D03*
X2352133Y2325638D03*
X2352133Y2353197D03*
D32*
X2340337Y2271469D03*
X0024905Y0094135D03*
D33*
X0023232Y0096890D03*
X0023232Y0091379D03*
X2342010Y2268713D03*
X2342010Y2274224D03*
D34*
X2334007Y2277282D03*
X2331362Y2268109D03*
X2332160Y2255000D03*
X2332151Y2250927D03*
X2322122Y2242428D03*
X2324888Y2239680D03*
X2322041Y2231293D03*
X2314189Y2232850D03*
X2311503Y2229221D03*
X2307202Y2229246D03*
X2308983Y2235481D03*
X2308944Y2240087D03*
X2286606Y2230440D03*
X2285724Y2214056D03*
X2294736Y2214252D03*
X2305021Y2214252D03*
X2314898Y2214278D03*
X2326149Y2214567D03*
X2337558Y2214649D03*
X2350066Y2214860D03*
X2347973Y2256682D03*
X2357382Y2290158D03*
X2352065Y2294321D03*
X2357551Y2302486D03*
X2357495Y2312692D03*
X2345183Y2312434D03*
X2333759Y2323908D03*
X2333579Y2333773D03*
X2333532Y2344111D03*
X2333579Y2353466D03*
X2323217Y2353400D03*
X2312284Y2353282D03*
X2314006Y2319353D03*
X2318767Y2314398D03*
X2303478Y2311474D03*
X2302271Y2302614D03*
X2298029Y2302598D03*
X2289770Y2300795D03*
X2274999Y2300167D03*
X2274982Y2296310D03*
X2282900Y2287684D03*
X2282853Y2282791D03*
X2279574Y2279772D03*
X2265101Y2272336D03*
X2260961Y2277876D03*
X2260634Y2284024D03*
X2260302Y2293810D03*
X2266128Y2327759D03*
X2271523Y2327844D03*
X2259089Y2333904D03*
X2261304Y2353943D03*
X2272680Y2354300D03*
X2286290Y2323331D03*
X2283833Y2319227D03*
X2288629Y2317567D03*
X2295272Y2319244D03*
X2327759Y2287098D03*
X2279385Y2257774D03*
X2273471Y2258227D03*
X2278884Y2250992D03*
X2265873Y2264890D03*
X2241359Y2261064D03*
X2259310Y2229627D03*
X2271497Y2213824D03*
X2263048Y0123158D03*
X2266873Y0098644D03*
X2274320Y0099416D03*
X2279859Y0103556D03*
X2286008Y0103882D03*
X2295793Y0104215D03*
X2298293Y0089535D03*
X2302151Y0089518D03*
X2289667Y0081616D03*
X2284774Y0081664D03*
X2281755Y0084943D03*
X2259757Y0085132D03*
X2260211Y0091046D03*
X2252976Y0085632D03*
X2232423Y0077911D03*
X2216039Y0078793D03*
X2216235Y0069781D03*
X2216235Y0059496D03*
X2216261Y0049619D03*
X2216550Y0038368D03*
X2216632Y0026959D03*
X2216844Y0014451D03*
X2233276Y0042476D03*
X2234833Y0050328D03*
X2231204Y0053014D03*
X2231229Y0057315D03*
X2237464Y0055534D03*
X2242070Y0055573D03*
X2244412Y0042395D03*
X2241663Y0039629D03*
X2252910Y0032366D03*
X2256983Y0032357D03*
X2270092Y0033155D03*
X2279266Y0030510D03*
X2289081Y0036758D03*
X2296304Y0012452D03*
X2292142Y0007135D03*
X2304469Y0006966D03*
X2314675Y0007022D03*
X2314418Y0019333D03*
X2325892Y0030758D03*
X2335757Y0030938D03*
X2346094Y0030985D03*
X2355450Y0030938D03*
X2355383Y0041300D03*
X2355265Y0052233D03*
X2321336Y0050510D03*
X2316381Y0045750D03*
X2313457Y0061038D03*
X2304598Y0062246D03*
X2304581Y0066488D03*
X2302779Y0074746D03*
X2319550Y0075888D03*
X2321210Y0080684D03*
X2325315Y0078227D03*
X2321228Y0069245D03*
X2329827Y0092994D03*
X2329742Y0098388D03*
X2335887Y0105428D03*
X2355926Y0103213D03*
X2356283Y0091837D03*
X2258665Y0016544D03*
X2215807Y0093020D03*
X2231610Y0105207D03*
X0123882Y0104539D03*
X0099369Y0100713D03*
X0100140Y0093267D03*
X0104281Y0087727D03*
X0104607Y0081579D03*
X0104940Y0071793D03*
X0090260Y0069293D03*
X0090243Y0065436D03*
X0082341Y0077919D03*
X0082388Y0082812D03*
X0085668Y0085831D03*
X0085857Y0107829D03*
X0091770Y0107376D03*
X0086357Y0114611D03*
X0078635Y0135163D03*
X0079518Y0151547D03*
X0070506Y0151351D03*
X0060221Y0151351D03*
X0050344Y0151325D03*
X0039093Y0151036D03*
X0027683Y0150954D03*
X0015176Y0150743D03*
X0043201Y0134311D03*
X0051053Y0132754D03*
X0053739Y0136382D03*
X0058040Y0136357D03*
X0056259Y0130123D03*
X0056298Y0125516D03*
X0043120Y0123175D03*
X0040354Y0125923D03*
X0033091Y0114676D03*
X0033081Y0110603D03*
X0033879Y0097495D03*
X0031235Y0088321D03*
X0037483Y0078505D03*
X0013177Y0071282D03*
X0007860Y0075445D03*
X0007691Y0063117D03*
X0007747Y0052911D03*
X0020058Y0053169D03*
X0031483Y0041695D03*
X0031663Y0031830D03*
X0031710Y0021492D03*
X0031663Y0012137D03*
X0042025Y0012203D03*
X0052957Y0012321D03*
X0051235Y0046250D03*
X0046475Y0051206D03*
X0061763Y0054129D03*
X0062971Y0062989D03*
X0067213Y0063005D03*
X0075471Y0064808D03*
X0076613Y0048036D03*
X0081409Y0046377D03*
X0078952Y0042272D03*
X0069970Y0046359D03*
X0093719Y0037759D03*
X0099113Y0037844D03*
X0106153Y0031699D03*
X0103938Y0011660D03*
X0092562Y0011303D03*
X0017269Y0108921D03*
X0093745Y0151779D03*
X0105932Y0135976D03*
X0102966Y2239241D03*
X0099140Y2263755D03*
X0091693Y2262983D03*
X0086154Y2258843D03*
X0080005Y2258516D03*
X0070220Y2258184D03*
X0067720Y2272864D03*
X0063862Y2272881D03*
X0076346Y2280782D03*
X0081239Y2280735D03*
X0084258Y2277455D03*
X0106256Y2277267D03*
X0105803Y2271353D03*
X0113037Y2276766D03*
X0133590Y2284488D03*
X0149974Y2283606D03*
X0149778Y2292617D03*
X0149778Y2302902D03*
X0149752Y2312780D03*
X0149463Y2324031D03*
X0149381Y2335440D03*
X0149170Y2347948D03*
X0132737Y2319923D03*
X0131180Y2312071D03*
X0134809Y2309385D03*
X0134784Y2305083D03*
X0128549Y2306865D03*
X0123943Y2306825D03*
X0121602Y2320004D03*
X0124350Y2322770D03*
X0113103Y2330033D03*
X0109030Y2330042D03*
X0095921Y2329244D03*
X0086748Y2331889D03*
X0076932Y2325641D03*
X0069709Y2349947D03*
X0073871Y2355263D03*
X0061544Y2355433D03*
X0051338Y2355377D03*
X0051595Y2343065D03*
X0040122Y2331640D03*
X0030257Y2331461D03*
X0019919Y2331414D03*
X0010563Y2331461D03*
X0010630Y2321099D03*
X0010748Y2310166D03*
X0044677Y2311888D03*
X0049632Y2316648D03*
X0052556Y2301360D03*
X0061415Y2300153D03*
X0061432Y2295911D03*
X0063234Y2287652D03*
X0046463Y2286511D03*
X0044803Y2281715D03*
X0040698Y2284172D03*
X0044785Y2293154D03*
X0036186Y2269405D03*
X0036271Y2264010D03*
X0030126Y2256971D03*
X0010087Y2259186D03*
X0009730Y2270562D03*
X0107348Y2345855D03*
X0150206Y2269379D03*
X0134403Y2257191D03*
M02*
