G75*
%MOIN*%
%OFA0B0*%
%FSLAX25Y25*%
%IPPOS*%
%LPD*%
%AMOC8*
5,1,8,0,0,1.08239X$1,22.5*
%
%ADD10R,0.07587X0.04437*%
%ADD11R,0.01484X0.02272*%
%ADD12R,0.03256X0.04043*%
%ADD13R,0.04043X0.03256*%
%ADD14R,0.02272X0.01563*%
%ADD15R,0.01563X0.02272*%
%ADD16R,0.04831X0.04437*%
%ADD17R,0.04437X0.04831*%
%ADD18R,0.03650X0.03650*%
%ADD19R,0.20776X0.20776*%
%ADD20C,0.01681*%
%ADD21R,1.85539X0.09161*%
%ADD22R,1.85539X0.04831*%
%ADD23R,0.05028X0.06012*%
%ADD24R,0.04437X0.04437*%
%ADD25C,0.03478*%
%ADD26R,0.02075X0.03846*%
%ADD27R,0.02075X0.07193*%
%ADD28R,0.02075X0.02075*%
%ADD29R,0.02272X0.05815*%
%ADD30R,0.05224X0.03650*%
%ADD31R,0.03846X0.01406*%
%ADD32R,0.04437X0.01406*%
%ADD33R,0.05933X0.07587*%
%ADD34R,0.08374X0.07193*%
%ADD35R,0.04437X0.07587*%
%ADD36R,0.02272X0.01484*%
%ADD37R,0.09161X1.85539*%
%ADD38R,0.04831X1.85539*%
%ADD39R,0.06012X0.05028*%
%ADD40R,0.03846X0.02075*%
%ADD41R,0.07193X0.02075*%
%ADD42R,0.05815X0.02272*%
%ADD43R,0.03650X0.05224*%
%ADD44R,0.01406X0.03846*%
%ADD45R,0.01406X0.04437*%
%ADD46R,0.07587X0.05933*%
%ADD47R,0.07193X0.08374*%
%ADD48C,0.02678*%
D10*
X2228921Y0061833D03*
X2228921Y0071676D03*
X0137093Y2290723D03*
X0137093Y2300566D03*
D11*
X0103786Y2291589D03*
X0101817Y2291589D03*
X0099848Y2291589D03*
X0099848Y2288440D03*
X0101817Y2288440D03*
X0103786Y2288440D03*
X2262228Y0073959D03*
X2264196Y0073959D03*
X2266165Y0073959D03*
X2266165Y0070809D03*
X2264196Y0070809D03*
X2262228Y0070809D03*
D12*
X2264314Y0052699D03*
X2264432Y0047935D03*
X2259314Y0047935D03*
X2259196Y0052699D03*
X2245220Y0051636D03*
X2245180Y0046518D03*
X2240062Y0046518D03*
X2240102Y0051636D03*
X2233094Y0046479D03*
X2227976Y0046479D03*
X2250023Y0037975D03*
X2255141Y0037975D03*
X2262385Y0037857D03*
X2267503Y0037857D03*
X2294361Y0044058D03*
X2299479Y0044058D03*
X2310623Y0066727D03*
X2310533Y0071041D03*
X2315651Y0071041D03*
X2315741Y0066727D03*
X2241873Y0071754D03*
X2236755Y0071754D03*
X0100596Y0080697D03*
X0100535Y0085006D03*
X0100550Y0089215D03*
X0095432Y0089215D03*
X0095417Y0085006D03*
X0095478Y0080697D03*
X0095442Y0076212D03*
X0100560Y0076212D03*
X0084941Y0068988D03*
X0079823Y0068988D03*
X0076688Y0109604D03*
X0071570Y0109604D03*
X0066298Y0131186D03*
X0061180Y0131186D03*
X0055481Y2291358D03*
X0055391Y2295672D03*
X0050272Y2295672D03*
X0050362Y2291358D03*
X0066534Y2318341D03*
X0071652Y2318341D03*
X0098510Y2324542D03*
X0103628Y2324542D03*
X0110872Y2324424D03*
X0115990Y2324424D03*
X0120833Y2315881D03*
X0125951Y2315881D03*
X0125911Y2310762D03*
X0120793Y2310762D03*
X0132919Y2315920D03*
X0138037Y2315920D03*
X0129258Y2290644D03*
X0124140Y2290644D03*
X0106817Y2309699D03*
X0106699Y2314463D03*
X0101581Y2314463D03*
X0101699Y2309699D03*
X2264682Y2289391D03*
X2264646Y2284906D03*
X2264707Y2280597D03*
X2264691Y2276388D03*
X2269809Y2276388D03*
X2269825Y2280597D03*
X2269764Y2284906D03*
X2269800Y2289391D03*
X2280301Y2296615D03*
X2285419Y2296615D03*
X2288553Y2255999D03*
X2293671Y2255999D03*
X2298944Y2234418D03*
X2304062Y2234418D03*
D13*
X2312881Y2238118D03*
X2317999Y2238079D03*
X2317999Y2243197D03*
X2312881Y2243236D03*
X2318038Y2231110D03*
X2318038Y2225992D03*
X2326542Y2248040D03*
X2326542Y2253158D03*
X2326660Y2260402D03*
X2326660Y2265520D03*
X2316581Y2262449D03*
X2311818Y2262331D03*
X2311818Y2257213D03*
X2316581Y2257331D03*
X2292763Y2239890D03*
X2292763Y2234772D03*
X2320459Y2292377D03*
X2320459Y2297495D03*
X2297790Y2308639D03*
X2293476Y2308549D03*
X2293476Y2313667D03*
X2297790Y2313757D03*
X0129612Y2301944D03*
X0129612Y2296825D03*
X0108031Y2291553D03*
X0108031Y2286435D03*
X0087641Y2267691D03*
X0083432Y2267707D03*
X0079124Y2267646D03*
X0074639Y2267682D03*
X0074639Y2262564D03*
X0079124Y2262527D03*
X0083432Y2262589D03*
X0087641Y2262573D03*
X0067415Y2278183D03*
X0067415Y2283301D03*
X0047204Y0139611D03*
X0047204Y0134493D03*
X0047243Y0127524D03*
X0047243Y0122406D03*
X0052361Y0122367D03*
X0052361Y0127485D03*
X0038700Y0117564D03*
X0038700Y0112445D03*
X0038582Y0105201D03*
X0038582Y0100083D03*
X0048660Y0103154D03*
X0053424Y0103272D03*
X0053424Y0108390D03*
X0048660Y0108272D03*
X0072479Y0125713D03*
X0072479Y0130831D03*
X0044783Y0073226D03*
X0044783Y0068108D03*
X0067452Y0056964D03*
X0071766Y0057054D03*
X0071766Y0051936D03*
X0067452Y0051846D03*
X2236401Y0060455D03*
X2236401Y0065573D03*
X2257982Y0070845D03*
X2257982Y0075963D03*
X2278372Y0094707D03*
X2282581Y0094692D03*
X2286889Y0094753D03*
X2291375Y0094717D03*
X2291375Y0099835D03*
X2286889Y0099871D03*
X2282581Y0099810D03*
X2278372Y0099826D03*
X2298598Y0084216D03*
X2298598Y0079098D03*
D14*
X2237641Y0024569D03*
X2237641Y0022876D03*
X2237641Y0021183D03*
X2237641Y0019490D03*
X2237641Y0017798D03*
X2237641Y0016105D03*
X2237641Y0014412D03*
X2237641Y0012719D03*
X2227995Y0012719D03*
X2227995Y0014412D03*
X2227995Y0016105D03*
X2227995Y0017798D03*
X2227995Y0019490D03*
X2227995Y0021183D03*
X2227995Y0022876D03*
X2227995Y0024569D03*
X0025176Y0132229D03*
X0025176Y0133922D03*
X0025176Y0135615D03*
X0025176Y0137308D03*
X0013562Y0137308D03*
X0013562Y0135615D03*
X0013562Y0133922D03*
X0013562Y0132229D03*
X0128372Y2337829D03*
X0128372Y2339522D03*
X0128372Y2341215D03*
X0128372Y2342908D03*
X0128372Y2344601D03*
X0128372Y2346294D03*
X0128372Y2347987D03*
X0128372Y2349680D03*
X0138018Y2349680D03*
X0138018Y2347987D03*
X0138018Y2346294D03*
X0138018Y2344601D03*
X0138018Y2342908D03*
X0138018Y2341215D03*
X0138018Y2339522D03*
X0138018Y2337829D03*
X2340066Y2233374D03*
X2340066Y2231681D03*
X2340066Y2229988D03*
X2340066Y2228295D03*
X2351680Y2228295D03*
X2351680Y2229988D03*
X2351680Y2231681D03*
X2351680Y2233374D03*
D15*
X2351798Y2235658D03*
X2350105Y2235658D03*
X2348412Y2235658D03*
X2346719Y2235658D03*
X2345026Y2235658D03*
X2343333Y2235658D03*
X2341640Y2235658D03*
X2339948Y2235658D03*
X2339948Y2226012D03*
X2341640Y2226012D03*
X2343333Y2226012D03*
X2345026Y2226012D03*
X2346719Y2226012D03*
X2348412Y2226012D03*
X2350105Y2226012D03*
X2351798Y2226012D03*
X2235358Y0024451D03*
X2233665Y0024451D03*
X2231972Y0024451D03*
X2230279Y0024451D03*
X2230279Y0012837D03*
X2231972Y0012837D03*
X2233665Y0012837D03*
X2235358Y0012837D03*
X0025294Y0129945D03*
X0023601Y0129945D03*
X0021908Y0129945D03*
X0020215Y0129945D03*
X0018522Y0129945D03*
X0016830Y0129945D03*
X0015137Y0129945D03*
X0013444Y0129945D03*
X0013444Y0139591D03*
X0015137Y0139591D03*
X0016830Y0139591D03*
X0018522Y0139591D03*
X0020215Y0139591D03*
X0021908Y0139591D03*
X0023601Y0139591D03*
X0025294Y0139591D03*
X0130656Y2337948D03*
X0132348Y2337948D03*
X0134041Y2337948D03*
X0135734Y2337948D03*
X0135734Y2349562D03*
X0134041Y2349562D03*
X0132348Y2349562D03*
X0130656Y2349562D03*
D16*
X0119384Y2282942D03*
X0112692Y2282942D03*
X0134099Y2278103D03*
X0140792Y2278103D03*
X0079628Y2275403D03*
X0072935Y2275403D03*
X0069998Y2263232D03*
X0063305Y2263232D03*
X0091595Y0140863D03*
X0098287Y0140863D03*
X0085328Y0128742D03*
X0078635Y0128742D03*
X0086921Y0120664D03*
X0093614Y0120664D03*
X2225221Y0084295D03*
X2231914Y0084295D03*
X2246629Y0079457D03*
X2253322Y0079457D03*
X2286385Y0086995D03*
X2293078Y0086995D03*
X2296015Y0099166D03*
X2302708Y0099166D03*
X2273647Y2224740D03*
X2266954Y2224740D03*
X2279913Y2236861D03*
X2286606Y2236861D03*
X2278320Y2244939D03*
X2271628Y2244939D03*
D17*
X2285060Y2244645D03*
X2285060Y2251338D03*
X2280221Y2229931D03*
X2280221Y2223238D03*
X2277522Y2284402D03*
X2277522Y2291095D03*
X2265350Y2294032D03*
X2265350Y2300725D03*
X0139290Y2271529D03*
X0139290Y2264836D03*
X0127168Y2277795D03*
X0127168Y2284488D03*
X0119091Y2276202D03*
X0119091Y2269509D03*
X0085020Y0142365D03*
X0085020Y0135673D03*
X0080182Y0120958D03*
X0080182Y0114265D03*
X0087720Y0081201D03*
X0087720Y0074508D03*
X0099891Y0071571D03*
X0099891Y0064878D03*
X2226723Y0090870D03*
X2226723Y0097563D03*
X2238845Y0084603D03*
X2238845Y0077911D03*
X2246922Y0086196D03*
X2246922Y0092889D03*
D18*
X2252818Y0053211D03*
X2252818Y0047305D03*
X2258763Y0042896D03*
X2264669Y0042896D03*
X2303362Y0079159D03*
X2303362Y0085065D03*
X2311306Y2250835D03*
X2317211Y2250835D03*
X2321621Y2256780D03*
X2321621Y2262685D03*
X2285357Y2301379D03*
X2279452Y2301379D03*
X0113195Y2309188D03*
X0113195Y2315093D03*
X0107250Y2319503D03*
X0101345Y2319503D03*
X0062651Y2283239D03*
X0062651Y2277334D03*
X0053936Y0114768D03*
X0048030Y0114768D03*
X0043621Y0108823D03*
X0043621Y0102918D03*
X0079884Y0064224D03*
X0085790Y0064224D03*
D19*
X0063385Y0084138D03*
X0082565Y2299739D03*
X2301857Y2281465D03*
X2283448Y0062660D03*
D20*
X2282464Y0076637D02*
X2282464Y0076637D01*
X2282464Y0075061D01*
X2282464Y0075061D01*
X2282464Y0076637D01*
X2284432Y0076637D02*
X2284432Y0076637D01*
X2284432Y0075061D01*
X2284432Y0075061D01*
X2284432Y0076637D01*
X2286401Y0076637D02*
X2286401Y0076637D01*
X2286401Y0075061D01*
X2286401Y0075061D01*
X2286401Y0076637D01*
X2288369Y0075061D02*
X2288369Y0075061D01*
X2288369Y0076637D01*
X2288369Y0076637D01*
X2288369Y0075061D01*
X2290338Y0075061D02*
X2290338Y0075061D01*
X2290338Y0076637D01*
X2290338Y0076637D01*
X2290338Y0075061D01*
X2292306Y0075061D02*
X2292306Y0075061D01*
X2292306Y0076637D01*
X2292306Y0076637D01*
X2292306Y0075061D01*
X2294275Y0075061D02*
X2294275Y0075061D01*
X2294275Y0076637D01*
X2294275Y0076637D01*
X2294275Y0075061D01*
X2295849Y0073487D02*
X2295849Y0073487D01*
X2297425Y0073487D01*
X2297425Y0073487D01*
X2295849Y0073487D01*
X2295849Y0071518D02*
X2295849Y0071518D01*
X2297425Y0071518D01*
X2297425Y0071518D01*
X2295849Y0071518D01*
X2295849Y0069550D02*
X2295849Y0069550D01*
X2297425Y0069550D01*
X2297425Y0069550D01*
X2295849Y0069550D01*
X2295849Y0067581D02*
X2295849Y0067581D01*
X2297425Y0067581D01*
X2297425Y0067581D01*
X2295849Y0067581D01*
X2295849Y0065613D02*
X2295849Y0065613D01*
X2297425Y0065613D01*
X2297425Y0065613D01*
X2295849Y0065613D01*
X2295849Y0063644D02*
X2295849Y0063644D01*
X2297425Y0063644D01*
X2297425Y0063644D01*
X2295849Y0063644D01*
X2295849Y0061676D02*
X2295849Y0061676D01*
X2297425Y0061676D01*
X2297425Y0061676D01*
X2295849Y0061676D01*
X2295849Y0059707D02*
X2295849Y0059707D01*
X2297425Y0059707D01*
X2297425Y0059707D01*
X2295849Y0059707D01*
X2295849Y0057739D02*
X2295849Y0057739D01*
X2297425Y0057739D01*
X2297425Y0057739D01*
X2295849Y0057739D01*
X2295849Y0055770D02*
X2295849Y0055770D01*
X2297425Y0055770D01*
X2297425Y0055770D01*
X2295849Y0055770D01*
X2295849Y0053802D02*
X2295849Y0053802D01*
X2297425Y0053802D01*
X2297425Y0053802D01*
X2295849Y0053802D01*
X2295849Y0051833D02*
X2295849Y0051833D01*
X2297425Y0051833D01*
X2297425Y0051833D01*
X2295849Y0051833D01*
X2294275Y0050259D02*
X2294275Y0050259D01*
X2294275Y0048683D01*
X2294275Y0048683D01*
X2294275Y0050259D01*
X2292306Y0050259D02*
X2292306Y0050259D01*
X2292306Y0048683D01*
X2292306Y0048683D01*
X2292306Y0050259D01*
X2290338Y0050259D02*
X2290338Y0050259D01*
X2290338Y0048683D01*
X2290338Y0048683D01*
X2290338Y0050259D01*
X2288369Y0050259D02*
X2288369Y0050259D01*
X2288369Y0048683D01*
X2288369Y0048683D01*
X2288369Y0050259D01*
X2286401Y0050259D02*
X2286401Y0050259D01*
X2286401Y0048683D01*
X2286401Y0048683D01*
X2286401Y0050259D01*
X2284432Y0050259D02*
X2284432Y0050259D01*
X2284432Y0048683D01*
X2284432Y0048683D01*
X2284432Y0050259D01*
X2282464Y0050259D02*
X2282464Y0050259D01*
X2282464Y0048683D01*
X2282464Y0048683D01*
X2282464Y0050259D01*
X2280495Y0050259D02*
X2280495Y0050259D01*
X2280495Y0048683D01*
X2280495Y0048683D01*
X2280495Y0050259D01*
X2278527Y0050259D02*
X2278527Y0050259D01*
X2278527Y0048683D01*
X2278527Y0048683D01*
X2278527Y0050259D01*
X2276558Y0050259D02*
X2276558Y0050259D01*
X2276558Y0048683D01*
X2276558Y0048683D01*
X2276558Y0050259D01*
X2274590Y0050259D02*
X2274590Y0050259D01*
X2274590Y0048683D01*
X2274590Y0048683D01*
X2274590Y0050259D01*
X2272621Y0050259D02*
X2272621Y0050259D01*
X2272621Y0048683D01*
X2272621Y0048683D01*
X2272621Y0050259D01*
X2271047Y0051833D02*
X2271047Y0051833D01*
X2269471Y0051833D01*
X2269471Y0051833D01*
X2271047Y0051833D01*
X2271047Y0053802D02*
X2271047Y0053802D01*
X2269471Y0053802D01*
X2269471Y0053802D01*
X2271047Y0053802D01*
X2271047Y0055770D02*
X2271047Y0055770D01*
X2269471Y0055770D01*
X2269471Y0055770D01*
X2271047Y0055770D01*
X2271047Y0057739D02*
X2271047Y0057739D01*
X2269471Y0057739D01*
X2269471Y0057739D01*
X2271047Y0057739D01*
X2271047Y0059707D02*
X2271047Y0059707D01*
X2269471Y0059707D01*
X2269471Y0059707D01*
X2271047Y0059707D01*
X2271047Y0061676D02*
X2271047Y0061676D01*
X2269471Y0061676D01*
X2269471Y0061676D01*
X2271047Y0061676D01*
X2271047Y0063644D02*
X2271047Y0063644D01*
X2269471Y0063644D01*
X2269471Y0063644D01*
X2271047Y0063644D01*
X2271047Y0065613D02*
X2271047Y0065613D01*
X2269471Y0065613D01*
X2269471Y0065613D01*
X2271047Y0065613D01*
X2271047Y0067581D02*
X2271047Y0067581D01*
X2269471Y0067581D01*
X2269471Y0067581D01*
X2271047Y0067581D01*
X2271047Y0069550D02*
X2271047Y0069550D01*
X2269471Y0069550D01*
X2269471Y0069550D01*
X2271047Y0069550D01*
X2271047Y0071518D02*
X2271047Y0071518D01*
X2269471Y0071518D01*
X2269471Y0071518D01*
X2271047Y0071518D01*
X2271047Y0073487D02*
X2271047Y0073487D01*
X2269471Y0073487D01*
X2269471Y0073487D01*
X2271047Y0073487D01*
X2272621Y0075061D02*
X2272621Y0075061D01*
X2272621Y0076637D01*
X2272621Y0076637D01*
X2272621Y0075061D01*
X2274590Y0075061D02*
X2274590Y0075061D01*
X2274590Y0076637D01*
X2274590Y0076637D01*
X2274590Y0075061D01*
X2276558Y0075061D02*
X2276558Y0075061D01*
X2276558Y0076637D01*
X2276558Y0076637D01*
X2276558Y0075061D01*
X2278527Y0075061D02*
X2278527Y0075061D01*
X2278527Y0076637D01*
X2278527Y0076637D01*
X2278527Y0075061D01*
X2280495Y0076637D02*
X2280495Y0076637D01*
X2280495Y0075061D01*
X2280495Y0075061D01*
X2280495Y0076637D01*
X2291030Y2269064D02*
X2291030Y2269064D01*
X2291030Y2267488D01*
X2291030Y2267488D01*
X2291030Y2269064D01*
X2292999Y2269064D02*
X2292999Y2269064D01*
X2292999Y2267488D01*
X2292999Y2267488D01*
X2292999Y2269064D01*
X2294967Y2269064D02*
X2294967Y2269064D01*
X2294967Y2267488D01*
X2294967Y2267488D01*
X2294967Y2269064D01*
X2296936Y2269064D02*
X2296936Y2269064D01*
X2296936Y2267488D01*
X2296936Y2267488D01*
X2296936Y2269064D01*
X2298904Y2269064D02*
X2298904Y2269064D01*
X2298904Y2267488D01*
X2298904Y2267488D01*
X2298904Y2269064D01*
X2300873Y2269064D02*
X2300873Y2269064D01*
X2300873Y2267488D01*
X2300873Y2267488D01*
X2300873Y2269064D01*
X2302841Y2269064D02*
X2302841Y2269064D01*
X2302841Y2267488D01*
X2302841Y2267488D01*
X2302841Y2269064D01*
X2304810Y2269064D02*
X2304810Y2269064D01*
X2304810Y2267488D01*
X2304810Y2267488D01*
X2304810Y2269064D01*
X2306778Y2269064D02*
X2306778Y2269064D01*
X2306778Y2267488D01*
X2306778Y2267488D01*
X2306778Y2269064D01*
X2308747Y2269064D02*
X2308747Y2269064D01*
X2308747Y2267488D01*
X2308747Y2267488D01*
X2308747Y2269064D01*
X2310715Y2269064D02*
X2310715Y2269064D01*
X2310715Y2267488D01*
X2310715Y2267488D01*
X2310715Y2269064D01*
X2312684Y2269064D02*
X2312684Y2269064D01*
X2312684Y2267488D01*
X2312684Y2267488D01*
X2312684Y2269064D01*
X2314258Y2270638D02*
X2314258Y2270638D01*
X2315834Y2270638D01*
X2315834Y2270638D01*
X2314258Y2270638D01*
X2314258Y2272607D02*
X2314258Y2272607D01*
X2315834Y2272607D01*
X2315834Y2272607D01*
X2314258Y2272607D01*
X2314258Y2274575D02*
X2314258Y2274575D01*
X2315834Y2274575D01*
X2315834Y2274575D01*
X2314258Y2274575D01*
X2314258Y2276544D02*
X2314258Y2276544D01*
X2315834Y2276544D01*
X2315834Y2276544D01*
X2314258Y2276544D01*
X2314258Y2278512D02*
X2314258Y2278512D01*
X2315834Y2278512D01*
X2315834Y2278512D01*
X2314258Y2278512D01*
X2314258Y2280481D02*
X2314258Y2280481D01*
X2315834Y2280481D01*
X2315834Y2280481D01*
X2314258Y2280481D01*
X2314258Y2282449D02*
X2314258Y2282449D01*
X2315834Y2282449D01*
X2315834Y2282449D01*
X2314258Y2282449D01*
X2314258Y2284418D02*
X2314258Y2284418D01*
X2315834Y2284418D01*
X2315834Y2284418D01*
X2314258Y2284418D01*
X2314258Y2286386D02*
X2314258Y2286386D01*
X2315834Y2286386D01*
X2315834Y2286386D01*
X2314258Y2286386D01*
X2314258Y2288355D02*
X2314258Y2288355D01*
X2315834Y2288355D01*
X2315834Y2288355D01*
X2314258Y2288355D01*
X2314258Y2290323D02*
X2314258Y2290323D01*
X2315834Y2290323D01*
X2315834Y2290323D01*
X2314258Y2290323D01*
X2314258Y2292292D02*
X2314258Y2292292D01*
X2315834Y2292292D01*
X2315834Y2292292D01*
X2314258Y2292292D01*
X2312684Y2293866D02*
X2312684Y2293866D01*
X2312684Y2295442D01*
X2312684Y2295442D01*
X2312684Y2293866D01*
X2310715Y2293866D02*
X2310715Y2293866D01*
X2310715Y2295442D01*
X2310715Y2295442D01*
X2310715Y2293866D01*
X2308747Y2293866D02*
X2308747Y2293866D01*
X2308747Y2295442D01*
X2308747Y2295442D01*
X2308747Y2293866D01*
X2306778Y2293866D02*
X2306778Y2293866D01*
X2306778Y2295442D01*
X2306778Y2295442D01*
X2306778Y2293866D01*
X2304810Y2293866D02*
X2304810Y2293866D01*
X2304810Y2295442D01*
X2304810Y2295442D01*
X2304810Y2293866D01*
X2302841Y2293866D02*
X2302841Y2293866D01*
X2302841Y2295442D01*
X2302841Y2295442D01*
X2302841Y2293866D01*
X2300873Y2293866D02*
X2300873Y2293866D01*
X2300873Y2295442D01*
X2300873Y2295442D01*
X2300873Y2293866D01*
X2298904Y2293866D02*
X2298904Y2293866D01*
X2298904Y2295442D01*
X2298904Y2295442D01*
X2298904Y2293866D01*
X2296936Y2293866D02*
X2296936Y2293866D01*
X2296936Y2295442D01*
X2296936Y2295442D01*
X2296936Y2293866D01*
X2294967Y2293866D02*
X2294967Y2293866D01*
X2294967Y2295442D01*
X2294967Y2295442D01*
X2294967Y2293866D01*
X2292999Y2293866D02*
X2292999Y2293866D01*
X2292999Y2295442D01*
X2292999Y2295442D01*
X2292999Y2293866D01*
X2291030Y2293866D02*
X2291030Y2293866D01*
X2291030Y2295442D01*
X2291030Y2295442D01*
X2291030Y2293866D01*
X2289456Y2292292D02*
X2289456Y2292292D01*
X2287880Y2292292D01*
X2287880Y2292292D01*
X2289456Y2292292D01*
X2289456Y2290323D02*
X2289456Y2290323D01*
X2287880Y2290323D01*
X2287880Y2290323D01*
X2289456Y2290323D01*
X2289456Y2288355D02*
X2289456Y2288355D01*
X2287880Y2288355D01*
X2287880Y2288355D01*
X2289456Y2288355D01*
X2289456Y2286386D02*
X2289456Y2286386D01*
X2287880Y2286386D01*
X2287880Y2286386D01*
X2289456Y2286386D01*
X2287880Y2284418D02*
X2287880Y2284418D01*
X2289456Y2284418D01*
X2289456Y2284418D01*
X2287880Y2284418D01*
X2287880Y2282449D02*
X2287880Y2282449D01*
X2289456Y2282449D01*
X2289456Y2282449D01*
X2287880Y2282449D01*
X2287880Y2280481D02*
X2287880Y2280481D01*
X2289456Y2280481D01*
X2289456Y2280481D01*
X2287880Y2280481D01*
X2287880Y2278512D02*
X2287880Y2278512D01*
X2289456Y2278512D01*
X2289456Y2278512D01*
X2287880Y2278512D01*
X2289456Y2276544D02*
X2289456Y2276544D01*
X2287880Y2276544D01*
X2287880Y2276544D01*
X2289456Y2276544D01*
X2289456Y2274575D02*
X2289456Y2274575D01*
X2287880Y2274575D01*
X2287880Y2274575D01*
X2289456Y2274575D01*
X2289456Y2272607D02*
X2289456Y2272607D01*
X2287880Y2272607D01*
X2287880Y2272607D01*
X2289456Y2272607D01*
X2289456Y2270638D02*
X2289456Y2270638D01*
X2287880Y2270638D01*
X2287880Y2270638D01*
X2289456Y2270638D01*
X0094966Y2288912D02*
X0094966Y2288912D01*
X0096542Y2288912D01*
X0096542Y2288912D01*
X0094966Y2288912D01*
X0094966Y2290881D02*
X0094966Y2290881D01*
X0096542Y2290881D01*
X0096542Y2290881D01*
X0094966Y2290881D01*
X0094966Y2292849D02*
X0094966Y2292849D01*
X0096542Y2292849D01*
X0096542Y2292849D01*
X0094966Y2292849D01*
X0094966Y2294818D02*
X0094966Y2294818D01*
X0096542Y2294818D01*
X0096542Y2294818D01*
X0094966Y2294818D01*
X0094966Y2296786D02*
X0094966Y2296786D01*
X0096542Y2296786D01*
X0096542Y2296786D01*
X0094966Y2296786D01*
X0094966Y2298755D02*
X0094966Y2298755D01*
X0096542Y2298755D01*
X0096542Y2298755D01*
X0094966Y2298755D01*
X0094966Y2300723D02*
X0094966Y2300723D01*
X0096542Y2300723D01*
X0096542Y2300723D01*
X0094966Y2300723D01*
X0094966Y2302692D02*
X0094966Y2302692D01*
X0096542Y2302692D01*
X0096542Y2302692D01*
X0094966Y2302692D01*
X0094966Y2304660D02*
X0094966Y2304660D01*
X0096542Y2304660D01*
X0096542Y2304660D01*
X0094966Y2304660D01*
X0094966Y2306629D02*
X0094966Y2306629D01*
X0096542Y2306629D01*
X0096542Y2306629D01*
X0094966Y2306629D01*
X0094966Y2308597D02*
X0094966Y2308597D01*
X0096542Y2308597D01*
X0096542Y2308597D01*
X0094966Y2308597D01*
X0094966Y2310566D02*
X0094966Y2310566D01*
X0096542Y2310566D01*
X0096542Y2310566D01*
X0094966Y2310566D01*
X0093392Y2312140D02*
X0093392Y2312140D01*
X0093392Y2313716D01*
X0093392Y2313716D01*
X0093392Y2312140D01*
X0091423Y2312140D02*
X0091423Y2312140D01*
X0091423Y2313716D01*
X0091423Y2313716D01*
X0091423Y2312140D01*
X0089455Y2312140D02*
X0089455Y2312140D01*
X0089455Y2313716D01*
X0089455Y2313716D01*
X0089455Y2312140D01*
X0087486Y2312140D02*
X0087486Y2312140D01*
X0087486Y2313716D01*
X0087486Y2313716D01*
X0087486Y2312140D01*
X0085518Y2312140D02*
X0085518Y2312140D01*
X0085518Y2313716D01*
X0085518Y2313716D01*
X0085518Y2312140D01*
X0083549Y2312140D02*
X0083549Y2312140D01*
X0083549Y2313716D01*
X0083549Y2313716D01*
X0083549Y2312140D01*
X0081581Y2312140D02*
X0081581Y2312140D01*
X0081581Y2313716D01*
X0081581Y2313716D01*
X0081581Y2312140D01*
X0079612Y2312140D02*
X0079612Y2312140D01*
X0079612Y2313716D01*
X0079612Y2313716D01*
X0079612Y2312140D01*
X0077644Y2312140D02*
X0077644Y2312140D01*
X0077644Y2313716D01*
X0077644Y2313716D01*
X0077644Y2312140D01*
X0075675Y2312140D02*
X0075675Y2312140D01*
X0075675Y2313716D01*
X0075675Y2313716D01*
X0075675Y2312140D01*
X0073707Y2312140D02*
X0073707Y2312140D01*
X0073707Y2313716D01*
X0073707Y2313716D01*
X0073707Y2312140D01*
X0071738Y2312140D02*
X0071738Y2312140D01*
X0071738Y2313716D01*
X0071738Y2313716D01*
X0071738Y2312140D01*
X0070164Y2310566D02*
X0070164Y2310566D01*
X0068588Y2310566D01*
X0068588Y2310566D01*
X0070164Y2310566D01*
X0070164Y2308597D02*
X0070164Y2308597D01*
X0068588Y2308597D01*
X0068588Y2308597D01*
X0070164Y2308597D01*
X0070164Y2306629D02*
X0070164Y2306629D01*
X0068588Y2306629D01*
X0068588Y2306629D01*
X0070164Y2306629D01*
X0070164Y2304660D02*
X0070164Y2304660D01*
X0068588Y2304660D01*
X0068588Y2304660D01*
X0070164Y2304660D01*
X0070164Y2302692D02*
X0070164Y2302692D01*
X0068588Y2302692D01*
X0068588Y2302692D01*
X0070164Y2302692D01*
X0070164Y2300723D02*
X0070164Y2300723D01*
X0068588Y2300723D01*
X0068588Y2300723D01*
X0070164Y2300723D01*
X0070164Y2298755D02*
X0070164Y2298755D01*
X0068588Y2298755D01*
X0068588Y2298755D01*
X0070164Y2298755D01*
X0070164Y2296786D02*
X0070164Y2296786D01*
X0068588Y2296786D01*
X0068588Y2296786D01*
X0070164Y2296786D01*
X0070164Y2294818D02*
X0070164Y2294818D01*
X0068588Y2294818D01*
X0068588Y2294818D01*
X0070164Y2294818D01*
X0070164Y2292849D02*
X0070164Y2292849D01*
X0068588Y2292849D01*
X0068588Y2292849D01*
X0070164Y2292849D01*
X0070164Y2290881D02*
X0070164Y2290881D01*
X0068588Y2290881D01*
X0068588Y2290881D01*
X0070164Y2290881D01*
X0070164Y2288912D02*
X0070164Y2288912D01*
X0068588Y2288912D01*
X0068588Y2288912D01*
X0070164Y2288912D01*
X0071738Y2287338D02*
X0071738Y2287338D01*
X0071738Y2285762D01*
X0071738Y2285762D01*
X0071738Y2287338D01*
X0073707Y2287338D02*
X0073707Y2287338D01*
X0073707Y2285762D01*
X0073707Y2285762D01*
X0073707Y2287338D01*
X0075675Y2287338D02*
X0075675Y2287338D01*
X0075675Y2285762D01*
X0075675Y2285762D01*
X0075675Y2287338D01*
X0077644Y2287338D02*
X0077644Y2287338D01*
X0077644Y2285762D01*
X0077644Y2285762D01*
X0077644Y2287338D01*
X0079612Y2285762D02*
X0079612Y2285762D01*
X0079612Y2287338D01*
X0079612Y2287338D01*
X0079612Y2285762D01*
X0081581Y2285762D02*
X0081581Y2285762D01*
X0081581Y2287338D01*
X0081581Y2287338D01*
X0081581Y2285762D01*
X0083549Y2285762D02*
X0083549Y2285762D01*
X0083549Y2287338D01*
X0083549Y2287338D01*
X0083549Y2285762D01*
X0085518Y2285762D02*
X0085518Y2285762D01*
X0085518Y2287338D01*
X0085518Y2287338D01*
X0085518Y2285762D01*
X0087486Y2287338D02*
X0087486Y2287338D01*
X0087486Y2285762D01*
X0087486Y2285762D01*
X0087486Y2287338D01*
X0089455Y2287338D02*
X0089455Y2287338D01*
X0089455Y2285762D01*
X0089455Y2285762D01*
X0089455Y2287338D01*
X0091423Y2287338D02*
X0091423Y2287338D01*
X0091423Y2285762D01*
X0091423Y2285762D01*
X0091423Y2287338D01*
X0093392Y2287338D02*
X0093392Y2287338D01*
X0093392Y2285762D01*
X0093392Y2285762D01*
X0093392Y2287338D01*
X0074211Y0096539D02*
X0074211Y0096539D01*
X0074211Y0098115D01*
X0074211Y0098115D01*
X0074211Y0096539D01*
X0072243Y0096539D02*
X0072243Y0096539D01*
X0072243Y0098115D01*
X0072243Y0098115D01*
X0072243Y0096539D01*
X0070274Y0096539D02*
X0070274Y0096539D01*
X0070274Y0098115D01*
X0070274Y0098115D01*
X0070274Y0096539D01*
X0068306Y0096539D02*
X0068306Y0096539D01*
X0068306Y0098115D01*
X0068306Y0098115D01*
X0068306Y0096539D01*
X0066337Y0096539D02*
X0066337Y0096539D01*
X0066337Y0098115D01*
X0066337Y0098115D01*
X0066337Y0096539D01*
X0064369Y0096539D02*
X0064369Y0096539D01*
X0064369Y0098115D01*
X0064369Y0098115D01*
X0064369Y0096539D01*
X0062400Y0096539D02*
X0062400Y0096539D01*
X0062400Y0098115D01*
X0062400Y0098115D01*
X0062400Y0096539D01*
X0060432Y0096539D02*
X0060432Y0096539D01*
X0060432Y0098115D01*
X0060432Y0098115D01*
X0060432Y0096539D01*
X0058463Y0096539D02*
X0058463Y0096539D01*
X0058463Y0098115D01*
X0058463Y0098115D01*
X0058463Y0096539D01*
X0056495Y0096539D02*
X0056495Y0096539D01*
X0056495Y0098115D01*
X0056495Y0098115D01*
X0056495Y0096539D01*
X0054526Y0096539D02*
X0054526Y0096539D01*
X0054526Y0098115D01*
X0054526Y0098115D01*
X0054526Y0096539D01*
X0052558Y0096539D02*
X0052558Y0096539D01*
X0052558Y0098115D01*
X0052558Y0098115D01*
X0052558Y0096539D01*
X0050984Y0094965D02*
X0050984Y0094965D01*
X0049408Y0094965D01*
X0049408Y0094965D01*
X0050984Y0094965D01*
X0050984Y0092997D02*
X0050984Y0092997D01*
X0049408Y0092997D01*
X0049408Y0092997D01*
X0050984Y0092997D01*
X0050984Y0091028D02*
X0050984Y0091028D01*
X0049408Y0091028D01*
X0049408Y0091028D01*
X0050984Y0091028D01*
X0050984Y0089060D02*
X0050984Y0089060D01*
X0049408Y0089060D01*
X0049408Y0089060D01*
X0050984Y0089060D01*
X0050984Y0087091D02*
X0050984Y0087091D01*
X0049408Y0087091D01*
X0049408Y0087091D01*
X0050984Y0087091D01*
X0050984Y0085123D02*
X0050984Y0085123D01*
X0049408Y0085123D01*
X0049408Y0085123D01*
X0050984Y0085123D01*
X0050984Y0083154D02*
X0050984Y0083154D01*
X0049408Y0083154D01*
X0049408Y0083154D01*
X0050984Y0083154D01*
X0050984Y0081186D02*
X0050984Y0081186D01*
X0049408Y0081186D01*
X0049408Y0081186D01*
X0050984Y0081186D01*
X0050984Y0079217D02*
X0050984Y0079217D01*
X0049408Y0079217D01*
X0049408Y0079217D01*
X0050984Y0079217D01*
X0050984Y0077249D02*
X0050984Y0077249D01*
X0049408Y0077249D01*
X0049408Y0077249D01*
X0050984Y0077249D01*
X0050984Y0075280D02*
X0050984Y0075280D01*
X0049408Y0075280D01*
X0049408Y0075280D01*
X0050984Y0075280D01*
X0050984Y0073312D02*
X0050984Y0073312D01*
X0049408Y0073312D01*
X0049408Y0073312D01*
X0050984Y0073312D01*
X0052558Y0071737D02*
X0052558Y0071737D01*
X0052558Y0070161D01*
X0052558Y0070161D01*
X0052558Y0071737D01*
X0054526Y0071737D02*
X0054526Y0071737D01*
X0054526Y0070161D01*
X0054526Y0070161D01*
X0054526Y0071737D01*
X0056495Y0071737D02*
X0056495Y0071737D01*
X0056495Y0070161D01*
X0056495Y0070161D01*
X0056495Y0071737D01*
X0058463Y0071737D02*
X0058463Y0071737D01*
X0058463Y0070161D01*
X0058463Y0070161D01*
X0058463Y0071737D01*
X0060432Y0071737D02*
X0060432Y0071737D01*
X0060432Y0070161D01*
X0060432Y0070161D01*
X0060432Y0071737D01*
X0062400Y0071737D02*
X0062400Y0071737D01*
X0062400Y0070161D01*
X0062400Y0070161D01*
X0062400Y0071737D01*
X0064369Y0071737D02*
X0064369Y0071737D01*
X0064369Y0070161D01*
X0064369Y0070161D01*
X0064369Y0071737D01*
X0066337Y0071737D02*
X0066337Y0071737D01*
X0066337Y0070161D01*
X0066337Y0070161D01*
X0066337Y0071737D01*
X0068306Y0071737D02*
X0068306Y0071737D01*
X0068306Y0070161D01*
X0068306Y0070161D01*
X0068306Y0071737D01*
X0070274Y0071737D02*
X0070274Y0071737D01*
X0070274Y0070161D01*
X0070274Y0070161D01*
X0070274Y0071737D01*
X0072243Y0071737D02*
X0072243Y0071737D01*
X0072243Y0070161D01*
X0072243Y0070161D01*
X0072243Y0071737D01*
X0074211Y0071737D02*
X0074211Y0071737D01*
X0074211Y0070161D01*
X0074211Y0070161D01*
X0074211Y0071737D01*
X0075786Y0073312D02*
X0075786Y0073312D01*
X0077362Y0073312D01*
X0077362Y0073312D01*
X0075786Y0073312D01*
X0075786Y0075280D02*
X0075786Y0075280D01*
X0077362Y0075280D01*
X0077362Y0075280D01*
X0075786Y0075280D01*
X0075786Y0077249D02*
X0075786Y0077249D01*
X0077362Y0077249D01*
X0077362Y0077249D01*
X0075786Y0077249D01*
X0075786Y0079217D02*
X0075786Y0079217D01*
X0077362Y0079217D01*
X0077362Y0079217D01*
X0075786Y0079217D01*
X0077362Y0081186D02*
X0077362Y0081186D01*
X0075786Y0081186D01*
X0075786Y0081186D01*
X0077362Y0081186D01*
X0077362Y0083154D02*
X0077362Y0083154D01*
X0075786Y0083154D01*
X0075786Y0083154D01*
X0077362Y0083154D01*
X0077362Y0085123D02*
X0077362Y0085123D01*
X0075786Y0085123D01*
X0075786Y0085123D01*
X0077362Y0085123D01*
X0077362Y0087091D02*
X0077362Y0087091D01*
X0075786Y0087091D01*
X0075786Y0087091D01*
X0077362Y0087091D01*
X0075786Y0089060D02*
X0075786Y0089060D01*
X0077362Y0089060D01*
X0077362Y0089060D01*
X0075786Y0089060D01*
X0075786Y0091028D02*
X0075786Y0091028D01*
X0077362Y0091028D01*
X0077362Y0091028D01*
X0075786Y0091028D01*
X0075786Y0092997D02*
X0075786Y0092997D01*
X0077362Y0092997D01*
X0077362Y0092997D01*
X0075786Y0092997D01*
X0075786Y0094965D02*
X0075786Y0094965D01*
X0077362Y0094965D01*
X0077362Y0094965D01*
X0075786Y0094965D01*
D21*
X0103068Y2249927D03*
X2262945Y0112472D03*
D22*
X2262945Y0193377D03*
X0103068Y2169021D03*
D23*
X0099140Y2270526D03*
X0092841Y2270526D03*
X0092841Y2279188D03*
X0099140Y2279188D03*
X2266873Y0091872D03*
X2273173Y0091872D03*
X2273173Y0083211D03*
X2266873Y0083211D03*
D24*
X2219831Y0084261D03*
X2280256Y2217847D03*
X0146182Y2278138D03*
X0084986Y0147756D03*
D25*
X0077112Y0173346D03*
X0069238Y0173346D03*
X0061364Y0173346D03*
X0053490Y0173346D03*
X0045616Y0173346D03*
X0037742Y0173346D03*
X0029868Y0173346D03*
X0021994Y0173346D03*
X0014120Y0173346D03*
X0014120Y0196968D03*
X0021994Y0196968D03*
X0029868Y0196968D03*
X0037742Y0196968D03*
X0045616Y0196968D03*
X0053490Y0196968D03*
X0061364Y0196968D03*
X0069238Y0196968D03*
X0077112Y0196968D03*
X0084986Y0196968D03*
X0195395Y2278138D03*
X0195395Y2286012D03*
X0195395Y2293886D03*
X0195395Y2301760D03*
X0195395Y2309634D03*
X0195395Y2317508D03*
X0195395Y2325382D03*
X0195395Y2333256D03*
X0195395Y2341130D03*
X0195395Y2349004D03*
X0171773Y2349004D03*
X0171773Y2341130D03*
X0171773Y2333256D03*
X0171773Y2325382D03*
X0171773Y2317508D03*
X0171773Y2309634D03*
X0171773Y2301760D03*
X0171773Y2293886D03*
X0171773Y2286012D03*
X2280256Y2168635D03*
X2288130Y2168635D03*
X2296004Y2168635D03*
X2303878Y2168635D03*
X2311752Y2168635D03*
X2319626Y2168635D03*
X2327500Y2168635D03*
X2335374Y2168635D03*
X2343248Y2168635D03*
X2351122Y2168635D03*
X2351122Y2192257D03*
X2343248Y2192257D03*
X2335374Y2192257D03*
X2327500Y2192257D03*
X2319626Y2192257D03*
X2311752Y2192257D03*
X2303878Y2192257D03*
X2296004Y2192257D03*
X2288130Y2192257D03*
X2170618Y0084261D03*
X2170618Y0076387D03*
X2170618Y0068513D03*
X2170618Y0060639D03*
X2170618Y0052765D03*
X2170618Y0044891D03*
X2170618Y0037017D03*
X2170618Y0029143D03*
X2170618Y0021269D03*
X2170618Y0013395D03*
X2194240Y0013395D03*
X2194240Y0021269D03*
X2194240Y0029143D03*
X2194240Y0037017D03*
X2194240Y0044891D03*
X2194240Y0052765D03*
X2194240Y0060639D03*
X2194240Y0068513D03*
X2194240Y0076387D03*
D26*
X2237390Y0097027D03*
X0128623Y2265372D03*
D27*
X0125867Y2263698D03*
X0131379Y2263698D03*
X2234634Y0098700D03*
X2240146Y0098700D03*
D28*
X2237390Y0101259D03*
X2263257Y2235406D03*
X0128623Y2261139D03*
X0101984Y0130197D03*
D29*
X0058070Y2263205D03*
X0055511Y2263205D03*
X0052952Y2263205D03*
X0050393Y2263205D03*
X0050393Y2278756D03*
X0052952Y2278756D03*
X0055511Y2278756D03*
X0058070Y2278756D03*
X2307943Y0099194D03*
X2310502Y0099194D03*
X2313062Y0099194D03*
X2315621Y0099194D03*
X2315621Y0083643D03*
X2313062Y0083643D03*
X2310502Y0083643D03*
X2307943Y0083643D03*
D30*
X2323424Y0088644D03*
X2323424Y0095731D03*
X2340801Y0097419D03*
X2340801Y0090332D03*
X0042590Y2266668D03*
X0042590Y2273755D03*
X0025213Y2272066D03*
X0025213Y2264980D03*
D31*
X0030492Y2284618D03*
X0030492Y2286193D03*
X0030492Y2287768D03*
X0030492Y2289342D03*
X0030492Y2290917D03*
X0030492Y2292492D03*
X0030492Y2294067D03*
X0030492Y2295642D03*
X0030492Y2297216D03*
X0030492Y2298791D03*
X2335521Y0077781D03*
X2335521Y0076206D03*
X2335521Y0074631D03*
X2335521Y0073056D03*
X2335521Y0071481D03*
X2335521Y0069907D03*
X2335521Y0068332D03*
X2335521Y0066757D03*
X2335521Y0065182D03*
X2335521Y0063607D03*
D32*
X2340344Y0064395D03*
X2340344Y0065970D03*
X2340344Y0067544D03*
X2340344Y0069119D03*
X2340344Y0070694D03*
X2340344Y0072269D03*
X2340344Y0073844D03*
X2340344Y0075418D03*
X2340344Y0076993D03*
X0025669Y2285405D03*
X0025669Y2286980D03*
X0025669Y2288555D03*
X0025669Y2290130D03*
X0025669Y2291705D03*
X0025669Y2293279D03*
X0025669Y2294854D03*
X0025669Y2296429D03*
X0025669Y2298004D03*
D33*
X0024921Y2302925D03*
X0024921Y2280484D03*
X2341092Y0081915D03*
X2341092Y0059474D03*
D34*
X2354320Y0059474D03*
X2354320Y0081915D03*
X0011693Y2280484D03*
X0011693Y2302925D03*
D35*
X0062558Y0138666D03*
X0072400Y0138666D03*
X2292841Y2226937D03*
X2302684Y2226937D03*
D36*
X2293707Y2260244D03*
X2293707Y2262213D03*
X2293707Y2264181D03*
X2290558Y2264181D03*
X2290558Y2262213D03*
X2290558Y2260244D03*
X0074684Y0105359D03*
X0074684Y0103390D03*
X0074684Y0101422D03*
X0071534Y0101422D03*
X0071534Y0103390D03*
X0071534Y0105359D03*
D37*
X0113197Y0104641D03*
X2252045Y2260962D03*
D38*
X2171140Y2260962D03*
X0194102Y0104641D03*
D39*
X0092597Y0100713D03*
X0092597Y0094414D03*
X0083936Y0094414D03*
X0083936Y0100713D03*
X2272644Y2264890D03*
X2272644Y2271189D03*
X2281306Y2271189D03*
X2281306Y2264890D03*
D40*
X2267490Y2235406D03*
X0097752Y0130197D03*
D41*
X0099425Y0132953D03*
X0099425Y0127441D03*
X2265816Y2232651D03*
X2265816Y2238162D03*
D42*
X2265323Y2305960D03*
X2265323Y2308519D03*
X2265323Y2311078D03*
X2265323Y2313637D03*
X2280874Y2313637D03*
X2280874Y2311078D03*
X2280874Y2308519D03*
X2280874Y2305960D03*
X0099919Y0059643D03*
X0099919Y0057084D03*
X0099919Y0054525D03*
X0099919Y0051966D03*
X0084368Y0051966D03*
X0084368Y0054525D03*
X0084368Y0057084D03*
X0084368Y0059643D03*
D43*
X0089369Y0044163D03*
X0096455Y0044163D03*
X0098144Y0026786D03*
X0091057Y0026786D03*
X2268786Y2321440D03*
X2275873Y2321440D03*
X2274185Y2338817D03*
X2267098Y2338817D03*
D44*
X2286736Y2333538D03*
X2288311Y2333538D03*
X2289886Y2333538D03*
X2291461Y2333538D03*
X2293035Y2333538D03*
X2294610Y2333538D03*
X2296185Y2333538D03*
X2297760Y2333538D03*
X2299335Y2333538D03*
X2300909Y2333538D03*
X0078506Y0032065D03*
X0076931Y0032065D03*
X0075356Y0032065D03*
X0073781Y0032065D03*
X0072206Y0032065D03*
X0070632Y0032065D03*
X0069057Y0032065D03*
X0067482Y0032065D03*
X0065907Y0032065D03*
X0064332Y0032065D03*
D45*
X0065120Y0027243D03*
X0066695Y0027243D03*
X0068269Y0027243D03*
X0069844Y0027243D03*
X0071419Y0027243D03*
X0072994Y0027243D03*
X0074569Y0027243D03*
X0076143Y0027243D03*
X0077718Y0027243D03*
X2287524Y2338361D03*
X2289098Y2338361D03*
X2290673Y2338361D03*
X2292248Y2338361D03*
X2293823Y2338361D03*
X2295398Y2338361D03*
X2296972Y2338361D03*
X2298547Y2338361D03*
X2300122Y2338361D03*
D46*
X2305043Y2339109D03*
X2282602Y2339109D03*
X0082639Y0026495D03*
X0060198Y0026495D03*
D47*
X0060198Y0013266D03*
X0082639Y0013266D03*
X2282602Y2352337D03*
X2305043Y2352337D03*
D48*
X0031663Y0012137D03*
X0031710Y0021492D03*
X0031663Y0031830D03*
X0031483Y0041695D03*
X0020058Y0053169D03*
X0007747Y0052911D03*
X0007691Y0063117D03*
X0013177Y0071282D03*
X0007860Y0075445D03*
X0031235Y0088321D03*
X0033879Y0097495D03*
X0033081Y0110603D03*
X0033091Y0114676D03*
X0043120Y0123175D03*
X0040354Y0125923D03*
X0043201Y0134311D03*
X0051053Y0132754D03*
X0053739Y0136382D03*
X0058040Y0136357D03*
X0056259Y0130123D03*
X0056298Y0125516D03*
X0078635Y0135163D03*
X0079518Y0151547D03*
X0070506Y0151351D03*
X0060221Y0151351D03*
X0050344Y0151325D03*
X0039093Y0151036D03*
X0027683Y0150954D03*
X0015176Y0150743D03*
X0017269Y0108921D03*
X0037483Y0078505D03*
X0046475Y0051206D03*
X0051235Y0046250D03*
X0061763Y0054129D03*
X0062971Y0062989D03*
X0067213Y0063005D03*
X0075471Y0064808D03*
X0090243Y0065436D03*
X0090260Y0069293D03*
X0082341Y0077919D03*
X0082388Y0082812D03*
X0085668Y0085831D03*
X0100140Y0093267D03*
X0104281Y0087727D03*
X0104607Y0081579D03*
X0104940Y0071793D03*
X0099369Y0100713D03*
X0091770Y0107376D03*
X0085857Y0107829D03*
X0086357Y0114611D03*
X0105932Y0135976D03*
X0093745Y0151779D03*
X0123882Y0104539D03*
X0076613Y0048036D03*
X0081409Y0046377D03*
X0078952Y0042272D03*
X0069970Y0046359D03*
X0093719Y0037759D03*
X0099113Y0037844D03*
X0106153Y0031699D03*
X0103938Y0011660D03*
X0092562Y0011303D03*
X0052957Y0012321D03*
X0042025Y0012203D03*
X2216261Y0049619D03*
X2216235Y0059496D03*
X2216235Y0069781D03*
X2216039Y0078793D03*
X2215807Y0093020D03*
X2231610Y0105207D03*
X2232423Y0077911D03*
X2231229Y0057315D03*
X2231204Y0053014D03*
X2234833Y0050328D03*
X2237464Y0055534D03*
X2242070Y0055573D03*
X2244412Y0042395D03*
X2241663Y0039629D03*
X2233276Y0042476D03*
X2216550Y0038368D03*
X2216632Y0026959D03*
X2216844Y0014451D03*
X2252910Y0032366D03*
X2256983Y0032357D03*
X2270092Y0033155D03*
X2279266Y0030510D03*
X2289081Y0036758D03*
X2296304Y0012452D03*
X2292142Y0007135D03*
X2304469Y0006966D03*
X2314675Y0007022D03*
X2314418Y0019333D03*
X2325892Y0030758D03*
X2335757Y0030938D03*
X2346094Y0030985D03*
X2355450Y0030938D03*
X2355383Y0041300D03*
X2355265Y0052233D03*
X2321336Y0050510D03*
X2316381Y0045750D03*
X2313457Y0061038D03*
X2304598Y0062246D03*
X2304581Y0066488D03*
X2302779Y0074746D03*
X2302151Y0089518D03*
X2298293Y0089535D03*
X2289667Y0081616D03*
X2284774Y0081664D03*
X2281755Y0084943D03*
X2274320Y0099416D03*
X2279859Y0103556D03*
X2286008Y0103882D03*
X2295793Y0104215D03*
X2329742Y0098388D03*
X2329827Y0092994D03*
X2335887Y0105428D03*
X2355926Y0103213D03*
X2356283Y0091837D03*
X2325315Y0078227D03*
X2321210Y0080684D03*
X2319550Y0075888D03*
X2321228Y0069245D03*
X2266873Y0098644D03*
X2260211Y0091046D03*
X2259757Y0085132D03*
X2252976Y0085632D03*
X2263048Y0123158D03*
X2258665Y0016544D03*
X2271497Y2213824D03*
X2285724Y2214056D03*
X2294736Y2214252D03*
X2305021Y2214252D03*
X2314898Y2214278D03*
X2326149Y2214567D03*
X2337558Y2214649D03*
X2350066Y2214860D03*
X2322041Y2231293D03*
X2314189Y2232850D03*
X2311503Y2229221D03*
X2307202Y2229246D03*
X2308983Y2235481D03*
X2308944Y2240087D03*
X2322122Y2242428D03*
X2324888Y2239680D03*
X2332151Y2250927D03*
X2332160Y2255000D03*
X2331362Y2268109D03*
X2334007Y2277282D03*
X2327759Y2287098D03*
X2352065Y2294321D03*
X2357382Y2290158D03*
X2357551Y2302486D03*
X2357495Y2312692D03*
X2345183Y2312434D03*
X2333759Y2323908D03*
X2333579Y2333773D03*
X2333532Y2344111D03*
X2333579Y2353466D03*
X2323217Y2353400D03*
X2312284Y2353282D03*
X2314006Y2319353D03*
X2318767Y2314398D03*
X2303478Y2311474D03*
X2302271Y2302614D03*
X2298029Y2302598D03*
X2289770Y2300795D03*
X2274999Y2300167D03*
X2274982Y2296310D03*
X2282900Y2287684D03*
X2282853Y2282791D03*
X2279574Y2279772D03*
X2265101Y2272336D03*
X2260961Y2277876D03*
X2260634Y2284024D03*
X2260302Y2293810D03*
X2266128Y2327759D03*
X2271523Y2327844D03*
X2259089Y2333904D03*
X2261304Y2353943D03*
X2272680Y2354300D03*
X2286290Y2323331D03*
X2283833Y2319227D03*
X2288629Y2317567D03*
X2295272Y2319244D03*
X2265873Y2264890D03*
X2273471Y2258227D03*
X2279385Y2257774D03*
X2278884Y2250992D03*
X2286606Y2230440D03*
X2259310Y2229627D03*
X2241359Y2261064D03*
X2347973Y2256682D03*
X0150206Y2269379D03*
X0149974Y2283606D03*
X0149778Y2292617D03*
X0149778Y2302902D03*
X0149752Y2312780D03*
X0149463Y2324031D03*
X0149381Y2335440D03*
X0149170Y2347948D03*
X0132737Y2319923D03*
X0131180Y2312071D03*
X0134809Y2309385D03*
X0134784Y2305083D03*
X0128549Y2306865D03*
X0123943Y2306825D03*
X0121602Y2320004D03*
X0124350Y2322770D03*
X0113103Y2330033D03*
X0109030Y2330042D03*
X0095921Y2329244D03*
X0086748Y2331889D03*
X0076932Y2325641D03*
X0069709Y2349947D03*
X0073871Y2355263D03*
X0061544Y2355433D03*
X0051338Y2355377D03*
X0051595Y2343065D03*
X0040122Y2331640D03*
X0030257Y2331461D03*
X0019919Y2331414D03*
X0010563Y2331461D03*
X0010630Y2321099D03*
X0010748Y2310166D03*
X0044677Y2311888D03*
X0049632Y2316648D03*
X0052556Y2301360D03*
X0061415Y2300153D03*
X0061432Y2295911D03*
X0063234Y2287652D03*
X0063862Y2272881D03*
X0067720Y2272864D03*
X0076346Y2280782D03*
X0081239Y2280735D03*
X0084258Y2277455D03*
X0091693Y2262983D03*
X0086154Y2258843D03*
X0080005Y2258516D03*
X0070220Y2258184D03*
X0036271Y2264010D03*
X0036186Y2269405D03*
X0030126Y2256971D03*
X0010087Y2259186D03*
X0009730Y2270562D03*
X0040698Y2284172D03*
X0044803Y2281715D03*
X0046463Y2286511D03*
X0044785Y2293154D03*
X0099140Y2263755D03*
X0105803Y2271353D03*
X0106256Y2277267D03*
X0113037Y2276766D03*
X0133590Y2284488D03*
X0134403Y2257191D03*
X0102966Y2239241D03*
X0107348Y2345855D03*
M02*
