G75*
%MOIN*%
%OFA0B0*%
%FSLAX25Y25*%
%IPPOS*%
%LPD*%
%AMOC8*
5,1,8,0,0,1.08239X$1,22.5*
%
%ADD10C,0.02178*%
%ADD11C,0.00600*%
%ADD12C,0.01000*%
D10*
X0031663Y0012137D03*
X0031710Y0021492D03*
X0031663Y0031830D03*
X0031483Y0041695D03*
X0020058Y0053169D03*
X0007747Y0052911D03*
X0007691Y0063117D03*
X0013177Y0071282D03*
X0007860Y0075445D03*
X0031235Y0088321D03*
X0033879Y0097495D03*
X0033081Y0110603D03*
X0033091Y0114676D03*
X0043120Y0123175D03*
X0040354Y0125923D03*
X0043201Y0134311D03*
X0051053Y0132754D03*
X0053739Y0136382D03*
X0058040Y0136357D03*
X0056259Y0130123D03*
X0056298Y0125516D03*
X0078635Y0135163D03*
X0079518Y0151547D03*
X0070506Y0151351D03*
X0060221Y0151351D03*
X0050344Y0151325D03*
X0039093Y0151036D03*
X0027683Y0150954D03*
X0015176Y0150743D03*
X0014120Y0173346D03*
X0021994Y0173346D03*
X0029868Y0173346D03*
X0037742Y0173346D03*
X0045616Y0173346D03*
X0053490Y0173346D03*
X0061364Y0173346D03*
X0069238Y0173346D03*
X0077112Y0173346D03*
X0077112Y0196968D03*
X0084986Y0196968D03*
X0069238Y0196968D03*
X0061364Y0196968D03*
X0053490Y0196968D03*
X0045616Y0196968D03*
X0037742Y0196968D03*
X0029868Y0196968D03*
X0021994Y0196968D03*
X0014120Y0196968D03*
X0093745Y0151779D03*
X0105932Y0135976D03*
X0086357Y0114611D03*
X0085857Y0107829D03*
X0091770Y0107376D03*
X0099369Y0100713D03*
X0100140Y0093267D03*
X0104281Y0087727D03*
X0104607Y0081579D03*
X0104940Y0071793D03*
X0090260Y0069293D03*
X0090243Y0065436D03*
X0082341Y0077919D03*
X0082388Y0082812D03*
X0085668Y0085831D03*
X0075471Y0064808D03*
X0067213Y0063005D03*
X0062971Y0062989D03*
X0061763Y0054129D03*
X0069970Y0046359D03*
X0076613Y0048036D03*
X0081409Y0046377D03*
X0078952Y0042272D03*
X0093719Y0037759D03*
X0099113Y0037844D03*
X0106153Y0031699D03*
X0103938Y0011660D03*
X0092562Y0011303D03*
X0052957Y0012321D03*
X0042025Y0012203D03*
X0051235Y0046250D03*
X0046475Y0051206D03*
X0037483Y0078505D03*
X0017269Y0108921D03*
X0123882Y0104539D03*
X2170618Y0084261D03*
X2170618Y0076387D03*
X2170618Y0068513D03*
X2170618Y0060639D03*
X2170618Y0052765D03*
X2170618Y0044891D03*
X2170618Y0037017D03*
X2170618Y0029143D03*
X2170618Y0021269D03*
X2170618Y0013395D03*
X2194240Y0013395D03*
X2194240Y0021269D03*
X2194240Y0029143D03*
X2194240Y0037017D03*
X2194240Y0044891D03*
X2194240Y0052765D03*
X2194240Y0060639D03*
X2194240Y0068513D03*
X2194240Y0076387D03*
X2216039Y0078793D03*
X2216235Y0069781D03*
X2216235Y0059496D03*
X2216261Y0049619D03*
X2216550Y0038368D03*
X2216632Y0026959D03*
X2216844Y0014451D03*
X2233276Y0042476D03*
X2234833Y0050328D03*
X2231204Y0053014D03*
X2231229Y0057315D03*
X2237464Y0055534D03*
X2242070Y0055573D03*
X2244412Y0042395D03*
X2241663Y0039629D03*
X2252910Y0032366D03*
X2256983Y0032357D03*
X2270092Y0033155D03*
X2279266Y0030510D03*
X2289081Y0036758D03*
X2296304Y0012452D03*
X2292142Y0007135D03*
X2304469Y0006966D03*
X2314675Y0007022D03*
X2314418Y0019333D03*
X2325892Y0030758D03*
X2335757Y0030938D03*
X2346094Y0030985D03*
X2355450Y0030938D03*
X2355383Y0041300D03*
X2355265Y0052233D03*
X2321336Y0050510D03*
X2316381Y0045750D03*
X2313457Y0061038D03*
X2304598Y0062246D03*
X2304581Y0066488D03*
X2302779Y0074746D03*
X2302151Y0089518D03*
X2298293Y0089535D03*
X2289667Y0081616D03*
X2284774Y0081664D03*
X2281755Y0084943D03*
X2274320Y0099416D03*
X2279859Y0103556D03*
X2286008Y0103882D03*
X2295793Y0104215D03*
X2329742Y0098388D03*
X2329827Y0092994D03*
X2335887Y0105428D03*
X2355926Y0103213D03*
X2356283Y0091837D03*
X2325315Y0078227D03*
X2321210Y0080684D03*
X2319550Y0075888D03*
X2321228Y0069245D03*
X2266873Y0098644D03*
X2260211Y0091046D03*
X2259757Y0085132D03*
X2252976Y0085632D03*
X2232423Y0077911D03*
X2215807Y0093020D03*
X2231610Y0105207D03*
X2263048Y0123158D03*
X2258665Y0016544D03*
X2280256Y2168635D03*
X2288130Y2168635D03*
X2296004Y2168635D03*
X2303878Y2168635D03*
X2311752Y2168635D03*
X2319626Y2168635D03*
X2327500Y2168635D03*
X2335374Y2168635D03*
X2343248Y2168635D03*
X2351122Y2168635D03*
X2351122Y2192257D03*
X2343248Y2192257D03*
X2335374Y2192257D03*
X2327500Y2192257D03*
X2319626Y2192257D03*
X2311752Y2192257D03*
X2303878Y2192257D03*
X2296004Y2192257D03*
X2288130Y2192257D03*
X2285724Y2214056D03*
X2294736Y2214252D03*
X2305021Y2214252D03*
X2314898Y2214278D03*
X2326149Y2214567D03*
X2337558Y2214649D03*
X2350066Y2214860D03*
X2322041Y2231293D03*
X2314189Y2232850D03*
X2311503Y2229221D03*
X2307202Y2229246D03*
X2308983Y2235481D03*
X2308944Y2240087D03*
X2322122Y2242428D03*
X2324888Y2239680D03*
X2332151Y2250927D03*
X2332160Y2255000D03*
X2331362Y2268109D03*
X2334007Y2277282D03*
X2327759Y2287098D03*
X2352065Y2294321D03*
X2357382Y2290158D03*
X2357551Y2302486D03*
X2357495Y2312692D03*
X2345183Y2312434D03*
X2333759Y2323908D03*
X2333579Y2333773D03*
X2333532Y2344111D03*
X2333579Y2353466D03*
X2323217Y2353400D03*
X2312284Y2353282D03*
X2314006Y2319353D03*
X2318767Y2314398D03*
X2303478Y2311474D03*
X2302271Y2302614D03*
X2298029Y2302598D03*
X2289770Y2300795D03*
X2274999Y2300167D03*
X2274982Y2296310D03*
X2282900Y2287684D03*
X2282853Y2282791D03*
X2279574Y2279772D03*
X2265101Y2272336D03*
X2260961Y2277876D03*
X2260634Y2284024D03*
X2260302Y2293810D03*
X2266128Y2327759D03*
X2271523Y2327844D03*
X2259089Y2333904D03*
X2261304Y2353943D03*
X2272680Y2354300D03*
X2286290Y2323331D03*
X2283833Y2319227D03*
X2288629Y2317567D03*
X2295272Y2319244D03*
X2265873Y2264890D03*
X2273471Y2258227D03*
X2279385Y2257774D03*
X2278884Y2250992D03*
X2286606Y2230440D03*
X2271497Y2213824D03*
X2259310Y2229627D03*
X2241359Y2261064D03*
X2347973Y2256682D03*
X0195395Y2278138D03*
X0195395Y2286012D03*
X0195395Y2293886D03*
X0195395Y2301760D03*
X0195395Y2309634D03*
X0195395Y2317508D03*
X0195395Y2325382D03*
X0195395Y2333256D03*
X0195395Y2341130D03*
X0195395Y2349004D03*
X0171773Y2349004D03*
X0171773Y2341130D03*
X0171773Y2333256D03*
X0171773Y2325382D03*
X0171773Y2317508D03*
X0171773Y2309634D03*
X0171773Y2301760D03*
X0171773Y2293886D03*
X0171773Y2286012D03*
X0149974Y2283606D03*
X0149778Y2292617D03*
X0149778Y2302902D03*
X0149752Y2312780D03*
X0149463Y2324031D03*
X0149381Y2335440D03*
X0149170Y2347948D03*
X0132737Y2319923D03*
X0131180Y2312071D03*
X0134809Y2309385D03*
X0134784Y2305083D03*
X0128549Y2306865D03*
X0123943Y2306825D03*
X0121602Y2320004D03*
X0124350Y2322770D03*
X0113103Y2330033D03*
X0109030Y2330042D03*
X0095921Y2329244D03*
X0086748Y2331889D03*
X0076932Y2325641D03*
X0069709Y2349947D03*
X0073871Y2355263D03*
X0061544Y2355433D03*
X0051338Y2355377D03*
X0051595Y2343065D03*
X0040122Y2331640D03*
X0030257Y2331461D03*
X0019919Y2331414D03*
X0010563Y2331461D03*
X0010630Y2321099D03*
X0010748Y2310166D03*
X0044677Y2311888D03*
X0049632Y2316648D03*
X0052556Y2301360D03*
X0061415Y2300153D03*
X0061432Y2295911D03*
X0063234Y2287652D03*
X0063862Y2272881D03*
X0067720Y2272864D03*
X0076346Y2280782D03*
X0081239Y2280735D03*
X0084258Y2277455D03*
X0091693Y2262983D03*
X0086154Y2258843D03*
X0080005Y2258516D03*
X0070220Y2258184D03*
X0036271Y2264010D03*
X0036186Y2269405D03*
X0030126Y2256971D03*
X0010087Y2259186D03*
X0009730Y2270562D03*
X0040698Y2284172D03*
X0044803Y2281715D03*
X0046463Y2286511D03*
X0044785Y2293154D03*
X0099140Y2263755D03*
X0105803Y2271353D03*
X0106256Y2277267D03*
X0113037Y2276766D03*
X0133590Y2284488D03*
X0150206Y2269379D03*
X0134403Y2257191D03*
X0102966Y2239241D03*
X0107348Y2345855D03*
D11*
X0146270Y2324131D01*
X0146270Y2266839D01*
X0149063Y2264046D01*
X0159886Y2264046D01*
X0187081Y2236851D01*
X0187081Y2186427D01*
X0171418Y2170764D01*
X0035847Y2170764D01*
X0018931Y2187681D01*
X0018931Y2302483D01*
X0057825Y2341377D01*
X0111761Y2341377D01*
X0144056Y2323446D01*
X0144103Y2266432D01*
X0148465Y2262054D01*
X0158668Y2262026D01*
X0184292Y2236435D01*
X0184275Y2186891D01*
X0170662Y2173298D01*
X0036774Y2173298D01*
X0021752Y2188321D01*
X0021752Y2302361D01*
X0058546Y2339155D01*
X0111985Y2339202D01*
X0141865Y2322618D01*
X0141888Y2265546D01*
X0147569Y2259865D01*
X0157527Y2259865D01*
X0181577Y2235815D01*
X0181577Y2187856D01*
X0169793Y2176072D01*
X0037124Y2176072D01*
X0024618Y2188579D01*
X0024618Y2302955D01*
X0058540Y2336877D01*
X0112585Y2336867D01*
X0139880Y2321804D01*
X0139925Y2264737D01*
X0146803Y2257860D01*
X0156753Y2257860D01*
X0179112Y2235500D01*
X0179112Y2188386D01*
X0168942Y2178216D01*
X0037481Y2178216D01*
X0026966Y2188731D01*
X0026966Y2302800D01*
X0059018Y2334852D01*
X0112998Y2334799D01*
X0137760Y2320574D01*
X0137760Y2264050D01*
X0146094Y2255716D01*
X0155935Y2255716D01*
X0176844Y2234807D01*
X0176844Y2189056D01*
X0168100Y2180312D01*
X0038576Y2180312D01*
X0029354Y2189534D01*
X0029354Y2246214D01*
X0033549Y2250409D01*
X0079531Y2250409D01*
X0086154Y2257032D01*
X0086154Y2258843D01*
X0087370Y2257388D02*
X0132514Y2257388D01*
X0132514Y2257974D02*
X0132514Y2256409D01*
X0133400Y2255524D01*
X0086339Y2255661D01*
X0086610Y2255932D01*
X0087254Y2256576D01*
X0087254Y2257271D01*
X0088043Y2258060D01*
X0088043Y2259625D01*
X0086936Y2260732D01*
X0085372Y2260732D01*
X0084265Y2259625D01*
X0084265Y2258060D01*
X0084946Y2257379D01*
X0083237Y2255670D01*
X0035787Y2255809D01*
X0035589Y2255610D01*
X0031234Y2259926D01*
X0031095Y2268658D01*
X0041468Y2278991D01*
X0041474Y2282283D01*
X0041481Y2282283D01*
X0042587Y2283389D01*
X0042587Y2284954D01*
X0041482Y2286060D01*
X0041538Y2315817D01*
X0059473Y2333751D01*
X0085913Y2333726D01*
X0084859Y2332671D01*
X0084859Y2331106D01*
X0085965Y2330000D01*
X0087530Y2330000D01*
X0088637Y2331106D01*
X0088637Y2332671D01*
X0087584Y2333724D01*
X0112704Y2333700D01*
X0123094Y2327731D01*
X0132055Y2321812D01*
X0131955Y2321812D01*
X0130848Y2320705D01*
X0130848Y2319140D01*
X0131955Y2318034D01*
X0133520Y2318034D01*
X0134626Y2319140D01*
X0134626Y2320113D01*
X0136660Y2318770D01*
X0136660Y2310205D01*
X0135592Y2311273D01*
X0134027Y2311273D01*
X0132920Y2310167D01*
X0132920Y2308602D01*
X0134027Y2307496D01*
X0135592Y2307496D01*
X0136660Y2308564D01*
X0136660Y2305879D01*
X0135566Y2306972D01*
X0134002Y2306972D01*
X0132895Y2305866D01*
X0132895Y2304301D01*
X0134002Y2303194D01*
X0135566Y2303194D01*
X0136660Y2304288D01*
X0136660Y2263594D01*
X0136906Y2263348D01*
X0136789Y2256187D01*
X0136831Y2255514D01*
X0135401Y2255518D01*
X0136292Y2256409D01*
X0136292Y2257974D01*
X0135186Y2259080D01*
X0133621Y2259080D01*
X0132514Y2257974D01*
X0132526Y2257986D02*
X0087969Y2257986D01*
X0088043Y2258585D02*
X0133125Y2258585D01*
X0132514Y2256789D02*
X0087254Y2256789D01*
X0086869Y2256191D02*
X0132733Y2256191D01*
X0133331Y2255592D02*
X0109918Y2255592D01*
X0101029Y2262972D02*
X0099922Y2261866D01*
X0098357Y2261866D01*
X0097251Y2262972D01*
X0097251Y2264537D01*
X0098357Y2265644D01*
X0099922Y2265644D01*
X0101029Y2264537D01*
X0101029Y2262972D01*
X0100831Y2262774D02*
X0136897Y2262774D01*
X0136887Y2262176D02*
X0100232Y2262176D01*
X0101029Y2263373D02*
X0136882Y2263373D01*
X0136660Y2263971D02*
X0101029Y2263971D01*
X0100996Y2264570D02*
X0136660Y2264570D01*
X0136660Y2265168D02*
X0100398Y2265168D01*
X0097882Y2265168D02*
X0031151Y2265168D01*
X0031160Y2264570D02*
X0090609Y2264570D01*
X0090911Y2264872D02*
X0089804Y2263766D01*
X0089804Y2262201D01*
X0090911Y2261094D01*
X0092476Y2261094D01*
X0093582Y2262201D01*
X0093582Y2263766D01*
X0092476Y2264872D01*
X0090911Y2264872D01*
X0090010Y2263971D02*
X0031170Y2263971D01*
X0031179Y2263373D02*
X0089804Y2263373D01*
X0089804Y2262774D02*
X0031189Y2262774D01*
X0031198Y2262176D02*
X0089829Y2262176D01*
X0090428Y2261577D02*
X0031208Y2261577D01*
X0031217Y2260979D02*
X0136868Y2260979D01*
X0136877Y2261577D02*
X0092959Y2261577D01*
X0093557Y2262176D02*
X0098047Y2262176D01*
X0097449Y2262774D02*
X0093582Y2262774D01*
X0093582Y2263373D02*
X0097251Y2263373D01*
X0097251Y2263971D02*
X0093377Y2263971D01*
X0092778Y2264570D02*
X0097284Y2264570D01*
X0087886Y2259782D02*
X0136848Y2259782D01*
X0136858Y2260380D02*
X0087288Y2260380D01*
X0088043Y2259183D02*
X0136838Y2259183D01*
X0136828Y2258585D02*
X0135681Y2258585D01*
X0136280Y2257986D02*
X0136818Y2257986D01*
X0136809Y2257388D02*
X0136292Y2257388D01*
X0136292Y2256789D02*
X0136799Y2256789D01*
X0136789Y2256191D02*
X0136074Y2256191D01*
X0135475Y2255592D02*
X0136826Y2255592D01*
X0136660Y2265767D02*
X0031141Y2265767D01*
X0031132Y2266365D02*
X0136660Y2266365D01*
X0136660Y2266964D02*
X0031122Y2266964D01*
X0031113Y2267562D02*
X0035357Y2267562D01*
X0035404Y2267516D02*
X0036968Y2267516D01*
X0038075Y2268623D01*
X0038075Y2270187D01*
X0036968Y2271294D01*
X0035404Y2271294D01*
X0034297Y2270187D01*
X0034297Y2268623D01*
X0035404Y2267516D01*
X0034759Y2268161D02*
X0031103Y2268161D01*
X0031197Y2268759D02*
X0034297Y2268759D01*
X0034297Y2269358D02*
X0031798Y2269358D01*
X0032399Y2269956D02*
X0034297Y2269956D01*
X0034665Y2270555D02*
X0032999Y2270555D01*
X0033600Y2271153D02*
X0035263Y2271153D01*
X0034201Y2271752D02*
X0066160Y2271752D01*
X0065831Y2272082D02*
X0066937Y2270975D01*
X0068502Y2270975D01*
X0069609Y2272082D01*
X0069609Y2273646D01*
X0068502Y2274753D01*
X0066937Y2274753D01*
X0065831Y2273646D01*
X0065831Y2272082D01*
X0065831Y2272350D02*
X0034802Y2272350D01*
X0035403Y2272949D02*
X0065831Y2272949D01*
X0065831Y2273547D02*
X0036003Y2273547D01*
X0036604Y2274146D02*
X0066330Y2274146D01*
X0066929Y2274745D02*
X0037205Y2274745D01*
X0037806Y2275343D02*
X0136660Y2275343D01*
X0136660Y2274745D02*
X0068511Y2274745D01*
X0069109Y2274146D02*
X0136660Y2274146D01*
X0136660Y2273547D02*
X0069609Y2273547D01*
X0069609Y2272949D02*
X0136660Y2272949D01*
X0136660Y2272350D02*
X0069609Y2272350D01*
X0069279Y2271752D02*
X0136660Y2271752D01*
X0136660Y2271153D02*
X0068681Y2271153D01*
X0066759Y2271153D02*
X0037109Y2271153D01*
X0037707Y2270555D02*
X0136660Y2270555D01*
X0136660Y2269956D02*
X0038075Y2269956D01*
X0038075Y2269358D02*
X0136660Y2269358D01*
X0136660Y2268759D02*
X0038075Y2268759D01*
X0037613Y2268161D02*
X0136660Y2268161D01*
X0136660Y2267562D02*
X0037015Y2267562D01*
X0038407Y2275942D02*
X0104910Y2275942D01*
X0104367Y2276484D02*
X0105474Y2275378D01*
X0107039Y2275378D01*
X0108145Y2276484D01*
X0108145Y2278049D01*
X0107039Y2279156D01*
X0105474Y2279156D01*
X0104367Y2278049D01*
X0104367Y2276484D01*
X0104367Y2276540D02*
X0039007Y2276540D01*
X0039608Y2277139D02*
X0104367Y2277139D01*
X0104367Y2277737D02*
X0040209Y2277737D01*
X0040810Y2278336D02*
X0104654Y2278336D01*
X0105252Y2278934D02*
X0082109Y2278934D01*
X0082021Y2278846D02*
X0083128Y2279953D01*
X0083128Y2281517D01*
X0082021Y2282624D01*
X0080456Y2282624D01*
X0079350Y2281517D01*
X0079350Y2279953D01*
X0080456Y2278846D01*
X0082021Y2278846D01*
X0082708Y2279533D02*
X0136660Y2279533D01*
X0136660Y2280131D02*
X0083128Y2280131D01*
X0083128Y2280730D02*
X0136660Y2280730D01*
X0136660Y2281328D02*
X0083128Y2281328D01*
X0082718Y2281927D02*
X0136660Y2281927D01*
X0136660Y2282525D02*
X0082120Y2282525D01*
X0080357Y2282525D02*
X0077274Y2282525D01*
X0077128Y2282671D02*
X0075563Y2282671D01*
X0074457Y2281565D01*
X0074457Y2280000D01*
X0075563Y2278893D01*
X0077128Y2278893D01*
X0078235Y2280000D01*
X0078235Y2281565D01*
X0077128Y2282671D01*
X0077873Y2281927D02*
X0079759Y2281927D01*
X0079350Y2281328D02*
X0078235Y2281328D01*
X0078235Y2280730D02*
X0079350Y2280730D01*
X0079350Y2280131D02*
X0078235Y2280131D01*
X0077768Y2279533D02*
X0079770Y2279533D01*
X0080368Y2278934D02*
X0077169Y2278934D01*
X0075522Y2278934D02*
X0041411Y2278934D01*
X0041469Y2279533D02*
X0074924Y2279533D01*
X0074457Y2280131D02*
X0041470Y2280131D01*
X0041471Y2280730D02*
X0074457Y2280730D01*
X0074457Y2281328D02*
X0041473Y2281328D01*
X0041474Y2281927D02*
X0074819Y2281927D01*
X0075417Y2282525D02*
X0041724Y2282525D01*
X0042322Y2283124D02*
X0132283Y2283124D01*
X0132807Y2282599D02*
X0134372Y2282599D01*
X0135479Y2283706D01*
X0135479Y2285271D01*
X0134372Y2286377D01*
X0132807Y2286377D01*
X0131701Y2285271D01*
X0131701Y2283706D01*
X0132807Y2282599D01*
X0131701Y2283722D02*
X0042587Y2283722D01*
X0042587Y2284321D02*
X0131701Y2284321D01*
X0131701Y2284919D02*
X0047543Y2284919D01*
X0047245Y2284622D02*
X0048352Y2285728D01*
X0048352Y2287293D01*
X0047245Y2288399D01*
X0045680Y2288399D01*
X0044574Y2287293D01*
X0044574Y2285728D01*
X0045680Y2284622D01*
X0047245Y2284622D01*
X0048141Y2285518D02*
X0131948Y2285518D01*
X0132547Y2286116D02*
X0064370Y2286116D01*
X0064017Y2285763D02*
X0065123Y2286870D01*
X0065123Y2288435D01*
X0064017Y2289541D01*
X0062452Y2289541D01*
X0061345Y2288435D01*
X0061345Y2286870D01*
X0062452Y2285763D01*
X0064017Y2285763D01*
X0064968Y2286715D02*
X0136660Y2286715D01*
X0136660Y2287313D02*
X0065123Y2287313D01*
X0065123Y2287912D02*
X0136660Y2287912D01*
X0136660Y2288510D02*
X0065048Y2288510D01*
X0064449Y2289109D02*
X0136660Y2289109D01*
X0136660Y2289707D02*
X0041488Y2289707D01*
X0041487Y2289109D02*
X0062019Y2289109D01*
X0061421Y2288510D02*
X0041486Y2288510D01*
X0041485Y2287912D02*
X0045193Y2287912D01*
X0044594Y2287313D02*
X0041484Y2287313D01*
X0041483Y2286715D02*
X0044574Y2286715D01*
X0044574Y2286116D02*
X0041482Y2286116D01*
X0042024Y2285518D02*
X0044784Y2285518D01*
X0045383Y2284919D02*
X0042587Y2284919D01*
X0044803Y2281715D02*
X0044405Y2281222D01*
X0048352Y2286116D02*
X0062099Y2286116D01*
X0061500Y2286715D02*
X0048352Y2286715D01*
X0048331Y2287313D02*
X0061345Y2287313D01*
X0061345Y2287912D02*
X0047733Y2287912D01*
X0045568Y2291265D02*
X0046674Y2292371D01*
X0046674Y2293936D01*
X0045568Y2295043D01*
X0044003Y2295043D01*
X0042896Y2293936D01*
X0042896Y2292371D01*
X0044003Y2291265D01*
X0045568Y2291265D01*
X0045806Y2291503D02*
X0136660Y2291503D01*
X0136660Y2292101D02*
X0046405Y2292101D01*
X0046674Y2292700D02*
X0136660Y2292700D01*
X0136660Y2293298D02*
X0046674Y2293298D01*
X0046674Y2293897D02*
X0136660Y2293897D01*
X0136660Y2294495D02*
X0062687Y2294495D01*
X0062214Y2294022D02*
X0063321Y2295129D01*
X0063321Y2296693D01*
X0062214Y2297800D01*
X0060649Y2297800D01*
X0059543Y2296693D01*
X0059543Y2295129D01*
X0060649Y2294022D01*
X0062214Y2294022D01*
X0063286Y2295094D02*
X0136660Y2295094D01*
X0136660Y2295692D02*
X0063321Y2295692D01*
X0063321Y2296291D02*
X0136660Y2296291D01*
X0136660Y2296889D02*
X0063125Y2296889D01*
X0062526Y2297488D02*
X0136660Y2297488D01*
X0136660Y2298086D02*
X0041504Y2298086D01*
X0041503Y2297488D02*
X0060337Y2297488D01*
X0060633Y2298264D02*
X0062198Y2298264D01*
X0063304Y2299370D01*
X0063304Y2300935D01*
X0062198Y2302042D01*
X0060633Y2302042D01*
X0059526Y2300935D01*
X0059526Y2299370D01*
X0060633Y2298264D01*
X0060212Y2298685D02*
X0041506Y2298685D01*
X0041507Y2299283D02*
X0059613Y2299283D01*
X0059526Y2299882D02*
X0041508Y2299882D01*
X0041509Y2300480D02*
X0059526Y2300480D01*
X0059670Y2301079D02*
X0041510Y2301079D01*
X0041511Y2301678D02*
X0060269Y2301678D01*
X0062562Y2301678D02*
X0136660Y2301678D01*
X0136660Y2302276D02*
X0041512Y2302276D01*
X0041514Y2302875D02*
X0136660Y2302875D01*
X0136660Y2303473D02*
X0135845Y2303473D01*
X0136444Y2304072D02*
X0136660Y2304072D01*
X0136660Y2306466D02*
X0136073Y2306466D01*
X0136660Y2307064D02*
X0130438Y2307064D01*
X0130438Y2307647D02*
X0129332Y2308754D01*
X0127767Y2308754D01*
X0126660Y2307647D01*
X0126660Y2306082D01*
X0127767Y2304976D01*
X0129332Y2304976D01*
X0130438Y2306082D01*
X0130438Y2307647D01*
X0130423Y2307663D02*
X0133860Y2307663D01*
X0133261Y2308261D02*
X0129824Y2308261D01*
X0130438Y2306466D02*
X0133495Y2306466D01*
X0132896Y2305867D02*
X0130223Y2305867D01*
X0129624Y2305269D02*
X0132895Y2305269D01*
X0132895Y2304670D02*
X0041517Y2304670D01*
X0041516Y2304072D02*
X0133125Y2304072D01*
X0133723Y2303473D02*
X0041515Y2303473D01*
X0041518Y2305269D02*
X0122828Y2305269D01*
X0123161Y2304936D02*
X0124725Y2304936D01*
X0125832Y2306043D01*
X0125832Y2307608D01*
X0124725Y2308714D01*
X0123161Y2308714D01*
X0122054Y2307608D01*
X0122054Y2306043D01*
X0123161Y2304936D01*
X0122230Y2305867D02*
X0041519Y2305867D01*
X0041520Y2306466D02*
X0122054Y2306466D01*
X0122054Y2307064D02*
X0041522Y2307064D01*
X0041523Y2307663D02*
X0122109Y2307663D01*
X0122707Y2308261D02*
X0041524Y2308261D01*
X0041525Y2308860D02*
X0132920Y2308860D01*
X0132920Y2309458D02*
X0041526Y2309458D01*
X0041527Y2310057D02*
X0132920Y2310057D01*
X0133408Y2310655D02*
X0041528Y2310655D01*
X0041530Y2311254D02*
X0134007Y2311254D01*
X0135611Y2311254D02*
X0136660Y2311254D01*
X0136660Y2311852D02*
X0041531Y2311852D01*
X0041532Y2312451D02*
X0136660Y2312451D01*
X0136660Y2313049D02*
X0041533Y2313049D01*
X0041534Y2313648D02*
X0136660Y2313648D01*
X0136660Y2314246D02*
X0041535Y2314246D01*
X0041536Y2314845D02*
X0048765Y2314845D01*
X0048850Y2314759D02*
X0050415Y2314759D01*
X0051521Y2315866D01*
X0051521Y2317431D01*
X0050415Y2318537D01*
X0048850Y2318537D01*
X0047743Y2317431D01*
X0047743Y2315866D01*
X0048850Y2314759D01*
X0048166Y2315443D02*
X0041538Y2315443D01*
X0041764Y2316042D02*
X0047743Y2316042D01*
X0047743Y2316640D02*
X0042362Y2316640D01*
X0042961Y2317239D02*
X0047743Y2317239D01*
X0048150Y2317837D02*
X0043559Y2317837D01*
X0044158Y2318436D02*
X0048748Y2318436D01*
X0050516Y2318436D02*
X0120498Y2318436D01*
X0120819Y2318115D02*
X0122384Y2318115D01*
X0123491Y2319221D01*
X0123491Y2320786D01*
X0122384Y2321893D01*
X0120819Y2321893D01*
X0119713Y2320786D01*
X0119713Y2319221D01*
X0120819Y2318115D01*
X0119900Y2319034D02*
X0044756Y2319034D01*
X0045355Y2319633D02*
X0119713Y2319633D01*
X0119713Y2320231D02*
X0045953Y2320231D01*
X0046552Y2320830D02*
X0119756Y2320830D01*
X0120355Y2321428D02*
X0047150Y2321428D01*
X0047749Y2322027D02*
X0131729Y2322027D01*
X0131572Y2321428D02*
X0122848Y2321428D01*
X0123447Y2320830D02*
X0130973Y2320830D01*
X0130848Y2320231D02*
X0123491Y2320231D01*
X0123491Y2319633D02*
X0130848Y2319633D01*
X0130954Y2319034D02*
X0123303Y2319034D01*
X0122705Y2318436D02*
X0131553Y2318436D01*
X0133922Y2318436D02*
X0136660Y2318436D01*
X0136660Y2317837D02*
X0051115Y2317837D01*
X0051521Y2317239D02*
X0136660Y2317239D01*
X0136660Y2316640D02*
X0051521Y2316640D01*
X0051521Y2316042D02*
X0136660Y2316042D01*
X0136660Y2315443D02*
X0051098Y2315443D01*
X0050500Y2314845D02*
X0136660Y2314845D01*
X0136660Y2310655D02*
X0136210Y2310655D01*
X0136357Y2308261D02*
X0136660Y2308261D01*
X0136660Y2307663D02*
X0135759Y2307663D01*
X0131180Y2312071D02*
X0130004Y2312071D01*
X0127274Y2308261D02*
X0125179Y2308261D01*
X0125777Y2307663D02*
X0126676Y2307663D01*
X0126660Y2307064D02*
X0125832Y2307064D01*
X0125832Y2306466D02*
X0126660Y2306466D01*
X0126876Y2305867D02*
X0125656Y2305867D01*
X0125058Y2305269D02*
X0127474Y2305269D01*
X0136660Y2301079D02*
X0063160Y2301079D01*
X0063304Y2300480D02*
X0136660Y2300480D01*
X0136660Y2299882D02*
X0063304Y2299882D01*
X0063218Y2299283D02*
X0136660Y2299283D01*
X0136660Y2298685D02*
X0062619Y2298685D01*
X0059739Y2296889D02*
X0041502Y2296889D01*
X0041501Y2296291D02*
X0059543Y2296291D01*
X0059543Y2295692D02*
X0041500Y2295692D01*
X0041499Y2295094D02*
X0059577Y2295094D01*
X0060176Y2294495D02*
X0046115Y2294495D01*
X0043456Y2294495D02*
X0041498Y2294495D01*
X0041496Y2293897D02*
X0042896Y2293897D01*
X0042896Y2293298D02*
X0041495Y2293298D01*
X0041494Y2292700D02*
X0042896Y2292700D01*
X0043166Y2292101D02*
X0041493Y2292101D01*
X0041492Y2291503D02*
X0043765Y2291503D01*
X0041491Y2290904D02*
X0136660Y2290904D01*
X0136660Y2290306D02*
X0041490Y2290306D01*
X0051226Y2301360D02*
X0052556Y2301360D01*
X0044677Y2311888D02*
X0044677Y2312473D01*
X0048347Y2322625D02*
X0130823Y2322625D01*
X0129917Y2323224D02*
X0048946Y2323224D01*
X0049544Y2323822D02*
X0129011Y2323822D01*
X0128105Y2324421D02*
X0050143Y2324421D01*
X0050741Y2325019D02*
X0127199Y2325019D01*
X0126293Y2325618D02*
X0051340Y2325618D01*
X0051938Y2326216D02*
X0125387Y2326216D01*
X0124481Y2326815D02*
X0052537Y2326815D01*
X0053135Y2327413D02*
X0123574Y2327413D01*
X0122605Y2328012D02*
X0053734Y2328012D01*
X0054332Y2328611D02*
X0107790Y2328611D01*
X0108247Y2328153D02*
X0109812Y2328153D01*
X0110919Y2329260D01*
X0110919Y2330824D01*
X0109812Y2331931D01*
X0108247Y2331931D01*
X0107141Y2330824D01*
X0107141Y2329260D01*
X0108247Y2328153D01*
X0107191Y2329209D02*
X0054931Y2329209D01*
X0055529Y2329808D02*
X0107141Y2329808D01*
X0107141Y2330406D02*
X0087936Y2330406D01*
X0088535Y2331005D02*
X0107321Y2331005D01*
X0107919Y2331603D02*
X0088637Y2331603D01*
X0088637Y2332202D02*
X0115312Y2332202D01*
X0114270Y2332800D02*
X0088508Y2332800D01*
X0087909Y2333399D02*
X0113228Y2333399D01*
X0112678Y2330288D02*
X0113103Y2330033D01*
X0110919Y2329808D02*
X0119479Y2329808D01*
X0118437Y2330406D02*
X0110919Y2330406D01*
X0110739Y2331005D02*
X0117395Y2331005D01*
X0116354Y2331603D02*
X0110140Y2331603D01*
X0110868Y2329209D02*
X0120521Y2329209D01*
X0121563Y2328611D02*
X0110270Y2328611D01*
X0095921Y2329244D02*
X0095939Y2330161D01*
X0085559Y2330406D02*
X0056128Y2330406D01*
X0056726Y2331005D02*
X0084960Y2331005D01*
X0084859Y2331603D02*
X0057325Y2331603D01*
X0057923Y2332202D02*
X0084859Y2332202D01*
X0084988Y2332800D02*
X0058522Y2332800D01*
X0059120Y2333399D02*
X0085586Y2333399D01*
X0076932Y2326831D02*
X0076932Y2325641D01*
X0124350Y2322770D02*
X0124598Y2323071D01*
X0134626Y2319633D02*
X0135354Y2319633D01*
X0134520Y2319034D02*
X0136260Y2319034D01*
X0136660Y2286116D02*
X0134633Y2286116D01*
X0135232Y2285518D02*
X0136660Y2285518D01*
X0136660Y2284919D02*
X0135479Y2284919D01*
X0135479Y2284321D02*
X0136660Y2284321D01*
X0136660Y2283722D02*
X0135479Y2283722D01*
X0134897Y2283124D02*
X0136660Y2283124D01*
X0136660Y2278934D02*
X0107260Y2278934D01*
X0107859Y2278336D02*
X0136660Y2278336D01*
X0136660Y2277737D02*
X0108145Y2277737D01*
X0108145Y2277139D02*
X0136660Y2277139D01*
X0136660Y2276540D02*
X0108145Y2276540D01*
X0107602Y2275942D02*
X0136660Y2275942D01*
X0113037Y2276766D02*
X0112562Y2276291D01*
X0105803Y2271353D02*
X0105803Y2270795D01*
X0084258Y2277455D02*
X0083156Y2277613D01*
X0085020Y2260380D02*
X0080813Y2260380D01*
X0080788Y2260405D02*
X0079223Y2260405D01*
X0078116Y2259299D01*
X0078116Y2257734D01*
X0079223Y2256627D01*
X0080788Y2256627D01*
X0081894Y2257734D01*
X0081894Y2259299D01*
X0080788Y2260405D01*
X0081411Y2259782D02*
X0084422Y2259782D01*
X0084265Y2259183D02*
X0081894Y2259183D01*
X0081894Y2258585D02*
X0084265Y2258585D01*
X0084339Y2257986D02*
X0081894Y2257986D01*
X0081548Y2257388D02*
X0084937Y2257388D01*
X0084356Y2256789D02*
X0080950Y2256789D01*
X0079061Y2256789D02*
X0071496Y2256789D01*
X0071002Y2256295D02*
X0072109Y2257402D01*
X0072109Y2258966D01*
X0071002Y2260073D01*
X0069437Y2260073D01*
X0068331Y2258966D01*
X0068331Y2257402D01*
X0069437Y2256295D01*
X0071002Y2256295D01*
X0072095Y2257388D02*
X0078462Y2257388D01*
X0078116Y2257986D02*
X0072109Y2257986D01*
X0072109Y2258585D02*
X0078116Y2258585D01*
X0078116Y2259183D02*
X0071892Y2259183D01*
X0071294Y2259782D02*
X0078600Y2259782D01*
X0079198Y2260380D02*
X0031227Y2260380D01*
X0031379Y2259782D02*
X0069146Y2259782D01*
X0068548Y2259183D02*
X0031983Y2259183D01*
X0032587Y2258585D02*
X0068331Y2258585D01*
X0068331Y2257986D02*
X0033191Y2257986D01*
X0033795Y2257388D02*
X0068345Y2257388D01*
X0068943Y2256789D02*
X0034399Y2256789D01*
X0035003Y2256191D02*
X0083757Y2256191D01*
X0063862Y2272881D02*
X0063657Y2272957D01*
X0126273Y0188654D02*
X0176696Y0188654D01*
X0192359Y0172992D01*
X0192359Y0037420D01*
X0175442Y0020504D01*
X0060640Y0020504D01*
X0021746Y0059398D01*
X0021746Y0113334D01*
X0039678Y0145629D01*
X0096691Y0145676D01*
X0101069Y0150038D01*
X0101097Y0160241D01*
X0126688Y0185865D01*
X0176232Y0185849D01*
X0189825Y0172236D01*
X0189825Y0038348D01*
X0174803Y0023325D01*
X0060762Y0023325D01*
X0023968Y0060119D01*
X0023921Y0113558D01*
X0040505Y0143438D01*
X0097577Y0143461D01*
X0103258Y0149142D01*
X0103258Y0159100D01*
X0127309Y0183150D01*
X0175267Y0183150D01*
X0187051Y0171366D01*
X0187051Y0038698D01*
X0174545Y0026191D01*
X0060168Y0026191D01*
X0026246Y0060113D01*
X0026256Y0114158D01*
X0041320Y0141453D01*
X0098386Y0141499D01*
X0105264Y0148376D01*
X0105264Y0158326D01*
X0127623Y0180686D01*
X0174738Y0180686D01*
X0184908Y0170516D01*
X0184908Y0039054D01*
X0174393Y0028539D01*
X0060324Y0028539D01*
X0028272Y0060591D01*
X0028324Y0114571D01*
X0042550Y0139334D01*
X0099074Y0139334D01*
X0107408Y0147667D01*
X0107408Y0157508D01*
X0128317Y0178417D01*
X0174067Y0178417D01*
X0182811Y0169673D01*
X0182811Y0040149D01*
X0173590Y0030928D01*
X0116909Y0030928D01*
X0112714Y0035123D01*
X0112714Y0081105D01*
X0106092Y0087727D01*
X0104281Y0087727D01*
X0102392Y0087784D02*
X0033124Y0087784D01*
X0033124Y0087538D02*
X0033124Y0089103D01*
X0032017Y0090210D01*
X0030452Y0090210D01*
X0029400Y0089157D01*
X0029424Y0114278D01*
X0035393Y0124667D01*
X0041312Y0133629D01*
X0041312Y0133528D01*
X0042418Y0132422D01*
X0043983Y0132422D01*
X0045090Y0133528D01*
X0045090Y0135093D01*
X0043983Y0136200D01*
X0043010Y0136200D01*
X0044354Y0138234D01*
X0052919Y0138234D01*
X0051850Y0137165D01*
X0051850Y0135600D01*
X0052957Y0134493D01*
X0054521Y0134493D01*
X0055628Y0135600D01*
X0055628Y0137165D01*
X0054559Y0138234D01*
X0057245Y0138234D01*
X0056151Y0137140D01*
X0056151Y0135575D01*
X0057258Y0134468D01*
X0058823Y0134468D01*
X0059929Y0135575D01*
X0059929Y0137140D01*
X0058835Y0138234D01*
X0099529Y0138234D01*
X0099776Y0138480D01*
X0106937Y0138362D01*
X0107610Y0138404D01*
X0107606Y0136974D01*
X0106714Y0137865D01*
X0105150Y0137865D01*
X0104043Y0136759D01*
X0104043Y0135194D01*
X0105150Y0134087D01*
X0106714Y0134087D01*
X0107600Y0134973D01*
X0107463Y0087912D01*
X0107192Y0088183D01*
X0107192Y0088183D01*
X0106547Y0088827D01*
X0105852Y0088827D01*
X0105063Y0089616D01*
X0103498Y0089616D01*
X0102392Y0088510D01*
X0102392Y0086945D01*
X0103498Y0085838D01*
X0105063Y0085838D01*
X0105744Y0086519D01*
X0107453Y0084810D01*
X0107315Y0037360D01*
X0107513Y0037162D01*
X0103198Y0032807D01*
X0094466Y0032669D01*
X0084132Y0043041D01*
X0080841Y0043048D01*
X0080841Y0043054D01*
X0079734Y0044161D01*
X0078170Y0044161D01*
X0077064Y0043055D01*
X0047307Y0043112D01*
X0029372Y0061046D01*
X0029398Y0087486D01*
X0030452Y0086432D01*
X0032017Y0086432D01*
X0033124Y0087538D01*
X0032771Y0087186D02*
X0102392Y0087186D01*
X0102750Y0086587D02*
X0032173Y0086587D01*
X0030297Y0086587D02*
X0029397Y0086587D01*
X0029397Y0085989D02*
X0103348Y0085989D01*
X0105214Y0085989D02*
X0106275Y0085989D01*
X0106873Y0085390D02*
X0029396Y0085390D01*
X0029395Y0084792D02*
X0107453Y0084792D01*
X0107452Y0084193D02*
X0083679Y0084193D01*
X0083171Y0084701D02*
X0081606Y0084701D01*
X0080500Y0083594D01*
X0080500Y0082030D01*
X0081606Y0080923D01*
X0083171Y0080923D01*
X0084277Y0082030D01*
X0084277Y0083594D01*
X0083171Y0084701D01*
X0084277Y0083595D02*
X0107450Y0083595D01*
X0107448Y0082996D02*
X0105861Y0082996D01*
X0105390Y0083468D02*
X0103825Y0083468D01*
X0102718Y0082361D01*
X0102718Y0080796D01*
X0103825Y0079690D01*
X0105390Y0079690D01*
X0106496Y0080796D01*
X0106496Y0082361D01*
X0105390Y0083468D01*
X0106460Y0082398D02*
X0107446Y0082398D01*
X0107445Y0081799D02*
X0106496Y0081799D01*
X0106496Y0081201D02*
X0107443Y0081201D01*
X0107441Y0080602D02*
X0106302Y0080602D01*
X0105704Y0080003D02*
X0107439Y0080003D01*
X0107438Y0079405D02*
X0083527Y0079405D01*
X0083124Y0079808D02*
X0081559Y0079808D01*
X0080452Y0078702D01*
X0080452Y0077137D01*
X0081559Y0076030D01*
X0083124Y0076030D01*
X0084230Y0077137D01*
X0084230Y0078702D01*
X0083124Y0079808D01*
X0084125Y0078806D02*
X0107436Y0078806D01*
X0107434Y0078208D02*
X0084230Y0078208D01*
X0084230Y0077609D02*
X0107432Y0077609D01*
X0107431Y0077011D02*
X0084105Y0077011D01*
X0083506Y0076412D02*
X0107429Y0076412D01*
X0107427Y0075814D02*
X0029387Y0075814D01*
X0029387Y0076412D02*
X0081177Y0076412D01*
X0080578Y0077011D02*
X0029388Y0077011D01*
X0029388Y0077609D02*
X0080452Y0077609D01*
X0080452Y0078208D02*
X0029389Y0078208D01*
X0029390Y0078806D02*
X0080557Y0078806D01*
X0081156Y0079405D02*
X0029390Y0079405D01*
X0029391Y0080003D02*
X0103511Y0080003D01*
X0102913Y0080602D02*
X0029391Y0080602D01*
X0029392Y0081201D02*
X0081329Y0081201D01*
X0080730Y0081799D02*
X0029392Y0081799D01*
X0029393Y0082398D02*
X0080500Y0082398D01*
X0080500Y0082996D02*
X0029394Y0082996D01*
X0029394Y0083595D02*
X0080500Y0083595D01*
X0081098Y0084193D02*
X0029395Y0084193D01*
X0029398Y0087186D02*
X0029699Y0087186D01*
X0029822Y0089580D02*
X0029400Y0089580D01*
X0029401Y0090178D02*
X0030421Y0090178D01*
X0029401Y0090777D02*
X0107471Y0090777D01*
X0107473Y0091375D02*
X0029402Y0091375D01*
X0029402Y0091974D02*
X0098762Y0091974D01*
X0098251Y0092484D02*
X0099358Y0091378D01*
X0100923Y0091378D01*
X0102029Y0092484D01*
X0102029Y0094049D01*
X0100923Y0095156D01*
X0099358Y0095156D01*
X0098251Y0094049D01*
X0098251Y0092484D01*
X0098251Y0092572D02*
X0029403Y0092572D01*
X0029403Y0093171D02*
X0098251Y0093171D01*
X0098251Y0093769D02*
X0029404Y0093769D01*
X0029405Y0094368D02*
X0098570Y0094368D01*
X0099169Y0094966D02*
X0029405Y0094966D01*
X0029406Y0095565D02*
X0107485Y0095565D01*
X0107487Y0096163D02*
X0029406Y0096163D01*
X0029407Y0096762D02*
X0107488Y0096762D01*
X0107490Y0097360D02*
X0029408Y0097360D01*
X0029408Y0097959D02*
X0107492Y0097959D01*
X0107494Y0098557D02*
X0029409Y0098557D01*
X0029409Y0099156D02*
X0098255Y0099156D01*
X0098586Y0098824D02*
X0100151Y0098824D01*
X0101258Y0099931D01*
X0101258Y0101496D01*
X0100151Y0102602D01*
X0098586Y0102602D01*
X0097480Y0101496D01*
X0097480Y0099931D01*
X0098586Y0098824D01*
X0097656Y0099754D02*
X0029410Y0099754D01*
X0029410Y0100353D02*
X0097480Y0100353D01*
X0097480Y0100951D02*
X0029411Y0100951D01*
X0029412Y0101550D02*
X0097534Y0101550D01*
X0098133Y0102148D02*
X0029412Y0102148D01*
X0029413Y0102747D02*
X0107506Y0102747D01*
X0107508Y0103345D02*
X0029413Y0103345D01*
X0029414Y0103944D02*
X0107509Y0103944D01*
X0107511Y0104542D02*
X0029415Y0104542D01*
X0029415Y0105141D02*
X0107513Y0105141D01*
X0107515Y0105739D02*
X0029416Y0105739D01*
X0029416Y0106338D02*
X0084677Y0106338D01*
X0085074Y0105940D02*
X0086639Y0105940D01*
X0087746Y0107047D01*
X0087746Y0108612D01*
X0086639Y0109718D01*
X0085074Y0109718D01*
X0083968Y0108612D01*
X0083968Y0107047D01*
X0085074Y0105940D01*
X0084078Y0106937D02*
X0029417Y0106937D01*
X0029417Y0107535D02*
X0083968Y0107535D01*
X0083968Y0108134D02*
X0029418Y0108134D01*
X0029419Y0108732D02*
X0032281Y0108732D01*
X0032299Y0108714D02*
X0033864Y0108714D01*
X0034970Y0109821D01*
X0034970Y0111385D01*
X0033864Y0112492D01*
X0032299Y0112492D01*
X0031192Y0111385D01*
X0031192Y0109821D01*
X0032299Y0108714D01*
X0031682Y0109331D02*
X0029419Y0109331D01*
X0029420Y0109929D02*
X0031192Y0109929D01*
X0031192Y0110528D02*
X0029420Y0110528D01*
X0029421Y0111126D02*
X0031192Y0111126D01*
X0031532Y0111725D02*
X0029421Y0111725D01*
X0029422Y0112323D02*
X0032130Y0112323D01*
X0034033Y0112323D02*
X0107534Y0112323D01*
X0107532Y0111725D02*
X0034631Y0111725D01*
X0034970Y0111126D02*
X0107530Y0111126D01*
X0107529Y0110528D02*
X0034970Y0110528D01*
X0034970Y0109929D02*
X0107527Y0109929D01*
X0107525Y0109331D02*
X0087027Y0109331D01*
X0087626Y0108732D02*
X0107523Y0108732D01*
X0107522Y0108134D02*
X0087746Y0108134D01*
X0087746Y0107535D02*
X0107520Y0107535D01*
X0107518Y0106937D02*
X0087635Y0106937D01*
X0087037Y0106338D02*
X0107516Y0106338D01*
X0107504Y0102148D02*
X0100605Y0102148D01*
X0101204Y0101550D02*
X0107502Y0101550D01*
X0107501Y0100951D02*
X0101258Y0100951D01*
X0101258Y0100353D02*
X0107499Y0100353D01*
X0107497Y0099754D02*
X0101082Y0099754D01*
X0100483Y0099156D02*
X0107495Y0099156D01*
X0107483Y0094966D02*
X0101112Y0094966D01*
X0101711Y0094368D02*
X0107481Y0094368D01*
X0107480Y0093769D02*
X0102029Y0093769D01*
X0102029Y0093171D02*
X0107478Y0093171D01*
X0107476Y0092572D02*
X0102029Y0092572D01*
X0101519Y0091974D02*
X0107474Y0091974D01*
X0107469Y0090178D02*
X0032049Y0090178D01*
X0032647Y0089580D02*
X0103462Y0089580D01*
X0102863Y0088981D02*
X0033124Y0088981D01*
X0033124Y0088383D02*
X0102392Y0088383D01*
X0105100Y0089580D02*
X0107467Y0089580D01*
X0107466Y0088981D02*
X0105698Y0088981D01*
X0106992Y0088383D02*
X0107464Y0088383D01*
X0103353Y0082996D02*
X0084277Y0082996D01*
X0084277Y0082398D02*
X0102755Y0082398D01*
X0102718Y0081799D02*
X0084047Y0081799D01*
X0083448Y0081201D02*
X0102718Y0081201D01*
X0107425Y0075215D02*
X0029386Y0075215D01*
X0029385Y0074617D02*
X0107424Y0074617D01*
X0107422Y0074018D02*
X0029385Y0074018D01*
X0029384Y0073420D02*
X0103895Y0073420D01*
X0104157Y0073682D02*
X0103051Y0072576D01*
X0103051Y0071011D01*
X0104157Y0069904D01*
X0105722Y0069904D01*
X0106829Y0071011D01*
X0106829Y0072576D01*
X0105722Y0073682D01*
X0104157Y0073682D01*
X0103296Y0072821D02*
X0029384Y0072821D01*
X0029383Y0072223D02*
X0103051Y0072223D01*
X0103051Y0071624D02*
X0029383Y0071624D01*
X0029382Y0071026D02*
X0089321Y0071026D01*
X0089477Y0071182D02*
X0088371Y0070076D01*
X0088371Y0068511D01*
X0089477Y0067404D01*
X0091042Y0067404D01*
X0092149Y0068511D01*
X0092149Y0070076D01*
X0091042Y0071182D01*
X0089477Y0071182D01*
X0088722Y0070427D02*
X0029381Y0070427D01*
X0029381Y0069829D02*
X0088371Y0069829D01*
X0088371Y0069230D02*
X0029380Y0069230D01*
X0029380Y0068632D02*
X0088371Y0068632D01*
X0088848Y0068033D02*
X0029379Y0068033D01*
X0029379Y0067435D02*
X0089447Y0067435D01*
X0091073Y0067435D02*
X0107403Y0067435D01*
X0107404Y0068033D02*
X0091671Y0068033D01*
X0092149Y0068632D02*
X0107406Y0068632D01*
X0107408Y0069230D02*
X0092149Y0069230D01*
X0092149Y0069829D02*
X0107410Y0069829D01*
X0107411Y0070427D02*
X0106245Y0070427D01*
X0106829Y0071026D02*
X0107413Y0071026D01*
X0107415Y0071624D02*
X0106829Y0071624D01*
X0106829Y0072223D02*
X0107417Y0072223D01*
X0107418Y0072821D02*
X0106583Y0072821D01*
X0105984Y0073420D02*
X0107420Y0073420D01*
X0103634Y0070427D02*
X0091797Y0070427D01*
X0091198Y0071026D02*
X0103051Y0071026D01*
X0107401Y0066836D02*
X0029378Y0066836D01*
X0029377Y0066238D02*
X0074230Y0066238D01*
X0074689Y0066697D02*
X0073582Y0065590D01*
X0073582Y0064025D01*
X0074689Y0062919D01*
X0076254Y0062919D01*
X0077360Y0064025D01*
X0077360Y0065590D01*
X0076254Y0066697D01*
X0074689Y0066697D01*
X0073631Y0065639D02*
X0029377Y0065639D01*
X0029376Y0065041D02*
X0073582Y0065041D01*
X0073582Y0064442D02*
X0068447Y0064442D01*
X0067995Y0064894D02*
X0066430Y0064894D01*
X0065324Y0063787D01*
X0065324Y0062223D01*
X0066430Y0061116D01*
X0067995Y0061116D01*
X0069102Y0062223D01*
X0069102Y0063787D01*
X0067995Y0064894D01*
X0069045Y0063844D02*
X0073764Y0063844D01*
X0074362Y0063245D02*
X0069102Y0063245D01*
X0069102Y0062647D02*
X0107389Y0062647D01*
X0107391Y0063245D02*
X0076580Y0063245D01*
X0077179Y0063844D02*
X0107392Y0063844D01*
X0107394Y0064442D02*
X0077360Y0064442D01*
X0077360Y0065041D02*
X0107396Y0065041D01*
X0107398Y0065639D02*
X0077311Y0065639D01*
X0076713Y0066238D02*
X0107399Y0066238D01*
X0107387Y0062048D02*
X0068927Y0062048D01*
X0068329Y0061450D02*
X0107385Y0061450D01*
X0107384Y0060851D02*
X0029567Y0060851D01*
X0029373Y0061450D02*
X0061839Y0061450D01*
X0062188Y0061100D02*
X0063753Y0061100D01*
X0064860Y0062206D01*
X0064860Y0063771D01*
X0063753Y0064878D01*
X0062188Y0064878D01*
X0061082Y0063771D01*
X0061082Y0062206D01*
X0062188Y0061100D01*
X0061240Y0062048D02*
X0029373Y0062048D01*
X0029374Y0062647D02*
X0061082Y0062647D01*
X0061082Y0063245D02*
X0029374Y0063245D01*
X0029375Y0063844D02*
X0061154Y0063844D01*
X0061753Y0064442D02*
X0029376Y0064442D01*
X0030166Y0060253D02*
X0107382Y0060253D01*
X0107380Y0059654D02*
X0030764Y0059654D01*
X0031363Y0059056D02*
X0107378Y0059056D01*
X0107377Y0058457D02*
X0031961Y0058457D01*
X0032560Y0057859D02*
X0107375Y0057859D01*
X0107373Y0057260D02*
X0033159Y0057260D01*
X0033757Y0056662D02*
X0107371Y0056662D01*
X0107370Y0056063D02*
X0034356Y0056063D01*
X0034954Y0055465D02*
X0107368Y0055465D01*
X0107366Y0054866D02*
X0035553Y0054866D01*
X0036151Y0054268D02*
X0107364Y0054268D01*
X0107363Y0053669D02*
X0036750Y0053669D01*
X0037348Y0053070D02*
X0045669Y0053070D01*
X0045693Y0053095D02*
X0044586Y0051988D01*
X0044586Y0050423D01*
X0045693Y0049317D01*
X0047257Y0049317D01*
X0048364Y0050423D01*
X0048364Y0051988D01*
X0047257Y0053095D01*
X0045693Y0053095D01*
X0045070Y0052472D02*
X0037947Y0052472D01*
X0038545Y0051873D02*
X0044586Y0051873D01*
X0044586Y0051275D02*
X0039144Y0051275D01*
X0039742Y0050676D02*
X0044586Y0050676D01*
X0044931Y0050078D02*
X0040341Y0050078D01*
X0040939Y0049479D02*
X0045530Y0049479D01*
X0047420Y0049479D02*
X0075385Y0049479D01*
X0075831Y0049925D02*
X0074724Y0048818D01*
X0074724Y0047254D01*
X0075831Y0046147D01*
X0077395Y0046147D01*
X0078502Y0047254D01*
X0078502Y0048818D01*
X0077395Y0049925D01*
X0075831Y0049925D01*
X0074787Y0048881D02*
X0041538Y0048881D01*
X0042136Y0048282D02*
X0074724Y0048282D01*
X0074724Y0047684D02*
X0071316Y0047684D01*
X0071859Y0047141D02*
X0070752Y0048248D01*
X0069187Y0048248D01*
X0068081Y0047141D01*
X0068081Y0045576D01*
X0069187Y0044470D01*
X0070752Y0044470D01*
X0071859Y0045576D01*
X0071859Y0047141D01*
X0071859Y0047085D02*
X0074892Y0047085D01*
X0075491Y0046487D02*
X0071859Y0046487D01*
X0071859Y0045888D02*
X0107340Y0045888D01*
X0107338Y0045290D02*
X0071572Y0045290D01*
X0070974Y0044691D02*
X0107336Y0044691D01*
X0107335Y0044093D02*
X0079802Y0044093D01*
X0080401Y0043494D02*
X0107333Y0043494D01*
X0107331Y0042896D02*
X0084277Y0042896D01*
X0084874Y0042297D02*
X0107329Y0042297D01*
X0107328Y0041699D02*
X0085470Y0041699D01*
X0086066Y0041100D02*
X0107326Y0041100D01*
X0107324Y0040502D02*
X0086662Y0040502D01*
X0087258Y0039903D02*
X0107322Y0039903D01*
X0107321Y0039305D02*
X0094845Y0039305D01*
X0094501Y0039648D02*
X0095608Y0038542D01*
X0095608Y0036977D01*
X0094501Y0035870D01*
X0092936Y0035870D01*
X0091830Y0036977D01*
X0091830Y0038542D01*
X0092936Y0039648D01*
X0094501Y0039648D01*
X0095443Y0038706D02*
X0107319Y0038706D01*
X0107317Y0038108D02*
X0095608Y0038108D01*
X0095608Y0037509D02*
X0107315Y0037509D01*
X0107264Y0036911D02*
X0095541Y0036911D01*
X0094943Y0036312D02*
X0106671Y0036312D01*
X0106078Y0035714D02*
X0091432Y0035714D01*
X0090836Y0036312D02*
X0092494Y0036312D01*
X0091896Y0036911D02*
X0090240Y0036911D01*
X0089643Y0037509D02*
X0091830Y0037509D01*
X0091830Y0038108D02*
X0089047Y0038108D01*
X0088451Y0038706D02*
X0091994Y0038706D01*
X0092593Y0039305D02*
X0087855Y0039305D01*
X0092028Y0035115D02*
X0105485Y0035115D01*
X0104892Y0034517D02*
X0092625Y0034517D01*
X0093221Y0033918D02*
X0104298Y0033918D01*
X0103705Y0033320D02*
X0093817Y0033320D01*
X0094413Y0032721D02*
X0097772Y0032721D01*
X0107342Y0046487D02*
X0077735Y0046487D01*
X0078334Y0047085D02*
X0107343Y0047085D01*
X0107345Y0047684D02*
X0078502Y0047684D01*
X0078502Y0048282D02*
X0107347Y0048282D01*
X0107349Y0048881D02*
X0078439Y0048881D01*
X0077841Y0049479D02*
X0107350Y0049479D01*
X0107352Y0050078D02*
X0048019Y0050078D01*
X0048364Y0050676D02*
X0107354Y0050676D01*
X0107356Y0051275D02*
X0048364Y0051275D01*
X0048364Y0051873D02*
X0107357Y0051873D01*
X0107359Y0052472D02*
X0047880Y0052472D01*
X0047282Y0053070D02*
X0107361Y0053070D01*
X0090167Y0065231D02*
X0090243Y0065436D01*
X0085511Y0084729D02*
X0085668Y0085831D01*
X0091770Y0107376D02*
X0092328Y0107376D01*
X0084686Y0109331D02*
X0034480Y0109331D01*
X0033882Y0108732D02*
X0084088Y0108732D01*
X0086833Y0114135D02*
X0086357Y0114611D01*
X0079418Y0133274D02*
X0080524Y0134381D01*
X0080524Y0135946D01*
X0079418Y0137052D01*
X0077853Y0137052D01*
X0076746Y0135946D01*
X0076746Y0134381D01*
X0077853Y0133274D01*
X0079418Y0133274D01*
X0080013Y0133870D02*
X0107597Y0133870D01*
X0107598Y0134468D02*
X0107095Y0134468D01*
X0107595Y0133271D02*
X0044833Y0133271D01*
X0045090Y0133870D02*
X0077258Y0133870D01*
X0076746Y0134468D02*
X0045090Y0134468D01*
X0045090Y0135067D02*
X0052383Y0135067D01*
X0051850Y0135665D02*
X0044518Y0135665D01*
X0043052Y0136264D02*
X0051850Y0136264D01*
X0051850Y0136862D02*
X0043448Y0136862D01*
X0043843Y0137461D02*
X0052146Y0137461D01*
X0052744Y0138059D02*
X0044239Y0138059D01*
X0044234Y0132672D02*
X0107593Y0132672D01*
X0107591Y0132074D02*
X0040285Y0132074D01*
X0039890Y0131475D02*
X0054940Y0131475D01*
X0055476Y0132012D02*
X0054370Y0130905D01*
X0054370Y0129340D01*
X0055476Y0128234D01*
X0057041Y0128234D01*
X0058148Y0129340D01*
X0058148Y0130905D01*
X0057041Y0132012D01*
X0055476Y0132012D01*
X0054370Y0130877D02*
X0039494Y0130877D01*
X0039099Y0130278D02*
X0054370Y0130278D01*
X0054370Y0129680D02*
X0038704Y0129680D01*
X0038308Y0129081D02*
X0054628Y0129081D01*
X0055227Y0128483D02*
X0037913Y0128483D01*
X0037518Y0127884D02*
X0107579Y0127884D01*
X0107577Y0127286D02*
X0057200Y0127286D01*
X0057080Y0127405D02*
X0055516Y0127405D01*
X0054409Y0126299D01*
X0054409Y0124734D01*
X0055516Y0123627D01*
X0057080Y0123627D01*
X0058187Y0124734D01*
X0058187Y0126299D01*
X0057080Y0127405D01*
X0057798Y0126687D02*
X0107576Y0126687D01*
X0107574Y0126089D02*
X0058187Y0126089D01*
X0058187Y0125490D02*
X0107572Y0125490D01*
X0107571Y0124892D02*
X0058187Y0124892D01*
X0057747Y0124293D02*
X0107569Y0124293D01*
X0107567Y0123695D02*
X0057148Y0123695D01*
X0055448Y0123695D02*
X0045009Y0123695D01*
X0045009Y0123957D02*
X0043902Y0125064D01*
X0042337Y0125064D01*
X0041231Y0123957D01*
X0041231Y0122392D01*
X0042337Y0121286D01*
X0043902Y0121286D01*
X0045009Y0122392D01*
X0045009Y0123957D01*
X0044673Y0124293D02*
X0054850Y0124293D01*
X0054409Y0124892D02*
X0044074Y0124892D01*
X0042165Y0124892D02*
X0035541Y0124892D01*
X0035178Y0124293D02*
X0041567Y0124293D01*
X0041231Y0123695D02*
X0034834Y0123695D01*
X0034490Y0123096D02*
X0041231Y0123096D01*
X0041231Y0122498D02*
X0034146Y0122498D01*
X0033802Y0121899D02*
X0041724Y0121899D01*
X0042322Y0121301D02*
X0033459Y0121301D01*
X0033115Y0120702D02*
X0107558Y0120702D01*
X0107557Y0120104D02*
X0032771Y0120104D01*
X0032427Y0119505D02*
X0107555Y0119505D01*
X0107553Y0118907D02*
X0032083Y0118907D01*
X0031739Y0118308D02*
X0107551Y0118308D01*
X0107550Y0117710D02*
X0031396Y0117710D01*
X0031052Y0117111D02*
X0107548Y0117111D01*
X0107546Y0116513D02*
X0030708Y0116513D01*
X0030364Y0115914D02*
X0107544Y0115914D01*
X0107543Y0115316D02*
X0030020Y0115316D01*
X0029677Y0114717D02*
X0107541Y0114717D01*
X0107539Y0114119D02*
X0029424Y0114119D01*
X0029423Y0113520D02*
X0107537Y0113520D01*
X0107536Y0112922D02*
X0029423Y0112922D01*
X0032835Y0114251D02*
X0033091Y0114676D01*
X0035936Y0125490D02*
X0054409Y0125490D01*
X0054409Y0126089D02*
X0036332Y0126089D01*
X0036727Y0126687D02*
X0054798Y0126687D01*
X0055396Y0127286D02*
X0037122Y0127286D01*
X0040053Y0126171D02*
X0040354Y0125923D01*
X0045009Y0123096D02*
X0107565Y0123096D01*
X0107564Y0122498D02*
X0045009Y0122498D01*
X0044515Y0121899D02*
X0107562Y0121899D01*
X0107560Y0121301D02*
X0043917Y0121301D01*
X0042168Y0132672D02*
X0040680Y0132672D01*
X0041076Y0133271D02*
X0041569Y0133271D01*
X0051053Y0132754D02*
X0051053Y0131577D01*
X0055095Y0135067D02*
X0056660Y0135067D01*
X0056151Y0135665D02*
X0055628Y0135665D01*
X0055628Y0136264D02*
X0056151Y0136264D01*
X0056151Y0136862D02*
X0055628Y0136862D01*
X0055332Y0137461D02*
X0056472Y0137461D01*
X0057070Y0138059D02*
X0054734Y0138059D01*
X0059010Y0138059D02*
X0107609Y0138059D01*
X0107607Y0137461D02*
X0107119Y0137461D01*
X0104745Y0137461D02*
X0059608Y0137461D01*
X0059929Y0136862D02*
X0077663Y0136862D01*
X0077064Y0136264D02*
X0059929Y0136264D01*
X0059929Y0135665D02*
X0076746Y0135665D01*
X0076746Y0135067D02*
X0059421Y0135067D01*
X0057577Y0131475D02*
X0107590Y0131475D01*
X0107588Y0130877D02*
X0058148Y0130877D01*
X0058148Y0130278D02*
X0107586Y0130278D01*
X0107584Y0129680D02*
X0058148Y0129680D01*
X0057889Y0129081D02*
X0107583Y0129081D01*
X0107581Y0128483D02*
X0057290Y0128483D01*
X0079608Y0136862D02*
X0104146Y0136862D01*
X0104043Y0136264D02*
X0080206Y0136264D01*
X0080524Y0135665D02*
X0104043Y0135665D01*
X0104171Y0135067D02*
X0080524Y0135067D01*
X0080524Y0134468D02*
X0104769Y0134468D01*
X0096284Y0147843D02*
X0099077Y0150637D01*
X0099077Y0161459D01*
X0126273Y0188654D01*
X0096284Y0147843D02*
X0038992Y0147843D01*
X0017269Y0108921D01*
X0032962Y0097512D02*
X0033879Y0097495D01*
X0036292Y0078505D02*
X0037483Y0078505D01*
X0064189Y0064442D02*
X0065978Y0064442D01*
X0065380Y0063844D02*
X0064787Y0063844D01*
X0064860Y0063245D02*
X0065324Y0063245D01*
X0065324Y0062647D02*
X0064860Y0062647D01*
X0064702Y0062048D02*
X0065498Y0062048D01*
X0066096Y0061450D02*
X0064103Y0061450D01*
X0061763Y0054129D02*
X0061763Y0052800D01*
X0068081Y0047085D02*
X0043333Y0047085D01*
X0043932Y0046487D02*
X0068081Y0046487D01*
X0068081Y0045888D02*
X0044530Y0045888D01*
X0045129Y0045290D02*
X0068367Y0045290D01*
X0068966Y0044691D02*
X0045727Y0044691D01*
X0046326Y0044093D02*
X0078102Y0044093D01*
X0077503Y0043494D02*
X0046924Y0043494D01*
X0050651Y0046250D02*
X0051235Y0046250D01*
X0042735Y0047684D02*
X0068624Y0047684D01*
X0081409Y0046377D02*
X0081902Y0045978D01*
X2178932Y0125548D02*
X2178932Y0175971D01*
X2194595Y0191634D01*
X2330166Y0191634D01*
X2347083Y0174718D01*
X2347083Y0059915D01*
X2308189Y0021021D01*
X2254252Y0021021D01*
X2221957Y0038953D01*
X2221911Y0095966D01*
X2217548Y0100345D01*
X2207345Y0100373D01*
X2181721Y0125963D01*
X2181738Y0175507D01*
X2195351Y0189100D01*
X2329239Y0189100D01*
X2344261Y0174078D01*
X2344261Y0060037D01*
X2307467Y0023244D01*
X2254028Y0023196D01*
X2224148Y0039781D01*
X2224125Y0096852D01*
X2218444Y0102534D01*
X2208486Y0102534D01*
X2184436Y0126584D01*
X2184436Y0174542D01*
X2196220Y0186327D01*
X2328889Y0186327D01*
X2341396Y0173820D01*
X2341396Y0059443D01*
X2307474Y0025521D01*
X2253428Y0025531D01*
X2226133Y0040595D01*
X2226088Y0097662D01*
X2219210Y0104539D01*
X2209260Y0104539D01*
X2186901Y0126898D01*
X2186901Y0174013D01*
X2197071Y0184183D01*
X2328533Y0184183D01*
X2339047Y0173668D01*
X2339047Y0059599D01*
X2306995Y0027547D01*
X2253015Y0027599D01*
X2228253Y0041825D01*
X2228253Y0098349D01*
X2219919Y0106683D01*
X2210078Y0106683D01*
X2189169Y0127592D01*
X2189169Y0173343D01*
X2197913Y0182086D01*
X2327437Y0182086D01*
X2336659Y0172865D01*
X2336659Y0116185D01*
X2332464Y0111989D01*
X2286482Y0111989D01*
X2279859Y0105367D01*
X2279859Y0103556D01*
X2278595Y0102148D02*
X2229158Y0102148D01*
X2229148Y0101550D02*
X2334794Y0101550D01*
X2334784Y0102148D02*
X2286945Y0102148D01*
X2286790Y0101993D02*
X2287897Y0103100D01*
X2287897Y0104665D01*
X2286790Y0105771D01*
X2285225Y0105771D01*
X2284119Y0104665D01*
X2284119Y0103100D01*
X2285225Y0101993D01*
X2286790Y0101993D01*
X2287544Y0102747D02*
X2294590Y0102747D01*
X2295011Y0102326D02*
X2296576Y0102326D01*
X2297682Y0103432D01*
X2297682Y0104997D01*
X2296576Y0106104D01*
X2295011Y0106104D01*
X2293904Y0104997D01*
X2293904Y0103432D01*
X2295011Y0102326D01*
X2293991Y0103345D02*
X2287897Y0103345D01*
X2287897Y0103944D02*
X2293904Y0103944D01*
X2293904Y0104542D02*
X2287897Y0104542D01*
X2287421Y0105141D02*
X2294048Y0105141D01*
X2294647Y0105739D02*
X2286822Y0105739D01*
X2285193Y0105739D02*
X2281787Y0105739D01*
X2281189Y0105141D02*
X2284595Y0105141D01*
X2284119Y0104542D02*
X2281544Y0104542D01*
X2281748Y0104338D02*
X2281067Y0105019D01*
X2282776Y0106729D01*
X2330226Y0106590D01*
X2330424Y0106788D01*
X2334779Y0102473D01*
X2334918Y0093741D01*
X2324545Y0083407D01*
X2324539Y0080116D01*
X2324532Y0080116D01*
X2323426Y0079010D01*
X2323426Y0077445D01*
X2324532Y0076339D01*
X2324475Y0046582D01*
X2306540Y0028647D01*
X2280100Y0028673D01*
X2281155Y0029728D01*
X2281155Y0031292D01*
X2280048Y0032399D01*
X2278483Y0032399D01*
X2277377Y0031292D01*
X2277377Y0029728D01*
X2278429Y0028675D01*
X2253309Y0028699D01*
X2242919Y0034668D01*
X2233958Y0040587D01*
X2234058Y0040587D01*
X2235165Y0041694D01*
X2235165Y0043258D01*
X2234058Y0044365D01*
X2232493Y0044365D01*
X2231387Y0043258D01*
X2231387Y0042285D01*
X2229353Y0043629D01*
X2229353Y0052194D01*
X2230422Y0051125D01*
X2231986Y0051125D01*
X2233093Y0052232D01*
X2233093Y0053797D01*
X2231986Y0054903D01*
X2230422Y0054903D01*
X2229353Y0053834D01*
X2229353Y0056520D01*
X2230447Y0055426D01*
X2232011Y0055426D01*
X2233118Y0056533D01*
X2233118Y0058098D01*
X2232011Y0059204D01*
X2230447Y0059204D01*
X2229353Y0058110D01*
X2229353Y0098805D01*
X2229107Y0099051D01*
X2229224Y0106212D01*
X2229183Y0106885D01*
X2230612Y0106881D01*
X2229721Y0105990D01*
X2229721Y0104425D01*
X2230828Y0103318D01*
X2232392Y0103318D01*
X2233499Y0104425D01*
X2233499Y0105990D01*
X2232613Y0106875D01*
X2279674Y0106738D01*
X2278759Y0105823D01*
X2278759Y0105127D01*
X2277970Y0104338D01*
X2277970Y0102774D01*
X2279077Y0101667D01*
X2280642Y0101667D01*
X2281748Y0102774D01*
X2281748Y0104338D01*
X2281748Y0103944D02*
X2284119Y0103944D01*
X2284119Y0103345D02*
X2281748Y0103345D01*
X2281721Y0102747D02*
X2284472Y0102747D01*
X2285070Y0102148D02*
X2281123Y0102148D01*
X2277997Y0102747D02*
X2229167Y0102747D01*
X2229177Y0103345D02*
X2230800Y0103345D01*
X2230202Y0103944D02*
X2229187Y0103944D01*
X2229197Y0104542D02*
X2229721Y0104542D01*
X2229721Y0105141D02*
X2229207Y0105141D01*
X2229216Y0105739D02*
X2229721Y0105739D01*
X2230069Y0106338D02*
X2229216Y0106338D01*
X2233151Y0106338D02*
X2279275Y0106338D01*
X2278759Y0105739D02*
X2233499Y0105739D01*
X2233499Y0105141D02*
X2278759Y0105141D01*
X2278174Y0104542D02*
X2233499Y0104542D01*
X2233018Y0103944D02*
X2277970Y0103944D01*
X2277970Y0103345D02*
X2232420Y0103345D01*
X2229138Y0100951D02*
X2273184Y0100951D01*
X2273537Y0101304D02*
X2272431Y0100198D01*
X2272431Y0098633D01*
X2273537Y0097527D01*
X2275102Y0097527D01*
X2276209Y0098633D01*
X2276209Y0100198D01*
X2275102Y0101304D01*
X2273537Y0101304D01*
X2272586Y0100353D02*
X2267836Y0100353D01*
X2267656Y0100533D02*
X2266091Y0100533D01*
X2264984Y0099426D01*
X2264984Y0097862D01*
X2266091Y0096755D01*
X2267656Y0096755D01*
X2268762Y0097862D01*
X2268762Y0099426D01*
X2267656Y0100533D01*
X2268434Y0099754D02*
X2272431Y0099754D01*
X2272431Y0099156D02*
X2268762Y0099156D01*
X2268762Y0098557D02*
X2272506Y0098557D01*
X2273105Y0097959D02*
X2268762Y0097959D01*
X2268261Y0097360D02*
X2334860Y0097360D01*
X2334870Y0096762D02*
X2267662Y0096762D01*
X2266084Y0096762D02*
X2229353Y0096762D01*
X2229353Y0097360D02*
X2265486Y0097360D01*
X2264984Y0097959D02*
X2229353Y0097959D01*
X2229353Y0098557D02*
X2264984Y0098557D01*
X2264984Y0099156D02*
X2229108Y0099156D01*
X2229118Y0099754D02*
X2265312Y0099754D01*
X2265911Y0100353D02*
X2229128Y0100353D01*
X2229353Y0096163D02*
X2334879Y0096163D01*
X2334889Y0095565D02*
X2229353Y0095565D01*
X2229353Y0094966D02*
X2334898Y0094966D01*
X2334908Y0094368D02*
X2331124Y0094368D01*
X2330610Y0094883D02*
X2331716Y0093776D01*
X2331716Y0092211D01*
X2330610Y0091105D01*
X2329045Y0091105D01*
X2327938Y0092211D01*
X2327938Y0093776D01*
X2329045Y0094883D01*
X2330610Y0094883D01*
X2331716Y0093769D02*
X2334917Y0093769D01*
X2334346Y0093171D02*
X2331716Y0093171D01*
X2331716Y0092572D02*
X2333745Y0092572D01*
X2333144Y0091974D02*
X2331479Y0091974D01*
X2330880Y0091375D02*
X2332543Y0091375D01*
X2331943Y0090777D02*
X2299723Y0090777D01*
X2300182Y0090317D02*
X2299076Y0091424D01*
X2297511Y0091424D01*
X2296404Y0090317D01*
X2296404Y0088752D01*
X2297511Y0087646D01*
X2299076Y0087646D01*
X2300182Y0088752D01*
X2300182Y0090317D01*
X2300182Y0090178D02*
X2331342Y0090178D01*
X2330741Y0089580D02*
X2300182Y0089580D01*
X2300182Y0088981D02*
X2330140Y0088981D01*
X2329539Y0088383D02*
X2299813Y0088383D01*
X2299214Y0087784D02*
X2328939Y0087784D01*
X2328338Y0087186D02*
X2229353Y0087186D01*
X2229353Y0087784D02*
X2297372Y0087784D01*
X2296774Y0088383D02*
X2229353Y0088383D01*
X2229353Y0088981D02*
X2296404Y0088981D01*
X2296404Y0089580D02*
X2229353Y0089580D01*
X2229353Y0090178D02*
X2296404Y0090178D01*
X2296864Y0090777D02*
X2229353Y0090777D01*
X2229353Y0091375D02*
X2297462Y0091375D01*
X2299124Y0091375D02*
X2328774Y0091375D01*
X2328176Y0091974D02*
X2229353Y0091974D01*
X2229353Y0092572D02*
X2327938Y0092572D01*
X2327938Y0093171D02*
X2229353Y0093171D01*
X2229353Y0093769D02*
X2327938Y0093769D01*
X2328530Y0094368D02*
X2229353Y0094368D01*
X2229353Y0086587D02*
X2258541Y0086587D01*
X2258975Y0087021D02*
X2257868Y0085914D01*
X2257868Y0084349D01*
X2258975Y0083243D01*
X2260539Y0083243D01*
X2261646Y0084349D01*
X2261646Y0085914D01*
X2260539Y0087021D01*
X2258975Y0087021D01*
X2257942Y0085989D02*
X2229353Y0085989D01*
X2229353Y0085390D02*
X2257868Y0085390D01*
X2257868Y0084792D02*
X2229353Y0084792D01*
X2229353Y0084193D02*
X2258024Y0084193D01*
X2258623Y0083595D02*
X2229353Y0083595D01*
X2229353Y0082996D02*
X2283436Y0082996D01*
X2282885Y0082446D02*
X2282885Y0080881D01*
X2283992Y0079775D01*
X2285557Y0079775D01*
X2286663Y0080881D01*
X2286663Y0082446D01*
X2285557Y0083553D01*
X2283992Y0083553D01*
X2282885Y0082446D01*
X2282885Y0082398D02*
X2229353Y0082398D01*
X2229353Y0081799D02*
X2282885Y0081799D01*
X2282885Y0081201D02*
X2229353Y0081201D01*
X2229353Y0080602D02*
X2283165Y0080602D01*
X2283763Y0080003D02*
X2229353Y0080003D01*
X2229353Y0079405D02*
X2231246Y0079405D01*
X2231641Y0079799D02*
X2230534Y0078693D01*
X2230534Y0077128D01*
X2231641Y0076022D01*
X2233206Y0076022D01*
X2234312Y0077128D01*
X2234312Y0078693D01*
X2233206Y0079799D01*
X2231641Y0079799D01*
X2230648Y0078806D02*
X2229353Y0078806D01*
X2229353Y0078208D02*
X2230534Y0078208D01*
X2230534Y0077609D02*
X2229353Y0077609D01*
X2229353Y0077011D02*
X2230651Y0077011D01*
X2231250Y0076412D02*
X2229353Y0076412D01*
X2229353Y0075814D02*
X2301175Y0075814D01*
X2300890Y0075529D02*
X2300890Y0073964D01*
X2301996Y0072857D01*
X2303561Y0072857D01*
X2304668Y0073964D01*
X2304668Y0075529D01*
X2303561Y0076635D01*
X2301996Y0076635D01*
X2300890Y0075529D01*
X2300890Y0075215D02*
X2229353Y0075215D01*
X2229353Y0074617D02*
X2300890Y0074617D01*
X2300890Y0074018D02*
X2229353Y0074018D01*
X2229353Y0073420D02*
X2301434Y0073420D01*
X2304124Y0073420D02*
X2324526Y0073420D01*
X2324527Y0074018D02*
X2320352Y0074018D01*
X2320333Y0073999D02*
X2321439Y0075106D01*
X2321439Y0076671D01*
X2320333Y0077777D01*
X2318768Y0077777D01*
X2317661Y0076671D01*
X2317661Y0075106D01*
X2318768Y0073999D01*
X2320333Y0073999D01*
X2320951Y0074617D02*
X2324528Y0074617D01*
X2324529Y0075215D02*
X2321439Y0075215D01*
X2321439Y0075814D02*
X2324531Y0075814D01*
X2324458Y0076412D02*
X2321439Y0076412D01*
X2321099Y0077011D02*
X2323859Y0077011D01*
X2323426Y0077609D02*
X2320501Y0077609D01*
X2318600Y0077609D02*
X2234312Y0077609D01*
X2234312Y0078208D02*
X2323426Y0078208D01*
X2323426Y0078806D02*
X2234199Y0078806D01*
X2233600Y0079405D02*
X2323821Y0079405D01*
X2324420Y0080003D02*
X2290726Y0080003D01*
X2290450Y0079727D02*
X2291556Y0080834D01*
X2291556Y0082399D01*
X2290450Y0083505D01*
X2288885Y0083505D01*
X2287778Y0082399D01*
X2287778Y0080834D01*
X2288885Y0079727D01*
X2290450Y0079727D01*
X2291324Y0080602D02*
X2324540Y0080602D01*
X2324541Y0081201D02*
X2291556Y0081201D01*
X2291556Y0081799D02*
X2324542Y0081799D01*
X2324543Y0082398D02*
X2291556Y0082398D01*
X2290959Y0082996D02*
X2324544Y0082996D01*
X2324733Y0083595D02*
X2260891Y0083595D01*
X2261490Y0084193D02*
X2325334Y0084193D01*
X2325935Y0084792D02*
X2261646Y0084792D01*
X2261646Y0085390D02*
X2326535Y0085390D01*
X2327136Y0085989D02*
X2261572Y0085989D01*
X2260973Y0086587D02*
X2327737Y0086587D01*
X2321608Y0081177D02*
X2321210Y0080684D01*
X2318002Y0077011D02*
X2234195Y0077011D01*
X2233597Y0076412D02*
X2301773Y0076412D01*
X2303784Y0076412D02*
X2317661Y0076412D01*
X2317661Y0075814D02*
X2304383Y0075814D01*
X2304668Y0075215D02*
X2317661Y0075215D01*
X2318150Y0074617D02*
X2304668Y0074617D01*
X2304668Y0074018D02*
X2318749Y0074018D01*
X2320445Y0071134D02*
X2319339Y0070027D01*
X2319339Y0068463D01*
X2320445Y0067356D01*
X2322010Y0067356D01*
X2323117Y0068463D01*
X2323117Y0070027D01*
X2322010Y0071134D01*
X2320445Y0071134D01*
X2320337Y0071026D02*
X2229353Y0071026D01*
X2229353Y0071624D02*
X2324523Y0071624D01*
X2324521Y0071026D02*
X2322118Y0071026D01*
X2322717Y0070427D02*
X2324520Y0070427D01*
X2324519Y0069829D02*
X2323117Y0069829D01*
X2323117Y0069230D02*
X2324518Y0069230D01*
X2324517Y0068632D02*
X2323117Y0068632D01*
X2322687Y0068033D02*
X2324516Y0068033D01*
X2324515Y0067435D02*
X2322089Y0067435D01*
X2320367Y0067435D02*
X2306306Y0067435D01*
X2306470Y0067270D02*
X2305364Y0068377D01*
X2303799Y0068377D01*
X2302693Y0067270D01*
X2302693Y0065705D01*
X2303799Y0064599D01*
X2305364Y0064599D01*
X2306470Y0065705D01*
X2306470Y0067270D01*
X2306470Y0066836D02*
X2324513Y0066836D01*
X2324512Y0066238D02*
X2306470Y0066238D01*
X2306404Y0065639D02*
X2324511Y0065639D01*
X2324510Y0065041D02*
X2305806Y0065041D01*
X2305380Y0064135D02*
X2303815Y0064135D01*
X2302709Y0063028D01*
X2302709Y0061464D01*
X2303815Y0060357D01*
X2305380Y0060357D01*
X2306487Y0061464D01*
X2306487Y0063028D01*
X2305380Y0064135D01*
X2305671Y0063844D02*
X2324508Y0063844D01*
X2324509Y0064442D02*
X2229353Y0064442D01*
X2229353Y0063844D02*
X2303524Y0063844D01*
X2302925Y0063245D02*
X2229353Y0063245D01*
X2229353Y0062647D02*
X2302709Y0062647D01*
X2302709Y0062048D02*
X2229353Y0062048D01*
X2229353Y0061450D02*
X2302723Y0061450D01*
X2303321Y0060851D02*
X2229353Y0060851D01*
X2229353Y0060253D02*
X2324501Y0060253D01*
X2324502Y0060851D02*
X2305874Y0060851D01*
X2306473Y0061450D02*
X2324503Y0061450D01*
X2324504Y0062048D02*
X2306487Y0062048D01*
X2306487Y0062647D02*
X2324505Y0062647D01*
X2324507Y0063245D02*
X2306270Y0063245D01*
X2303357Y0065041D02*
X2229353Y0065041D01*
X2229353Y0065639D02*
X2302759Y0065639D01*
X2302693Y0066238D02*
X2229353Y0066238D01*
X2229353Y0066836D02*
X2302693Y0066836D01*
X2302857Y0067435D02*
X2229353Y0067435D01*
X2229353Y0068033D02*
X2303456Y0068033D01*
X2305707Y0068033D02*
X2319768Y0068033D01*
X2319339Y0068632D02*
X2229353Y0068632D01*
X2229353Y0069230D02*
X2319339Y0069230D01*
X2319339Y0069829D02*
X2229353Y0069829D01*
X2229353Y0070427D02*
X2319739Y0070427D01*
X2324524Y0072223D02*
X2229353Y0072223D01*
X2229353Y0072821D02*
X2324525Y0072821D01*
X2324500Y0059654D02*
X2229353Y0059654D01*
X2229353Y0059056D02*
X2230298Y0059056D01*
X2229700Y0058457D02*
X2229353Y0058457D01*
X2229353Y0056063D02*
X2229810Y0056063D01*
X2229353Y0055465D02*
X2230408Y0055465D01*
X2230385Y0054866D02*
X2229353Y0054866D01*
X2229353Y0054268D02*
X2229786Y0054268D01*
X2232023Y0054866D02*
X2235575Y0054866D01*
X2235575Y0054751D02*
X2236681Y0053645D01*
X2238246Y0053645D01*
X2239353Y0054751D01*
X2239353Y0056316D01*
X2238246Y0057423D01*
X2236681Y0057423D01*
X2235575Y0056316D01*
X2235575Y0054751D01*
X2236059Y0054268D02*
X2232622Y0054268D01*
X2233093Y0053669D02*
X2236657Y0053669D01*
X2238270Y0053669D02*
X2324488Y0053669D01*
X2324489Y0054268D02*
X2243436Y0054268D01*
X2243959Y0054791D02*
X2242853Y0053684D01*
X2241288Y0053684D01*
X2240181Y0054791D01*
X2240181Y0056356D01*
X2241288Y0057462D01*
X2242853Y0057462D01*
X2243959Y0056356D01*
X2243959Y0054791D01*
X2243959Y0054866D02*
X2324491Y0054866D01*
X2324492Y0055465D02*
X2243959Y0055465D01*
X2243959Y0056063D02*
X2324493Y0056063D01*
X2324494Y0056662D02*
X2243653Y0056662D01*
X2243055Y0057260D02*
X2324495Y0057260D01*
X2324496Y0057859D02*
X2233118Y0057859D01*
X2233118Y0057260D02*
X2236519Y0057260D01*
X2235920Y0056662D02*
X2233118Y0056662D01*
X2232648Y0056063D02*
X2235575Y0056063D01*
X2235575Y0055465D02*
X2232050Y0055465D01*
X2233093Y0053070D02*
X2324487Y0053070D01*
X2324486Y0052472D02*
X2233093Y0052472D01*
X2232735Y0051873D02*
X2324485Y0051873D01*
X2324484Y0051275D02*
X2232136Y0051275D01*
X2230272Y0051275D02*
X2229353Y0051275D01*
X2229353Y0051873D02*
X2229673Y0051873D01*
X2229353Y0050676D02*
X2324483Y0050676D01*
X2324481Y0050078D02*
X2229353Y0050078D01*
X2229353Y0049479D02*
X2324480Y0049479D01*
X2324479Y0048881D02*
X2229353Y0048881D01*
X2229353Y0048282D02*
X2324478Y0048282D01*
X2324477Y0047684D02*
X2229353Y0047684D01*
X2229353Y0047085D02*
X2315045Y0047085D01*
X2314492Y0046533D02*
X2314492Y0044968D01*
X2315598Y0043861D01*
X2317163Y0043861D01*
X2318270Y0044968D01*
X2318270Y0046533D01*
X2317163Y0047639D01*
X2315598Y0047639D01*
X2314492Y0046533D01*
X2314492Y0046487D02*
X2229353Y0046487D01*
X2229353Y0045888D02*
X2314492Y0045888D01*
X2314492Y0045290D02*
X2229353Y0045290D01*
X2229353Y0044691D02*
X2314768Y0044691D01*
X2315367Y0044093D02*
X2245385Y0044093D01*
X2245194Y0044284D02*
X2243629Y0044284D01*
X2242523Y0043177D01*
X2242523Y0041612D01*
X2243629Y0040506D01*
X2245194Y0040506D01*
X2246300Y0041612D01*
X2246300Y0043177D01*
X2245194Y0044284D01*
X2245983Y0043494D02*
X2321387Y0043494D01*
X2320789Y0042896D02*
X2246300Y0042896D01*
X2246300Y0042297D02*
X2320190Y0042297D01*
X2319592Y0041699D02*
X2246300Y0041699D01*
X2245788Y0041100D02*
X2318993Y0041100D01*
X2318394Y0040502D02*
X2234087Y0040502D01*
X2234572Y0041100D02*
X2243035Y0041100D01*
X2242523Y0041699D02*
X2235165Y0041699D01*
X2235165Y0042297D02*
X2242523Y0042297D01*
X2242523Y0042896D02*
X2235165Y0042896D01*
X2234929Y0043494D02*
X2242840Y0043494D01*
X2243438Y0044093D02*
X2234330Y0044093D01*
X2232221Y0044093D02*
X2229353Y0044093D01*
X2229557Y0043494D02*
X2231623Y0043494D01*
X2231387Y0042896D02*
X2230463Y0042896D01*
X2231369Y0042297D02*
X2231387Y0042297D01*
X2234993Y0039903D02*
X2317796Y0039903D01*
X2317197Y0039305D02*
X2235899Y0039305D01*
X2236805Y0038706D02*
X2316599Y0038706D01*
X2316000Y0038108D02*
X2237711Y0038108D01*
X2238617Y0037509D02*
X2315402Y0037509D01*
X2314803Y0036911D02*
X2239524Y0036911D01*
X2240430Y0036312D02*
X2314205Y0036312D01*
X2313606Y0035714D02*
X2241336Y0035714D01*
X2242242Y0035115D02*
X2313008Y0035115D01*
X2312409Y0034517D02*
X2243182Y0034517D01*
X2244224Y0033918D02*
X2255874Y0033918D01*
X2256201Y0034246D02*
X2255094Y0033139D01*
X2255094Y0031574D01*
X2256201Y0030468D01*
X2257766Y0030468D01*
X2258872Y0031574D01*
X2258872Y0033139D01*
X2257766Y0034246D01*
X2256201Y0034246D01*
X2255275Y0033320D02*
X2245266Y0033320D01*
X2246308Y0032721D02*
X2255094Y0032721D01*
X2255094Y0032123D02*
X2247349Y0032123D01*
X2248391Y0031524D02*
X2255145Y0031524D01*
X2255743Y0030926D02*
X2249433Y0030926D01*
X2250475Y0030327D02*
X2277377Y0030327D01*
X2277377Y0029729D02*
X2251517Y0029729D01*
X2252559Y0029130D02*
X2277974Y0029130D01*
X2277377Y0030926D02*
X2258224Y0030926D01*
X2258822Y0031524D02*
X2277608Y0031524D01*
X2278207Y0032123D02*
X2258872Y0032123D01*
X2258872Y0032721D02*
X2310614Y0032721D01*
X2311212Y0033320D02*
X2258692Y0033320D01*
X2258093Y0033918D02*
X2311811Y0033918D01*
X2310015Y0032123D02*
X2280324Y0032123D01*
X2280923Y0031524D02*
X2309417Y0031524D01*
X2308818Y0030926D02*
X2281155Y0030926D01*
X2281155Y0030327D02*
X2308220Y0030327D01*
X2307621Y0029729D02*
X2281155Y0029729D01*
X2280557Y0029130D02*
X2307023Y0029130D01*
X2317395Y0044093D02*
X2321986Y0044093D01*
X2322584Y0044691D02*
X2317993Y0044691D01*
X2318270Y0045290D02*
X2323183Y0045290D01*
X2323781Y0045888D02*
X2318270Y0045888D01*
X2318270Y0046487D02*
X2324380Y0046487D01*
X2324476Y0047085D02*
X2317717Y0047085D01*
X2321336Y0049926D02*
X2321336Y0050510D01*
X2324497Y0058457D02*
X2232759Y0058457D01*
X2232160Y0059056D02*
X2324499Y0059056D01*
X2314787Y0061038D02*
X2313457Y0061038D01*
X2302356Y0089442D02*
X2302151Y0089518D01*
X2296997Y0102747D02*
X2334503Y0102747D01*
X2333899Y0103345D02*
X2297595Y0103345D01*
X2297682Y0103944D02*
X2333295Y0103944D01*
X2332691Y0104542D02*
X2297682Y0104542D01*
X2297538Y0105141D02*
X2332087Y0105141D01*
X2331483Y0105739D02*
X2296940Y0105739D01*
X2282386Y0106338D02*
X2330879Y0106338D01*
X2334803Y0100951D02*
X2275455Y0100951D01*
X2276054Y0100353D02*
X2334813Y0100353D01*
X2334822Y0099754D02*
X2276209Y0099754D01*
X2276209Y0099156D02*
X2334832Y0099156D01*
X2334841Y0098557D02*
X2276133Y0098557D01*
X2275534Y0097959D02*
X2334851Y0097959D01*
X2288376Y0082996D02*
X2286113Y0082996D01*
X2286663Y0082398D02*
X2287778Y0082398D01*
X2287778Y0081799D02*
X2286663Y0081799D01*
X2286663Y0081201D02*
X2287778Y0081201D01*
X2288010Y0080602D02*
X2286384Y0080602D01*
X2285786Y0080003D02*
X2288609Y0080003D01*
X2282858Y0084786D02*
X2281755Y0084943D01*
X2260211Y0091046D02*
X2260211Y0091603D01*
X2253451Y0086108D02*
X2252976Y0085632D01*
X2241086Y0057260D02*
X2238409Y0057260D01*
X2239007Y0056662D02*
X2240487Y0056662D01*
X2240181Y0056063D02*
X2239353Y0056063D01*
X2239353Y0055465D02*
X2240181Y0055465D01*
X2240181Y0054866D02*
X2239353Y0054866D01*
X2238869Y0054268D02*
X2240704Y0054268D01*
X2236009Y0050328D02*
X2234833Y0050328D01*
X2241663Y0039629D02*
X2241415Y0039328D01*
X2252910Y0032366D02*
X2253335Y0032110D01*
X2258665Y0016544D02*
X2219743Y0038267D01*
X2219743Y0095559D01*
X2216950Y0098352D01*
X2206127Y0098352D01*
X2178932Y0125548D01*
X2270092Y0033155D02*
X2270075Y0032237D01*
X2289081Y0035567D02*
X2289081Y0036758D01*
X2238969Y2176949D02*
X2188545Y2176949D01*
X2172883Y2192611D01*
X2172883Y2328183D01*
X2189799Y2345099D01*
X2304601Y2345099D01*
X2343495Y2306205D01*
X2343495Y2252269D01*
X2325564Y2219974D01*
X2268550Y2219927D01*
X2264172Y2215565D01*
X2264144Y2205362D01*
X2238554Y2179738D01*
X2189009Y2179754D01*
X2175416Y2193367D01*
X2175416Y2327255D01*
X2190439Y2342278D01*
X2304479Y2342278D01*
X2341273Y2305484D01*
X2341321Y2252045D01*
X2324736Y2222165D01*
X2267664Y2222142D01*
X2261983Y2216461D01*
X2261983Y2206503D01*
X2237933Y2182453D01*
X2189974Y2182453D01*
X2178190Y2194237D01*
X2178190Y2326906D01*
X2190697Y2339412D01*
X2305073Y2339412D01*
X2338995Y2305490D01*
X2338986Y2251445D01*
X2323922Y2224150D01*
X2266855Y2224105D01*
X2259978Y2217227D01*
X2259978Y2207277D01*
X2237618Y2184917D01*
X2190504Y2184917D01*
X2180334Y2195087D01*
X2180334Y2326549D01*
X2190849Y2337064D01*
X2304918Y2337064D01*
X2336970Y2305012D01*
X2336917Y2251032D01*
X2322692Y2226270D01*
X2266168Y2226270D01*
X2257834Y2217936D01*
X2257834Y2208095D01*
X2236925Y2187186D01*
X2191174Y2187186D01*
X2182430Y2195930D01*
X2182430Y2325454D01*
X2191652Y2334675D01*
X2248332Y2334675D01*
X2252527Y2330480D01*
X2252527Y2284498D01*
X2259150Y2277876D01*
X2260961Y2277876D01*
X2262296Y2276540D02*
X2332118Y2276540D01*
X2332118Y2276500D02*
X2333224Y2275393D01*
X2334789Y2275393D01*
X2335842Y2276446D01*
X2335818Y2251326D01*
X2329849Y2240936D01*
X2323930Y2231975D01*
X2323930Y2232075D01*
X2322823Y2233182D01*
X2321258Y2233182D01*
X2320152Y2232075D01*
X2320152Y2230510D01*
X2321258Y2229404D01*
X2322231Y2229404D01*
X2320888Y2227369D01*
X2312323Y2227369D01*
X2313392Y2228438D01*
X2313392Y2230003D01*
X2312285Y2231110D01*
X2310720Y2231110D01*
X2309614Y2230003D01*
X2309614Y2228438D01*
X2310682Y2227369D01*
X2307997Y2227369D01*
X2309091Y2228463D01*
X2309091Y2230028D01*
X2307984Y2231135D01*
X2306419Y2231135D01*
X2305313Y2230028D01*
X2305313Y2228463D01*
X2306406Y2227369D01*
X2265712Y2227369D01*
X2265466Y2227123D01*
X2258305Y2227241D01*
X2257632Y2227199D01*
X2257636Y2228629D01*
X2258527Y2227738D01*
X2260092Y2227738D01*
X2261199Y2228844D01*
X2261199Y2230409D01*
X2260092Y2231516D01*
X2258527Y2231516D01*
X2257642Y2230630D01*
X2257779Y2277691D01*
X2258694Y2276776D01*
X2259389Y2276776D01*
X2260178Y2275987D01*
X2261743Y2275987D01*
X2262850Y2277093D01*
X2262850Y2278658D01*
X2261743Y2279765D01*
X2260178Y2279765D01*
X2259497Y2279084D01*
X2257788Y2280793D01*
X2257927Y2328243D01*
X2257729Y2328441D01*
X2262044Y2332796D01*
X2270776Y2332935D01*
X2281109Y2322562D01*
X2284401Y2322555D01*
X2284401Y2322549D01*
X2285507Y2321442D01*
X2287072Y2321442D01*
X2288178Y2322548D01*
X2317935Y2322491D01*
X2335869Y2304557D01*
X2335844Y2278117D01*
X2334789Y2279171D01*
X2333224Y2279171D01*
X2332118Y2278065D01*
X2332118Y2276500D01*
X2332118Y2277139D02*
X2262850Y2277139D01*
X2262850Y2277737D02*
X2332118Y2277737D01*
X2332389Y2278336D02*
X2262850Y2278336D01*
X2262574Y2278934D02*
X2332987Y2278934D01*
X2335026Y2278934D02*
X2335844Y2278934D01*
X2335844Y2278336D02*
X2335625Y2278336D01*
X2335845Y2279533D02*
X2261975Y2279533D01*
X2259946Y2279533D02*
X2259049Y2279533D01*
X2258450Y2280131D02*
X2335846Y2280131D01*
X2335846Y2280730D02*
X2257852Y2280730D01*
X2257790Y2281328D02*
X2281645Y2281328D01*
X2282071Y2280902D02*
X2283636Y2280902D01*
X2284742Y2282009D01*
X2284742Y2283574D01*
X2283636Y2284680D01*
X2282071Y2284680D01*
X2280964Y2283574D01*
X2280964Y2282009D01*
X2282071Y2280902D01*
X2281046Y2281927D02*
X2257791Y2281927D01*
X2257793Y2282525D02*
X2259462Y2282525D01*
X2259852Y2282135D02*
X2261417Y2282135D01*
X2262523Y2283242D01*
X2262523Y2284807D01*
X2261417Y2285913D01*
X2259852Y2285913D01*
X2258745Y2284807D01*
X2258745Y2283242D01*
X2259852Y2282135D01*
X2258864Y2283124D02*
X2257795Y2283124D01*
X2257797Y2283722D02*
X2258745Y2283722D01*
X2258745Y2284321D02*
X2257798Y2284321D01*
X2257800Y2284919D02*
X2258858Y2284919D01*
X2259456Y2285518D02*
X2257802Y2285518D01*
X2257804Y2286116D02*
X2281797Y2286116D01*
X2282118Y2285795D02*
X2283683Y2285795D01*
X2284789Y2286902D01*
X2284789Y2288466D01*
X2283683Y2289573D01*
X2282118Y2289573D01*
X2281011Y2288466D01*
X2281011Y2286902D01*
X2282118Y2285795D01*
X2281198Y2286715D02*
X2257805Y2286715D01*
X2257807Y2287313D02*
X2281011Y2287313D01*
X2281011Y2287912D02*
X2257809Y2287912D01*
X2257811Y2288510D02*
X2281055Y2288510D01*
X2281654Y2289109D02*
X2257812Y2289109D01*
X2257814Y2289707D02*
X2335855Y2289707D01*
X2335854Y2289109D02*
X2284147Y2289109D01*
X2284746Y2288510D02*
X2335854Y2288510D01*
X2335853Y2287912D02*
X2284789Y2287912D01*
X2284789Y2287313D02*
X2335853Y2287313D01*
X2335852Y2286715D02*
X2284602Y2286715D01*
X2284004Y2286116D02*
X2335851Y2286116D01*
X2335851Y2285518D02*
X2261812Y2285518D01*
X2262411Y2284919D02*
X2335850Y2284919D01*
X2335850Y2284321D02*
X2283995Y2284321D01*
X2284594Y2283722D02*
X2335849Y2283722D01*
X2335849Y2283124D02*
X2284742Y2283124D01*
X2284742Y2282525D02*
X2335848Y2282525D01*
X2335847Y2281927D02*
X2284660Y2281927D01*
X2284062Y2281328D02*
X2335847Y2281328D01*
X2335842Y2275942D02*
X2335337Y2275942D01*
X2335841Y2275343D02*
X2257772Y2275343D01*
X2257771Y2274745D02*
X2335840Y2274745D01*
X2335840Y2274146D02*
X2265963Y2274146D01*
X2265884Y2274225D02*
X2264319Y2274225D01*
X2263212Y2273119D01*
X2263212Y2271554D01*
X2264319Y2270447D01*
X2265884Y2270447D01*
X2266990Y2271554D01*
X2266990Y2273119D01*
X2265884Y2274225D01*
X2266562Y2273547D02*
X2335839Y2273547D01*
X2335839Y2272949D02*
X2266990Y2272949D01*
X2266990Y2272350D02*
X2335838Y2272350D01*
X2335838Y2271752D02*
X2266990Y2271752D01*
X2266590Y2271153D02*
X2335837Y2271153D01*
X2335836Y2270555D02*
X2265991Y2270555D01*
X2264211Y2270555D02*
X2257758Y2270555D01*
X2257760Y2271153D02*
X2263613Y2271153D01*
X2263212Y2271752D02*
X2257762Y2271752D01*
X2257764Y2272350D02*
X2263212Y2272350D01*
X2263212Y2272949D02*
X2257765Y2272949D01*
X2257767Y2273547D02*
X2263641Y2273547D01*
X2264239Y2274146D02*
X2257769Y2274146D01*
X2257774Y2275942D02*
X2332676Y2275942D01*
X2335836Y2269956D02*
X2257757Y2269956D01*
X2257755Y2269358D02*
X2335835Y2269358D01*
X2335835Y2268759D02*
X2257753Y2268759D01*
X2257751Y2268161D02*
X2335834Y2268161D01*
X2335833Y2267562D02*
X2257750Y2267562D01*
X2257748Y2266964D02*
X2335833Y2266964D01*
X2335832Y2266365D02*
X2267069Y2266365D01*
X2266655Y2266779D02*
X2265090Y2266779D01*
X2263984Y2265672D01*
X2263984Y2264108D01*
X2265090Y2263001D01*
X2266655Y2263001D01*
X2267762Y2264108D01*
X2267762Y2265672D01*
X2266655Y2266779D01*
X2267667Y2265767D02*
X2335832Y2265767D01*
X2335831Y2265168D02*
X2267762Y2265168D01*
X2267762Y2264570D02*
X2335831Y2264570D01*
X2335830Y2263971D02*
X2267625Y2263971D01*
X2267027Y2263373D02*
X2335829Y2263373D01*
X2335829Y2262774D02*
X2257736Y2262774D01*
X2257734Y2262176D02*
X2335828Y2262176D01*
X2335828Y2261577D02*
X2257732Y2261577D01*
X2257730Y2260979D02*
X2335827Y2260979D01*
X2335827Y2260380D02*
X2257729Y2260380D01*
X2257727Y2259782D02*
X2335826Y2259782D01*
X2335825Y2259183D02*
X2280647Y2259183D01*
X2280167Y2259663D02*
X2278602Y2259663D01*
X2277496Y2258556D01*
X2277496Y2256991D01*
X2278602Y2255885D01*
X2280167Y2255885D01*
X2281274Y2256991D01*
X2281274Y2258556D01*
X2280167Y2259663D01*
X2281245Y2258585D02*
X2335825Y2258585D01*
X2335824Y2257986D02*
X2281274Y2257986D01*
X2281274Y2257388D02*
X2335824Y2257388D01*
X2335823Y2256789D02*
X2333043Y2256789D01*
X2332943Y2256889D02*
X2331378Y2256889D01*
X2330271Y2255783D01*
X2330271Y2254218D01*
X2331378Y2253111D01*
X2332943Y2253111D01*
X2334049Y2254218D01*
X2334049Y2255783D01*
X2332943Y2256889D01*
X2333641Y2256191D02*
X2335822Y2256191D01*
X2335822Y2255592D02*
X2334049Y2255592D01*
X2334049Y2254994D02*
X2335821Y2254994D01*
X2335821Y2254395D02*
X2334049Y2254395D01*
X2333628Y2253797D02*
X2335820Y2253797D01*
X2335820Y2253198D02*
X2333030Y2253198D01*
X2331291Y2253198D02*
X2257708Y2253198D01*
X2257706Y2252600D02*
X2335819Y2252600D01*
X2335818Y2252001D02*
X2257704Y2252001D01*
X2257702Y2251403D02*
X2335818Y2251403D01*
X2335518Y2250804D02*
X2257701Y2250804D01*
X2257699Y2250206D02*
X2335174Y2250206D01*
X2334830Y2249607D02*
X2257697Y2249607D01*
X2257695Y2249009D02*
X2334487Y2249009D01*
X2334143Y2248410D02*
X2257694Y2248410D01*
X2257692Y2247811D02*
X2333799Y2247811D01*
X2333455Y2247213D02*
X2257690Y2247213D01*
X2257688Y2246614D02*
X2333111Y2246614D01*
X2332767Y2246016D02*
X2257687Y2246016D01*
X2257685Y2245417D02*
X2332424Y2245417D01*
X2332080Y2244819D02*
X2257683Y2244819D01*
X2257681Y2244220D02*
X2321243Y2244220D01*
X2321340Y2244317D02*
X2320233Y2243211D01*
X2320233Y2241646D01*
X2321340Y2240539D01*
X2322904Y2240539D01*
X2324011Y2241646D01*
X2324011Y2243211D01*
X2322904Y2244317D01*
X2321340Y2244317D01*
X2320644Y2243622D02*
X2257680Y2243622D01*
X2257678Y2243023D02*
X2320233Y2243023D01*
X2320233Y2242425D02*
X2257676Y2242425D01*
X2257674Y2241826D02*
X2308012Y2241826D01*
X2308161Y2241976D02*
X2307055Y2240869D01*
X2307055Y2239304D01*
X2308161Y2238198D01*
X2309726Y2238198D01*
X2310833Y2239304D01*
X2310833Y2240869D01*
X2309726Y2241976D01*
X2308161Y2241976D01*
X2307413Y2241228D02*
X2257673Y2241228D01*
X2257671Y2240629D02*
X2307055Y2240629D01*
X2307055Y2240031D02*
X2257669Y2240031D01*
X2257667Y2239432D02*
X2307055Y2239432D01*
X2307525Y2238834D02*
X2257666Y2238834D01*
X2257664Y2238235D02*
X2308124Y2238235D01*
X2308201Y2237369D02*
X2307094Y2236263D01*
X2307094Y2234698D01*
X2308201Y2233592D01*
X2309765Y2233592D01*
X2310872Y2234698D01*
X2310872Y2236263D01*
X2309765Y2237369D01*
X2308201Y2237369D01*
X2307869Y2237038D02*
X2257660Y2237038D01*
X2257659Y2236440D02*
X2307271Y2236440D01*
X2307094Y2235841D02*
X2257657Y2235841D01*
X2257655Y2235243D02*
X2307094Y2235243D01*
X2307148Y2234644D02*
X2257653Y2234644D01*
X2257652Y2234046D02*
X2307746Y2234046D01*
X2310220Y2234046D02*
X2325298Y2234046D01*
X2325693Y2234644D02*
X2310818Y2234644D01*
X2310872Y2235243D02*
X2326089Y2235243D01*
X2326484Y2235841D02*
X2310872Y2235841D01*
X2310695Y2236440D02*
X2326879Y2236440D01*
X2327275Y2237038D02*
X2310097Y2237038D01*
X2309764Y2238235D02*
X2328065Y2238235D01*
X2327670Y2237637D02*
X2257662Y2237637D01*
X2257650Y2233447D02*
X2324902Y2233447D01*
X2324507Y2232849D02*
X2323156Y2232849D01*
X2323755Y2232250D02*
X2324112Y2232250D01*
X2320925Y2232849D02*
X2257648Y2232849D01*
X2257646Y2232250D02*
X2285745Y2232250D01*
X2285824Y2232329D02*
X2284717Y2231222D01*
X2284717Y2229657D01*
X2285824Y2228551D01*
X2287389Y2228551D01*
X2288495Y2229657D01*
X2288495Y2231222D01*
X2287389Y2232329D01*
X2285824Y2232329D01*
X2285147Y2231652D02*
X2257645Y2231652D01*
X2257643Y2231053D02*
X2258065Y2231053D01*
X2260555Y2231053D02*
X2284717Y2231053D01*
X2284717Y2230455D02*
X2261153Y2230455D01*
X2261199Y2229856D02*
X2284717Y2229856D01*
X2285117Y2229258D02*
X2261199Y2229258D01*
X2261014Y2228659D02*
X2285716Y2228659D01*
X2287497Y2228659D02*
X2305313Y2228659D01*
X2305313Y2229258D02*
X2288095Y2229258D01*
X2288495Y2229856D02*
X2305313Y2229856D01*
X2305739Y2230455D02*
X2288495Y2230455D01*
X2288495Y2231053D02*
X2306338Y2231053D01*
X2308066Y2231053D02*
X2310664Y2231053D01*
X2310065Y2230455D02*
X2308664Y2230455D01*
X2309091Y2229856D02*
X2309614Y2229856D01*
X2309614Y2229258D02*
X2309091Y2229258D01*
X2309091Y2228659D02*
X2309614Y2228659D01*
X2309991Y2228061D02*
X2308688Y2228061D01*
X2308089Y2227462D02*
X2310590Y2227462D01*
X2312415Y2227462D02*
X2320949Y2227462D01*
X2321344Y2228061D02*
X2313014Y2228061D01*
X2313392Y2228659D02*
X2321740Y2228659D01*
X2322135Y2229258D02*
X2313392Y2229258D01*
X2313392Y2229856D02*
X2320806Y2229856D01*
X2320207Y2230455D02*
X2312940Y2230455D01*
X2312342Y2231053D02*
X2320152Y2231053D01*
X2320152Y2231652D02*
X2288066Y2231652D01*
X2287467Y2232250D02*
X2320327Y2232250D01*
X2314189Y2232850D02*
X2314189Y2234026D01*
X2310362Y2238834D02*
X2328461Y2238834D01*
X2328856Y2239432D02*
X2310833Y2239432D01*
X2310833Y2240031D02*
X2329251Y2240031D01*
X2329647Y2240629D02*
X2322995Y2240629D01*
X2323593Y2241228D02*
X2330017Y2241228D01*
X2330361Y2241826D02*
X2324011Y2241826D01*
X2324011Y2242425D02*
X2330704Y2242425D01*
X2331048Y2243023D02*
X2324011Y2243023D01*
X2323600Y2243622D02*
X2331392Y2243622D01*
X2331736Y2244220D02*
X2323001Y2244220D01*
X2320233Y2241826D02*
X2309875Y2241826D01*
X2310474Y2241228D02*
X2320651Y2241228D01*
X2321249Y2240629D02*
X2310833Y2240629D01*
X2305715Y2228061D02*
X2260415Y2228061D01*
X2258204Y2228061D02*
X2257634Y2228061D01*
X2257632Y2227462D02*
X2306314Y2227462D01*
X2326250Y2217760D02*
X2268958Y2217760D01*
X2266164Y2214966D01*
X2266164Y2204144D01*
X2238969Y2176949D01*
X2257709Y2253797D02*
X2330692Y2253797D01*
X2330271Y2254395D02*
X2257711Y2254395D01*
X2257713Y2254994D02*
X2330271Y2254994D01*
X2330271Y2255592D02*
X2257715Y2255592D01*
X2257716Y2256191D02*
X2278296Y2256191D01*
X2277698Y2256789D02*
X2257718Y2256789D01*
X2257720Y2257388D02*
X2277496Y2257388D01*
X2277496Y2257986D02*
X2257722Y2257986D01*
X2257723Y2258585D02*
X2277525Y2258585D01*
X2278123Y2259183D02*
X2257725Y2259183D01*
X2257737Y2263373D02*
X2264719Y2263373D01*
X2264120Y2263971D02*
X2257739Y2263971D01*
X2257741Y2264570D02*
X2263984Y2264570D01*
X2263984Y2265168D02*
X2257743Y2265168D01*
X2257744Y2265767D02*
X2264078Y2265767D01*
X2264677Y2266365D02*
X2257746Y2266365D01*
X2257776Y2276540D02*
X2259625Y2276540D01*
X2258331Y2277139D02*
X2257778Y2277139D01*
X2261806Y2282525D02*
X2280964Y2282525D01*
X2280964Y2283124D02*
X2262405Y2283124D01*
X2262523Y2283722D02*
X2281113Y2283722D01*
X2281711Y2284321D02*
X2262523Y2284321D01*
X2257816Y2290306D02*
X2335856Y2290306D01*
X2335856Y2290904D02*
X2257818Y2290904D01*
X2257819Y2291503D02*
X2335857Y2291503D01*
X2335857Y2292101D02*
X2261265Y2292101D01*
X2261085Y2291921D02*
X2262191Y2293027D01*
X2262191Y2294592D01*
X2261085Y2295699D01*
X2259520Y2295699D01*
X2258413Y2294592D01*
X2258413Y2293027D01*
X2259520Y2291921D01*
X2261085Y2291921D01*
X2261863Y2292700D02*
X2335858Y2292700D01*
X2335858Y2293298D02*
X2262191Y2293298D01*
X2262191Y2293897D02*
X2335859Y2293897D01*
X2335860Y2294495D02*
X2275839Y2294495D01*
X2275765Y2294421D02*
X2276871Y2295528D01*
X2276871Y2297092D01*
X2275765Y2298199D01*
X2274200Y2298199D01*
X2273093Y2297092D01*
X2273093Y2295528D01*
X2274200Y2294421D01*
X2275765Y2294421D01*
X2276437Y2295094D02*
X2335860Y2295094D01*
X2335861Y2295692D02*
X2276871Y2295692D01*
X2276871Y2296291D02*
X2335861Y2296291D01*
X2335862Y2296889D02*
X2276871Y2296889D01*
X2276476Y2297488D02*
X2335862Y2297488D01*
X2335863Y2298086D02*
X2275877Y2298086D01*
X2274087Y2298086D02*
X2257839Y2298086D01*
X2257837Y2297488D02*
X2273489Y2297488D01*
X2273093Y2296889D02*
X2257835Y2296889D01*
X2257833Y2296291D02*
X2273093Y2296291D01*
X2273093Y2295692D02*
X2261091Y2295692D01*
X2261690Y2295094D02*
X2273527Y2295094D01*
X2274125Y2294495D02*
X2262191Y2294495D01*
X2259513Y2295692D02*
X2257832Y2295692D01*
X2257830Y2295094D02*
X2258915Y2295094D01*
X2258413Y2294495D02*
X2257828Y2294495D01*
X2257826Y2293897D02*
X2258413Y2293897D01*
X2258413Y2293298D02*
X2257825Y2293298D01*
X2257823Y2292700D02*
X2258741Y2292700D01*
X2259339Y2292101D02*
X2257821Y2292101D01*
X2257840Y2298685D02*
X2335864Y2298685D01*
X2335864Y2299283D02*
X2290930Y2299283D01*
X2290553Y2298907D02*
X2291659Y2300013D01*
X2291659Y2301578D01*
X2290553Y2302684D01*
X2288988Y2302684D01*
X2287881Y2301578D01*
X2287881Y2300013D01*
X2288988Y2298907D01*
X2290553Y2298907D01*
X2291528Y2299882D02*
X2335865Y2299882D01*
X2335865Y2300480D02*
X2291659Y2300480D01*
X2291659Y2301079D02*
X2296877Y2301079D01*
X2297247Y2300709D02*
X2298812Y2300709D01*
X2299918Y2301816D01*
X2299918Y2303381D01*
X2298812Y2304487D01*
X2297247Y2304487D01*
X2296140Y2303381D01*
X2296140Y2301816D01*
X2297247Y2300709D01*
X2296278Y2301678D02*
X2291560Y2301678D01*
X2290961Y2302276D02*
X2296140Y2302276D01*
X2296140Y2302875D02*
X2257853Y2302875D01*
X2257854Y2303473D02*
X2296233Y2303473D01*
X2296831Y2304072D02*
X2257856Y2304072D01*
X2257858Y2304670D02*
X2335756Y2304670D01*
X2335869Y2304072D02*
X2303485Y2304072D01*
X2303053Y2304503D02*
X2301488Y2304503D01*
X2300382Y2303397D01*
X2300382Y2301832D01*
X2301488Y2300725D01*
X2303053Y2300725D01*
X2304160Y2301832D01*
X2304160Y2303397D01*
X2303053Y2304503D01*
X2304084Y2303473D02*
X2335868Y2303473D01*
X2335868Y2302875D02*
X2304160Y2302875D01*
X2304160Y2302276D02*
X2335867Y2302276D01*
X2335867Y2301678D02*
X2304005Y2301678D01*
X2303407Y2301079D02*
X2335866Y2301079D01*
X2335158Y2305269D02*
X2257860Y2305269D01*
X2257861Y2305867D02*
X2334559Y2305867D01*
X2333961Y2306466D02*
X2257863Y2306466D01*
X2257865Y2307064D02*
X2333362Y2307064D01*
X2332764Y2307663D02*
X2257867Y2307663D01*
X2257868Y2308261D02*
X2332165Y2308261D01*
X2331567Y2308860D02*
X2257870Y2308860D01*
X2257872Y2309458D02*
X2330968Y2309458D01*
X2330370Y2310057D02*
X2257874Y2310057D01*
X2257875Y2310655D02*
X2329771Y2310655D01*
X2329172Y2311254D02*
X2257877Y2311254D01*
X2257879Y2311852D02*
X2328574Y2311852D01*
X2327975Y2312451D02*
X2257881Y2312451D01*
X2257882Y2313049D02*
X2317444Y2313049D01*
X2317984Y2312509D02*
X2319549Y2312509D01*
X2320656Y2313615D01*
X2320656Y2315180D01*
X2319549Y2316287D01*
X2317984Y2316287D01*
X2316878Y2315180D01*
X2316878Y2313615D01*
X2317984Y2312509D01*
X2316878Y2313648D02*
X2257884Y2313648D01*
X2257886Y2314246D02*
X2316878Y2314246D01*
X2316878Y2314845D02*
X2257888Y2314845D01*
X2257889Y2315443D02*
X2317141Y2315443D01*
X2317739Y2316042D02*
X2289775Y2316042D01*
X2289411Y2315678D02*
X2290518Y2316785D01*
X2290518Y2318350D01*
X2289411Y2319456D01*
X2287846Y2319456D01*
X2286740Y2318350D01*
X2286740Y2316785D01*
X2287846Y2315678D01*
X2289411Y2315678D01*
X2290373Y2316640D02*
X2323786Y2316640D01*
X2324384Y2316042D02*
X2319794Y2316042D01*
X2320392Y2315443D02*
X2324983Y2315443D01*
X2325581Y2314845D02*
X2320656Y2314845D01*
X2320656Y2314246D02*
X2326180Y2314246D01*
X2326778Y2313648D02*
X2320656Y2313648D01*
X2320090Y2313049D02*
X2327377Y2313049D01*
X2323187Y2317239D02*
X2290518Y2317239D01*
X2290518Y2317837D02*
X2294007Y2317837D01*
X2294489Y2317355D02*
X2296054Y2317355D01*
X2297161Y2318462D01*
X2297161Y2320027D01*
X2296054Y2321133D01*
X2294489Y2321133D01*
X2293383Y2320027D01*
X2293383Y2318462D01*
X2294489Y2317355D01*
X2293409Y2318436D02*
X2290431Y2318436D01*
X2289833Y2319034D02*
X2293383Y2319034D01*
X2293383Y2319633D02*
X2257902Y2319633D01*
X2257903Y2320231D02*
X2293587Y2320231D01*
X2294186Y2320830D02*
X2257905Y2320830D01*
X2257907Y2321428D02*
X2318998Y2321428D01*
X2319596Y2320830D02*
X2296358Y2320830D01*
X2296956Y2320231D02*
X2320195Y2320231D01*
X2320793Y2319633D02*
X2297161Y2319633D01*
X2297161Y2319034D02*
X2321392Y2319034D01*
X2321990Y2318436D02*
X2297135Y2318436D01*
X2296536Y2317837D02*
X2322589Y2317837D01*
X2318399Y2322027D02*
X2287657Y2322027D01*
X2284923Y2322027D02*
X2257909Y2322027D01*
X2257910Y2322625D02*
X2281046Y2322625D01*
X2280450Y2323224D02*
X2257912Y2323224D01*
X2257914Y2323822D02*
X2279853Y2323822D01*
X2279257Y2324421D02*
X2257916Y2324421D01*
X2257917Y2325019D02*
X2278661Y2325019D01*
X2278065Y2325618D02*
X2257919Y2325618D01*
X2257921Y2326216D02*
X2270479Y2326216D01*
X2270741Y2325955D02*
X2272306Y2325955D01*
X2273412Y2327061D01*
X2273412Y2328626D01*
X2272306Y2329733D01*
X2270741Y2329733D01*
X2269634Y2328626D01*
X2269634Y2327061D01*
X2270741Y2325955D01*
X2269880Y2326815D02*
X2257923Y2326815D01*
X2257924Y2327413D02*
X2269634Y2327413D01*
X2269634Y2328012D02*
X2257926Y2328012D01*
X2257897Y2328611D02*
X2269634Y2328611D01*
X2270217Y2329209D02*
X2258490Y2329209D01*
X2259083Y2329808D02*
X2273891Y2329808D01*
X2273295Y2330406D02*
X2259676Y2330406D01*
X2260269Y2331005D02*
X2272699Y2331005D01*
X2272102Y2331603D02*
X2260862Y2331603D01*
X2261455Y2332202D02*
X2271506Y2332202D01*
X2270910Y2332800D02*
X2262314Y2332800D01*
X2272829Y2329209D02*
X2274487Y2329209D01*
X2275084Y2328611D02*
X2273412Y2328611D01*
X2273412Y2328012D02*
X2275680Y2328012D01*
X2276276Y2327413D02*
X2273412Y2327413D01*
X2273166Y2326815D02*
X2276872Y2326815D01*
X2277469Y2326216D02*
X2272567Y2326216D01*
X2283340Y2319625D02*
X2283833Y2319227D01*
X2286826Y2318436D02*
X2257898Y2318436D01*
X2257900Y2319034D02*
X2287424Y2319034D01*
X2286740Y2317837D02*
X2257896Y2317837D01*
X2257895Y2317239D02*
X2286740Y2317239D01*
X2286884Y2316640D02*
X2257893Y2316640D01*
X2257891Y2316042D02*
X2287483Y2316042D01*
X2288580Y2302276D02*
X2257851Y2302276D01*
X2257849Y2301678D02*
X2287981Y2301678D01*
X2287881Y2301079D02*
X2257847Y2301079D01*
X2257846Y2300480D02*
X2287881Y2300480D01*
X2288012Y2299882D02*
X2257844Y2299882D01*
X2257842Y2299283D02*
X2288611Y2299283D01*
X2299181Y2301079D02*
X2301135Y2301079D01*
X2300536Y2301678D02*
X2299780Y2301678D01*
X2299918Y2302276D02*
X2300382Y2302276D01*
X2300382Y2302875D02*
X2299918Y2302875D01*
X2299826Y2303473D02*
X2300458Y2303473D01*
X2301057Y2304072D02*
X2299227Y2304072D01*
X2303478Y2311474D02*
X2303478Y2312804D01*
X2314006Y2319353D02*
X2314591Y2319353D01*
X2275075Y2300372D02*
X2274999Y2300167D01*
X2279731Y2280874D02*
X2279574Y2279772D01*
X2273471Y2258227D02*
X2272913Y2258227D01*
X2280473Y2256191D02*
X2330679Y2256191D01*
X2331278Y2256789D02*
X2281072Y2256789D01*
X2278409Y2251468D02*
X2278884Y2250992D01*
X2324888Y2239680D02*
X2325189Y2239432D01*
X2332151Y2250927D02*
X2332406Y2251352D01*
X2347973Y2256682D02*
X2326250Y2217760D01*
X2331362Y2268109D02*
X2332280Y2268091D01*
X2328949Y2287098D02*
X2327759Y2287098D01*
D12*
X2266128Y2327759D02*
X2265009Y2327616D01*
X2329600Y0099507D02*
X2329742Y0098388D01*
X0100232Y0037987D02*
X0099113Y0037844D01*
X0036413Y2262891D02*
X0036271Y2264010D01*
M02*
