G75*
%MOIN*%
%OFA0B0*%
%FSLAX25Y25*%
%IPPOS*%
%LPD*%
%AMOC8*
5,1,8,0,0,1.08239X$1,22.5*
%
%ADD10R,0.03256X0.04043*%
%ADD11R,0.05224X0.03650*%
%ADD12R,1.85539X0.09161*%
%ADD13R,1.85539X0.04831*%
%ADD14C,0.02862*%
%ADD15R,0.03256X0.01917*%
%ADD16R,0.01917X0.03256*%
%ADD17R,0.03650X0.03650*%
%ADD18R,0.04437X0.04831*%
%ADD19R,0.04831X0.04437*%
%ADD20R,0.04043X0.03256*%
%ADD21C,0.01563*%
%ADD22R,0.04437X0.04437*%
%ADD23R,0.04437X0.08374*%
%ADD24C,0.03478*%
%ADD25R,0.02075X0.03846*%
%ADD26R,0.02075X0.07193*%
%ADD27R,0.02075X0.02075*%
%ADD28R,0.03650X0.05224*%
%ADD29R,0.09161X1.85539*%
%ADD30R,0.04831X1.85539*%
%ADD31R,0.08374X0.04437*%
%ADD32R,0.03846X0.02075*%
%ADD33R,0.07193X0.02075*%
%ADD34C,0.02678*%
D10*
X0059448Y0075438D03*
X0064566Y0075438D03*
X0095577Y0066174D03*
X0100695Y0066174D03*
X0072400Y0126894D03*
X0067282Y0126894D03*
X0111778Y3841707D03*
X0111778Y3846156D03*
X0116896Y3846156D03*
X0116896Y3841707D03*
X0099534Y3843873D03*
X0094415Y3843873D03*
X0087329Y3843912D03*
X0082211Y3843912D03*
X0070675Y3856314D03*
X0065557Y3856314D03*
X0066698Y3887444D03*
X0066738Y3891747D03*
X0066773Y3895942D03*
X0066818Y3900212D03*
X0071936Y3900212D03*
X0071891Y3895942D03*
X0071856Y3891747D03*
X0071816Y3887444D03*
X0059889Y3887483D03*
X0059848Y3891747D03*
X0059807Y3895980D03*
X0059803Y3900213D03*
X0054685Y3900213D03*
X0054689Y3895980D03*
X0054730Y3891747D03*
X0054771Y3887483D03*
X3839350Y3874232D03*
X3844468Y3874232D03*
X3875479Y3864969D03*
X3880597Y3864969D03*
X3872763Y3813512D03*
X3867644Y3813512D03*
X3829039Y0095494D03*
X3829039Y0091046D03*
X3823921Y0091046D03*
X3823921Y0095494D03*
X3841283Y0093329D03*
X3846401Y0093329D03*
X3853487Y0093290D03*
X3858606Y0093290D03*
X3870141Y0080888D03*
X3875259Y0080888D03*
X3874119Y0049757D03*
X3874078Y0045455D03*
X3874044Y0041260D03*
X3873998Y0036990D03*
X3868880Y0036990D03*
X3868925Y0041260D03*
X3868960Y0045455D03*
X3869000Y0049757D03*
X3880927Y0049719D03*
X3880968Y0045455D03*
X3881010Y0041222D03*
X3881013Y0036988D03*
X3886131Y0036988D03*
X3886128Y0041222D03*
X3886086Y0045455D03*
X3886045Y0049719D03*
D11*
X3887464Y0073605D03*
X3887464Y0080691D03*
X0053352Y3856511D03*
X0053352Y3863597D03*
D12*
X0103156Y3824699D03*
X3837661Y0112502D03*
D13*
X3837661Y0193408D03*
X0103156Y3743794D03*
D14*
X0100439Y3863203D03*
X0094534Y3863203D03*
X0094534Y3869109D03*
X0100439Y3869109D03*
X0100439Y3875014D03*
X0094534Y3875014D03*
X0094534Y3880920D03*
X0100439Y3880920D03*
X0100439Y3886825D03*
X0094534Y3886825D03*
X0088628Y3886825D03*
X0088628Y3880920D03*
X0088628Y3875014D03*
X0088628Y3869109D03*
X0088628Y3863203D03*
X0106345Y3863203D03*
X0112250Y3863203D03*
X0112250Y3869109D03*
X0112250Y3875014D03*
X0106345Y3875014D03*
X0106345Y3869109D03*
X0106345Y3880920D03*
X0112250Y3880920D03*
X0112250Y3886825D03*
X0106345Y3886825D03*
X3865322Y3850205D03*
X3871227Y3850205D03*
X3871227Y3844299D03*
X3871227Y3838394D03*
X3865322Y3838394D03*
X3865322Y3844299D03*
X3877133Y3844299D03*
X3877133Y3838394D03*
X3883038Y3838394D03*
X3883038Y3844299D03*
X3888944Y3844299D03*
X3888944Y3838394D03*
X3888944Y3832488D03*
X3888944Y3826583D03*
X3883038Y3826583D03*
X3883038Y3832488D03*
X3877133Y3832488D03*
X3877133Y3826583D03*
X3871227Y3826583D03*
X3871227Y3832488D03*
X3865322Y3832488D03*
X3865322Y3826583D03*
X3877133Y3850205D03*
X3883038Y3850205D03*
X3888944Y3850205D03*
X3852188Y0073998D03*
X3852188Y0068093D03*
X3846283Y0068093D03*
X3846283Y0073998D03*
X3840377Y0073998D03*
X3840377Y0068093D03*
X3834472Y0068093D03*
X3834472Y0073998D03*
X3828566Y0073998D03*
X3828566Y0068093D03*
X3828566Y0062187D03*
X3828566Y0056282D03*
X3828566Y0050376D03*
X3834472Y0050376D03*
X3840377Y0050376D03*
X3846283Y0050376D03*
X3852188Y0050376D03*
X3852188Y0056282D03*
X3846283Y0056282D03*
X3846283Y0062187D03*
X3852188Y0062187D03*
X3840377Y0062187D03*
X3840377Y0056282D03*
X3834472Y0056282D03*
X3834472Y0062187D03*
X0074723Y0090201D03*
X0068818Y0090201D03*
X0062912Y0090201D03*
X0057007Y0090201D03*
X0051101Y0090201D03*
X0051101Y0096107D03*
X0051101Y0102012D03*
X0057007Y0102012D03*
X0057007Y0096107D03*
X0062912Y0096107D03*
X0062912Y0102012D03*
X0068818Y0102012D03*
X0068818Y0096107D03*
X0074723Y0096107D03*
X0074723Y0102012D03*
X0074723Y0107918D03*
X0068818Y0107918D03*
X0068818Y0113823D03*
X0074723Y0113823D03*
X0062912Y0113823D03*
X0062912Y0107918D03*
X0057007Y0107918D03*
X0057007Y0113823D03*
X0051101Y0113823D03*
X0051101Y0107918D03*
D15*
X0044448Y0108312D03*
X0044448Y0111461D03*
X0044448Y0114611D03*
X0044448Y0117760D03*
X0044448Y0105162D03*
X0044448Y0102012D03*
X0044448Y0098863D03*
X0044448Y0095713D03*
X0044448Y0092564D03*
X0044448Y0089414D03*
X0044448Y0086264D03*
X0081377Y0086264D03*
X0081377Y0089414D03*
X0081377Y0092564D03*
X0081377Y0095713D03*
X0081377Y0098863D03*
X0081377Y0102012D03*
X0081377Y0105162D03*
X0081377Y0108312D03*
X0081377Y0111461D03*
X0081377Y0114611D03*
X0081377Y0117760D03*
X3821913Y0077935D03*
X3821913Y0074786D03*
X3821913Y0071636D03*
X3821913Y0068487D03*
X3821913Y0065337D03*
X3821913Y0062187D03*
X3821913Y0059038D03*
X3821913Y0055888D03*
X3821913Y0052739D03*
X3821913Y0049589D03*
X3821913Y0046439D03*
X3858842Y0046439D03*
X3858842Y0049589D03*
X3858842Y0052739D03*
X3858842Y0055888D03*
X3858842Y0059038D03*
X3858842Y0062187D03*
X3858842Y0065337D03*
X3858842Y0068487D03*
X3858842Y0071636D03*
X3858842Y0074786D03*
X3858842Y0077935D03*
X3858668Y3822646D03*
X3858668Y3825795D03*
X3858668Y3828945D03*
X3858668Y3832095D03*
X3858668Y3835244D03*
X3858668Y3838394D03*
X3858668Y3841544D03*
X3858668Y3844693D03*
X3858668Y3847843D03*
X3858668Y3850992D03*
X3858668Y3854142D03*
X3895597Y3854142D03*
X3895597Y3850992D03*
X3895597Y3847843D03*
X3895597Y3844693D03*
X3895597Y3841544D03*
X3895597Y3838394D03*
X3895597Y3835244D03*
X3895597Y3832095D03*
X3895597Y3828945D03*
X3895597Y3825795D03*
X3895597Y3822646D03*
X0118904Y3859266D03*
X0118904Y3862416D03*
X0118904Y3865566D03*
X0118904Y3868715D03*
X0118904Y3871865D03*
X0118904Y3875014D03*
X0118904Y3878164D03*
X0118904Y3881314D03*
X0118904Y3884463D03*
X0118904Y3887613D03*
X0118904Y3890762D03*
X0081974Y3890762D03*
X0081974Y3887613D03*
X0081974Y3884463D03*
X0081974Y3881314D03*
X0081974Y3878164D03*
X0081974Y3875014D03*
X0081974Y3871865D03*
X0081974Y3868715D03*
X0081974Y3865566D03*
X0081974Y3862416D03*
X0081974Y3859266D03*
D16*
X0084691Y3856550D03*
X0087841Y3856550D03*
X0090990Y3856550D03*
X0094140Y3856550D03*
X0097289Y3856550D03*
X0100439Y3856550D03*
X0103589Y3856550D03*
X0106738Y3856550D03*
X0109888Y3856550D03*
X0113037Y3856550D03*
X0116187Y3856550D03*
X0116187Y3893479D03*
X0113037Y3893479D03*
X0109888Y3893479D03*
X0106738Y3893479D03*
X0103589Y3893479D03*
X0100439Y3893479D03*
X0097289Y3893479D03*
X0094140Y3893479D03*
X0090990Y3893479D03*
X0087841Y3893479D03*
X0084691Y3893479D03*
X0078660Y0120477D03*
X0075511Y0120477D03*
X0072361Y0120477D03*
X0069211Y0120477D03*
X0066062Y0120477D03*
X0062912Y0120477D03*
X0059763Y0120477D03*
X0056613Y0120477D03*
X0053463Y0120477D03*
X0050314Y0120477D03*
X0047164Y0120477D03*
X0047164Y0083548D03*
X0050314Y0083548D03*
X0053463Y0083548D03*
X0056613Y0083548D03*
X0059763Y0083548D03*
X0062912Y0083548D03*
X0066062Y0083548D03*
X0069211Y0083548D03*
X0072361Y0083548D03*
X0075511Y0083548D03*
X0078660Y0083548D03*
X3824629Y0080652D03*
X3827779Y0080652D03*
X3830928Y0080652D03*
X3834078Y0080652D03*
X3837228Y0080652D03*
X3840377Y0080652D03*
X3843527Y0080652D03*
X3846676Y0080652D03*
X3849826Y0080652D03*
X3852976Y0080652D03*
X3856125Y0080652D03*
X3856125Y0043723D03*
X3852976Y0043723D03*
X3849826Y0043723D03*
X3846676Y0043723D03*
X3843527Y0043723D03*
X3840377Y0043723D03*
X3837228Y0043723D03*
X3834078Y0043723D03*
X3830928Y0043723D03*
X3827779Y0043723D03*
X3824629Y0043723D03*
X3861385Y3819929D03*
X3864534Y3819929D03*
X3867684Y3819929D03*
X3870833Y3819929D03*
X3873983Y3819929D03*
X3877133Y3819929D03*
X3880282Y3819929D03*
X3883432Y3819929D03*
X3886581Y3819929D03*
X3889731Y3819929D03*
X3892881Y3819929D03*
X3892881Y3856858D03*
X3889731Y3856858D03*
X3886581Y3856858D03*
X3883432Y3856858D03*
X3880282Y3856858D03*
X3877133Y3856858D03*
X3873983Y3856858D03*
X3870833Y3856858D03*
X3867684Y3856858D03*
X3864534Y3856858D03*
X3861385Y3856858D03*
D17*
X3875558Y3870284D03*
X3881463Y3870284D03*
X3836463Y3844378D03*
X3836463Y3838473D03*
X3840456Y0102857D03*
X3846361Y0102857D03*
X3872267Y0063762D03*
X3872267Y0057857D03*
X0103582Y0096028D03*
X0103582Y0101934D03*
X0064487Y0070123D03*
X0058582Y0070123D03*
X0094455Y3834345D03*
X0100360Y3834345D03*
X0068549Y3873440D03*
X0068549Y3879345D03*
D18*
X0081459Y3900075D03*
X0081459Y3906768D03*
X0091648Y3904742D03*
X0091648Y3898049D03*
X0102959Y3898007D03*
X0102959Y3904699D03*
X0038621Y0118469D03*
X0038621Y0111776D03*
X0023943Y0081968D03*
X0023943Y0075275D03*
X3837858Y0039195D03*
X3837858Y0032502D03*
X3849169Y0032460D03*
X3849169Y0039153D03*
X3859357Y0037126D03*
X3859357Y0030434D03*
X3901424Y3821937D03*
X3901424Y3828630D03*
X3916102Y3858438D03*
X3916102Y3865131D03*
D19*
X3908886Y3857374D03*
X3902193Y3857374D03*
X3900167Y3847185D03*
X3906860Y3847185D03*
X3906818Y3835874D03*
X3900125Y3835874D03*
X0116896Y3899306D03*
X0110203Y3899306D03*
X0080395Y3913984D03*
X0073702Y3913984D03*
X0039920Y0104532D03*
X0033227Y0104532D03*
X0033185Y0093221D03*
X0039878Y0093221D03*
X0037851Y0083033D03*
X0031158Y0083033D03*
X3823921Y0037896D03*
X3830613Y0037896D03*
X3860422Y0023218D03*
X3867114Y0023218D03*
D20*
X3866952Y0058723D03*
X3866952Y0063841D03*
X3876215Y0094852D03*
X3876215Y0099970D03*
X3815495Y0071676D03*
X3815495Y0066557D03*
X0096219Y0113351D03*
X0091770Y0113351D03*
X0091770Y0118469D03*
X0096219Y0118469D03*
X0094054Y0101107D03*
X0094054Y0095989D03*
X0094015Y0088902D03*
X0094015Y0083784D03*
X0081613Y0072249D03*
X0081613Y0067130D03*
X0050482Y0068271D03*
X0046180Y0068312D03*
X0041985Y0068346D03*
X0037714Y0068392D03*
X0037714Y0073510D03*
X0041985Y0073464D03*
X0046180Y0073430D03*
X0050482Y0073389D03*
X0050444Y0061462D03*
X0046180Y0061422D03*
X0041947Y0061380D03*
X0037713Y0061376D03*
X0037713Y0056258D03*
X0041947Y0056262D03*
X0046180Y0056304D03*
X0050444Y0056344D03*
X0064601Y3837232D03*
X0064601Y3842350D03*
X0073864Y3873361D03*
X0073864Y3878479D03*
X0125321Y3870644D03*
X0125321Y3865526D03*
X3843826Y3827055D03*
X3848274Y3827055D03*
X3848274Y3821937D03*
X3843826Y3821937D03*
X3845991Y3839299D03*
X3845991Y3844418D03*
X3846030Y3851504D03*
X3846030Y3856622D03*
X3858432Y3868158D03*
X3858432Y3873276D03*
X3889563Y3872135D03*
X3893865Y3872095D03*
X3898060Y3872060D03*
X3902330Y3872015D03*
X3902330Y3866897D03*
X3898060Y3866942D03*
X3893865Y3866977D03*
X3889563Y3867017D03*
X3889601Y3878944D03*
X3893865Y3878984D03*
X3898098Y3879026D03*
X3902332Y3879030D03*
X3902332Y3884148D03*
X3898098Y3884144D03*
X3893865Y3884103D03*
X3889601Y3884062D03*
D21*
X3846739Y3868118D03*
X3846739Y3866150D03*
X3844770Y3866150D03*
X3842802Y3866150D03*
X3842802Y3868118D03*
X3844770Y3868118D03*
X3844770Y3864181D03*
X3842802Y3864181D03*
X3846739Y3864181D03*
X3866165Y0096518D03*
X3868133Y0096518D03*
X3868133Y0094550D03*
X3866165Y0094550D03*
X3866165Y0092581D03*
X3868133Y0092581D03*
X3870102Y0092581D03*
X3870102Y0094550D03*
X3870102Y0096518D03*
X0097243Y0076225D03*
X0097243Y0074256D03*
X0097243Y0072288D03*
X0095274Y0072288D03*
X0093306Y0072288D03*
X0093306Y0074256D03*
X0095274Y0074256D03*
X0095274Y0076225D03*
X0093306Y0076225D03*
X0074652Y3840684D03*
X0074652Y3842652D03*
X0074652Y3844621D03*
X0072683Y3844621D03*
X0070715Y3844621D03*
X0070715Y3842652D03*
X0072683Y3842652D03*
X0072683Y3840684D03*
X0070715Y3840684D03*
D22*
X0057171Y3836550D03*
X0049691Y3836550D03*
X0049691Y3845999D03*
X0057171Y3845999D03*
X3838668Y3881662D03*
X3838668Y3889142D03*
X3848117Y3889142D03*
X3848117Y3881662D03*
X3883645Y0100652D03*
X3891125Y0100652D03*
X3891125Y0091203D03*
X3883645Y0091203D03*
X0101377Y0058745D03*
X0101377Y0051264D03*
X0091928Y0051264D03*
X0091928Y0058745D03*
D23*
X3902424Y0012384D03*
X3929984Y0012384D03*
X0038392Y3924818D03*
X0010833Y3924818D03*
D24*
X0171773Y3923807D03*
X0171773Y3915933D03*
X0171773Y3908059D03*
X0171773Y3900185D03*
X0171773Y3892311D03*
X0171773Y3884437D03*
X0171773Y3876563D03*
X0171773Y3868689D03*
X0171773Y3860815D03*
X0195395Y3860815D03*
X0195395Y3868689D03*
X0195395Y3876563D03*
X0195395Y3884437D03*
X0195395Y3892311D03*
X0195395Y3900185D03*
X0195395Y3908059D03*
X0195395Y3915933D03*
X0195395Y3923807D03*
X0195395Y3852941D03*
X0084986Y0196968D03*
X0077112Y0196968D03*
X0069238Y0196968D03*
X0061364Y0196968D03*
X0053490Y0196968D03*
X0045616Y0196968D03*
X0037742Y0196968D03*
X0029868Y0196968D03*
X0021994Y0196968D03*
X0014120Y0196968D03*
X0014120Y0173346D03*
X0021994Y0173346D03*
X0029868Y0173346D03*
X0037742Y0173346D03*
X0045616Y0173346D03*
X0053490Y0173346D03*
X0061364Y0173346D03*
X0069238Y0173346D03*
X0077112Y0173346D03*
X3745421Y0084261D03*
X3745421Y0076387D03*
X3745421Y0068513D03*
X3745421Y0060639D03*
X3745421Y0052765D03*
X3745421Y0044891D03*
X3745421Y0037017D03*
X3745421Y0029143D03*
X3745421Y0021269D03*
X3745421Y0013395D03*
X3769043Y0013395D03*
X3769043Y0021269D03*
X3769043Y0029143D03*
X3769043Y0037017D03*
X3769043Y0044891D03*
X3769043Y0052765D03*
X3769043Y0060639D03*
X3769043Y0068513D03*
X3769043Y0076387D03*
X3855059Y3743438D03*
X3862933Y3743438D03*
X3870807Y3743438D03*
X3878681Y3743438D03*
X3886555Y3743438D03*
X3894429Y3743438D03*
X3902303Y3743438D03*
X3910177Y3743438D03*
X3918051Y3743438D03*
X3925925Y3743438D03*
X3925925Y3767060D03*
X3918051Y3767060D03*
X3910177Y3767060D03*
X3902303Y3767060D03*
X3894429Y3767060D03*
X3886555Y3767060D03*
X3878681Y3767060D03*
X3870807Y3767060D03*
X3862933Y3767060D03*
D25*
X3848255Y0024180D03*
X0092561Y3913022D03*
D26*
X0089805Y3914695D03*
X0095317Y3914695D03*
X3845499Y0022507D03*
X3851011Y0022507D03*
D27*
X3848255Y0019948D03*
X3919372Y3846272D03*
X0092561Y3917254D03*
X0020672Y0094135D03*
D28*
X0074330Y0054926D03*
X0081416Y0054926D03*
X3858629Y3885481D03*
X3865715Y3885481D03*
D29*
X3826818Y3835677D03*
X0113227Y0104729D03*
D30*
X0194133Y0104729D03*
X3745912Y3835677D03*
D31*
X0013109Y0012406D03*
X0013109Y0039965D03*
X3926936Y3900441D03*
X3926936Y3928000D03*
D32*
X3915140Y3846272D03*
X0024905Y0094135D03*
D33*
X0023232Y0096890D03*
X0023232Y0091379D03*
X3916813Y3843516D03*
X3916813Y3849028D03*
D34*
X3908810Y3852085D03*
X3906165Y3842912D03*
X3906963Y3829803D03*
X3906954Y3825730D03*
X3896925Y3817231D03*
X3899691Y3814483D03*
X3896844Y3806096D03*
X3888992Y3807653D03*
X3886306Y3804024D03*
X3882005Y3804049D03*
X3883786Y3810284D03*
X3883747Y3814890D03*
X3861409Y3805243D03*
X3860527Y3788859D03*
X3869539Y3789055D03*
X3879824Y3789055D03*
X3889701Y3789081D03*
X3900952Y3789370D03*
X3912361Y3789452D03*
X3924869Y3789663D03*
X3922776Y3831485D03*
X3932185Y3864962D03*
X3926868Y3869124D03*
X3932354Y3877289D03*
X3932298Y3887495D03*
X3919987Y3887238D03*
X3908562Y3898711D03*
X3908382Y3908576D03*
X3908335Y3918914D03*
X3908382Y3928270D03*
X3898020Y3928203D03*
X3887087Y3928085D03*
X3888809Y3894156D03*
X3893570Y3889201D03*
X3878282Y3886277D03*
X3877074Y3877418D03*
X3872832Y3877401D03*
X3864574Y3875599D03*
X3849802Y3874971D03*
X3849785Y3871113D03*
X3857704Y3862487D03*
X3857656Y3857594D03*
X3854377Y3854575D03*
X3839904Y3847140D03*
X3835764Y3852679D03*
X3835437Y3858828D03*
X3835105Y3868613D03*
X3840676Y3839693D03*
X3848274Y3833030D03*
X3854188Y3832577D03*
X3853687Y3825795D03*
X3834113Y3804430D03*
X3846300Y3788627D03*
X3816162Y3835867D03*
X3858636Y3894030D03*
X3861093Y3898134D03*
X3863432Y3892370D03*
X3870075Y3894048D03*
X3846326Y3902647D03*
X3840931Y3902562D03*
X3833892Y3908707D03*
X3836107Y3928746D03*
X3847483Y3929103D03*
X3902562Y3861901D03*
X3837851Y0123158D03*
X3841676Y0098644D03*
X3849123Y0099416D03*
X3854662Y0103556D03*
X3860811Y0103882D03*
X3870596Y0104215D03*
X3873096Y0089535D03*
X3876954Y0089518D03*
X3864470Y0081616D03*
X3859578Y0081664D03*
X3856558Y0084943D03*
X3834560Y0085132D03*
X3835014Y0091046D03*
X3827779Y0085632D03*
X3807226Y0077911D03*
X3790843Y0078793D03*
X3791039Y0069781D03*
X3791039Y0059496D03*
X3791064Y0049619D03*
X3791353Y0038368D03*
X3791435Y0026959D03*
X3791647Y0014451D03*
X3808079Y0042476D03*
X3809636Y0050328D03*
X3806007Y0053014D03*
X3806032Y0057315D03*
X3812267Y0055534D03*
X3816873Y0055573D03*
X3819215Y0042395D03*
X3816466Y0039629D03*
X3827713Y0032366D03*
X3831787Y0032357D03*
X3844895Y0033155D03*
X3854069Y0030510D03*
X3863884Y0036758D03*
X3871108Y0012452D03*
X3866945Y0007135D03*
X3879273Y0006966D03*
X3889478Y0007022D03*
X3889221Y0019333D03*
X3900695Y0030758D03*
X3910560Y0030938D03*
X3920897Y0030985D03*
X3930253Y0030938D03*
X3930186Y0041300D03*
X3930069Y0052233D03*
X3896139Y0050510D03*
X3891184Y0045750D03*
X3888260Y0061038D03*
X3879401Y0062246D03*
X3879385Y0066488D03*
X3877582Y0074746D03*
X3894354Y0075888D03*
X3896013Y0080684D03*
X3900118Y0078227D03*
X3896031Y0069245D03*
X3904630Y0092994D03*
X3904545Y0098388D03*
X3910690Y0105428D03*
X3930729Y0103213D03*
X3931086Y0091837D03*
X3833468Y0016544D03*
X3790610Y0093020D03*
X3806413Y0105207D03*
X0123882Y0104539D03*
X0099369Y0100713D03*
X0100140Y0093267D03*
X0104281Y0087727D03*
X0104607Y0081579D03*
X0104940Y0071793D03*
X0090260Y0069293D03*
X0090243Y0065436D03*
X0082341Y0077919D03*
X0082388Y0082812D03*
X0085668Y0085831D03*
X0085857Y0107829D03*
X0091770Y0107376D03*
X0086357Y0114611D03*
X0078635Y0135163D03*
X0079518Y0151547D03*
X0070506Y0151351D03*
X0060221Y0151351D03*
X0050344Y0151325D03*
X0039093Y0151036D03*
X0027683Y0150954D03*
X0015176Y0150743D03*
X0043201Y0134311D03*
X0051053Y0132754D03*
X0053739Y0136382D03*
X0058040Y0136357D03*
X0056259Y0130123D03*
X0056298Y0125516D03*
X0043120Y0123175D03*
X0040354Y0125923D03*
X0033091Y0114676D03*
X0033081Y0110603D03*
X0033879Y0097495D03*
X0031235Y0088321D03*
X0037483Y0078505D03*
X0013177Y0071282D03*
X0007860Y0075445D03*
X0007691Y0063117D03*
X0007747Y0052911D03*
X0020058Y0053169D03*
X0031483Y0041695D03*
X0031663Y0031830D03*
X0031710Y0021492D03*
X0031663Y0012137D03*
X0042025Y0012203D03*
X0052957Y0012321D03*
X0051235Y0046250D03*
X0046475Y0051206D03*
X0061763Y0054129D03*
X0062971Y0062989D03*
X0067213Y0063005D03*
X0075471Y0064808D03*
X0076613Y0048036D03*
X0081409Y0046377D03*
X0078952Y0042272D03*
X0069970Y0046359D03*
X0093719Y0037759D03*
X0099113Y0037844D03*
X0106153Y0031699D03*
X0103938Y0011660D03*
X0092562Y0011303D03*
X0017269Y0108921D03*
X0093745Y0151779D03*
X0105932Y0135976D03*
X0102966Y3814044D03*
X0099140Y3838558D03*
X0091693Y3837786D03*
X0086154Y3833646D03*
X0080005Y3833319D03*
X0070220Y3832987D03*
X0067720Y3847667D03*
X0063862Y3847684D03*
X0076346Y3855585D03*
X0081239Y3855538D03*
X0084258Y3852259D03*
X0106256Y3852070D03*
X0105803Y3846156D03*
X0113037Y3851569D03*
X0133590Y3859291D03*
X0149974Y3858409D03*
X0149778Y3867421D03*
X0149778Y3877706D03*
X0149752Y3887583D03*
X0149463Y3898834D03*
X0149381Y3910243D03*
X0149170Y3922751D03*
X0132737Y3894726D03*
X0131180Y3886874D03*
X0134809Y3884188D03*
X0134784Y3879887D03*
X0128549Y3881668D03*
X0123943Y3881629D03*
X0121602Y3894807D03*
X0124350Y3897573D03*
X0113103Y3904836D03*
X0109030Y3904845D03*
X0095921Y3904047D03*
X0086748Y3906692D03*
X0076932Y3900444D03*
X0069709Y3924750D03*
X0073871Y3930067D03*
X0061544Y3930236D03*
X0051338Y3930180D03*
X0051595Y3917868D03*
X0040122Y3906444D03*
X0030257Y3906264D03*
X0019919Y3906217D03*
X0010563Y3906264D03*
X0010630Y3895902D03*
X0010748Y3884969D03*
X0044677Y3886691D03*
X0049632Y3891452D03*
X0052556Y3876163D03*
X0061415Y3874956D03*
X0061432Y3870714D03*
X0063234Y3862455D03*
X0046463Y3861314D03*
X0044803Y3856518D03*
X0040698Y3858975D03*
X0044785Y3867957D03*
X0036186Y3844208D03*
X0036271Y3838813D03*
X0030126Y3831774D03*
X0010087Y3833989D03*
X0009730Y3845365D03*
X0107348Y3920658D03*
X0150206Y3844182D03*
X0134403Y3831995D03*
M02*
