G75*
%MOIN*%
%OFA0B0*%
%FSLAX25Y25*%
%IPPOS*%
%LPD*%
%AMOC8*
5,1,8,0,0,1.08239X$1,22.5*
%
%ADD10R,0.07087X0.03937*%
%ADD11R,0.00984X0.01772*%
%ADD12R,0.02756X0.03543*%
%ADD13R,0.03543X0.02756*%
%ADD14R,0.01772X0.01063*%
%ADD15R,0.01063X0.01772*%
%ADD16R,0.04331X0.03937*%
%ADD17R,0.03937X0.04331*%
%ADD18R,0.03150X0.03150*%
%ADD19R,0.20276X0.20276*%
%ADD20C,0.01181*%
%ADD21R,1.85039X0.08661*%
%ADD22R,1.85039X0.04331*%
%ADD23R,0.04528X0.05512*%
%ADD24R,0.03937X0.03937*%
%ADD25C,0.02978*%
%ADD26R,0.01575X0.03346*%
%ADD27R,0.01575X0.06693*%
%ADD28R,0.01575X0.01575*%
%ADD29R,0.01772X0.05315*%
%ADD30R,0.04724X0.03150*%
%ADD31R,0.03346X0.00906*%
%ADD32R,0.03937X0.00906*%
%ADD33R,0.05433X0.07087*%
%ADD34R,0.07874X0.06693*%
%ADD35R,0.03937X0.07087*%
%ADD36R,0.01772X0.00984*%
%ADD37R,0.08661X1.85039*%
%ADD38R,0.04331X1.85039*%
%ADD39R,0.05512X0.04528*%
%ADD40R,0.03346X0.01575*%
%ADD41R,0.06693X0.01575*%
%ADD42R,0.05315X0.01772*%
%ADD43R,0.03150X0.04724*%
%ADD44R,0.00906X0.03346*%
%ADD45R,0.00906X0.03937*%
%ADD46R,0.07087X0.05433*%
%ADD47R,0.06693X0.07874*%
%ADD48C,0.00600*%
%ADD49C,0.01000*%
%ADD50C,0.02178*%
%ADD51C,0.04000*%
%ADD52C,0.01600*%
%ADD53C,0.02000*%
D10*
X3803724Y0061833D03*
X3803724Y0071676D03*
X0137093Y3865526D03*
X0137093Y3875369D03*
D11*
X0103786Y3866392D03*
X0101817Y3866392D03*
X0099848Y3866392D03*
X0099848Y3863243D03*
X0101817Y3863243D03*
X0103786Y3863243D03*
X3837031Y0073959D03*
X3838999Y0073959D03*
X3840968Y0073959D03*
X3840968Y0070809D03*
X3838999Y0070809D03*
X3837031Y0070809D03*
D12*
X3839117Y0052699D03*
X3839235Y0047935D03*
X3834117Y0047935D03*
X3833999Y0052699D03*
X3820023Y0051636D03*
X3819984Y0046518D03*
X3814865Y0046518D03*
X3814905Y0051636D03*
X3807897Y0046479D03*
X3802779Y0046479D03*
X3824826Y0037975D03*
X3829944Y0037975D03*
X3837188Y0037857D03*
X3842306Y0037857D03*
X3869164Y0044058D03*
X3874282Y0044058D03*
X3885426Y0066727D03*
X3885336Y0071041D03*
X3890454Y0071041D03*
X3890544Y0066727D03*
X3816676Y0071754D03*
X3811558Y0071754D03*
X0100596Y0080697D03*
X0100535Y0085006D03*
X0100550Y0089215D03*
X0095432Y0089215D03*
X0095417Y0085006D03*
X0095478Y0080697D03*
X0095442Y0076212D03*
X0100560Y0076212D03*
X0084941Y0068988D03*
X0079823Y0068988D03*
X0076688Y0109604D03*
X0071570Y0109604D03*
X0066298Y0131186D03*
X0061180Y0131186D03*
X0124140Y3865448D03*
X0129258Y3865448D03*
X0125911Y3885566D03*
X0120793Y3885566D03*
X0120833Y3890684D03*
X0125951Y3890684D03*
X0132919Y3890723D03*
X0138037Y3890723D03*
X0115990Y3899227D03*
X0110872Y3899227D03*
X0103628Y3899345D03*
X0098510Y3899345D03*
X0101581Y3889266D03*
X0101699Y3884503D03*
X0106817Y3884503D03*
X0106699Y3889266D03*
X0071652Y3893144D03*
X0066534Y3893144D03*
X0055391Y3870475D03*
X0055481Y3866161D03*
X0050362Y3866161D03*
X0050272Y3870475D03*
X3839449Y3859709D03*
X3839510Y3855401D03*
X3839494Y3851192D03*
X3844612Y3851192D03*
X3844628Y3855401D03*
X3844567Y3859709D03*
X3844603Y3864194D03*
X3839485Y3864194D03*
X3855104Y3871418D03*
X3860222Y3871418D03*
X3863356Y3830802D03*
X3868475Y3830802D03*
X3873747Y3809221D03*
X3878865Y3809221D03*
D13*
X3887684Y3812921D03*
X3892802Y3812882D03*
X3892802Y3818000D03*
X3887684Y3818040D03*
X3892841Y3805914D03*
X3892841Y3800795D03*
X3901345Y3822843D03*
X3901345Y3827961D03*
X3901463Y3835205D03*
X3901463Y3840323D03*
X3891385Y3837252D03*
X3886621Y3837134D03*
X3886621Y3832016D03*
X3891385Y3832134D03*
X3867566Y3814693D03*
X3867566Y3809575D03*
X3895262Y3867181D03*
X3895262Y3872299D03*
X3872593Y3883442D03*
X3868279Y3883352D03*
X3868279Y3888471D03*
X3872593Y3888560D03*
X0129612Y3876747D03*
X0129612Y3871629D03*
X0108031Y3866356D03*
X0108031Y3861238D03*
X0087641Y3842494D03*
X0083432Y3842510D03*
X0079124Y3842449D03*
X0074639Y3842485D03*
X0074639Y3837367D03*
X0079124Y3837331D03*
X0083432Y3837392D03*
X0087641Y3837376D03*
X0067415Y3852986D03*
X0067415Y3858104D03*
X0047204Y0139611D03*
X0047204Y0134493D03*
X0047243Y0127524D03*
X0047243Y0122406D03*
X0052361Y0122367D03*
X0052361Y0127485D03*
X0038700Y0117564D03*
X0038700Y0112445D03*
X0038582Y0105201D03*
X0038582Y0100083D03*
X0048660Y0103154D03*
X0053424Y0103272D03*
X0053424Y0108390D03*
X0048660Y0108272D03*
X0072479Y0125713D03*
X0072479Y0130831D03*
X0044783Y0073226D03*
X0044783Y0068108D03*
X0067452Y0056964D03*
X0071766Y0057054D03*
X0071766Y0051936D03*
X0067452Y0051846D03*
X3811204Y0060455D03*
X3811204Y0065573D03*
X3832785Y0070845D03*
X3832785Y0075963D03*
X3853175Y0094707D03*
X3857384Y0094692D03*
X3861692Y0094753D03*
X3866178Y0094717D03*
X3866178Y0099835D03*
X3861692Y0099871D03*
X3857384Y0099810D03*
X3853175Y0099826D03*
X3873401Y0084216D03*
X3873401Y0079098D03*
D14*
X3812444Y0024569D03*
X3812444Y0022876D03*
X3812444Y0021183D03*
X3812444Y0019490D03*
X3812444Y0017798D03*
X3812444Y0016105D03*
X3812444Y0014412D03*
X3812444Y0012719D03*
X3802798Y0012719D03*
X3802798Y0014412D03*
X3802798Y0016105D03*
X3802798Y0017798D03*
X3802798Y0019490D03*
X3802798Y0021183D03*
X3802798Y0022876D03*
X3802798Y0024569D03*
X0025176Y0132229D03*
X0025176Y0133922D03*
X0025176Y0135615D03*
X0025176Y0137308D03*
X0013562Y0137308D03*
X0013562Y0135615D03*
X0013562Y0133922D03*
X0013562Y0132229D03*
X0128372Y3912633D03*
X0128372Y3914325D03*
X0128372Y3916018D03*
X0128372Y3917711D03*
X0128372Y3919404D03*
X0128372Y3921097D03*
X0128372Y3922790D03*
X0128372Y3924483D03*
X0138018Y3924483D03*
X0138018Y3922790D03*
X0138018Y3921097D03*
X0138018Y3919404D03*
X0138018Y3917711D03*
X0138018Y3916018D03*
X0138018Y3914325D03*
X0138018Y3912633D03*
X3914869Y3808177D03*
X3914869Y3806484D03*
X3914869Y3804792D03*
X3914869Y3803099D03*
X3926483Y3803099D03*
X3926483Y3804792D03*
X3926483Y3806484D03*
X3926483Y3808177D03*
D15*
X3926601Y3810461D03*
X3924908Y3810461D03*
X3923215Y3810461D03*
X3921522Y3810461D03*
X3919829Y3810461D03*
X3918137Y3810461D03*
X3916444Y3810461D03*
X3914751Y3810461D03*
X3914751Y3800815D03*
X3916444Y3800815D03*
X3918137Y3800815D03*
X3919829Y3800815D03*
X3921522Y3800815D03*
X3923215Y3800815D03*
X3924908Y3800815D03*
X3926601Y3800815D03*
X3810161Y0024451D03*
X3808468Y0024451D03*
X3806775Y0024451D03*
X3805082Y0024451D03*
X3805082Y0012837D03*
X3806775Y0012837D03*
X3808468Y0012837D03*
X3810161Y0012837D03*
X0025294Y0129945D03*
X0023601Y0129945D03*
X0021908Y0129945D03*
X0020215Y0129945D03*
X0018522Y0129945D03*
X0016830Y0129945D03*
X0015137Y0129945D03*
X0013444Y0129945D03*
X0013444Y0139591D03*
X0015137Y0139591D03*
X0016830Y0139591D03*
X0018522Y0139591D03*
X0020215Y0139591D03*
X0021908Y0139591D03*
X0023601Y0139591D03*
X0025294Y0139591D03*
X0130656Y3912751D03*
X0132348Y3912751D03*
X0134041Y3912751D03*
X0135734Y3912751D03*
X0135734Y3924365D03*
X0134041Y3924365D03*
X0132348Y3924365D03*
X0130656Y3924365D03*
D16*
X0119384Y3857745D03*
X0112692Y3857745D03*
X0134099Y3852906D03*
X0140792Y3852906D03*
X0079628Y3850207D03*
X0072935Y3850207D03*
X0069998Y3838035D03*
X0063305Y3838035D03*
X0091595Y0140863D03*
X0098287Y0140863D03*
X0085328Y0128742D03*
X0078635Y0128742D03*
X0086921Y0120664D03*
X0093614Y0120664D03*
X3800024Y0084295D03*
X3806717Y0084295D03*
X3821432Y0079457D03*
X3828125Y0079457D03*
X3861188Y0086995D03*
X3867881Y0086995D03*
X3870818Y0099166D03*
X3877511Y0099166D03*
X3848450Y3799543D03*
X3841757Y3799543D03*
X3854716Y3811665D03*
X3861409Y3811665D03*
X3853124Y3819742D03*
X3846431Y3819742D03*
D17*
X3859863Y3819448D03*
X3859863Y3826141D03*
X3855025Y3804734D03*
X3855025Y3798041D03*
X3852325Y3859205D03*
X3852325Y3865898D03*
X3840154Y3868835D03*
X3840154Y3875528D03*
X0139290Y3846332D03*
X0139290Y3839639D03*
X0127168Y3852598D03*
X0127168Y3859291D03*
X0119091Y3851005D03*
X0119091Y3844313D03*
X0085020Y0142365D03*
X0085020Y0135673D03*
X0080182Y0120958D03*
X0080182Y0114265D03*
X0087720Y0081201D03*
X0087720Y0074508D03*
X0099891Y0071571D03*
X0099891Y0064878D03*
X3801526Y0090870D03*
X3801526Y0097563D03*
X3813648Y0084603D03*
X3813648Y0077911D03*
X3821725Y0086196D03*
X3821725Y0092889D03*
D18*
X3827621Y0053211D03*
X3827621Y0047305D03*
X3833566Y0042896D03*
X3839472Y0042896D03*
X3878165Y0079159D03*
X3878165Y0085065D03*
X3886109Y3825638D03*
X3892014Y3825638D03*
X3896424Y3831583D03*
X3896424Y3837488D03*
X3860161Y3876182D03*
X3854255Y3876182D03*
X0113195Y3883991D03*
X0113195Y3889896D03*
X0107250Y3894306D03*
X0101345Y3894306D03*
X0062651Y3858042D03*
X0062651Y3852137D03*
X0053936Y0114768D03*
X0048030Y0114768D03*
X0043621Y0108823D03*
X0043621Y0102918D03*
X0079884Y0064224D03*
X0085790Y0064224D03*
D19*
X0063385Y0084138D03*
X0082565Y3874542D03*
X3876660Y3856268D03*
X3858251Y0062660D03*
D20*
X3845850Y0063644D02*
X3845850Y0063644D01*
X3844274Y0063644D01*
X3844274Y0063644D01*
X3845850Y0063644D01*
X3845850Y0061676D02*
X3845850Y0061676D01*
X3844274Y0061676D01*
X3844274Y0061676D01*
X3845850Y0061676D01*
X3845850Y0059707D02*
X3845850Y0059707D01*
X3844274Y0059707D01*
X3844274Y0059707D01*
X3845850Y0059707D01*
X3845850Y0057739D02*
X3845850Y0057739D01*
X3844274Y0057739D01*
X3844274Y0057739D01*
X3845850Y0057739D01*
X3845850Y0055770D02*
X3845850Y0055770D01*
X3844274Y0055770D01*
X3844274Y0055770D01*
X3845850Y0055770D01*
X3845850Y0053802D02*
X3845850Y0053802D01*
X3844274Y0053802D01*
X3844274Y0053802D01*
X3845850Y0053802D01*
X3845850Y0051833D02*
X3845850Y0051833D01*
X3844274Y0051833D01*
X3844274Y0051833D01*
X3845850Y0051833D01*
X3847424Y0050259D02*
X3847424Y0050259D01*
X3847424Y0048683D01*
X3847424Y0048683D01*
X3847424Y0050259D01*
X3847424Y0049863D02*
X3847424Y0049863D01*
X3849393Y0050259D02*
X3849393Y0050259D01*
X3849393Y0048683D01*
X3849393Y0048683D01*
X3849393Y0050259D01*
X3849393Y0049863D02*
X3849393Y0049863D01*
X3851361Y0050259D02*
X3851361Y0050259D01*
X3851361Y0048683D01*
X3851361Y0048683D01*
X3851361Y0050259D01*
X3851361Y0049863D02*
X3851361Y0049863D01*
X3853330Y0050259D02*
X3853330Y0050259D01*
X3853330Y0048683D01*
X3853330Y0048683D01*
X3853330Y0050259D01*
X3853330Y0049863D02*
X3853330Y0049863D01*
X3855298Y0050259D02*
X3855298Y0050259D01*
X3855298Y0048683D01*
X3855298Y0048683D01*
X3855298Y0050259D01*
X3855298Y0049863D02*
X3855298Y0049863D01*
X3857267Y0050259D02*
X3857267Y0050259D01*
X3857267Y0048683D01*
X3857267Y0048683D01*
X3857267Y0050259D01*
X3857267Y0049863D02*
X3857267Y0049863D01*
X3859235Y0050259D02*
X3859235Y0050259D01*
X3859235Y0048683D01*
X3859235Y0048683D01*
X3859235Y0050259D01*
X3859235Y0049863D02*
X3859235Y0049863D01*
X3861204Y0050259D02*
X3861204Y0050259D01*
X3861204Y0048683D01*
X3861204Y0048683D01*
X3861204Y0050259D01*
X3861204Y0049863D02*
X3861204Y0049863D01*
X3863173Y0050259D02*
X3863173Y0050259D01*
X3863173Y0048683D01*
X3863173Y0048683D01*
X3863173Y0050259D01*
X3863173Y0049863D02*
X3863173Y0049863D01*
X3865141Y0050259D02*
X3865141Y0050259D01*
X3865141Y0048683D01*
X3865141Y0048683D01*
X3865141Y0050259D01*
X3865141Y0049863D02*
X3865141Y0049863D01*
X3867110Y0050259D02*
X3867110Y0050259D01*
X3867110Y0048683D01*
X3867110Y0048683D01*
X3867110Y0050259D01*
X3867110Y0049863D02*
X3867110Y0049863D01*
X3869078Y0050259D02*
X3869078Y0050259D01*
X3869078Y0048683D01*
X3869078Y0048683D01*
X3869078Y0050259D01*
X3869078Y0049863D02*
X3869078Y0049863D01*
X3870652Y0051833D02*
X3870652Y0051833D01*
X3872228Y0051833D01*
X3872228Y0051833D01*
X3870652Y0051833D01*
X3870652Y0053802D02*
X3870652Y0053802D01*
X3872228Y0053802D01*
X3872228Y0053802D01*
X3870652Y0053802D01*
X3870652Y0055770D02*
X3870652Y0055770D01*
X3872228Y0055770D01*
X3872228Y0055770D01*
X3870652Y0055770D01*
X3870652Y0057739D02*
X3870652Y0057739D01*
X3872228Y0057739D01*
X3872228Y0057739D01*
X3870652Y0057739D01*
X3870652Y0059707D02*
X3870652Y0059707D01*
X3872228Y0059707D01*
X3872228Y0059707D01*
X3870652Y0059707D01*
X3870652Y0061676D02*
X3870652Y0061676D01*
X3872228Y0061676D01*
X3872228Y0061676D01*
X3870652Y0061676D01*
X3870652Y0063644D02*
X3870652Y0063644D01*
X3872228Y0063644D01*
X3872228Y0063644D01*
X3870652Y0063644D01*
X3870652Y0065613D02*
X3870652Y0065613D01*
X3872228Y0065613D01*
X3872228Y0065613D01*
X3870652Y0065613D01*
X3870652Y0067581D02*
X3870652Y0067581D01*
X3872228Y0067581D01*
X3872228Y0067581D01*
X3870652Y0067581D01*
X3870652Y0069550D02*
X3870652Y0069550D01*
X3872228Y0069550D01*
X3872228Y0069550D01*
X3870652Y0069550D01*
X3870652Y0071518D02*
X3870652Y0071518D01*
X3872228Y0071518D01*
X3872228Y0071518D01*
X3870652Y0071518D01*
X3870652Y0073487D02*
X3870652Y0073487D01*
X3872228Y0073487D01*
X3872228Y0073487D01*
X3870652Y0073487D01*
X3869078Y0075061D02*
X3869078Y0075061D01*
X3869078Y0076637D01*
X3869078Y0076637D01*
X3869078Y0075061D01*
X3869078Y0076241D02*
X3869078Y0076241D01*
X3867110Y0075061D02*
X3867110Y0075061D01*
X3867110Y0076637D01*
X3867110Y0076637D01*
X3867110Y0075061D01*
X3867110Y0076241D02*
X3867110Y0076241D01*
X3865141Y0075061D02*
X3865141Y0075061D01*
X3865141Y0076637D01*
X3865141Y0076637D01*
X3865141Y0075061D01*
X3865141Y0076241D02*
X3865141Y0076241D01*
X3863173Y0075061D02*
X3863173Y0075061D01*
X3863173Y0076637D01*
X3863173Y0076637D01*
X3863173Y0075061D01*
X3863173Y0076241D02*
X3863173Y0076241D01*
X3861204Y0076637D02*
X3861204Y0076637D01*
X3861204Y0075061D01*
X3861204Y0075061D01*
X3861204Y0076637D01*
X3861204Y0076241D02*
X3861204Y0076241D01*
X3859235Y0076637D02*
X3859235Y0076637D01*
X3859235Y0075061D01*
X3859235Y0075061D01*
X3859235Y0076637D01*
X3859235Y0076241D02*
X3859235Y0076241D01*
X3857267Y0076637D02*
X3857267Y0076637D01*
X3857267Y0075061D01*
X3857267Y0075061D01*
X3857267Y0076637D01*
X3857267Y0076241D02*
X3857267Y0076241D01*
X3855298Y0076637D02*
X3855298Y0076637D01*
X3855298Y0075061D01*
X3855298Y0075061D01*
X3855298Y0076637D01*
X3855298Y0076241D02*
X3855298Y0076241D01*
X3853330Y0075061D02*
X3853330Y0075061D01*
X3853330Y0076637D01*
X3853330Y0076637D01*
X3853330Y0075061D01*
X3853330Y0076241D02*
X3853330Y0076241D01*
X3851361Y0075061D02*
X3851361Y0075061D01*
X3851361Y0076637D01*
X3851361Y0076637D01*
X3851361Y0075061D01*
X3851361Y0076241D02*
X3851361Y0076241D01*
X3849393Y0075061D02*
X3849393Y0075061D01*
X3849393Y0076637D01*
X3849393Y0076637D01*
X3849393Y0075061D01*
X3849393Y0076241D02*
X3849393Y0076241D01*
X3847424Y0075061D02*
X3847424Y0075061D01*
X3847424Y0076637D01*
X3847424Y0076637D01*
X3847424Y0075061D01*
X3847424Y0076241D02*
X3847424Y0076241D01*
X3845850Y0073487D02*
X3845850Y0073487D01*
X3844274Y0073487D01*
X3844274Y0073487D01*
X3845850Y0073487D01*
X3845850Y0071518D02*
X3845850Y0071518D01*
X3844274Y0071518D01*
X3844274Y0071518D01*
X3845850Y0071518D01*
X3845850Y0069550D02*
X3845850Y0069550D01*
X3844274Y0069550D01*
X3844274Y0069550D01*
X3845850Y0069550D01*
X3845850Y0067581D02*
X3845850Y0067581D01*
X3844274Y0067581D01*
X3844274Y0067581D01*
X3845850Y0067581D01*
X3845850Y0065613D02*
X3845850Y0065613D01*
X3844274Y0065613D01*
X3844274Y0065613D01*
X3845850Y0065613D01*
X0075786Y0073312D02*
X0075786Y0073312D01*
X0077362Y0073312D01*
X0077362Y0073312D01*
X0075786Y0073312D01*
X0075786Y0075280D02*
X0075786Y0075280D01*
X0077362Y0075280D01*
X0077362Y0075280D01*
X0075786Y0075280D01*
X0075786Y0077249D02*
X0075786Y0077249D01*
X0077362Y0077249D01*
X0077362Y0077249D01*
X0075786Y0077249D01*
X0075786Y0079217D02*
X0075786Y0079217D01*
X0077362Y0079217D01*
X0077362Y0079217D01*
X0075786Y0079217D01*
X0077362Y0081186D02*
X0077362Y0081186D01*
X0075786Y0081186D01*
X0075786Y0081186D01*
X0077362Y0081186D01*
X0077362Y0083154D02*
X0077362Y0083154D01*
X0075786Y0083154D01*
X0075786Y0083154D01*
X0077362Y0083154D01*
X0077362Y0085123D02*
X0077362Y0085123D01*
X0075786Y0085123D01*
X0075786Y0085123D01*
X0077362Y0085123D01*
X0077362Y0087091D02*
X0077362Y0087091D01*
X0075786Y0087091D01*
X0075786Y0087091D01*
X0077362Y0087091D01*
X0075786Y0089060D02*
X0075786Y0089060D01*
X0077362Y0089060D01*
X0077362Y0089060D01*
X0075786Y0089060D01*
X0075786Y0091028D02*
X0075786Y0091028D01*
X0077362Y0091028D01*
X0077362Y0091028D01*
X0075786Y0091028D01*
X0075786Y0092997D02*
X0075786Y0092997D01*
X0077362Y0092997D01*
X0077362Y0092997D01*
X0075786Y0092997D01*
X0075786Y0094965D02*
X0075786Y0094965D01*
X0077362Y0094965D01*
X0077362Y0094965D01*
X0075786Y0094965D01*
X0074211Y0096539D02*
X0074211Y0096539D01*
X0074211Y0098115D01*
X0074211Y0098115D01*
X0074211Y0096539D01*
X0074211Y0097719D02*
X0074211Y0097719D01*
X0072243Y0096539D02*
X0072243Y0096539D01*
X0072243Y0098115D01*
X0072243Y0098115D01*
X0072243Y0096539D01*
X0072243Y0097719D02*
X0072243Y0097719D01*
X0070274Y0096539D02*
X0070274Y0096539D01*
X0070274Y0098115D01*
X0070274Y0098115D01*
X0070274Y0096539D01*
X0070274Y0097719D02*
X0070274Y0097719D01*
X0068306Y0096539D02*
X0068306Y0096539D01*
X0068306Y0098115D01*
X0068306Y0098115D01*
X0068306Y0096539D01*
X0068306Y0097719D02*
X0068306Y0097719D01*
X0066337Y0096539D02*
X0066337Y0096539D01*
X0066337Y0098115D01*
X0066337Y0098115D01*
X0066337Y0096539D01*
X0066337Y0097719D02*
X0066337Y0097719D01*
X0064369Y0096539D02*
X0064369Y0096539D01*
X0064369Y0098115D01*
X0064369Y0098115D01*
X0064369Y0096539D01*
X0064369Y0097719D02*
X0064369Y0097719D01*
X0062400Y0096539D02*
X0062400Y0096539D01*
X0062400Y0098115D01*
X0062400Y0098115D01*
X0062400Y0096539D01*
X0062400Y0097719D02*
X0062400Y0097719D01*
X0060432Y0096539D02*
X0060432Y0096539D01*
X0060432Y0098115D01*
X0060432Y0098115D01*
X0060432Y0096539D01*
X0060432Y0097719D02*
X0060432Y0097719D01*
X0058463Y0096539D02*
X0058463Y0096539D01*
X0058463Y0098115D01*
X0058463Y0098115D01*
X0058463Y0096539D01*
X0058463Y0097719D02*
X0058463Y0097719D01*
X0056495Y0096539D02*
X0056495Y0096539D01*
X0056495Y0098115D01*
X0056495Y0098115D01*
X0056495Y0096539D01*
X0056495Y0097719D02*
X0056495Y0097719D01*
X0054526Y0096539D02*
X0054526Y0096539D01*
X0054526Y0098115D01*
X0054526Y0098115D01*
X0054526Y0096539D01*
X0054526Y0097719D02*
X0054526Y0097719D01*
X0052558Y0096539D02*
X0052558Y0096539D01*
X0052558Y0098115D01*
X0052558Y0098115D01*
X0052558Y0096539D01*
X0052558Y0097719D02*
X0052558Y0097719D01*
X0050984Y0094965D02*
X0050984Y0094965D01*
X0049408Y0094965D01*
X0049408Y0094965D01*
X0050984Y0094965D01*
X0050984Y0092997D02*
X0050984Y0092997D01*
X0049408Y0092997D01*
X0049408Y0092997D01*
X0050984Y0092997D01*
X0050984Y0091028D02*
X0050984Y0091028D01*
X0049408Y0091028D01*
X0049408Y0091028D01*
X0050984Y0091028D01*
X0050984Y0089060D02*
X0050984Y0089060D01*
X0049408Y0089060D01*
X0049408Y0089060D01*
X0050984Y0089060D01*
X0050984Y0087091D02*
X0050984Y0087091D01*
X0049408Y0087091D01*
X0049408Y0087091D01*
X0050984Y0087091D01*
X0050984Y0085123D02*
X0050984Y0085123D01*
X0049408Y0085123D01*
X0049408Y0085123D01*
X0050984Y0085123D01*
X0050984Y0083154D02*
X0050984Y0083154D01*
X0049408Y0083154D01*
X0049408Y0083154D01*
X0050984Y0083154D01*
X0050984Y0081186D02*
X0050984Y0081186D01*
X0049408Y0081186D01*
X0049408Y0081186D01*
X0050984Y0081186D01*
X0050984Y0079217D02*
X0050984Y0079217D01*
X0049408Y0079217D01*
X0049408Y0079217D01*
X0050984Y0079217D01*
X0050984Y0077249D02*
X0050984Y0077249D01*
X0049408Y0077249D01*
X0049408Y0077249D01*
X0050984Y0077249D01*
X0050984Y0075280D02*
X0050984Y0075280D01*
X0049408Y0075280D01*
X0049408Y0075280D01*
X0050984Y0075280D01*
X0050984Y0073312D02*
X0050984Y0073312D01*
X0049408Y0073312D01*
X0049408Y0073312D01*
X0050984Y0073312D01*
X0052558Y0071737D02*
X0052558Y0071737D01*
X0052558Y0070161D01*
X0052558Y0070161D01*
X0052558Y0071737D01*
X0052558Y0071341D02*
X0052558Y0071341D01*
X0054526Y0071737D02*
X0054526Y0071737D01*
X0054526Y0070161D01*
X0054526Y0070161D01*
X0054526Y0071737D01*
X0054526Y0071341D02*
X0054526Y0071341D01*
X0056495Y0071737D02*
X0056495Y0071737D01*
X0056495Y0070161D01*
X0056495Y0070161D01*
X0056495Y0071737D01*
X0056495Y0071341D02*
X0056495Y0071341D01*
X0058463Y0071737D02*
X0058463Y0071737D01*
X0058463Y0070161D01*
X0058463Y0070161D01*
X0058463Y0071737D01*
X0058463Y0071341D02*
X0058463Y0071341D01*
X0060432Y0071737D02*
X0060432Y0071737D01*
X0060432Y0070161D01*
X0060432Y0070161D01*
X0060432Y0071737D01*
X0060432Y0071341D02*
X0060432Y0071341D01*
X0062400Y0071737D02*
X0062400Y0071737D01*
X0062400Y0070161D01*
X0062400Y0070161D01*
X0062400Y0071737D01*
X0062400Y0071341D02*
X0062400Y0071341D01*
X0064369Y0071737D02*
X0064369Y0071737D01*
X0064369Y0070161D01*
X0064369Y0070161D01*
X0064369Y0071737D01*
X0064369Y0071341D02*
X0064369Y0071341D01*
X0066337Y0071737D02*
X0066337Y0071737D01*
X0066337Y0070161D01*
X0066337Y0070161D01*
X0066337Y0071737D01*
X0066337Y0071341D02*
X0066337Y0071341D01*
X0068306Y0071737D02*
X0068306Y0071737D01*
X0068306Y0070161D01*
X0068306Y0070161D01*
X0068306Y0071737D01*
X0068306Y0071341D02*
X0068306Y0071341D01*
X0070274Y0071737D02*
X0070274Y0071737D01*
X0070274Y0070161D01*
X0070274Y0070161D01*
X0070274Y0071737D01*
X0070274Y0071341D02*
X0070274Y0071341D01*
X0072243Y0071737D02*
X0072243Y0071737D01*
X0072243Y0070161D01*
X0072243Y0070161D01*
X0072243Y0071737D01*
X0072243Y0071341D02*
X0072243Y0071341D01*
X0074211Y0071737D02*
X0074211Y0071737D01*
X0074211Y0070161D01*
X0074211Y0070161D01*
X0074211Y0071737D01*
X0074211Y0071341D02*
X0074211Y0071341D01*
X0073707Y3862141D02*
X0073707Y3862141D01*
X0073707Y3860565D01*
X0073707Y3860565D01*
X0073707Y3862141D01*
X0073707Y3861745D02*
X0073707Y3861745D01*
X0075675Y3862141D02*
X0075675Y3862141D01*
X0075675Y3860565D01*
X0075675Y3860565D01*
X0075675Y3862141D01*
X0075675Y3861745D02*
X0075675Y3861745D01*
X0077644Y3862141D02*
X0077644Y3862141D01*
X0077644Y3860565D01*
X0077644Y3860565D01*
X0077644Y3862141D01*
X0077644Y3861745D02*
X0077644Y3861745D01*
X0079612Y3860565D02*
X0079612Y3860565D01*
X0079612Y3862141D01*
X0079612Y3862141D01*
X0079612Y3860565D01*
X0079612Y3861745D02*
X0079612Y3861745D01*
X0081581Y3860565D02*
X0081581Y3860565D01*
X0081581Y3862141D01*
X0081581Y3862141D01*
X0081581Y3860565D01*
X0081581Y3861745D02*
X0081581Y3861745D01*
X0083549Y3860565D02*
X0083549Y3860565D01*
X0083549Y3862141D01*
X0083549Y3862141D01*
X0083549Y3860565D01*
X0083549Y3861745D02*
X0083549Y3861745D01*
X0085518Y3860565D02*
X0085518Y3860565D01*
X0085518Y3862141D01*
X0085518Y3862141D01*
X0085518Y3860565D01*
X0085518Y3861745D02*
X0085518Y3861745D01*
X0087486Y3862141D02*
X0087486Y3862141D01*
X0087486Y3860565D01*
X0087486Y3860565D01*
X0087486Y3862141D01*
X0087486Y3861745D02*
X0087486Y3861745D01*
X0089455Y3862141D02*
X0089455Y3862141D01*
X0089455Y3860565D01*
X0089455Y3860565D01*
X0089455Y3862141D01*
X0089455Y3861745D02*
X0089455Y3861745D01*
X0091423Y3862141D02*
X0091423Y3862141D01*
X0091423Y3860565D01*
X0091423Y3860565D01*
X0091423Y3862141D01*
X0091423Y3861745D02*
X0091423Y3861745D01*
X0093392Y3862141D02*
X0093392Y3862141D01*
X0093392Y3860565D01*
X0093392Y3860565D01*
X0093392Y3862141D01*
X0093392Y3861745D02*
X0093392Y3861745D01*
X0094966Y3863715D02*
X0094966Y3863715D01*
X0096542Y3863715D01*
X0096542Y3863715D01*
X0094966Y3863715D01*
X0094966Y3865684D02*
X0094966Y3865684D01*
X0096542Y3865684D01*
X0096542Y3865684D01*
X0094966Y3865684D01*
X0094966Y3867652D02*
X0094966Y3867652D01*
X0096542Y3867652D01*
X0096542Y3867652D01*
X0094966Y3867652D01*
X0094966Y3869621D02*
X0094966Y3869621D01*
X0096542Y3869621D01*
X0096542Y3869621D01*
X0094966Y3869621D01*
X0094966Y3871589D02*
X0094966Y3871589D01*
X0096542Y3871589D01*
X0096542Y3871589D01*
X0094966Y3871589D01*
X0094966Y3873558D02*
X0094966Y3873558D01*
X0096542Y3873558D01*
X0096542Y3873558D01*
X0094966Y3873558D01*
X0094966Y3875526D02*
X0094966Y3875526D01*
X0096542Y3875526D01*
X0096542Y3875526D01*
X0094966Y3875526D01*
X0094966Y3877495D02*
X0094966Y3877495D01*
X0096542Y3877495D01*
X0096542Y3877495D01*
X0094966Y3877495D01*
X0094966Y3879463D02*
X0094966Y3879463D01*
X0096542Y3879463D01*
X0096542Y3879463D01*
X0094966Y3879463D01*
X0094966Y3881432D02*
X0094966Y3881432D01*
X0096542Y3881432D01*
X0096542Y3881432D01*
X0094966Y3881432D01*
X0094966Y3883400D02*
X0094966Y3883400D01*
X0096542Y3883400D01*
X0096542Y3883400D01*
X0094966Y3883400D01*
X0094966Y3885369D02*
X0094966Y3885369D01*
X0096542Y3885369D01*
X0096542Y3885369D01*
X0094966Y3885369D01*
X0093392Y3886943D02*
X0093392Y3886943D01*
X0093392Y3888519D01*
X0093392Y3888519D01*
X0093392Y3886943D01*
X0093392Y3888123D02*
X0093392Y3888123D01*
X0091423Y3886943D02*
X0091423Y3886943D01*
X0091423Y3888519D01*
X0091423Y3888519D01*
X0091423Y3886943D01*
X0091423Y3888123D02*
X0091423Y3888123D01*
X0089455Y3886943D02*
X0089455Y3886943D01*
X0089455Y3888519D01*
X0089455Y3888519D01*
X0089455Y3886943D01*
X0089455Y3888123D02*
X0089455Y3888123D01*
X0087486Y3886943D02*
X0087486Y3886943D01*
X0087486Y3888519D01*
X0087486Y3888519D01*
X0087486Y3886943D01*
X0087486Y3888123D02*
X0087486Y3888123D01*
X0085518Y3886943D02*
X0085518Y3886943D01*
X0085518Y3888519D01*
X0085518Y3888519D01*
X0085518Y3886943D01*
X0085518Y3888123D02*
X0085518Y3888123D01*
X0083549Y3886943D02*
X0083549Y3886943D01*
X0083549Y3888519D01*
X0083549Y3888519D01*
X0083549Y3886943D01*
X0083549Y3888123D02*
X0083549Y3888123D01*
X0081581Y3886943D02*
X0081581Y3886943D01*
X0081581Y3888519D01*
X0081581Y3888519D01*
X0081581Y3886943D01*
X0081581Y3888123D02*
X0081581Y3888123D01*
X0079612Y3886943D02*
X0079612Y3886943D01*
X0079612Y3888519D01*
X0079612Y3888519D01*
X0079612Y3886943D01*
X0079612Y3888123D02*
X0079612Y3888123D01*
X0077644Y3886943D02*
X0077644Y3886943D01*
X0077644Y3888519D01*
X0077644Y3888519D01*
X0077644Y3886943D01*
X0077644Y3888123D02*
X0077644Y3888123D01*
X0075675Y3886943D02*
X0075675Y3886943D01*
X0075675Y3888519D01*
X0075675Y3888519D01*
X0075675Y3886943D01*
X0075675Y3888123D02*
X0075675Y3888123D01*
X0073707Y3886943D02*
X0073707Y3886943D01*
X0073707Y3888519D01*
X0073707Y3888519D01*
X0073707Y3886943D01*
X0073707Y3888123D02*
X0073707Y3888123D01*
X0071738Y3886943D02*
X0071738Y3886943D01*
X0071738Y3888519D01*
X0071738Y3888519D01*
X0071738Y3886943D01*
X0071738Y3888123D02*
X0071738Y3888123D01*
X0070164Y3885369D02*
X0070164Y3885369D01*
X0068588Y3885369D01*
X0068588Y3885369D01*
X0070164Y3885369D01*
X0070164Y3883400D02*
X0070164Y3883400D01*
X0068588Y3883400D01*
X0068588Y3883400D01*
X0070164Y3883400D01*
X0070164Y3881432D02*
X0070164Y3881432D01*
X0068588Y3881432D01*
X0068588Y3881432D01*
X0070164Y3881432D01*
X0070164Y3879463D02*
X0070164Y3879463D01*
X0068588Y3879463D01*
X0068588Y3879463D01*
X0070164Y3879463D01*
X0070164Y3877495D02*
X0070164Y3877495D01*
X0068588Y3877495D01*
X0068588Y3877495D01*
X0070164Y3877495D01*
X0070164Y3875526D02*
X0070164Y3875526D01*
X0068588Y3875526D01*
X0068588Y3875526D01*
X0070164Y3875526D01*
X0070164Y3873558D02*
X0070164Y3873558D01*
X0068588Y3873558D01*
X0068588Y3873558D01*
X0070164Y3873558D01*
X0070164Y3871589D02*
X0070164Y3871589D01*
X0068588Y3871589D01*
X0068588Y3871589D01*
X0070164Y3871589D01*
X0070164Y3869621D02*
X0070164Y3869621D01*
X0068588Y3869621D01*
X0068588Y3869621D01*
X0070164Y3869621D01*
X0070164Y3867652D02*
X0070164Y3867652D01*
X0068588Y3867652D01*
X0068588Y3867652D01*
X0070164Y3867652D01*
X0070164Y3865684D02*
X0070164Y3865684D01*
X0068588Y3865684D01*
X0068588Y3865684D01*
X0070164Y3865684D01*
X0070164Y3863715D02*
X0070164Y3863715D01*
X0068588Y3863715D01*
X0068588Y3863715D01*
X0070164Y3863715D01*
X0071738Y3862141D02*
X0071738Y3862141D01*
X0071738Y3860565D01*
X0071738Y3860565D01*
X0071738Y3862141D01*
X0071738Y3861745D02*
X0071738Y3861745D01*
X3864259Y3861189D02*
X3864259Y3861189D01*
X3862683Y3861189D01*
X3862683Y3861189D01*
X3864259Y3861189D01*
X3862683Y3859221D02*
X3862683Y3859221D01*
X3864259Y3859221D01*
X3864259Y3859221D01*
X3862683Y3859221D01*
X3862683Y3857252D02*
X3862683Y3857252D01*
X3864259Y3857252D01*
X3864259Y3857252D01*
X3862683Y3857252D01*
X3862683Y3855284D02*
X3862683Y3855284D01*
X3864259Y3855284D01*
X3864259Y3855284D01*
X3862683Y3855284D01*
X3862683Y3853315D02*
X3862683Y3853315D01*
X3864259Y3853315D01*
X3864259Y3853315D01*
X3862683Y3853315D01*
X3864259Y3851347D02*
X3864259Y3851347D01*
X3862683Y3851347D01*
X3862683Y3851347D01*
X3864259Y3851347D01*
X3864259Y3849378D02*
X3864259Y3849378D01*
X3862683Y3849378D01*
X3862683Y3849378D01*
X3864259Y3849378D01*
X3864259Y3847410D02*
X3864259Y3847410D01*
X3862683Y3847410D01*
X3862683Y3847410D01*
X3864259Y3847410D01*
X3864259Y3845441D02*
X3864259Y3845441D01*
X3862683Y3845441D01*
X3862683Y3845441D01*
X3864259Y3845441D01*
X3865833Y3843867D02*
X3865833Y3843867D01*
X3865833Y3842291D01*
X3865833Y3842291D01*
X3865833Y3843867D01*
X3865833Y3843471D02*
X3865833Y3843471D01*
X3867802Y3843867D02*
X3867802Y3843867D01*
X3867802Y3842291D01*
X3867802Y3842291D01*
X3867802Y3843867D01*
X3867802Y3843471D02*
X3867802Y3843471D01*
X3869770Y3843867D02*
X3869770Y3843867D01*
X3869770Y3842291D01*
X3869770Y3842291D01*
X3869770Y3843867D01*
X3869770Y3843471D02*
X3869770Y3843471D01*
X3871739Y3843867D02*
X3871739Y3843867D01*
X3871739Y3842291D01*
X3871739Y3842291D01*
X3871739Y3843867D01*
X3871739Y3843471D02*
X3871739Y3843471D01*
X3873707Y3843867D02*
X3873707Y3843867D01*
X3873707Y3842291D01*
X3873707Y3842291D01*
X3873707Y3843867D01*
X3873707Y3843471D02*
X3873707Y3843471D01*
X3875676Y3843867D02*
X3875676Y3843867D01*
X3875676Y3842291D01*
X3875676Y3842291D01*
X3875676Y3843867D01*
X3875676Y3843471D02*
X3875676Y3843471D01*
X3877644Y3843867D02*
X3877644Y3843867D01*
X3877644Y3842291D01*
X3877644Y3842291D01*
X3877644Y3843867D01*
X3877644Y3843471D02*
X3877644Y3843471D01*
X3879613Y3843867D02*
X3879613Y3843867D01*
X3879613Y3842291D01*
X3879613Y3842291D01*
X3879613Y3843867D01*
X3879613Y3843471D02*
X3879613Y3843471D01*
X3881581Y3843867D02*
X3881581Y3843867D01*
X3881581Y3842291D01*
X3881581Y3842291D01*
X3881581Y3843867D01*
X3881581Y3843471D02*
X3881581Y3843471D01*
X3883550Y3843867D02*
X3883550Y3843867D01*
X3883550Y3842291D01*
X3883550Y3842291D01*
X3883550Y3843867D01*
X3883550Y3843471D02*
X3883550Y3843471D01*
X3885518Y3843867D02*
X3885518Y3843867D01*
X3885518Y3842291D01*
X3885518Y3842291D01*
X3885518Y3843867D01*
X3885518Y3843471D02*
X3885518Y3843471D01*
X3887487Y3843867D02*
X3887487Y3843867D01*
X3887487Y3842291D01*
X3887487Y3842291D01*
X3887487Y3843867D01*
X3887487Y3843471D02*
X3887487Y3843471D01*
X3889061Y3845441D02*
X3889061Y3845441D01*
X3890637Y3845441D01*
X3890637Y3845441D01*
X3889061Y3845441D01*
X3889061Y3847410D02*
X3889061Y3847410D01*
X3890637Y3847410D01*
X3890637Y3847410D01*
X3889061Y3847410D01*
X3889061Y3849378D02*
X3889061Y3849378D01*
X3890637Y3849378D01*
X3890637Y3849378D01*
X3889061Y3849378D01*
X3889061Y3851347D02*
X3889061Y3851347D01*
X3890637Y3851347D01*
X3890637Y3851347D01*
X3889061Y3851347D01*
X3889061Y3853315D02*
X3889061Y3853315D01*
X3890637Y3853315D01*
X3890637Y3853315D01*
X3889061Y3853315D01*
X3889061Y3855284D02*
X3889061Y3855284D01*
X3890637Y3855284D01*
X3890637Y3855284D01*
X3889061Y3855284D01*
X3889061Y3857252D02*
X3889061Y3857252D01*
X3890637Y3857252D01*
X3890637Y3857252D01*
X3889061Y3857252D01*
X3889061Y3859221D02*
X3889061Y3859221D01*
X3890637Y3859221D01*
X3890637Y3859221D01*
X3889061Y3859221D01*
X3889061Y3861189D02*
X3889061Y3861189D01*
X3890637Y3861189D01*
X3890637Y3861189D01*
X3889061Y3861189D01*
X3889061Y3863158D02*
X3889061Y3863158D01*
X3890637Y3863158D01*
X3890637Y3863158D01*
X3889061Y3863158D01*
X3889061Y3865126D02*
X3889061Y3865126D01*
X3890637Y3865126D01*
X3890637Y3865126D01*
X3889061Y3865126D01*
X3889061Y3867095D02*
X3889061Y3867095D01*
X3890637Y3867095D01*
X3890637Y3867095D01*
X3889061Y3867095D01*
X3887487Y3868669D02*
X3887487Y3868669D01*
X3887487Y3870245D01*
X3887487Y3870245D01*
X3887487Y3868669D01*
X3887487Y3869849D02*
X3887487Y3869849D01*
X3885518Y3868669D02*
X3885518Y3868669D01*
X3885518Y3870245D01*
X3885518Y3870245D01*
X3885518Y3868669D01*
X3885518Y3869849D02*
X3885518Y3869849D01*
X3883550Y3868669D02*
X3883550Y3868669D01*
X3883550Y3870245D01*
X3883550Y3870245D01*
X3883550Y3868669D01*
X3883550Y3869849D02*
X3883550Y3869849D01*
X3881581Y3868669D02*
X3881581Y3868669D01*
X3881581Y3870245D01*
X3881581Y3870245D01*
X3881581Y3868669D01*
X3881581Y3869849D02*
X3881581Y3869849D01*
X3879613Y3868669D02*
X3879613Y3868669D01*
X3879613Y3870245D01*
X3879613Y3870245D01*
X3879613Y3868669D01*
X3879613Y3869849D02*
X3879613Y3869849D01*
X3877644Y3868669D02*
X3877644Y3868669D01*
X3877644Y3870245D01*
X3877644Y3870245D01*
X3877644Y3868669D01*
X3877644Y3869849D02*
X3877644Y3869849D01*
X3875676Y3868669D02*
X3875676Y3868669D01*
X3875676Y3870245D01*
X3875676Y3870245D01*
X3875676Y3868669D01*
X3875676Y3869849D02*
X3875676Y3869849D01*
X3873707Y3868669D02*
X3873707Y3868669D01*
X3873707Y3870245D01*
X3873707Y3870245D01*
X3873707Y3868669D01*
X3873707Y3869849D02*
X3873707Y3869849D01*
X3871739Y3868669D02*
X3871739Y3868669D01*
X3871739Y3870245D01*
X3871739Y3870245D01*
X3871739Y3868669D01*
X3871739Y3869849D02*
X3871739Y3869849D01*
X3869770Y3868669D02*
X3869770Y3868669D01*
X3869770Y3870245D01*
X3869770Y3870245D01*
X3869770Y3868669D01*
X3869770Y3869849D02*
X3869770Y3869849D01*
X3867802Y3868669D02*
X3867802Y3868669D01*
X3867802Y3870245D01*
X3867802Y3870245D01*
X3867802Y3868669D01*
X3867802Y3869849D02*
X3867802Y3869849D01*
X3865833Y3868669D02*
X3865833Y3868669D01*
X3865833Y3870245D01*
X3865833Y3870245D01*
X3865833Y3868669D01*
X3865833Y3869849D02*
X3865833Y3869849D01*
X3864259Y3867095D02*
X3864259Y3867095D01*
X3862683Y3867095D01*
X3862683Y3867095D01*
X3864259Y3867095D01*
X3864259Y3865126D02*
X3864259Y3865126D01*
X3862683Y3865126D01*
X3862683Y3865126D01*
X3864259Y3865126D01*
X3864259Y3863158D02*
X3864259Y3863158D01*
X3862683Y3863158D01*
X3862683Y3863158D01*
X3864259Y3863158D01*
D21*
X3837748Y0112472D03*
X0103068Y3824730D03*
D22*
X0103068Y3743825D03*
X3837748Y0193377D03*
D23*
X3841676Y0091872D03*
X3847976Y0091872D03*
X3847976Y0083211D03*
X3841676Y0083211D03*
X0099140Y3845329D03*
X0092841Y3845329D03*
X0092841Y3853991D03*
X0099140Y3853991D03*
D24*
X0146182Y3852941D03*
X0084986Y0147756D03*
X3794634Y0084261D03*
X3855059Y3792651D03*
D25*
X3862933Y3767060D03*
X3870807Y3767060D03*
X3878681Y3767060D03*
X3886555Y3767060D03*
X3894429Y3767060D03*
X3902303Y3767060D03*
X3910177Y3767060D03*
X3918051Y3767060D03*
X3925925Y3767060D03*
X3925925Y3743438D03*
X3918051Y3743438D03*
X3910177Y3743438D03*
X3902303Y3743438D03*
X3894429Y3743438D03*
X3886555Y3743438D03*
X3878681Y3743438D03*
X3870807Y3743438D03*
X3862933Y3743438D03*
X3855059Y3743438D03*
X3745421Y0084261D03*
X3745421Y0076387D03*
X3745421Y0068513D03*
X3745421Y0060639D03*
X3745421Y0052765D03*
X3745421Y0044891D03*
X3745421Y0037017D03*
X3745421Y0029143D03*
X3745421Y0021269D03*
X3745421Y0013395D03*
X3769043Y0013395D03*
X3769043Y0021269D03*
X3769043Y0029143D03*
X3769043Y0037017D03*
X3769043Y0044891D03*
X3769043Y0052765D03*
X3769043Y0060639D03*
X3769043Y0068513D03*
X3769043Y0076387D03*
X0084986Y0196968D03*
X0077112Y0196968D03*
X0069238Y0196968D03*
X0061364Y0196968D03*
X0053490Y0196968D03*
X0045616Y0196968D03*
X0037742Y0196968D03*
X0029868Y0196968D03*
X0021994Y0196968D03*
X0014120Y0196968D03*
X0014120Y0173346D03*
X0021994Y0173346D03*
X0029868Y0173346D03*
X0037742Y0173346D03*
X0045616Y0173346D03*
X0053490Y0173346D03*
X0061364Y0173346D03*
X0069238Y0173346D03*
X0077112Y0173346D03*
X0195395Y3852941D03*
X0195395Y3860815D03*
X0195395Y3868689D03*
X0195395Y3876563D03*
X0195395Y3884437D03*
X0195395Y3892311D03*
X0195395Y3900185D03*
X0195395Y3908059D03*
X0195395Y3915933D03*
X0195395Y3923807D03*
X0171773Y3923807D03*
X0171773Y3915933D03*
X0171773Y3908059D03*
X0171773Y3900185D03*
X0171773Y3892311D03*
X0171773Y3884437D03*
X0171773Y3876563D03*
X0171773Y3868689D03*
X0171773Y3860815D03*
D26*
X0128623Y3840175D03*
X3812193Y0097027D03*
D27*
X3814949Y0098700D03*
X3809437Y0098700D03*
X0131379Y3838501D03*
X0125867Y3838501D03*
D28*
X0128623Y3835942D03*
X0101984Y0130197D03*
X3812193Y0101259D03*
X3838061Y3810210D03*
D29*
X3882747Y0099194D03*
X3885306Y0099194D03*
X3887865Y0099194D03*
X3890424Y0099194D03*
X3890424Y0083643D03*
X3887865Y0083643D03*
X3885306Y0083643D03*
X3882747Y0083643D03*
X0058070Y3838008D03*
X0055511Y3838008D03*
X0052952Y3838008D03*
X0050393Y3838008D03*
X0050393Y3853559D03*
X0052952Y3853559D03*
X0055511Y3853559D03*
X0058070Y3853559D03*
D30*
X0042590Y3848558D03*
X0042590Y3841471D03*
X0025213Y3839783D03*
X0025213Y3846870D03*
X3898227Y0095731D03*
X3898227Y0088644D03*
X3915604Y0090332D03*
X3915604Y0097419D03*
D31*
X3910324Y0077781D03*
X3910324Y0076206D03*
X3910324Y0074631D03*
X3910324Y0073056D03*
X3910324Y0071481D03*
X3910324Y0069907D03*
X3910324Y0068332D03*
X3910324Y0066757D03*
X3910324Y0065182D03*
X3910324Y0063607D03*
X0030492Y3859421D03*
X0030492Y3860996D03*
X0030492Y3862571D03*
X0030492Y3864146D03*
X0030492Y3865720D03*
X0030492Y3867295D03*
X0030492Y3868870D03*
X0030492Y3870445D03*
X0030492Y3872020D03*
X0030492Y3873594D03*
D32*
X0025669Y3872807D03*
X0025669Y3871232D03*
X0025669Y3869657D03*
X0025669Y3868083D03*
X0025669Y3866508D03*
X0025669Y3864933D03*
X0025669Y3863358D03*
X0025669Y3861783D03*
X0025669Y3860209D03*
X3915147Y0076993D03*
X3915147Y0075418D03*
X3915147Y0073844D03*
X3915147Y0072269D03*
X3915147Y0070694D03*
X3915147Y0069119D03*
X3915147Y0067544D03*
X3915147Y0065970D03*
X3915147Y0064395D03*
D33*
X3915895Y0059474D03*
X3915895Y0081915D03*
X0024921Y3855287D03*
X0024921Y3877728D03*
D34*
X0011693Y3877728D03*
X0011693Y3855287D03*
X3929123Y0081915D03*
X3929123Y0059474D03*
D35*
X3877487Y3801740D03*
X3867644Y3801740D03*
X0072400Y0138666D03*
X0062558Y0138666D03*
D36*
X0071534Y0105359D03*
X0071534Y0103390D03*
X0071534Y0101422D03*
X0074684Y0101422D03*
X0074684Y0103390D03*
X0074684Y0105359D03*
X3865361Y3835047D03*
X3865361Y3837016D03*
X3865361Y3838984D03*
X3868511Y3838984D03*
X3868511Y3837016D03*
X3868511Y3835047D03*
D37*
X3826848Y3835765D03*
X0113197Y0104641D03*
D38*
X0194102Y0104641D03*
X3745943Y3835765D03*
D39*
X3847448Y3839693D03*
X3847448Y3845992D03*
X3856109Y3845992D03*
X3856109Y3839693D03*
X0092597Y0100713D03*
X0092597Y0094414D03*
X0083936Y0094414D03*
X0083936Y0100713D03*
D40*
X0097752Y0130197D03*
X3842293Y3810210D03*
D41*
X3840620Y3812966D03*
X3840620Y3807454D03*
X0099425Y0132953D03*
X0099425Y0127441D03*
D42*
X0099919Y0059643D03*
X0099919Y0057084D03*
X0099919Y0054525D03*
X0099919Y0051966D03*
X0084368Y0051966D03*
X0084368Y0054525D03*
X0084368Y0057084D03*
X0084368Y0059643D03*
X3840126Y3880763D03*
X3840126Y3883322D03*
X3840126Y3885881D03*
X3840126Y3888440D03*
X3855677Y3888440D03*
X3855677Y3885881D03*
X3855677Y3883322D03*
X3855677Y3880763D03*
D43*
X3850676Y3896243D03*
X3843589Y3896243D03*
X3841901Y3913620D03*
X3848988Y3913620D03*
X0096455Y0044163D03*
X0089369Y0044163D03*
X0091057Y0026786D03*
X0098144Y0026786D03*
D44*
X0078506Y0032065D03*
X0076931Y0032065D03*
X0075356Y0032065D03*
X0073781Y0032065D03*
X0072206Y0032065D03*
X0070632Y0032065D03*
X0069057Y0032065D03*
X0067482Y0032065D03*
X0065907Y0032065D03*
X0064332Y0032065D03*
X3861539Y3908341D03*
X3863114Y3908341D03*
X3864689Y3908341D03*
X3866264Y3908341D03*
X3867838Y3908341D03*
X3869413Y3908341D03*
X3870988Y3908341D03*
X3872563Y3908341D03*
X3874138Y3908341D03*
X3875712Y3908341D03*
D45*
X3874925Y3913164D03*
X3873350Y3913164D03*
X3871775Y3913164D03*
X3870201Y3913164D03*
X3868626Y3913164D03*
X3867051Y3913164D03*
X3865476Y3913164D03*
X3863901Y3913164D03*
X3862327Y3913164D03*
X0077718Y0027243D03*
X0076143Y0027243D03*
X0074569Y0027243D03*
X0072994Y0027243D03*
X0071419Y0027243D03*
X0069844Y0027243D03*
X0068269Y0027243D03*
X0066695Y0027243D03*
X0065120Y0027243D03*
D46*
X0060198Y0026495D03*
X0082639Y0026495D03*
X3857405Y3913912D03*
X3879846Y3913912D03*
D47*
X3879846Y3927140D03*
X3857405Y3927140D03*
X0082639Y0013266D03*
X0060198Y0013266D03*
D48*
X0060198Y0026495D01*
X0060198Y0032721D01*
X0046456Y0046463D01*
X0046456Y0051186D01*
X0046475Y0051206D01*
X0044783Y0052898D01*
X0044783Y0068108D01*
X0044783Y0073226D02*
X0046837Y0075280D01*
X0050196Y0075280D01*
X0050196Y0073312D02*
X0050196Y0051019D01*
X0065907Y0035307D01*
X0065907Y0032065D01*
X0065907Y0030096D01*
X0066620Y0029383D01*
X0066620Y0029383D01*
X0066695Y0029308D01*
X0066695Y0027243D01*
X0065131Y0027253D02*
X0065120Y0027243D01*
X0065131Y0027253D02*
X0065131Y0029289D01*
X0064332Y0030087D01*
X0064332Y0032065D01*
X0064332Y0033154D01*
X0051235Y0046250D01*
X0052590Y0051215D02*
X0067482Y0036323D01*
X0067482Y0032065D01*
X0067482Y0030076D01*
X0068269Y0029289D01*
X0068269Y0027243D01*
X0069844Y0027243D02*
X0069844Y0029365D01*
X0069057Y0030152D01*
X0069057Y0032065D01*
X0069057Y0037447D01*
X0054526Y0051978D01*
X0054526Y0070949D01*
X0052558Y0070949D02*
X0052590Y0051215D01*
X0056462Y0052494D02*
X0070632Y0038325D01*
X0070632Y0032065D01*
X0070632Y0030133D01*
X0071419Y0029346D01*
X0071419Y0027243D01*
X0072994Y0027243D02*
X0072994Y0029351D01*
X0072206Y0030139D01*
X0072206Y0032065D01*
X0072206Y0039169D01*
X0058463Y0052912D01*
X0058463Y0070949D01*
X0056495Y0070949D02*
X0056462Y0052494D01*
X0061763Y0054129D02*
X0064598Y0056964D01*
X0067452Y0056964D01*
X0069094Y0058607D01*
X0069094Y0058805D01*
X0070274Y0059985D01*
X0070274Y0070949D01*
X0068306Y0070949D02*
X0068306Y0064098D01*
X0067213Y0063005D01*
X0066337Y0066666D02*
X0062971Y0062989D01*
X0066337Y0066666D02*
X0066337Y0070949D01*
X0068306Y0070949D02*
X0068306Y0069993D01*
X0072243Y0070949D02*
X0072243Y0057531D01*
X0071766Y0057054D01*
X0071766Y0056358D01*
X0069094Y0053686D01*
X0069094Y0053489D01*
X0067452Y0051846D01*
X0067465Y0051833D01*
X0067487Y0046065D01*
X0073781Y0039771D01*
X0073781Y0032065D01*
X0073781Y0030119D01*
X0074439Y0029462D01*
X0074439Y0029462D01*
X0074569Y0029332D01*
X0074569Y0027243D01*
X0076143Y0027243D02*
X0076143Y0029313D01*
X0075356Y0030100D01*
X0075356Y0032065D01*
X0075356Y0046779D01*
X0076613Y0048036D01*
X0071766Y0049082D02*
X0069970Y0046359D01*
X0071766Y0049082D02*
X0071766Y0051936D01*
X0075929Y0056099D02*
X0076047Y0056216D01*
X0076047Y0060902D01*
X0076574Y0061429D01*
X0081511Y0061429D01*
X0082359Y0062277D01*
X0082359Y0066406D01*
X0084941Y0068988D01*
X0087720Y0071833D02*
X0090260Y0069293D01*
X0087720Y0071833D02*
X0087720Y0074508D01*
X0082341Y0077919D02*
X0080865Y0079217D01*
X0076574Y0079217D01*
X0076574Y0081186D02*
X0080841Y0081153D01*
X0082388Y0082812D01*
X0085668Y0085831D02*
X0084448Y0087091D01*
X0076574Y0087091D01*
X0076574Y0089060D02*
X0087252Y0089087D01*
X0088933Y0087324D01*
X0088990Y0082265D01*
X0087720Y0081201D01*
X0094974Y0081201D01*
X0095478Y0080697D01*
X0095150Y0081508D01*
X0095417Y0081775D01*
X0095417Y0085006D01*
X0100550Y0089215D01*
X0100140Y0088933D02*
X0100140Y0093267D01*
X0099369Y0095972D02*
X0097325Y0093928D01*
X0097325Y0089903D01*
X0095432Y0089215D01*
X0099714Y0088548D02*
X0099992Y0088784D01*
X0100140Y0088933D01*
X0100550Y0089215D02*
X0100542Y0089162D01*
X0100530Y0089109D01*
X0100515Y0089057D01*
X0100496Y0089007D01*
X0100473Y0088958D01*
X0100447Y0088911D01*
X0100418Y0088865D01*
X0100385Y0088822D01*
X0100350Y0088782D01*
X0100311Y0088744D01*
X0100270Y0088709D01*
X0100227Y0088677D01*
X0100181Y0088648D01*
X0100134Y0088622D01*
X0100085Y0088600D01*
X0100034Y0088581D01*
X0099982Y0088566D01*
X0099929Y0088555D01*
X0099876Y0088548D01*
X0099822Y0088544D01*
X0099768Y0088545D01*
X0099714Y0088549D01*
X0100535Y0085006D02*
X0104607Y0081579D01*
X0104940Y0071793D02*
X0104883Y0071737D01*
X0113188Y0071775D02*
X0113197Y0104641D01*
X0099369Y0100713D02*
X0099369Y0095972D01*
X0092597Y0094414D02*
X0089211Y0091028D01*
X0076574Y0091028D01*
X0076574Y0092997D02*
X0078897Y0092997D01*
X0079698Y0093798D01*
X0079698Y0096476D01*
X0083936Y0100713D01*
X0083936Y0094414D02*
X0092597Y0100713D01*
X0092851Y0100713D01*
X0088246Y0105319D01*
X0088246Y0108819D01*
X0086846Y0110218D01*
X0082526Y0110218D01*
X0077666Y0105359D01*
X0074684Y0105359D01*
X0074684Y0103390D01*
X0074684Y0101422D02*
X0074684Y0097800D01*
X0074211Y0097327D01*
X0072243Y0097327D02*
X0071765Y0097805D01*
X0071765Y0098732D01*
X0071534Y0098963D01*
X0071534Y0101422D01*
X0070274Y0100031D02*
X0069748Y0100557D01*
X0069748Y0102287D01*
X0070852Y0103390D01*
X0071534Y0103390D01*
X0071534Y0105359D02*
X0071570Y0105359D01*
X0070274Y0100031D02*
X0070274Y0097327D01*
X0068306Y0097327D02*
X0068306Y0126658D01*
X0072479Y0130831D01*
X0072479Y0138587D01*
X0072400Y0138666D01*
X0066337Y0134886D02*
X0066337Y0131146D01*
X0066298Y0131186D01*
X0066337Y0131146D02*
X0066337Y0097327D01*
X0064369Y0097327D02*
X0064369Y0123574D01*
X0058902Y0129041D01*
X0058902Y0131526D01*
X0053739Y0136382D01*
X0058040Y0136357D02*
X0059721Y0134722D01*
X0059689Y0134750D01*
X0061180Y0133259D01*
X0061180Y0131186D01*
X0056259Y0130123D02*
X0056416Y0129335D01*
X0062400Y0123351D01*
X0062400Y0097327D01*
X0060432Y0097327D02*
X0060426Y0097293D01*
X0060426Y0121388D01*
X0056298Y0125516D01*
X0057751Y0122367D02*
X0058463Y0121654D01*
X0058463Y0097327D01*
X0056495Y0097327D02*
X0056495Y0116632D01*
X0055883Y0117243D01*
X0052406Y0117243D01*
X0047243Y0122406D01*
X0044211Y0122406D01*
X0043120Y0123175D01*
X0044750Y0125246D02*
X0037767Y0132229D01*
X0025176Y0132229D01*
X0025176Y0133922D02*
X0039273Y0133863D01*
X0043426Y0129644D01*
X0046303Y0129709D01*
X0046319Y0133922D01*
X0046633Y0133922D01*
X0047204Y0134493D01*
X0049314Y0134493D01*
X0051053Y0132754D01*
X0049482Y0125246D02*
X0044750Y0125246D01*
X0040354Y0125923D02*
X0036252Y0129945D01*
X0025294Y0129945D01*
X0023601Y0129945D02*
X0023601Y0122465D01*
X0028660Y0117406D01*
X0038621Y0117485D01*
X0038700Y0117564D01*
X0033091Y0114676D02*
X0031565Y0116202D01*
X0028167Y0116202D01*
X0026123Y0116202D01*
X0020215Y0122110D01*
X0020215Y0129945D01*
X0018522Y0129945D02*
X0018522Y0122190D01*
X0038582Y0100083D01*
X0033879Y0097495D02*
X0036574Y0094965D01*
X0050196Y0094965D01*
X0052558Y0097327D02*
X0048660Y0101225D01*
X0048660Y0103154D01*
X0053424Y0103272D02*
X0054526Y0103272D01*
X0054526Y0097327D01*
X0053936Y0108390D02*
X0053936Y0114768D01*
X0053936Y0108390D02*
X0053424Y0108390D01*
X0048660Y0108272D02*
X0044172Y0108272D01*
X0043621Y0108823D01*
X0038582Y0108995D02*
X0035153Y0108995D01*
X0033081Y0110603D01*
X0031262Y0106330D02*
X0017071Y0121549D01*
X0017091Y0129684D01*
X0016830Y0129945D01*
X0016383Y0130392D01*
X0016383Y0130997D01*
X0016149Y0131231D01*
X0015817Y0131231D01*
X0015583Y0130997D01*
X0015583Y0130392D01*
X0015137Y0129945D01*
X0015045Y0130038D01*
X0015045Y0131548D01*
X0014810Y0131782D01*
X0014008Y0131782D01*
X0013562Y0132229D01*
X0014008Y0132675D01*
X0014810Y0132675D01*
X0015045Y0132910D01*
X0015045Y0133241D01*
X0014810Y0133475D01*
X0014008Y0133475D01*
X0013562Y0133922D01*
X0014008Y0134368D01*
X0014810Y0134368D01*
X0015045Y0134603D01*
X0015045Y0134934D01*
X0014810Y0135168D01*
X0014008Y0135168D01*
X0013562Y0135615D01*
X0014008Y0136061D01*
X0014810Y0136061D01*
X0015045Y0136295D01*
X0015045Y0136627D01*
X0014810Y0136861D01*
X0014008Y0136861D01*
X0013562Y0137308D01*
X0015137Y0139591D02*
X0014875Y0139853D01*
X0014875Y0140850D01*
X0014348Y0141377D01*
X0012539Y0141377D01*
X0011776Y0140613D01*
X0011776Y0088483D01*
X0015137Y0085123D01*
X0050196Y0085123D01*
X0050196Y0083154D02*
X0015408Y0083154D01*
X0010576Y0087986D01*
X0010576Y0141111D01*
X0012042Y0142577D01*
X0014845Y0142577D01*
X0016568Y0140854D01*
X0016568Y0139853D01*
X0016830Y0139591D01*
X0019954Y0139853D02*
X0019954Y0140850D01*
X0017027Y0143777D01*
X0011545Y0143777D01*
X0009376Y0141608D01*
X0009376Y0087489D01*
X0015680Y0081186D01*
X0050196Y0081186D01*
X0050196Y0077249D02*
X0038269Y0077271D01*
X0037483Y0078505D01*
X0031235Y0088321D02*
X0031262Y0106330D01*
X0028167Y0116202D02*
X0027815Y0116554D01*
X0027464Y0116900D01*
X0027464Y0116905D01*
X0021908Y0122461D01*
X0021908Y0129945D01*
X0025176Y0135615D02*
X0041830Y0135615D01*
X0043201Y0134311D01*
X0047204Y0139611D02*
X0047184Y0139630D01*
X0026692Y0139591D01*
X0026692Y0138218D01*
X0026228Y0137754D01*
X0025622Y0137754D01*
X0025176Y0137308D01*
X0025294Y0139591D02*
X0024848Y0140038D01*
X0024848Y0140839D01*
X0024613Y0141074D01*
X0024282Y0141074D01*
X0022589Y0141074D01*
X0022355Y0140839D01*
X0022355Y0140038D01*
X0021908Y0139591D01*
X0020215Y0139591D02*
X0019954Y0139853D01*
X0023601Y0139591D02*
X0024048Y0140038D01*
X0024048Y0140839D01*
X0024282Y0141074D01*
X0025294Y0139591D02*
X0026692Y0139591D01*
X0015137Y0129945D02*
X0014690Y0129499D01*
X0014690Y0128697D01*
X0014456Y0128463D01*
X0014124Y0128463D01*
X0013890Y0128697D01*
X0013890Y0129499D01*
X0013444Y0129945D01*
X0049482Y0125246D02*
X0052361Y0122367D01*
X0057751Y0122367D01*
X0066337Y0134886D02*
X0062558Y0138666D01*
X0085149Y0142237D02*
X0085224Y0141864D01*
X0094442Y0130197D02*
X0093614Y0129369D01*
X0093614Y0120664D01*
X0086921Y0120664D02*
X0086628Y0120958D01*
X0085328Y0122257D01*
X0094442Y0130197D02*
X0097752Y0130197D01*
X0099425Y0132953D02*
X0101984Y0132953D01*
X0101984Y0130197D01*
X0101984Y0127441D01*
X0099425Y0127441D01*
X0085857Y0107829D02*
X0081834Y0107829D01*
X0076574Y0102569D01*
X0076574Y0094965D01*
X0063385Y0084138D02*
X0066337Y0081186D01*
X0076574Y0073312D02*
X0076574Y0072237D01*
X0079823Y0068988D01*
X0079884Y0068927D01*
X0079884Y0064224D01*
X0075471Y0064808D02*
X0074211Y0066067D01*
X0074211Y0070949D01*
X0085790Y0064224D02*
X0090243Y0065436D01*
X0087720Y0081201D02*
X0088098Y0081579D01*
X0089313Y0044219D02*
X0089369Y0044163D01*
X0089313Y0044219D02*
X0085396Y0044219D01*
X0078506Y0037328D01*
X0078506Y0032065D01*
X0081004Y0032065D01*
X0082639Y0030431D01*
X0082639Y0026495D01*
X0082931Y0026786D01*
X0091057Y0026786D01*
X0098144Y0026786D02*
X0098144Y0036875D01*
X0099113Y0037844D01*
X0082639Y0026495D02*
X0082639Y0013266D01*
X0077718Y0027243D02*
X0077730Y0027255D01*
X0077730Y0029282D01*
X0076931Y0030081D01*
X0076931Y0032065D01*
X0076931Y0040251D01*
X0078952Y0042272D01*
X3798613Y0016302D02*
X3798613Y0010820D01*
X3800782Y0008651D01*
X3854901Y0008651D01*
X3861204Y0014955D01*
X3861204Y0049471D01*
X3859235Y0049471D02*
X3859235Y0014683D01*
X3854403Y0009851D01*
X3801279Y0009851D01*
X3799813Y0011317D01*
X3799813Y0014120D01*
X3801536Y0015843D01*
X3802537Y0015843D01*
X3802798Y0016105D01*
X3802798Y0014412D02*
X3802537Y0014150D01*
X3801540Y0014150D01*
X3801013Y0013623D01*
X3801013Y0011815D01*
X3801776Y0011051D01*
X3853906Y0011051D01*
X3857267Y0014412D01*
X3857267Y0049471D01*
X3865141Y0049471D02*
X3865119Y0037544D01*
X3863884Y0036758D01*
X3869164Y0044058D02*
X3867110Y0046112D01*
X3867110Y0049471D01*
X3869078Y0049471D02*
X3891371Y0049471D01*
X3907082Y0065182D01*
X3910324Y0065182D01*
X3912294Y0065182D01*
X3913007Y0065895D01*
X3913081Y0065970D01*
X3915147Y0065970D01*
X3915136Y0064406D02*
X3915147Y0064395D01*
X3915136Y0064406D02*
X3913101Y0064406D01*
X3912303Y0063607D01*
X3910324Y0063607D01*
X3909236Y0063607D01*
X3896139Y0050510D01*
X3895926Y0045731D02*
X3891203Y0045731D01*
X3891184Y0045750D01*
X3889491Y0044058D01*
X3874282Y0044058D01*
X3871440Y0051833D02*
X3891175Y0051865D01*
X3906066Y0066757D01*
X3910324Y0066757D01*
X3912313Y0066757D01*
X3913100Y0067544D01*
X3915147Y0067544D01*
X3915147Y0069119D02*
X3913024Y0069119D01*
X3912237Y0068332D01*
X3910324Y0068332D01*
X3904942Y0068332D01*
X3890412Y0053802D01*
X3871440Y0053802D01*
X3871440Y0055770D02*
X3889895Y0055738D01*
X3904065Y0069907D01*
X3910324Y0069907D01*
X3912256Y0069907D01*
X3913044Y0070694D01*
X3915147Y0070694D01*
X3915147Y0072269D02*
X3913038Y0072269D01*
X3912251Y0071481D01*
X3910324Y0071481D01*
X3903221Y0071481D01*
X3889478Y0057739D01*
X3871440Y0057739D01*
X3871440Y0065613D02*
X3875724Y0065613D01*
X3879401Y0062246D01*
X3879385Y0066488D02*
X3878291Y0067581D01*
X3871440Y0067581D01*
X3872396Y0067581D01*
X3871440Y0069550D02*
X3882405Y0069550D01*
X3883585Y0068369D01*
X3883783Y0068369D01*
X3885426Y0066727D01*
X3885426Y0063873D01*
X3888260Y0061038D01*
X3890544Y0066727D02*
X3890557Y0066740D01*
X3896324Y0066762D01*
X3902618Y0073056D01*
X3910324Y0073056D01*
X3912270Y0073056D01*
X3912928Y0073714D01*
X3913058Y0073844D01*
X3915147Y0073844D01*
X3915147Y0075418D02*
X3913077Y0075418D01*
X3912289Y0074631D01*
X3910324Y0074631D01*
X3895611Y0074631D01*
X3894354Y0075888D01*
X3893308Y0071041D02*
X3896031Y0069245D01*
X3893308Y0071041D02*
X3890454Y0071041D01*
X3888901Y0068369D02*
X3890544Y0066727D01*
X3888901Y0068369D02*
X3888703Y0068369D01*
X3886031Y0071041D01*
X3885336Y0071041D01*
X3884859Y0071518D01*
X3871440Y0071518D01*
X3871440Y0073487D02*
X3876322Y0073487D01*
X3877582Y0074746D01*
X3880961Y0075849D02*
X3880961Y0080786D01*
X3880113Y0081634D01*
X3875983Y0081634D01*
X3873401Y0084216D01*
X3870557Y0086995D02*
X3873096Y0089535D01*
X3870557Y0086995D02*
X3867881Y0086995D01*
X3864470Y0081616D02*
X3863173Y0080140D01*
X3863173Y0075849D01*
X3861204Y0075849D02*
X3861237Y0080116D01*
X3859578Y0081664D01*
X3856558Y0084943D02*
X3855298Y0083723D01*
X3855298Y0075849D01*
X3853330Y0075849D02*
X3853303Y0086527D01*
X3855066Y0088209D01*
X3860125Y0088265D01*
X3861188Y0086995D01*
X3861188Y0094249D01*
X3861692Y0094753D01*
X3860881Y0094425D01*
X3860615Y0094692D01*
X3857384Y0094692D01*
X3853175Y0099826D01*
X3853457Y0099416D02*
X3849123Y0099416D01*
X3846417Y0098644D02*
X3848461Y0096600D01*
X3852487Y0096600D01*
X3853175Y0094707D01*
X3853841Y0098989D02*
X3853606Y0099267D01*
X3853457Y0099416D01*
X3853175Y0099825D02*
X3853228Y0099817D01*
X3853281Y0099805D01*
X3853333Y0099790D01*
X3853383Y0099771D01*
X3853432Y0099748D01*
X3853479Y0099722D01*
X3853525Y0099693D01*
X3853568Y0099660D01*
X3853608Y0099625D01*
X3853646Y0099586D01*
X3853681Y0099545D01*
X3853713Y0099502D01*
X3853742Y0099456D01*
X3853768Y0099409D01*
X3853790Y0099360D01*
X3853809Y0099309D01*
X3853824Y0099257D01*
X3853835Y0099204D01*
X3853842Y0099151D01*
X3853846Y0099097D01*
X3853845Y0099043D01*
X3853841Y0098989D01*
X3857384Y0099810D02*
X3860811Y0103882D01*
X3870596Y0104215D02*
X3870653Y0104158D01*
X3870615Y0112463D02*
X3837748Y0112472D01*
X3841676Y0098644D02*
X3846417Y0098644D01*
X3847976Y0091872D02*
X3851361Y0088487D01*
X3851361Y0075849D01*
X3849393Y0075849D02*
X3849393Y0078172D01*
X3848591Y0078974D01*
X3845914Y0078974D01*
X3841676Y0083211D01*
X3847976Y0083211D02*
X3841676Y0091872D01*
X3841676Y0092126D01*
X3837071Y0087521D01*
X3833571Y0087521D01*
X3832171Y0086121D01*
X3832171Y0081801D01*
X3837031Y0076941D01*
X3837031Y0073959D01*
X3838999Y0073959D01*
X3840968Y0073959D02*
X3844590Y0073959D01*
X3845062Y0073487D01*
X3845062Y0071518D02*
X3844584Y0071040D01*
X3843657Y0071040D01*
X3843427Y0070809D01*
X3840968Y0070809D01*
X3842359Y0069550D02*
X3841833Y0069024D01*
X3840103Y0069024D01*
X3838999Y0070127D01*
X3838999Y0070809D01*
X3837031Y0070809D02*
X3837031Y0070845D01*
X3842359Y0069550D02*
X3845062Y0069550D01*
X3845062Y0067581D02*
X3815732Y0067581D01*
X3811558Y0071754D01*
X3803802Y0071754D01*
X3803724Y0071676D01*
X3807503Y0065613D02*
X3811243Y0065613D01*
X3811204Y0065573D01*
X3811243Y0065613D02*
X3845062Y0065613D01*
X3845062Y0063644D02*
X3818815Y0063644D01*
X3813348Y0058177D01*
X3810864Y0058177D01*
X3806007Y0053014D01*
X3806032Y0057315D02*
X3807668Y0058996D01*
X3807640Y0058964D01*
X3809130Y0060455D01*
X3811204Y0060455D01*
X3812267Y0055534D02*
X3813054Y0055691D01*
X3819039Y0061676D01*
X3845062Y0061676D01*
X3845062Y0059707D02*
X3845096Y0059702D01*
X3821002Y0059702D01*
X3816873Y0055573D01*
X3820023Y0057026D02*
X3820736Y0057739D01*
X3845062Y0057739D01*
X3845062Y0055770D02*
X3825758Y0055770D01*
X3825147Y0055159D01*
X3825147Y0051681D01*
X3819984Y0046518D01*
X3819984Y0043487D01*
X3819215Y0042395D01*
X3817143Y0044025D02*
X3810161Y0037042D01*
X3810161Y0024451D01*
X3808468Y0024451D02*
X3808527Y0038548D01*
X3812746Y0042701D01*
X3812680Y0045578D01*
X3808468Y0045594D01*
X3808468Y0045908D01*
X3807897Y0046479D01*
X3807897Y0048589D01*
X3809636Y0050328D01*
X3817143Y0048757D02*
X3817143Y0044025D01*
X3816466Y0039629D02*
X3812444Y0035527D01*
X3812444Y0024569D01*
X3812444Y0022876D02*
X3819924Y0022876D01*
X3824984Y0027935D01*
X3824905Y0037896D01*
X3824826Y0037975D01*
X3827713Y0032366D02*
X3826187Y0030840D01*
X3826187Y0027442D01*
X3826187Y0025398D01*
X3820280Y0019490D01*
X3812444Y0019490D01*
X3812444Y0017798D02*
X3820200Y0017798D01*
X3842306Y0037857D01*
X3844895Y0033155D02*
X3847424Y0035849D01*
X3847424Y0049471D01*
X3845062Y0051833D02*
X3841165Y0047935D01*
X3839235Y0047935D01*
X3839117Y0052699D02*
X3839117Y0053802D01*
X3845062Y0053802D01*
X3833999Y0053211D02*
X3827621Y0053211D01*
X3833999Y0053211D02*
X3833999Y0052699D01*
X3834117Y0047935D02*
X3834117Y0043447D01*
X3833566Y0042896D01*
X3833395Y0037857D02*
X3833395Y0034429D01*
X3831787Y0032357D01*
X3836059Y0030537D02*
X3820840Y0016346D01*
X3812706Y0016366D01*
X3812444Y0016105D01*
X3811998Y0015658D01*
X3811393Y0015658D01*
X3811158Y0015424D01*
X3811158Y0015092D01*
X3811393Y0014858D01*
X3811998Y0014858D01*
X3812444Y0014412D01*
X3812352Y0014320D01*
X3810841Y0014320D01*
X3810607Y0014085D01*
X3810607Y0013283D01*
X3810161Y0012837D01*
X3809714Y0013283D01*
X3809714Y0014085D01*
X3809480Y0014320D01*
X3809149Y0014320D01*
X3808914Y0014085D01*
X3808914Y0013283D01*
X3808468Y0012837D01*
X3808021Y0013283D01*
X3808021Y0014085D01*
X3807787Y0014320D01*
X3807456Y0014320D01*
X3807221Y0014085D01*
X3807221Y0013283D01*
X3806775Y0012837D01*
X3806328Y0013283D01*
X3806328Y0014085D01*
X3806094Y0014320D01*
X3805763Y0014320D01*
X3805528Y0014085D01*
X3805528Y0013283D01*
X3805082Y0012837D01*
X3802537Y0019229D02*
X3801540Y0019229D01*
X3798613Y0016302D01*
X3802537Y0019229D02*
X3802798Y0019490D01*
X3802798Y0021183D02*
X3802352Y0021630D01*
X3801550Y0021630D01*
X3801316Y0021864D01*
X3801316Y0023557D01*
X3801316Y0023888D01*
X3801550Y0024123D01*
X3802352Y0024123D01*
X3802798Y0024569D01*
X3802798Y0025967D01*
X3804171Y0025967D01*
X3804635Y0025503D01*
X3804635Y0024898D01*
X3805082Y0024451D01*
X3806775Y0024451D02*
X3806775Y0041105D01*
X3808079Y0042476D01*
X3802779Y0046479D02*
X3802759Y0046459D01*
X3802798Y0025967D01*
X3802352Y0023323D02*
X3801550Y0023323D01*
X3801316Y0023557D01*
X3802352Y0023323D02*
X3802798Y0022876D01*
X3812444Y0021183D02*
X3819929Y0021183D01*
X3825485Y0026739D01*
X3825490Y0026739D01*
X3825836Y0027090D01*
X3826187Y0027442D01*
X3836059Y0030537D02*
X3854069Y0030510D01*
X3858251Y0062660D02*
X3861204Y0065613D01*
X3869078Y0075849D02*
X3870152Y0075849D01*
X3873401Y0079098D01*
X3873463Y0079159D01*
X3878165Y0079159D01*
X3880961Y0075849D02*
X3881488Y0075322D01*
X3886173Y0075322D01*
X3886291Y0075204D01*
X3878165Y0085065D02*
X3876954Y0089518D01*
X3861188Y0086995D02*
X3860811Y0087373D01*
X3847424Y0075849D02*
X3839820Y0075849D01*
X3834560Y0081109D01*
X3834560Y0085132D01*
X3821725Y0086196D02*
X3821432Y0085903D01*
X3820133Y0084603D01*
X3821725Y0092889D02*
X3813021Y0092889D01*
X3812193Y0093717D01*
X3812193Y0097027D01*
X3814949Y0098700D02*
X3814949Y0101259D01*
X3812193Y0101259D01*
X3809437Y0101259D01*
X3809437Y0098700D01*
X3800526Y0084499D02*
X3800153Y0084424D01*
X3807503Y0065613D02*
X3803724Y0061833D01*
X3820023Y0057026D02*
X3820023Y0051636D01*
X3817143Y0048757D01*
X3812444Y0014412D02*
X3812891Y0013965D01*
X3813693Y0013965D01*
X3813927Y0013731D01*
X3813927Y0013400D01*
X3813693Y0013165D01*
X3812891Y0013165D01*
X3812444Y0012719D01*
X3895926Y0045731D02*
X3909669Y0059474D01*
X3915895Y0059474D01*
X3929123Y0059474D01*
X3913007Y0065895D02*
X3913007Y0065895D01*
X3912928Y0073714D02*
X3912928Y0073714D01*
X3912308Y0076206D02*
X3913108Y0077005D01*
X3915135Y0077005D01*
X3915147Y0076993D01*
X3912308Y0076206D02*
X3910324Y0076206D01*
X3902139Y0076206D01*
X3900118Y0078227D01*
X3905061Y0077781D02*
X3898171Y0084671D01*
X3898171Y0088588D01*
X3898227Y0088644D01*
X3905515Y0097419D02*
X3904545Y0098388D01*
X3905515Y0097419D02*
X3915604Y0097419D01*
X3915604Y0090332D02*
X3915604Y0082206D01*
X3915895Y0081915D01*
X3929123Y0081915D01*
X3915895Y0081915D02*
X3911959Y0081915D01*
X3910324Y0080280D01*
X3910324Y0077781D01*
X3905061Y0077781D01*
X3923018Y3796629D02*
X3928500Y3796629D01*
X3930669Y3798799D01*
X3930669Y3852917D01*
X3924365Y3859221D01*
X3889849Y3859221D01*
X3889849Y3857252D02*
X3924637Y3857252D01*
X3929469Y3852420D01*
X3929469Y3799296D01*
X3928002Y3797829D01*
X3925200Y3797829D01*
X3923477Y3799552D01*
X3923477Y3800554D01*
X3923215Y3800815D01*
X3924908Y3800815D02*
X3925170Y3800554D01*
X3925170Y3799557D01*
X3925697Y3799029D01*
X3927505Y3799029D01*
X3928269Y3799793D01*
X3928269Y3851923D01*
X3924908Y3855284D01*
X3889849Y3855284D01*
X3889849Y3863158D02*
X3901775Y3863136D01*
X3902562Y3861901D01*
X3895262Y3867181D02*
X3893208Y3865126D01*
X3889849Y3865126D01*
X3889849Y3867095D02*
X3889849Y3889387D01*
X3874138Y3905099D01*
X3874138Y3908341D01*
X3874138Y3910311D01*
X3873425Y3911024D01*
X3873350Y3911098D01*
X3873350Y3913164D01*
X3874914Y3913153D02*
X3874925Y3913164D01*
X3874914Y3913153D02*
X3874914Y3911118D01*
X3875712Y3910319D01*
X3875712Y3908341D01*
X3875712Y3907253D01*
X3888809Y3894156D01*
X3893589Y3893943D02*
X3893589Y3889220D01*
X3893570Y3889201D01*
X3895262Y3887508D01*
X3895262Y3872299D01*
X3887487Y3869457D02*
X3887454Y3889191D01*
X3872563Y3904083D01*
X3872563Y3908341D01*
X3872563Y3910330D01*
X3871775Y3911117D01*
X3871775Y3913164D01*
X3870201Y3913164D02*
X3870201Y3911041D01*
X3870988Y3910254D01*
X3870988Y3908341D01*
X3870988Y3902959D01*
X3885518Y3888429D01*
X3885518Y3869457D01*
X3883550Y3869457D02*
X3883582Y3887912D01*
X3869413Y3902081D01*
X3869413Y3908341D01*
X3869413Y3910273D01*
X3868626Y3911060D01*
X3868626Y3913164D01*
X3867051Y3913164D02*
X3867051Y3911055D01*
X3867838Y3910268D01*
X3867838Y3908341D01*
X3867838Y3901238D01*
X3881581Y3887495D01*
X3881581Y3869457D01*
X3873707Y3869457D02*
X3873707Y3873741D01*
X3877074Y3877418D01*
X3872832Y3877401D02*
X3871739Y3876308D01*
X3871739Y3869457D01*
X3871739Y3870413D01*
X3869770Y3869457D02*
X3869770Y3880422D01*
X3870950Y3881602D01*
X3870950Y3881800D01*
X3872593Y3883442D01*
X3875447Y3883442D01*
X3878282Y3886277D01*
X3872593Y3888560D02*
X3872580Y3888574D01*
X3872558Y3894341D01*
X3866264Y3900635D01*
X3866264Y3908341D01*
X3866264Y3910287D01*
X3865606Y3910945D01*
X3865476Y3911074D01*
X3865476Y3913164D01*
X3863901Y3913164D02*
X3863901Y3911093D01*
X3864689Y3910306D01*
X3864689Y3908341D01*
X3864689Y3893627D01*
X3863432Y3892370D01*
X3868279Y3891324D02*
X3870075Y3894048D01*
X3868279Y3891324D02*
X3868279Y3888471D01*
X3870950Y3886918D02*
X3872593Y3888560D01*
X3870950Y3886918D02*
X3870950Y3886720D01*
X3868279Y3884048D01*
X3868279Y3883352D01*
X3867802Y3882875D01*
X3867802Y3869457D01*
X3865833Y3869457D02*
X3865833Y3874339D01*
X3864574Y3875599D01*
X3863471Y3878977D02*
X3858534Y3878977D01*
X3857686Y3878130D01*
X3857686Y3874000D01*
X3855104Y3871418D01*
X3852325Y3868574D02*
X3849785Y3871113D01*
X3852325Y3868574D02*
X3852325Y3865898D01*
X3857704Y3862487D02*
X3859180Y3861189D01*
X3863471Y3861189D01*
X3863471Y3859221D02*
X3859204Y3859253D01*
X3857656Y3857594D01*
X3854377Y3854575D02*
X3855597Y3853315D01*
X3863471Y3853315D01*
X3863471Y3851347D02*
X3852792Y3851319D01*
X3851111Y3853082D01*
X3851055Y3858141D01*
X3852325Y3859205D01*
X3845070Y3859205D01*
X3844567Y3859709D01*
X3844895Y3858898D01*
X3844628Y3858631D01*
X3844628Y3855401D01*
X3839494Y3851192D01*
X3839904Y3851474D02*
X3839904Y3847140D01*
X3840676Y3844434D02*
X3842720Y3846478D01*
X3842720Y3850504D01*
X3844612Y3851192D01*
X3840331Y3851858D02*
X3840053Y3851623D01*
X3839904Y3851474D01*
X3839495Y3851192D02*
X3839503Y3851245D01*
X3839515Y3851298D01*
X3839530Y3851350D01*
X3839549Y3851400D01*
X3839572Y3851449D01*
X3839598Y3851496D01*
X3839627Y3851542D01*
X3839660Y3851585D01*
X3839695Y3851625D01*
X3839734Y3851663D01*
X3839775Y3851698D01*
X3839818Y3851730D01*
X3839864Y3851759D01*
X3839911Y3851785D01*
X3839960Y3851807D01*
X3840011Y3851826D01*
X3840063Y3851841D01*
X3840116Y3851852D01*
X3840169Y3851859D01*
X3840223Y3851863D01*
X3840277Y3851862D01*
X3840331Y3851858D01*
X3839510Y3855401D02*
X3835437Y3858828D01*
X3835105Y3868613D02*
X3835162Y3868670D01*
X3826857Y3868631D02*
X3826848Y3835765D01*
X3840676Y3839693D02*
X3840676Y3844434D01*
X3847448Y3845992D02*
X3850833Y3849378D01*
X3863471Y3849378D01*
X3863471Y3847410D02*
X3861148Y3847410D01*
X3860346Y3846608D01*
X3860346Y3843930D01*
X3856109Y3839693D01*
X3856109Y3845992D02*
X3847448Y3839693D01*
X3847194Y3839693D01*
X3851799Y3835088D01*
X3851799Y3831587D01*
X3853198Y3830188D01*
X3857519Y3830188D01*
X3862379Y3835047D01*
X3865361Y3835047D01*
X3865361Y3837016D01*
X3865361Y3838984D02*
X3865361Y3842607D01*
X3865833Y3843079D01*
X3867802Y3843079D02*
X3868280Y3842601D01*
X3868280Y3841674D01*
X3868511Y3841443D01*
X3868511Y3838984D01*
X3869770Y3840375D02*
X3870296Y3839849D01*
X3870296Y3838120D01*
X3869193Y3837016D01*
X3868511Y3837016D01*
X3868511Y3835047D02*
X3868475Y3835047D01*
X3869770Y3840375D02*
X3869770Y3843079D01*
X3871739Y3843079D02*
X3871739Y3813748D01*
X3867566Y3809575D01*
X3867566Y3801819D01*
X3867644Y3801740D01*
X3873707Y3805520D02*
X3873707Y3809260D01*
X3873747Y3809221D01*
X3873707Y3809260D02*
X3873707Y3843079D01*
X3875676Y3843079D02*
X3875676Y3816832D01*
X3881143Y3811365D01*
X3881143Y3808880D01*
X3886306Y3804024D01*
X3882005Y3804049D02*
X3880323Y3805685D01*
X3880355Y3805656D01*
X3878865Y3807147D01*
X3878865Y3809221D01*
X3883786Y3810284D02*
X3883629Y3811071D01*
X3877644Y3817055D01*
X3877644Y3843079D01*
X3879613Y3843079D02*
X3879618Y3843113D01*
X3879618Y3819018D01*
X3883747Y3814890D01*
X3882294Y3818040D02*
X3881581Y3818752D01*
X3881581Y3843079D01*
X3883550Y3843079D02*
X3883550Y3823775D01*
X3884161Y3823163D01*
X3887639Y3823163D01*
X3892802Y3818000D01*
X3895833Y3818000D01*
X3896925Y3817231D01*
X3895295Y3815160D02*
X3902278Y3808177D01*
X3914869Y3808177D01*
X3914869Y3806484D02*
X3900772Y3806543D01*
X3896619Y3810762D01*
X3893742Y3810697D01*
X3893726Y3806484D01*
X3893412Y3806484D01*
X3892841Y3805914D01*
X3890731Y3805914D01*
X3888992Y3807653D01*
X3890563Y3815160D02*
X3895295Y3815160D01*
X3899691Y3814483D02*
X3903793Y3810461D01*
X3914751Y3810461D01*
X3916444Y3810461D02*
X3916444Y3817941D01*
X3911385Y3823000D01*
X3901424Y3822921D01*
X3901345Y3822843D01*
X3906954Y3825730D02*
X3908480Y3824204D01*
X3911878Y3824204D01*
X3913922Y3824204D01*
X3919829Y3818297D01*
X3919829Y3810461D01*
X3918137Y3810461D02*
X3918137Y3817945D01*
X3912581Y3823501D01*
X3912581Y3823507D01*
X3912230Y3823852D01*
X3911878Y3824204D01*
X3906963Y3829803D02*
X3904891Y3831412D01*
X3901463Y3831412D01*
X3896424Y3831583D02*
X3895873Y3832134D01*
X3891385Y3832134D01*
X3886621Y3832016D02*
X3886109Y3832016D01*
X3886109Y3825638D01*
X3887684Y3818040D02*
X3882294Y3818040D01*
X3887684Y3818040D02*
X3890563Y3815160D01*
X3896844Y3806096D02*
X3898215Y3804792D01*
X3914869Y3804792D01*
X3914869Y3803099D02*
X3914422Y3802652D01*
X3913817Y3802652D01*
X3913353Y3802188D01*
X3913353Y3800815D01*
X3892861Y3800776D01*
X3892841Y3800795D01*
X3877487Y3801740D02*
X3873707Y3805520D01*
X3854821Y3798542D02*
X3854896Y3798169D01*
X3845603Y3810210D02*
X3846431Y3811037D01*
X3846431Y3819742D01*
X3853124Y3819742D02*
X3853417Y3819448D01*
X3854716Y3818149D01*
X3845603Y3810210D02*
X3842293Y3810210D01*
X3840620Y3812966D02*
X3838061Y3812966D01*
X3838061Y3810210D01*
X3838061Y3807454D01*
X3840620Y3807454D01*
X3854188Y3832577D02*
X3858211Y3832577D01*
X3863471Y3837837D01*
X3863471Y3845441D01*
X3876660Y3856268D02*
X3873707Y3859221D01*
X3863471Y3867095D02*
X3863471Y3868169D01*
X3860222Y3871418D01*
X3860161Y3871480D01*
X3860161Y3876182D01*
X3863471Y3878977D02*
X3863998Y3879505D01*
X3863998Y3884190D01*
X3864116Y3884307D01*
X3854255Y3876182D02*
X3849802Y3874971D01*
X3852325Y3859205D02*
X3851947Y3858828D01*
X3885518Y3843079D02*
X3885518Y3837134D01*
X3886621Y3837134D01*
X3891385Y3837252D02*
X3891385Y3839181D01*
X3887487Y3843079D01*
X3889849Y3845441D02*
X3903471Y3845441D01*
X3906165Y3842912D01*
X3901463Y3840323D02*
X3921522Y3818217D01*
X3921522Y3810461D01*
X3922954Y3810722D02*
X3922974Y3818857D01*
X3908783Y3834076D01*
X3908810Y3852085D01*
X3925589Y3811944D02*
X3925355Y3811709D01*
X3925355Y3810907D01*
X3924908Y3810461D01*
X3925000Y3810369D01*
X3925000Y3808858D01*
X3925235Y3808624D01*
X3926037Y3808624D01*
X3926483Y3808177D01*
X3926037Y3807731D01*
X3925235Y3807731D01*
X3925000Y3807497D01*
X3925000Y3807165D01*
X3925235Y3806931D01*
X3926037Y3806931D01*
X3926483Y3806484D01*
X3926037Y3806038D01*
X3925235Y3806038D01*
X3925000Y3805804D01*
X3925000Y3805472D01*
X3925235Y3805238D01*
X3926037Y3805238D01*
X3926483Y3804792D01*
X3926037Y3804345D01*
X3925235Y3804345D01*
X3925000Y3804111D01*
X3925000Y3803779D01*
X3925235Y3803545D01*
X3926037Y3803545D01*
X3926483Y3803099D01*
X3924227Y3809175D02*
X3924462Y3809409D01*
X3924462Y3810014D01*
X3924908Y3810461D01*
X3923662Y3810014D02*
X3923662Y3809409D01*
X3923896Y3809175D01*
X3924227Y3809175D01*
X3923662Y3810014D02*
X3923215Y3810461D01*
X3922954Y3810722D01*
X3925589Y3811944D02*
X3925920Y3811944D01*
X3926155Y3811709D01*
X3926155Y3810907D01*
X3926601Y3810461D01*
X3919829Y3800815D02*
X3920091Y3800554D01*
X3920091Y3799557D01*
X3923018Y3796629D01*
X3917690Y3799567D02*
X3917456Y3799332D01*
X3915763Y3799332D01*
X3915431Y3799332D01*
X3915197Y3799567D01*
X3915197Y3800369D01*
X3914751Y3800815D01*
X3913353Y3800815D01*
X3915997Y3800369D02*
X3915997Y3799567D01*
X3915763Y3799332D01*
X3915997Y3800369D02*
X3916444Y3800815D01*
X3917690Y3800369D02*
X3917690Y3799567D01*
X3917690Y3800369D02*
X3918137Y3800815D01*
X3893589Y3893943D02*
X3879846Y3907685D01*
X3879846Y3913912D01*
X3879846Y3927140D01*
X3873425Y3911024D02*
X3873425Y3911024D01*
X3865606Y3910945D02*
X3865606Y3910945D01*
X3863114Y3910325D02*
X3862315Y3911125D01*
X3862315Y3913152D01*
X3862327Y3913164D01*
X3863114Y3910325D02*
X3863114Y3908341D01*
X3863114Y3900156D01*
X3861093Y3898134D01*
X3861539Y3903078D02*
X3854649Y3896188D01*
X3850732Y3896188D01*
X3850676Y3896243D01*
X3841901Y3903532D02*
X3840931Y3902562D01*
X3841901Y3903532D02*
X3841901Y3913620D01*
X3848988Y3913620D02*
X3857114Y3913620D01*
X3857405Y3913912D01*
X3857405Y3927140D01*
X3857405Y3913912D02*
X3857405Y3909976D01*
X3859040Y3908341D01*
X3861539Y3908341D01*
X3861539Y3903078D01*
X0142204Y3920900D02*
X0142204Y3926381D01*
X0140034Y3928551D01*
X0085916Y3928551D01*
X0079612Y3922247D01*
X0079612Y3887731D01*
X0081581Y3887731D02*
X0081581Y3922519D01*
X0086413Y3927351D01*
X0139537Y3927351D01*
X0141004Y3925884D01*
X0141004Y3923082D01*
X0139281Y3921359D01*
X0138279Y3921359D01*
X0138018Y3921097D01*
X0138018Y3922790D02*
X0138279Y3923051D01*
X0139276Y3923051D01*
X0139804Y3923579D01*
X0139804Y3925387D01*
X0139040Y3926151D01*
X0086910Y3926151D01*
X0083549Y3922790D01*
X0083549Y3887731D01*
X0075675Y3887731D02*
X0075697Y3899657D01*
X0076932Y3900444D01*
X0071652Y3893144D02*
X0073707Y3891090D01*
X0073707Y3887731D01*
X0071738Y3887731D02*
X0049446Y3887731D01*
X0033734Y3872020D01*
X0030492Y3872020D01*
X0028522Y3872020D01*
X0027809Y3871307D01*
X0027735Y3871232D01*
X0025669Y3871232D01*
X0025680Y3872796D02*
X0025669Y3872807D01*
X0025680Y3872796D02*
X0027715Y3872796D01*
X0028514Y3873594D01*
X0030492Y3873594D01*
X0031580Y3873594D01*
X0044677Y3886691D01*
X0044890Y3891471D02*
X0049613Y3891471D01*
X0049632Y3891452D01*
X0051325Y3893144D01*
X0066534Y3893144D01*
X0069376Y3885369D02*
X0049642Y3885336D01*
X0034750Y3870445D01*
X0030492Y3870445D01*
X0028503Y3870445D01*
X0027716Y3869657D01*
X0025669Y3869657D01*
X0025669Y3868083D02*
X0027792Y3868083D01*
X0028579Y3868870D01*
X0030492Y3868870D01*
X0035874Y3868870D01*
X0050404Y3883400D01*
X0069376Y3883400D01*
X0069376Y3881432D02*
X0050921Y3881464D01*
X0036752Y3867295D01*
X0030492Y3867295D01*
X0028560Y3867295D01*
X0027773Y3866508D01*
X0025669Y3866508D01*
X0025669Y3864933D02*
X0027778Y3864933D01*
X0028565Y3865720D01*
X0030492Y3865720D01*
X0037595Y3865720D01*
X0051338Y3879463D01*
X0069376Y3879463D01*
X0069376Y3871589D02*
X0065092Y3871589D01*
X0061415Y3874956D01*
X0061432Y3870714D02*
X0062525Y3869621D01*
X0069376Y3869621D01*
X0068420Y3869621D01*
X0069376Y3867652D02*
X0058411Y3867652D01*
X0057231Y3868832D01*
X0057033Y3868832D01*
X0055391Y3870475D01*
X0055391Y3873329D01*
X0052556Y3876163D01*
X0050272Y3870475D02*
X0050259Y3870462D01*
X0044492Y3870440D01*
X0038198Y3864146D01*
X0030492Y3864146D01*
X0028546Y3864146D01*
X0027888Y3863488D01*
X0027759Y3863358D01*
X0025669Y3863358D01*
X0025669Y3861783D02*
X0027740Y3861783D01*
X0028527Y3862571D01*
X0030492Y3862571D01*
X0045206Y3862571D01*
X0046463Y3861314D01*
X0047509Y3866161D02*
X0044785Y3867957D01*
X0047509Y3866161D02*
X0050362Y3866161D01*
X0051915Y3868832D02*
X0050272Y3870475D01*
X0051915Y3868832D02*
X0052113Y3868832D01*
X0054785Y3866161D01*
X0055481Y3866161D01*
X0055957Y3865684D01*
X0069376Y3865684D01*
X0069376Y3863715D02*
X0064494Y3863715D01*
X0063234Y3862455D01*
X0059856Y3861353D02*
X0059856Y3856416D01*
X0060703Y3855568D01*
X0064833Y3855568D01*
X0067415Y3852986D01*
X0070259Y3850207D02*
X0067720Y3847667D01*
X0070259Y3850207D02*
X0072935Y3850207D01*
X0076346Y3855585D02*
X0077644Y3857062D01*
X0077644Y3861353D01*
X0079612Y3861353D02*
X0079579Y3857086D01*
X0081239Y3855538D01*
X0084258Y3852259D02*
X0085518Y3853479D01*
X0085518Y3861353D01*
X0087486Y3861353D02*
X0087514Y3850674D01*
X0085751Y3848993D01*
X0080692Y3848936D01*
X0079628Y3850207D01*
X0079628Y3842952D01*
X0079124Y3842449D01*
X0079935Y3842776D01*
X0080202Y3842510D01*
X0083432Y3842510D01*
X0087641Y3837376D01*
X0087359Y3837786D02*
X0091693Y3837786D01*
X0094399Y3838558D02*
X0092355Y3840601D01*
X0088329Y3840601D01*
X0087641Y3842494D01*
X0086975Y3838212D02*
X0087210Y3837935D01*
X0087359Y3837786D01*
X0087641Y3837377D02*
X0087588Y3837385D01*
X0087535Y3837397D01*
X0087483Y3837412D01*
X0087433Y3837431D01*
X0087384Y3837454D01*
X0087337Y3837480D01*
X0087291Y3837509D01*
X0087248Y3837542D01*
X0087208Y3837577D01*
X0087170Y3837616D01*
X0087135Y3837657D01*
X0087103Y3837700D01*
X0087074Y3837746D01*
X0087048Y3837793D01*
X0087026Y3837842D01*
X0087007Y3837893D01*
X0086992Y3837945D01*
X0086981Y3837998D01*
X0086974Y3838051D01*
X0086970Y3838105D01*
X0086971Y3838159D01*
X0086975Y3838213D01*
X0083432Y3837392D02*
X0080005Y3833319D01*
X0070220Y3832987D02*
X0070163Y3833044D01*
X0070201Y3824739D02*
X0103068Y3824730D01*
X0099140Y3838558D02*
X0094399Y3838558D01*
X0092841Y3845329D02*
X0089455Y3848715D01*
X0089455Y3861353D01*
X0091423Y3861353D02*
X0091423Y3859030D01*
X0092225Y3858228D01*
X0094902Y3858228D01*
X0099140Y3853991D01*
X0092841Y3853991D02*
X0099140Y3845329D01*
X0099140Y3845075D01*
X0103745Y3849681D01*
X0107246Y3849681D01*
X0108645Y3851080D01*
X0108645Y3855401D01*
X0103786Y3860261D01*
X0103786Y3863243D01*
X0101817Y3863243D01*
X0099848Y3863243D02*
X0096226Y3863243D01*
X0095754Y3863715D01*
X0095754Y3865684D02*
X0096232Y3866162D01*
X0097159Y3866162D01*
X0097390Y3866392D01*
X0099848Y3866392D01*
X0098458Y3867652D02*
X0098984Y3868178D01*
X0100713Y3868178D01*
X0101817Y3867075D01*
X0101817Y3866392D01*
X0103786Y3866392D02*
X0103786Y3866356D01*
X0098458Y3867652D02*
X0095754Y3867652D01*
X0095754Y3869621D02*
X0125085Y3869621D01*
X0129258Y3865448D01*
X0137014Y3865448D01*
X0137093Y3865526D01*
X0133313Y3871589D02*
X0129573Y3871589D01*
X0129612Y3871629D01*
X0129573Y3871589D02*
X0095754Y3871589D01*
X0095754Y3873558D02*
X0122001Y3873558D01*
X0127468Y3879025D01*
X0129953Y3879025D01*
X0134809Y3884188D01*
X0134784Y3879887D02*
X0133148Y3878205D01*
X0133177Y3878237D01*
X0131686Y3876747D01*
X0129612Y3876747D01*
X0128549Y3881668D02*
X0127762Y3881511D01*
X0121778Y3875526D01*
X0095754Y3875526D01*
X0095754Y3877495D02*
X0095720Y3877500D01*
X0119815Y3877500D01*
X0123943Y3881629D01*
X0120793Y3880176D02*
X0120081Y3879463D01*
X0095754Y3879463D01*
X0095754Y3881432D02*
X0115058Y3881432D01*
X0115670Y3882043D01*
X0115670Y3885521D01*
X0120833Y3890684D01*
X0120833Y3893715D01*
X0121602Y3894807D01*
X0123673Y3893177D02*
X0130656Y3900160D01*
X0130656Y3912751D01*
X0132348Y3912751D02*
X0132290Y3898654D01*
X0128071Y3894501D01*
X0128136Y3891624D01*
X0132348Y3891608D01*
X0132348Y3891294D01*
X0132919Y3890723D01*
X0132919Y3888613D01*
X0131180Y3886874D01*
X0123673Y3888445D02*
X0123673Y3893177D01*
X0124350Y3897573D02*
X0128372Y3901675D01*
X0128372Y3912633D01*
X0128372Y3914325D02*
X0120892Y3914325D01*
X0115833Y3909266D01*
X0115911Y3899306D01*
X0115990Y3899227D01*
X0113103Y3904836D02*
X0114629Y3906362D01*
X0114629Y3909760D01*
X0114629Y3911804D01*
X0120536Y3917711D01*
X0128372Y3917711D01*
X0128372Y3916018D02*
X0120888Y3916018D01*
X0115332Y3910462D01*
X0115326Y3910462D01*
X0114981Y3910111D01*
X0114629Y3909760D01*
X0109030Y3904845D02*
X0107421Y3902773D01*
X0107421Y3899345D01*
X0107250Y3894306D02*
X0106699Y3893755D01*
X0106699Y3889266D01*
X0106817Y3884503D02*
X0106817Y3883991D01*
X0113195Y3883991D01*
X0120793Y3885566D02*
X0120793Y3880176D01*
X0120793Y3885566D02*
X0123673Y3888445D01*
X0132737Y3894726D02*
X0134041Y3896097D01*
X0134041Y3912751D01*
X0135734Y3912751D02*
X0136181Y3912304D01*
X0136181Y3911699D01*
X0136645Y3911235D01*
X0138018Y3911235D01*
X0138057Y3890743D01*
X0138037Y3890723D01*
X0137093Y3875369D02*
X0133313Y3871589D01*
X0140291Y3852703D02*
X0140664Y3852778D01*
X0128623Y3843485D02*
X0127796Y3844313D01*
X0119091Y3844313D01*
X0119091Y3851005D02*
X0119384Y3851299D01*
X0120684Y3852598D01*
X0128623Y3843485D02*
X0128623Y3840175D01*
X0125867Y3838501D02*
X0125867Y3835942D01*
X0128623Y3835942D01*
X0131379Y3835942D01*
X0131379Y3838501D01*
X0106256Y3852070D02*
X0106256Y3856093D01*
X0100996Y3861353D01*
X0093392Y3861353D01*
X0082565Y3874542D02*
X0079612Y3871589D01*
X0071738Y3861353D02*
X0070664Y3861353D01*
X0067415Y3858104D01*
X0067353Y3858042D01*
X0062651Y3858042D01*
X0059856Y3861353D02*
X0059328Y3861880D01*
X0054643Y3861880D01*
X0054526Y3861997D01*
X0062651Y3852137D02*
X0063862Y3847684D01*
X0079628Y3850207D02*
X0080005Y3849829D01*
X0095754Y3883400D02*
X0101699Y3883400D01*
X0101699Y3884503D01*
X0101581Y3889266D02*
X0099652Y3889266D01*
X0095754Y3885369D01*
X0093392Y3887731D02*
X0093392Y3901353D01*
X0095921Y3904047D01*
X0098510Y3899345D02*
X0120616Y3919404D01*
X0128372Y3919404D01*
X0128111Y3920836D02*
X0119976Y3920855D01*
X0104757Y3906665D01*
X0086748Y3906692D01*
X0126889Y3923471D02*
X0127124Y3923236D01*
X0127926Y3923236D01*
X0128372Y3922790D01*
X0128464Y3922882D01*
X0129975Y3922882D01*
X0130209Y3923116D01*
X0130209Y3923918D01*
X0130656Y3924365D01*
X0131102Y3923918D01*
X0131102Y3923116D01*
X0131336Y3922882D01*
X0131668Y3922882D01*
X0131902Y3923116D01*
X0131902Y3923918D01*
X0132348Y3924365D01*
X0132795Y3923918D01*
X0132795Y3923116D01*
X0133029Y3922882D01*
X0133361Y3922882D01*
X0133595Y3923116D01*
X0133595Y3923918D01*
X0134041Y3924365D01*
X0134488Y3923918D01*
X0134488Y3923116D01*
X0134722Y3922882D01*
X0135054Y3922882D01*
X0135288Y3923116D01*
X0135288Y3923918D01*
X0135734Y3924365D01*
X0129658Y3922109D02*
X0129424Y3922344D01*
X0128819Y3922344D01*
X0128372Y3922790D01*
X0127926Y3924036D02*
X0127124Y3924036D01*
X0126889Y3923802D01*
X0126889Y3923471D01*
X0127926Y3924036D02*
X0128372Y3924483D01*
X0129658Y3922109D02*
X0129658Y3921778D01*
X0129424Y3921544D01*
X0128819Y3921544D01*
X0128372Y3921097D01*
X0128111Y3920836D01*
X0138018Y3917711D02*
X0138279Y3917973D01*
X0139276Y3917973D01*
X0142204Y3920900D01*
X0139266Y3915572D02*
X0139500Y3915338D01*
X0139500Y3913645D01*
X0139500Y3913313D01*
X0139266Y3913079D01*
X0138464Y3913079D01*
X0138018Y3912633D01*
X0138018Y3911235D01*
X0138464Y3913879D02*
X0139266Y3913879D01*
X0139500Y3913645D01*
X0138464Y3913879D02*
X0138018Y3914325D01*
X0138464Y3915572D02*
X0139266Y3915572D01*
X0138464Y3915572D02*
X0138018Y3916018D01*
X0044890Y3891471D02*
X0031148Y3877728D01*
X0024921Y3877728D01*
X0011693Y3877728D01*
X0027809Y3871307D02*
X0027809Y3871307D01*
X0027888Y3863488D02*
X0027888Y3863488D01*
X0028508Y3860996D02*
X0027708Y3860196D01*
X0025681Y3860196D01*
X0025669Y3860209D01*
X0028508Y3860996D02*
X0030492Y3860996D01*
X0038677Y3860996D01*
X0040698Y3858975D01*
X0035755Y3859421D02*
X0042645Y3852531D01*
X0042645Y3848614D01*
X0042590Y3848558D01*
X0035301Y3839783D02*
X0036271Y3838813D01*
X0035301Y3839783D02*
X0025213Y3839783D01*
X0025213Y3846870D02*
X0025213Y3854996D01*
X0024921Y3855287D01*
X0011693Y3855287D01*
X0024921Y3855287D02*
X0028857Y3855287D01*
X0030492Y3856922D01*
X0030492Y3859421D01*
X0035755Y3859421D01*
D49*
X0044803Y3856518D02*
X0049434Y3856518D01*
X0049435Y3856517D02*
X0049394Y3856433D01*
X0049357Y3856348D01*
X0049323Y3856260D01*
X0049294Y3856172D01*
X0049268Y3856082D01*
X0049246Y3855992D01*
X0049228Y3855900D01*
X0049213Y3855808D01*
X0049203Y3855715D01*
X0049197Y3855622D01*
X0049194Y3855529D01*
X0049196Y3855435D01*
X0049201Y3855342D01*
X0049210Y3855249D01*
X0049224Y3855157D01*
X0049241Y3855065D01*
X0049262Y3854974D01*
X0049287Y3854884D01*
X0049316Y3854795D01*
X0049348Y3854708D01*
X0049384Y3854622D01*
X0049424Y3854537D01*
X0049468Y3854455D01*
X0049514Y3854374D01*
X0049565Y3854295D01*
X0049618Y3854219D01*
X0049675Y3854145D01*
X0049735Y3854073D01*
X0049797Y3854004D01*
X0049863Y3853937D01*
X0049932Y3853874D01*
X0050003Y3853813D01*
X0050076Y3853756D01*
X0050152Y3853702D01*
X0050230Y3853651D01*
X0050310Y3853603D01*
X0050393Y3853559D01*
X0050393Y3838008D01*
X0052952Y3848389D02*
X0052952Y3853559D01*
X0055511Y3853559D02*
X0055511Y3861012D01*
X0054526Y3861997D01*
X0050362Y3866161D01*
X0058070Y3853559D02*
X0058070Y3845533D01*
X0061118Y3842485D01*
X0074639Y3842485D01*
X0074639Y3837367D02*
X0070163Y3837367D01*
X0070163Y3833044D01*
X0070220Y3832987D02*
X0070220Y3836708D01*
X0069998Y3838035D01*
X0063305Y3838035D02*
X0052952Y3848389D01*
X0042590Y3848558D02*
X0038033Y3848544D01*
X0036186Y3846985D01*
X0036186Y3844208D01*
X0042639Y3828378D02*
X0046356Y3824660D01*
X0063985Y3824660D01*
X0063756Y3824890D01*
X0063985Y3824660D02*
X0070123Y3824660D01*
X0070201Y3824739D01*
X0079124Y3837331D02*
X0079935Y3837658D01*
X0080202Y3837392D01*
X0083432Y3837392D01*
X0099140Y3838558D02*
X0099140Y3845075D01*
X0111524Y3857745D02*
X0112692Y3857745D01*
X0108031Y3866356D02*
X0103786Y3866356D01*
X0124140Y3865448D02*
X0127168Y3859291D01*
X0133590Y3859291D01*
X0134099Y3852906D02*
X0127378Y3852906D01*
X0127070Y3852598D01*
X0125583Y3852598D01*
X0127070Y3852598D02*
X0127168Y3852598D01*
X0140664Y3852778D02*
X0140792Y3852906D01*
X0139290Y3839639D02*
X0134403Y3839639D01*
X0134403Y3831995D01*
X0131379Y3838501D02*
X0132517Y3839639D01*
X0134403Y3839639D01*
X0125867Y3835958D02*
X0125867Y3835942D01*
X0125911Y3885566D02*
X0125911Y3890644D01*
X0125951Y3890684D01*
X0125990Y3890723D01*
X0132919Y3890723D01*
X0113195Y3889896D02*
X0113195Y3896904D01*
X0110872Y3899227D01*
X0110754Y3899345D01*
X0107421Y3899345D01*
X0103628Y3899345D01*
X0101345Y3897062D01*
X0101345Y3894306D01*
X0079612Y3871589D02*
X0069376Y3871589D01*
X0085020Y0142365D02*
X0085149Y0142237D01*
X0085020Y0135673D02*
X0085020Y0128952D01*
X0085328Y0128644D01*
X0085328Y0127156D01*
X0085328Y0128644D02*
X0085328Y0128742D01*
X0078635Y0128742D02*
X0078635Y0135163D01*
X0078635Y0128742D02*
X0072479Y0125713D01*
X0080182Y0114265D02*
X0080182Y0113098D01*
X0071570Y0109604D02*
X0071570Y0105359D01*
X0092851Y0100713D02*
X0099369Y0100713D01*
X0100535Y0085006D02*
X0100535Y0081775D01*
X0100268Y0081508D01*
X0100596Y0080697D01*
X0100560Y0076212D02*
X0100560Y0071737D01*
X0104883Y0071737D01*
X0104940Y0071793D02*
X0101218Y0071793D01*
X0099891Y0071571D01*
X0095442Y0076212D02*
X0095442Y0062692D01*
X0092393Y0059643D01*
X0084368Y0059643D01*
X0084368Y0057084D02*
X0076914Y0057084D01*
X0075929Y0056099D01*
X0071766Y0051936D01*
X0081409Y0051008D02*
X0081409Y0046377D01*
X0084368Y0051966D02*
X0099919Y0051966D01*
X0089538Y0054525D02*
X0084368Y0054525D01*
X0084367Y0051966D02*
X0084324Y0051886D01*
X0084278Y0051807D01*
X0084229Y0051731D01*
X0084176Y0051657D01*
X0084120Y0051585D01*
X0084062Y0051516D01*
X0084000Y0051448D01*
X0083936Y0051384D01*
X0083870Y0051322D01*
X0083801Y0051263D01*
X0083729Y0051207D01*
X0083655Y0051154D01*
X0083579Y0051104D01*
X0083501Y0051057D01*
X0083422Y0051014D01*
X0083340Y0050974D01*
X0083257Y0050937D01*
X0083172Y0050904D01*
X0083086Y0050874D01*
X0082999Y0050848D01*
X0082911Y0050825D01*
X0082822Y0050806D01*
X0082733Y0050791D01*
X0082643Y0050779D01*
X0082552Y0050772D01*
X0082461Y0050768D01*
X0082370Y0050767D01*
X0082280Y0050771D01*
X0082189Y0050778D01*
X0082099Y0050789D01*
X0082009Y0050804D01*
X0081920Y0050822D01*
X0081832Y0050844D01*
X0081745Y0050870D01*
X0081659Y0050899D01*
X0081574Y0050932D01*
X0081490Y0050968D01*
X0081409Y0051008D01*
X0089538Y0054525D02*
X0099891Y0064878D01*
X0113036Y0065329D02*
X0113266Y0065559D01*
X0113266Y0071696D01*
X0113188Y0071775D01*
X0113266Y0065559D02*
X0113266Y0047930D01*
X0109549Y0044212D01*
X0093719Y0037759D02*
X0090942Y0037759D01*
X0089383Y0039606D01*
X0089369Y0044163D01*
X0066337Y0070949D02*
X0066337Y0081186D01*
X0043621Y0102918D02*
X0040865Y0102918D01*
X0038582Y0105201D01*
X0038582Y0108995D01*
X0038582Y0112327D01*
X0038700Y0112445D01*
X0041022Y0114768D01*
X0048030Y0114768D01*
X0047282Y0127485D02*
X0047243Y0127524D01*
X0047204Y0127564D01*
X0047204Y0134493D01*
X0047282Y0127485D02*
X0052361Y0127485D01*
X0098287Y0134090D02*
X0098287Y0135976D01*
X0105932Y0135976D01*
X0099425Y0132953D02*
X0098287Y0134090D01*
X0098287Y0135976D02*
X0098287Y0140863D01*
X0101969Y0127441D02*
X0101984Y0127441D01*
X3800024Y0084295D02*
X3800153Y0084424D01*
X3806717Y0084295D02*
X3813438Y0084295D01*
X3813746Y0084603D01*
X3815234Y0084603D01*
X3813746Y0084603D02*
X3813648Y0084603D01*
X3813648Y0077911D02*
X3807226Y0077911D01*
X3813648Y0077911D02*
X3816676Y0071754D01*
X3828125Y0079457D02*
X3829292Y0079457D01*
X3832785Y0070845D02*
X3837031Y0070845D01*
X3841676Y0092126D02*
X3841676Y0098644D01*
X3857384Y0099810D02*
X3860615Y0099810D01*
X3860881Y0099543D01*
X3861692Y0099871D01*
X3866178Y0099835D02*
X3870653Y0099835D01*
X3870653Y0104158D01*
X3870596Y0104215D02*
X3870596Y0100493D01*
X3870818Y0099166D01*
X3866178Y0094717D02*
X3879698Y0094717D01*
X3882747Y0091668D01*
X3882747Y0083643D01*
X3885306Y0083643D02*
X3885306Y0076189D01*
X3886291Y0075204D01*
X3890454Y0071041D01*
X3891382Y0080684D02*
X3896013Y0080684D01*
X3890424Y0083643D02*
X3890424Y0099194D01*
X3887865Y0088813D02*
X3887865Y0083643D01*
X3890423Y0083642D02*
X3890503Y0083599D01*
X3890582Y0083553D01*
X3890658Y0083504D01*
X3890732Y0083451D01*
X3890804Y0083395D01*
X3890873Y0083337D01*
X3890941Y0083275D01*
X3891005Y0083211D01*
X3891067Y0083145D01*
X3891126Y0083076D01*
X3891182Y0083004D01*
X3891235Y0082930D01*
X3891285Y0082854D01*
X3891332Y0082776D01*
X3891375Y0082697D01*
X3891415Y0082615D01*
X3891452Y0082532D01*
X3891485Y0082447D01*
X3891515Y0082361D01*
X3891541Y0082274D01*
X3891564Y0082186D01*
X3891583Y0082097D01*
X3891598Y0082008D01*
X3891610Y0081918D01*
X3891617Y0081827D01*
X3891621Y0081736D01*
X3891622Y0081645D01*
X3891618Y0081555D01*
X3891611Y0081464D01*
X3891600Y0081374D01*
X3891585Y0081284D01*
X3891567Y0081195D01*
X3891545Y0081107D01*
X3891519Y0081020D01*
X3891490Y0080934D01*
X3891457Y0080849D01*
X3891421Y0080765D01*
X3891381Y0080684D01*
X3887865Y0088813D02*
X3877511Y0099166D01*
X3877061Y0112311D02*
X3876831Y0112541D01*
X3870693Y0112541D01*
X3870615Y0112463D01*
X3876831Y0112541D02*
X3894460Y0112541D01*
X3898177Y0108824D01*
X3904630Y0092994D02*
X3904630Y0090217D01*
X3902784Y0088658D01*
X3898227Y0088644D01*
X3871440Y0065613D02*
X3861204Y0065613D01*
X3839472Y0042896D02*
X3839472Y0040140D01*
X3837188Y0037857D01*
X3833395Y0037857D01*
X3830062Y0037857D01*
X3829944Y0037975D01*
X3827621Y0040298D01*
X3827621Y0047305D01*
X3814905Y0046557D02*
X3814865Y0046518D01*
X3814826Y0046479D01*
X3807897Y0046479D01*
X3814905Y0046557D02*
X3814905Y0051636D01*
X3808299Y0097563D02*
X3806413Y0097563D01*
X3806413Y0105207D01*
X3809437Y0098700D02*
X3808299Y0097563D01*
X3806413Y0097563D02*
X3801526Y0097563D01*
X3814949Y0101244D02*
X3814949Y0101259D01*
X3855025Y3798041D02*
X3854896Y3798169D01*
X3855025Y3804734D02*
X3855025Y3811455D01*
X3854716Y3811763D01*
X3854716Y3813250D01*
X3854716Y3811763D02*
X3854716Y3811665D01*
X3861409Y3811665D02*
X3861409Y3805243D01*
X3861409Y3811665D02*
X3867566Y3814693D01*
X3859863Y3826141D02*
X3859863Y3827309D01*
X3868475Y3830802D02*
X3868475Y3835047D01*
X3847194Y3839693D02*
X3840676Y3839693D01*
X3839510Y3855401D02*
X3839510Y3858631D01*
X3839777Y3858898D01*
X3839449Y3859709D01*
X3839485Y3864194D02*
X3839485Y3868670D01*
X3835162Y3868670D01*
X3835105Y3868613D02*
X3838827Y3868613D01*
X3840154Y3868835D01*
X3844603Y3864194D02*
X3844603Y3877715D01*
X3847652Y3880763D01*
X3855677Y3880763D01*
X3855677Y3883322D02*
X3863131Y3883322D01*
X3864116Y3884307D01*
X3868279Y3888471D01*
X3858636Y3889399D02*
X3858636Y3894030D01*
X3855677Y3888440D02*
X3840126Y3888440D01*
X3850507Y3885881D02*
X3855677Y3885881D01*
X3855678Y3888440D02*
X3855721Y3888520D01*
X3855767Y3888599D01*
X3855816Y3888675D01*
X3855869Y3888749D01*
X3855925Y3888821D01*
X3855983Y3888890D01*
X3856045Y3888958D01*
X3856109Y3889022D01*
X3856175Y3889084D01*
X3856244Y3889143D01*
X3856316Y3889199D01*
X3856390Y3889252D01*
X3856466Y3889302D01*
X3856544Y3889349D01*
X3856623Y3889392D01*
X3856705Y3889432D01*
X3856788Y3889469D01*
X3856873Y3889502D01*
X3856959Y3889532D01*
X3857046Y3889558D01*
X3857134Y3889581D01*
X3857223Y3889600D01*
X3857312Y3889615D01*
X3857402Y3889627D01*
X3857493Y3889634D01*
X3857584Y3889638D01*
X3857675Y3889639D01*
X3857765Y3889635D01*
X3857856Y3889628D01*
X3857946Y3889617D01*
X3858036Y3889602D01*
X3858125Y3889584D01*
X3858213Y3889562D01*
X3858300Y3889536D01*
X3858386Y3889507D01*
X3858471Y3889474D01*
X3858555Y3889438D01*
X3858636Y3889398D01*
X3850507Y3885881D02*
X3840154Y3875528D01*
X3827009Y3875077D02*
X3826779Y3874848D01*
X3826779Y3868710D01*
X3826857Y3868631D01*
X3826779Y3874848D02*
X3826779Y3892477D01*
X3830496Y3896194D01*
X3846326Y3902647D02*
X3849103Y3902647D01*
X3850662Y3900800D01*
X3850676Y3896243D01*
X3873707Y3869457D02*
X3873707Y3859221D01*
X3896424Y3837488D02*
X3899180Y3837488D01*
X3901463Y3835205D01*
X3901463Y3831412D01*
X3901463Y3828079D01*
X3901345Y3827961D01*
X3899022Y3825638D01*
X3892014Y3825638D01*
X3892763Y3812921D02*
X3892802Y3812882D01*
X3892841Y3812843D01*
X3892841Y3805914D01*
X3892763Y3812921D02*
X3887684Y3812921D01*
X3841757Y3806316D02*
X3841757Y3804430D01*
X3834113Y3804430D01*
X3840620Y3807454D02*
X3841757Y3806316D01*
X3841757Y3804430D02*
X3841757Y3799543D01*
X3838076Y3812966D02*
X3838061Y3812966D01*
D50*
X0031663Y0012137D03*
X0031710Y0021492D03*
X0031663Y0031830D03*
X0031483Y0041695D03*
X0020058Y0053169D03*
X0007747Y0052911D03*
X0007691Y0063117D03*
X0013177Y0071282D03*
X0007860Y0075445D03*
X0031235Y0088321D03*
X0033879Y0097495D03*
X0033081Y0110603D03*
X0033091Y0114676D03*
X0043120Y0123175D03*
X0040354Y0125923D03*
X0043201Y0134311D03*
X0051053Y0132754D03*
X0053739Y0136382D03*
X0058040Y0136357D03*
X0056259Y0130123D03*
X0056298Y0125516D03*
X0078635Y0135163D03*
X0079518Y0151547D03*
X0070506Y0151351D03*
X0060221Y0151351D03*
X0050344Y0151325D03*
X0039093Y0151036D03*
X0027683Y0150954D03*
X0015176Y0150743D03*
X0017269Y0108921D03*
X0037483Y0078505D03*
X0046475Y0051206D03*
X0051235Y0046250D03*
X0061763Y0054129D03*
X0062971Y0062989D03*
X0067213Y0063005D03*
X0075471Y0064808D03*
X0090243Y0065436D03*
X0090260Y0069293D03*
X0082341Y0077919D03*
X0082388Y0082812D03*
X0085668Y0085831D03*
X0100140Y0093267D03*
X0104281Y0087727D03*
X0104607Y0081579D03*
X0104940Y0071793D03*
X0099369Y0100713D03*
X0091770Y0107376D03*
X0085857Y0107829D03*
X0086357Y0114611D03*
X0105932Y0135976D03*
X0093745Y0151779D03*
X0123882Y0104539D03*
X0081409Y0046377D03*
X0078952Y0042272D03*
X0076613Y0048036D03*
X0069970Y0046359D03*
X0093719Y0037759D03*
X0099113Y0037844D03*
X0106153Y0031699D03*
X0103938Y0011660D03*
X0092562Y0011303D03*
X0052957Y0012321D03*
X0042025Y0012203D03*
X3791064Y0049619D03*
X3791039Y0059496D03*
X3791039Y0069781D03*
X3790843Y0078793D03*
X3790610Y0093020D03*
X3806413Y0105207D03*
X3807226Y0077911D03*
X3806032Y0057315D03*
X3806007Y0053014D03*
X3809636Y0050328D03*
X3812267Y0055534D03*
X3816873Y0055573D03*
X3819215Y0042395D03*
X3816466Y0039629D03*
X3808079Y0042476D03*
X3791353Y0038368D03*
X3791435Y0026959D03*
X3791647Y0014451D03*
X3827713Y0032366D03*
X3831787Y0032357D03*
X3844895Y0033155D03*
X3854069Y0030510D03*
X3863884Y0036758D03*
X3871108Y0012452D03*
X3866945Y0007135D03*
X3879273Y0006966D03*
X3889478Y0007022D03*
X3889221Y0019333D03*
X3900695Y0030758D03*
X3910560Y0030938D03*
X3920897Y0030985D03*
X3930253Y0030938D03*
X3930186Y0041300D03*
X3930069Y0052233D03*
X3896139Y0050510D03*
X3891184Y0045750D03*
X3888260Y0061038D03*
X3879401Y0062246D03*
X3879385Y0066488D03*
X3877582Y0074746D03*
X3876954Y0089518D03*
X3873096Y0089535D03*
X3864470Y0081616D03*
X3859578Y0081664D03*
X3856558Y0084943D03*
X3849123Y0099416D03*
X3854662Y0103556D03*
X3860811Y0103882D03*
X3870596Y0104215D03*
X3841676Y0098644D03*
X3835014Y0091046D03*
X3834560Y0085132D03*
X3827779Y0085632D03*
X3837851Y0123158D03*
X3896013Y0080684D03*
X3900118Y0078227D03*
X3894354Y0075888D03*
X3896031Y0069245D03*
X3904630Y0092994D03*
X3904545Y0098388D03*
X3910690Y0105428D03*
X3930729Y0103213D03*
X3931086Y0091837D03*
X3833468Y0016544D03*
X3846300Y3788627D03*
X3860527Y3788859D03*
X3869539Y3789055D03*
X3879824Y3789055D03*
X3889701Y3789081D03*
X3900952Y3789370D03*
X3912361Y3789452D03*
X3924869Y3789663D03*
X3896844Y3806096D03*
X3888992Y3807653D03*
X3886306Y3804024D03*
X3882005Y3804049D03*
X3883786Y3810284D03*
X3883747Y3814890D03*
X3896925Y3817231D03*
X3899691Y3814483D03*
X3906954Y3825730D03*
X3906963Y3829803D03*
X3906165Y3842912D03*
X3908810Y3852085D03*
X3902562Y3861901D03*
X3926868Y3869124D03*
X3932185Y3864962D03*
X3932354Y3877289D03*
X3932298Y3887495D03*
X3919987Y3887238D03*
X3908562Y3898711D03*
X3908382Y3908576D03*
X3908335Y3918914D03*
X3908382Y3928270D03*
X3898020Y3928203D03*
X3887087Y3928085D03*
X3888809Y3894156D03*
X3893570Y3889201D03*
X3878282Y3886277D03*
X3877074Y3877418D03*
X3872832Y3877401D03*
X3864574Y3875599D03*
X3849802Y3874971D03*
X3849785Y3871113D03*
X3857704Y3862487D03*
X3857656Y3857594D03*
X3854377Y3854575D03*
X3839904Y3847140D03*
X3835764Y3852679D03*
X3835437Y3858828D03*
X3835105Y3868613D03*
X3840676Y3839693D03*
X3848274Y3833030D03*
X3854188Y3832577D03*
X3853687Y3825795D03*
X3861409Y3805243D03*
X3834113Y3804430D03*
X3816162Y3835867D03*
X3858636Y3894030D03*
X3861093Y3898134D03*
X3863432Y3892370D03*
X3870075Y3894048D03*
X3846326Y3902647D03*
X3840931Y3902562D03*
X3833892Y3908707D03*
X3836107Y3928746D03*
X3847483Y3929103D03*
X3922776Y3831485D03*
X0150206Y3844182D03*
X0149974Y3858409D03*
X0149778Y3867421D03*
X0149778Y3877706D03*
X0149752Y3887583D03*
X0149463Y3898834D03*
X0149381Y3910243D03*
X0149170Y3922751D03*
X0132737Y3894726D03*
X0131180Y3886874D03*
X0134809Y3884188D03*
X0134784Y3879887D03*
X0128549Y3881668D03*
X0123943Y3881629D03*
X0121602Y3894807D03*
X0124350Y3897573D03*
X0113103Y3904836D03*
X0109030Y3904845D03*
X0095921Y3904047D03*
X0086748Y3906692D03*
X0076932Y3900444D03*
X0069709Y3924750D03*
X0073871Y3930067D03*
X0061544Y3930236D03*
X0051338Y3930180D03*
X0051595Y3917868D03*
X0040122Y3906444D03*
X0030257Y3906264D03*
X0019919Y3906217D03*
X0010563Y3906264D03*
X0010630Y3895902D03*
X0010748Y3884969D03*
X0044677Y3886691D03*
X0049632Y3891452D03*
X0052556Y3876163D03*
X0061415Y3874956D03*
X0061432Y3870714D03*
X0063234Y3862455D03*
X0063862Y3847684D03*
X0067720Y3847667D03*
X0076346Y3855585D03*
X0081239Y3855538D03*
X0084258Y3852259D03*
X0091693Y3837786D03*
X0086154Y3833646D03*
X0080005Y3833319D03*
X0070220Y3832987D03*
X0099140Y3838558D03*
X0105803Y3846156D03*
X0106256Y3852070D03*
X0113037Y3851569D03*
X0133590Y3859291D03*
X0134403Y3831995D03*
X0102966Y3814044D03*
X0044803Y3856518D03*
X0040698Y3858975D03*
X0046463Y3861314D03*
X0044785Y3867957D03*
X0036186Y3844208D03*
X0036271Y3838813D03*
X0030126Y3831774D03*
X0010087Y3833989D03*
X0009730Y3845365D03*
X0107348Y3920658D03*
D51*
X0171773Y3923807D02*
X0195395Y3923807D01*
X0195395Y3915933D02*
X0171773Y3915933D01*
X0171773Y3908059D02*
X0195395Y3908059D01*
X0195395Y3900185D02*
X0171773Y3900185D01*
X0171773Y3892311D02*
X0195395Y3892311D01*
X0195395Y3884437D02*
X0171773Y3884437D01*
X0171773Y3876563D02*
X0195395Y3876563D01*
X0195395Y3868689D02*
X0171773Y3868689D01*
X0171773Y3860815D02*
X0195395Y3860815D01*
X0195395Y3852941D02*
X0146182Y3852941D01*
X0146148Y3852906D01*
X0140792Y3852906D01*
X0140864Y3852979D01*
X0102966Y3814044D02*
X0103068Y3743825D01*
X0070201Y3824739D02*
X0070220Y3832987D01*
X0069238Y0196968D02*
X0069238Y0173346D01*
X0077112Y0173346D02*
X0077112Y0196968D01*
X0084986Y0196968D02*
X0084986Y0147756D01*
X0085020Y0147721D01*
X0085020Y0142365D01*
X0084948Y0142438D01*
X0061364Y0173346D02*
X0061364Y0196968D01*
X0053490Y0196968D02*
X0053490Y0173346D01*
X0045616Y0173346D02*
X0045616Y0196968D01*
X0037742Y0196968D02*
X0037742Y0173346D01*
X0029868Y0173346D02*
X0029868Y0196968D01*
X0021994Y0196968D02*
X0021994Y0173346D01*
X0014120Y0173346D02*
X0014120Y0196968D01*
X0123882Y0104539D02*
X0194102Y0104641D01*
X0113188Y0071775D02*
X0104940Y0071793D01*
X3745421Y0068513D02*
X3769043Y0068513D01*
X3769043Y0076387D02*
X3745421Y0076387D01*
X3745421Y0084261D02*
X3794634Y0084261D01*
X3794668Y0084295D01*
X3800024Y0084295D01*
X3799952Y0084223D01*
X3769043Y0060639D02*
X3745421Y0060639D01*
X3745421Y0052765D02*
X3769043Y0052765D01*
X3769043Y0044891D02*
X3745421Y0044891D01*
X3745421Y0037017D02*
X3769043Y0037017D01*
X3769043Y0029143D02*
X3745421Y0029143D01*
X3745421Y0021269D02*
X3769043Y0021269D01*
X3769043Y0013395D02*
X3745421Y0013395D01*
X3837851Y0123158D02*
X3837748Y0193377D01*
X3870615Y0112463D02*
X3870596Y0104215D01*
X3870807Y3743438D02*
X3870807Y3767060D01*
X3862933Y3767060D02*
X3862933Y3743438D01*
X3855059Y3743438D02*
X3855059Y3792651D01*
X3855025Y3792685D01*
X3855025Y3798041D01*
X3855097Y3797969D01*
X3878681Y3767060D02*
X3878681Y3743438D01*
X3886555Y3743438D02*
X3886555Y3767060D01*
X3894429Y3767060D02*
X3894429Y3743438D01*
X3902303Y3743438D02*
X3902303Y3767060D01*
X3910177Y3767060D02*
X3910177Y3743438D01*
X3918051Y3743438D02*
X3918051Y3767060D01*
X3925925Y3767060D02*
X3925925Y3743438D01*
X3816162Y3835867D02*
X3745943Y3835765D01*
X3826857Y3868631D02*
X3835105Y3868613D01*
D52*
X3830496Y3896194D02*
X3843589Y3896243D01*
X3898177Y0108824D02*
X3898227Y0095731D01*
X0109549Y0044212D02*
X0096455Y0044163D01*
X0042639Y3828378D02*
X0042590Y3841471D01*
D53*
X0108031Y3861238D02*
X0111524Y3857745D01*
X0119384Y3857745D02*
X0119384Y3851299D01*
X0120684Y3852598D02*
X0127168Y3852598D01*
X0128623Y3852906D02*
X0134099Y3852906D01*
X0140291Y3852703D02*
X0140287Y3847651D01*
X0139290Y3846332D01*
X0090276Y0141860D02*
X0091595Y0140863D01*
X0090276Y0141860D02*
X0085224Y0141864D01*
X0085020Y0135673D02*
X0085020Y0130197D01*
X0085328Y0128742D02*
X0085328Y0122257D01*
X0086628Y0120958D02*
X0080182Y0120958D01*
X0080182Y0113098D02*
X0076688Y0109604D01*
X3800529Y0089551D02*
X3801526Y0090870D01*
X3800529Y0089551D02*
X3800526Y0084499D01*
X3806717Y0084295D02*
X3812193Y0084295D01*
X3813648Y0084603D02*
X3820133Y0084603D01*
X3821432Y0085903D02*
X3821432Y0079457D01*
X3829292Y0079457D02*
X3832785Y0075963D01*
X3849769Y3798546D02*
X3848450Y3799543D01*
X3849769Y3798546D02*
X3854821Y3798542D01*
X3855025Y3804734D02*
X3855025Y3810210D01*
X3854716Y3811665D02*
X3854716Y3818149D01*
X3853417Y3819448D02*
X3859863Y3819448D01*
X3859863Y3827309D02*
X3863356Y3830802D01*
M02*
